<svg width="67" height="67" viewBox="0 0 " fill="none" xmlns="http://www.w3.org/2000/svg">
<path opacity="0.5" d="M33.506 0.452638C27.0148 0.454108 20.6697 2.37922 15.2726 5.98469C9.87555 9.59017 5.66881 14.7142 3.18405 20.7091C0.699284 26.704 0.0480382 33.3007 1.31262 39.6655C2.5772 46.0303 5.70085 51.8775 10.2888 56.4681C14.8767 61.0586 20.7229 64.1866 27.0887 65.4565C33.4544 66.7264 40.0538 66.0813 46.0529 63.6028C52.052 61.1242 57.1814 56.9235 60.7929 51.5314C64.4044 46.1394 66.3359 39.798 66.3432 33.3089C66.3481 28.9953 65.5023 24.723 63.8542 20.7365C62.206 16.7499 59.7879 13.1272 56.7381 10.0756C53.6883 7.02408 50.0667 4.60347 46.0803 2.95227C42.0939 1.30107 37.821 0.45166 33.506 0.452638ZM33.506 50.1225C30.1742 50.1225 26.9172 49.1346 24.1472 47.2836C21.3771 45.4327 19.2186 42.802 17.9445 39.7243C16.6705 36.6467 16.3383 33.2604 16.9899 29.994C17.6416 26.7275 19.2477 23.7277 21.6053 21.3741C23.9628 19.0204 26.9657 17.4187 30.2341 16.7716C33.5024 16.1245 36.8894 16.4611 39.9663 17.7387C43.0433 19.0164 45.672 21.1778 47.5199 23.9493C49.3677 26.7209 50.3517 29.9781 50.3473 33.3089C50.3375 37.7676 48.5588 42.0404 45.4015 45.1897C42.2442 48.339 37.9662 50.1077 33.506 50.1077V50.1225Z" fill="#FF998C"/>
</svg>
