<svg width="235" height="235" viewBox="0 0 " fill="none" xmlns="http://www.w3.org/2000/svg">
<path d="M118.14 0.368408C86.8645 0.368408 56.8704 12.7884 34.7556 34.896C12.6408 57.0036 0.216797 86.988 0.216797 118.253C0.216797 149.519 12.6404 179.505 34.7548 201.614C56.8693 223.724 86.8633 236.147 118.14 236.15C149.418 236.15 179.415 223.729 201.532 201.619C223.649 179.509 236.075 149.521 236.075 118.253C236.071 86.9869 223.645 57.0025 201.528 34.8952C179.411 12.788 149.416 0.368408 118.14 0.368408ZM118.14 223.903C90.119 223.899 63.2466 212.772 43.4308 192.967C23.6149 173.163 12.4777 146.302 12.4679 118.29C12.4712 90.2743 23.6054 63.407 43.422 43.5968C63.2386 23.7867 90.1147 12.656 118.14 12.6527C132.022 12.6446 145.77 15.3709 158.597 20.6761C171.425 25.9812 183.082 33.7611 192.901 43.5713C202.72 53.3814 210.509 65.0295 215.824 77.8501C221.138 90.6707 223.873 104.412 223.873 118.29C223.875 132.169 221.141 145.912 215.827 158.734C210.513 171.556 202.724 183.206 192.905 193.017C183.086 202.828 171.429 210.609 158.6 215.915C145.772 221.221 132.023 223.948 118.14 223.94V223.903Z" fill="#F35645"/>
</svg>
