<svg width="48" height="49" viewBox="0 0 48 49" fill="none" xmlns="http://www.w3.org/2000/svg">
<path opacity="0.5" d="M23.9633 0.624024C19.2469 0.625092 14.6366 2.02385 10.7152 4.64355C6.79375 7.26324 3.73718 10.9863 1.93179 15.3421C0.126391 19.6979 -0.346796 24.491 0.572032 29.1156C1.49086 33.7402 3.76046 37.9887 7.09399 41.3241C10.4275 44.6596 14.6753 46.9323 19.3006 47.855C23.9258 48.7777 28.7209 48.309 33.0797 46.5081C37.4386 44.7072 41.1656 41.655 43.7897 37.7372C46.4137 33.8194 47.8171 29.2119 47.8225 24.497C47.826 21.3628 47.2114 18.2586 46.0139 15.362C44.8164 12.4654 43.0594 9.83321 40.8435 7.61598C38.6275 5.39875 35.9961 3.63997 33.0996 2.44022C30.2032 1.24048 27.0986 0.623314 23.9633 0.624024ZM23.9633 36.7135C21.5425 36.7135 19.176 35.9957 17.1633 34.6508C15.1507 33.306 13.5823 31.3945 12.6566 29.1583C11.7309 26.9222 11.4895 24.4617 11.963 22.0884C12.4364 19.715 13.6035 17.5354 15.3164 15.8253C17.0294 14.1151 19.2113 12.9513 21.586 12.4812C23.9607 12.011 26.4216 12.2555 28.6573 13.1839C30.893 14.1122 32.803 15.6826 34.1456 17.6964C35.4883 19.7102 36.2032 22.0769 36.2 24.497C36.1929 27.7366 34.9005 30.8411 32.6065 33.1294C30.3124 35.4177 27.204 36.7028 23.9633 36.7028V36.7135Z" fill="#FF998C"/>
</svg>
