<svg width="377" height="335" viewBox="0 0 377 335" fill="none" xmlns="http://www.w3.org/2000/svg">
<path d="M19.0644 170.797C16.3013 144.961 24.7708 123.726 47.325 114.708C65.4304 107.469 85.5131 107.601 105.016 107.832C111.693 107.912 118.557 108.03 124.751 110.524C133.876 114.196 140.211 122.44 146.101 130.313C151.99 138.186 157.829 146.02 163.689 153.876C168.165 159.859 172.827 166.028 179.383 169.688C185.938 173.347 194.864 173.702 200.292 168.559C205.72 163.415 204.393 152.348 197.194 150.35C189.631 161.906 197.904 177.199 207.263 187.341C222.951 204.33 242.126 217.729 263.475 226.62C278.101 232.675 294.956 236.494 309.484 230.26C328.311 222.225 336.82 200.3 340.127 180.113C343.551 159.178 343.341 137.085 335.323 117.479C331.307 107.605 324.223 97.7672 313.745 95.6526C303.266 93.5381 291.067 104.283 295.377 114.036" stroke="#FF7F4D" stroke-width="2.12" stroke-linecap="round" stroke-linejoin="round" stroke-dasharray="9.09 9.09"/>
</svg>
