<svg width="284" height="323" viewBox="0 0 " fill="none" xmlns="http://www.w3.org/2000/svg">
<path d="M32.4528 257.469C16.3126 241.994 10.1163 223.32 19.9646 204.882C27.8698 190.081 41.1626 179.035 54.129 168.376C58.5687 164.728 63.1526 161 68.6125 159.208C76.6549 156.568 85.3942 158.483 93.6355 160.401C101.877 162.318 110.063 164.239 118.275 166.162C124.538 167.619 131.027 169.096 137.371 167.871C143.714 166.646 149.787 161.932 150.509 155.537C151.231 149.142 144.222 142.593 138.376 145.268C139.803 157.067 153.727 162.548 165.509 164.037C185.254 166.524 205.303 164.715 224.285 158.734C237.27 154.611 250.481 147.782 256.589 135.625C264.528 119.9 257.976 100.75 248.963 85.6289C239.612 69.9501 227.227 55.5233 211.081 47.0614C202.964 42.7881 192.847 40.2389 184.778 44.6553C176.708 49.0717 174.634 62.907 182.877 66.9387" stroke="#FF7F4D" stroke-width="2.12" stroke-linecap="round" stroke-linejoin="round" stroke-dasharray="9.09 9.09"/>
</svg>
