<svg width="45" height="45" viewBox="0 0 45 45" fill="none" xmlns="http://www.w3.org/2000/svg">
<path opacity="0.5" d="M22.6338 0.884766C18.2839 0.885752 14.0319 2.17623 10.4152 4.59312C6.79853 7.01001 3.9795 10.4448 2.3144 14.4635C0.649308 18.4821 0.212894 22.9041 1.06032 27.1707C1.90774 31.4372 4.00097 35.3568 7.07543 38.4341C10.1499 41.5113 14.0676 43.6081 18.3334 44.4594C22.5992 45.3106 27.0216 44.8782 31.0418 43.2167C35.0619 41.5553 38.4992 38.7394 40.9194 35.1249C43.3395 31.5104 44.6339 27.2595 44.6388 22.9096C44.642 20.018 44.0752 17.1542 42.9708 14.4818C41.8663 11.8094 40.2459 9.38103 38.2022 7.33544C36.1584 5.28986 33.7315 3.66723 31.0601 2.56037C28.3888 1.4535 25.5254 0.884111 22.6338 0.884766ZM22.6338 34.1804C20.4011 34.1804 18.2185 33.5182 16.3622 32.2774C14.506 31.0367 13.0595 29.2732 12.2057 27.2101C11.352 25.147 11.1294 22.8771 11.566 20.6875C12.0027 18.4978 13.079 16.4869 14.6589 14.9092C16.2387 13.3315 18.251 12.2578 20.4412 11.824C22.6314 11.3902 24.9011 11.6158 26.963 12.4723C29.025 13.3288 30.7865 14.7776 32.0248 16.6355C33.2631 18.4934 33.9225 20.6769 33.9196 22.9096C33.913 25.8985 32.721 28.7626 30.6053 30.8738C28.4895 32.9849 25.6227 34.1705 22.6338 34.1705V34.1804Z" fill="#FF998C"/>
</svg>
