<svg width="62" height="62" viewBox="0 0 62 62" fill="none" xmlns="http://www.w3.org/2000/svg">
<path opacity="0.5" d="M31.0132 0.581544C24.9837 0.582909 19.0899 2.37109 14.0767 5.72012C9.06355 9.06915 5.15602 13.8287 2.84799 19.3972C0.539965 24.9657 -0.0649598 31.0932 1.10968 37.0053C2.28431 42.9174 5.18578 48.3487 9.44738 52.6128C13.709 56.8768 19.1394 59.7823 25.0523 60.9619C30.9653 62.1414 37.0953 61.5422 42.6677 59.24C48.2401 56.9377 53.0047 53.0358 56.3593 48.0273C59.714 43.0187 61.5081 37.1284 61.5149 31.1009C61.5194 27.094 60.7337 23.1257 59.2028 19.4226C57.6719 15.7196 55.4258 12.3546 52.5929 9.5201C49.76 6.68558 46.396 4.43714 42.6931 2.90338C38.9903 1.36963 35.0213 0.580636 31.0132 0.581544ZM31.0132 46.7186C27.9184 46.7186 24.8931 45.8009 22.3201 44.0816C19.7471 42.3623 17.742 39.9187 16.5586 37.06C15.3752 34.2012 15.0666 31.0558 15.6719 28.0217C16.2772 24.9876 17.7691 22.2011 19.959 20.0149C22.1488 17.8286 24.9382 16.3408 27.974 15.7398C31.0099 15.1387 34.156 15.4513 37.0141 16.6381C39.8722 17.8249 42.3139 19.8326 44.0303 22.407C45.7468 24.9814 46.6608 28.007 46.6567 31.1009C46.6476 35.2424 44.9954 39.2113 42.0627 42.1366C39.1299 45.0619 35.1562 46.7048 31.0132 46.7048V46.7186Z" fill="#FF998C"/>
</svg>
