<svg width="320" height="380" viewBox="0 0 320 380" fill="none" xmlns="http://www.w3.org/2000/svg">
<path d="M262.167 323.403H253.226V323.66H262.167V323.403Z" fill="#EBEBEB"/>
<path d="M311.645 37.7687L309.742 49.6894C309.603 50.5546 309.654 51.4396 309.891 52.2832C310.128 53.1268 310.545 53.9089 311.113 54.5754C311.681 55.242 312.388 55.7772 313.183 56.144C313.978 56.5108 314.844 56.7004 315.719 56.6998H317.777C318.653 56.7001 319.519 56.5104 320.315 56.1437C321.11 55.777 321.817 55.2421 322.386 54.5758C322.956 53.9094 323.374 53.1275 323.612 52.284C323.85 51.4404 323.902 50.5552 323.765 49.6894L321.862 37.7687H311.645Z" fill="#E6E6E6"/>
<path d="M340.361 52.2939H206.156V59.1911H340.361V52.2939Z" fill="#E0E0E0"/>
<path d="M218.245 26.8672H212.329V52.2939H218.245V26.8672Z" fill="#EBEBEB"/>
<path d="M246.837 26.8672H240.921V52.2939H246.837V26.8672Z" fill="#EBEBEB"/>
<path d="M279.288 26.2157L273.458 27.2212L277.774 52.2784L283.604 51.2729L279.288 26.2157Z" fill="#EBEBEB"/>
<path d="M225.57 30.223H219.654V52.3041H225.57V30.223Z" fill="#EBEBEB"/>
<path d="M239.161 30.223H233.245V52.3041H239.161V30.223Z" fill="#EBEBEB"/>
<path d="M273.464 30.223H267.548V52.3041H273.464V30.223Z" fill="#EBEBEB"/>
<path d="M254.598 29.4344L248.823 30.7186L253.611 52.2738L259.386 50.9896L254.598 29.4344Z" fill="#EBEBEB"/>
<path d="M230.673 25.601H227.72V52.2939H230.673V25.601Z" fill="#EBEBEB"/>
<path d="M265.84 25.601H262.887V52.2939H265.84V25.601Z" fill="#EBEBEB"/>
<path d="M206.145 110.703L340.351 110.703V103.806L206.145 103.806V110.703Z" fill="#E0E0E0"/>
<path d="M299.669 103.806H305.585V78.3794H299.669V103.806Z" fill="#EBEBEB"/>
<path d="M262.913 102.784L268.743 103.789L273.059 78.7322L267.229 77.7267L262.913 102.784Z" fill="#EBEBEB"/>
<path d="M307.345 103.796H313.261V81.7147H307.345V103.796Z" fill="#EBEBEB"/>
<path d="M273.042 103.796H278.958V81.7147H273.042V103.796Z" fill="#EBEBEB"/>
<path d="M287.134 102.495L292.909 103.779L297.697 82.2235L291.922 80.9394L287.134 102.495Z" fill="#EBEBEB"/>
<path d="M315.833 103.796H318.786V77.1028H315.833V103.796Z" fill="#EBEBEB"/>
<path d="M280.656 103.796H283.608V77.1028H280.656V103.796Z" fill="#EBEBEB"/>
<path d="M219.036 103.569H247.845V83.6706H219.036V103.569Z" fill="#EBEBEB"/>
<path d="M193.346 304.06H203.151V297.368H193.346V304.06Z" fill="#E6E6E6"/>
<path d="M143.538 34.6393V48.5674L111.972 166.56H108.248L143.538 34.6393Z" fill="white"/>
<path d="M143.539 62.7528V138.23L135.966 166.56H115.78L143.539 62.7528Z" fill="white"/>
<path d="M320.246 309.618C320.246 309.618 323.209 264.509 312.354 254.524" stroke="#8AC16C" stroke-miterlimit="10"/>
<path d="M318.435 309.618C318.435 309.618 319.752 286.745 313.497 278.571C307.241 270.398 300.646 282.071 300.646 282.071" stroke="#8AC16C" stroke-miterlimit="10"/>
<path d="M320.585 312.686C320.585 312.686 316.542 259.156 323.24 250.128" stroke="#8AC16C" stroke-miterlimit="10"/>
<path d="M319.361 272.858C319.361 272.858 323.652 272.672 323.899 276.378C324.146 280.084 314.639 290.306 314.639 290.306C314.639 290.306 307.828 287.846 309.299 278.612C310.77 269.378 318.302 270.583 319.361 272.858Z" fill="#8AC16C"/>
<path opacity="0.2" d="M319.361 272.858C319.361 272.858 323.652 272.672 323.899 276.378C324.146 280.084 314.639 290.306 314.639 290.306C314.639 290.306 307.828 287.846 309.299 278.612C310.77 269.378 318.302 270.583 319.361 272.858Z" fill="white"/>
<path d="M315.729 255.152C315.729 255.152 318.59 254.843 318.363 253.093C318.137 251.343 307.252 246.865 300.873 254.122C300.873 254.122 304.988 261.195 310.935 261.328C316.882 261.462 315.729 255.152 315.729 255.152Z" fill="#8AC16C"/>
<path opacity="0.2" d="M315.729 255.152C315.729 255.152 318.59 254.843 318.363 253.093C318.137 251.343 307.252 246.865 300.873 254.122C300.873 254.122 304.988 261.195 310.935 261.328C316.882 261.462 315.729 255.152 315.729 255.152Z" fill="white"/>
<path d="M321.059 250.921C321.059 250.921 318.476 252.167 317.746 250.571C317.015 248.975 323.919 239.402 333.179 242.161C333.179 242.161 333.426 250.334 328.426 253.556C323.425 256.778 321.059 250.921 321.059 250.921Z" fill="#8AC16C"/>
<path opacity="0.2" d="M321.059 250.921C321.059 250.921 318.476 252.167 317.746 250.571C317.015 248.975 323.919 239.402 333.179 242.161C333.179 242.161 333.426 250.334 328.426 253.556C323.425 256.778 321.059 250.921 321.059 250.921Z" fill="white"/>
<path d="M307.519 278.118C307.519 278.118 309.494 276.533 307.365 275.75C305.235 274.968 294.782 275.195 294.679 285.551C294.679 285.551 306.85 287.609 308.352 283.626C309.854 279.642 307.519 278.118 307.519 278.118Z" fill="#8AC16C"/>
<path opacity="0.2" d="M307.519 278.118C307.519 278.118 309.494 276.533 307.365 275.75C305.235 274.968 294.782 275.195 294.679 285.551C294.679 285.551 306.85 287.609 308.352 283.626C309.854 279.642 307.519 278.118 307.519 278.118Z" fill="white"/>
<path d="M337.624 338.329H305.266L301.768 302.865H341.122L337.624 338.329Z" fill="#407BFF"/>
<path opacity="0.5" d="M337.624 338.329H305.266L301.768 302.865H341.122L337.624 338.329Z" fill="white"/>
<path d="M342.851 298.954H300.04V306.777H342.851V298.954Z" fill="#407BFF"/>
<path opacity="0.2" d="M342.851 298.954H300.04V306.777H342.851V298.954Z" fill="white"/>
<path d="M355.743 0.77124H112.497C104.212 0.77124 97.4966 7.48699 97.4966 15.7713V195.928C97.4966 204.212 104.212 210.928 112.497 210.928H355.743C364.028 210.928 370.743 204.212 370.743 195.928V15.7712C370.743 7.48697 364.028 0.77124 355.743 0.77124Z" fill="#83BE63"/>
<path opacity="0.3" d="M370.742 10.3963H97.4956V210.917H370.742V10.3963Z" fill="white"/>
<path d="M288.494 41.7113H138.578V175.083H288.494V41.7113Z" fill="white"/>
<path d="M258.154 140.721L252.227 167.661L251.147 167.157L257.372 140.567L258.154 140.721Z" fill="#407BFF"/>
<path opacity="0.6" d="M258.154 140.721L252.227 167.661L251.147 167.157L257.372 140.567L258.154 140.721Z" fill="white"/>
<path d="M264.899 84.9983C271.576 78.3168 271.576 67.484 264.899 60.8026C258.221 54.1211 247.394 54.1211 240.716 60.8026C234.038 67.484 234.038 78.3168 240.716 84.9983C247.394 91.6798 258.221 91.6798 264.899 84.9983Z" fill="#407BFF"/>
<path opacity="0.9" d="M264.899 84.9983C271.576 78.3168 271.576 67.484 264.899 60.8026C258.221 54.1211 247.394 54.1211 240.716 60.8026C234.038 67.484 234.038 78.3168 240.716 84.9983C247.394 91.6798 258.221 91.6798 264.899 84.9983Z" fill="white"/>
<path d="M217.132 66.7881C217.132 66.0482 217.426 65.3386 217.948 64.8154C218.471 64.2923 219.181 63.9983 219.92 63.9983C220.191 63.9991 220.462 64.0372 220.723 64.1116C220.6 63.2737 220.659 62.4191 220.896 61.6061C221.133 60.7931 221.542 60.0407 222.096 59.4C222.649 58.7593 223.334 58.2453 224.104 57.8931C224.873 57.5408 225.71 57.3585 226.556 57.3586C226.922 57.3566 227.288 57.3911 227.647 57.4615C228.214 56.478 229.091 55.7099 230.14 55.2769C231.19 54.8438 232.353 54.7702 233.448 55.0674C234.544 55.3647 235.51 56.0161 236.197 56.9202C236.884 57.8243 237.253 58.9303 237.246 60.0659C237.888 60.036 238.53 60.1368 239.132 60.362C239.734 60.5873 240.284 60.9324 240.749 61.3765C241.214 61.8206 241.584 62.3544 241.837 62.9457C242.09 63.5371 242.221 64.1736 242.221 64.8167C242.221 65.4599 242.09 66.0964 241.837 66.6877C241.584 67.279 241.214 67.8129 240.749 68.257C240.284 68.7011 239.734 69.0462 239.132 69.2715C238.53 69.4967 237.888 69.5974 237.246 69.5675H219.755C219.046 69.528 218.378 69.2178 217.89 68.7008C217.402 68.1838 217.131 67.4992 217.132 66.7881Z" fill="#407BFF"/>
<path d="M253.616 88.2C253.616 87.4601 253.909 86.7505 254.432 86.2273C254.955 85.7042 255.664 85.4102 256.404 85.4102C256.675 85.411 256.945 85.4491 257.206 85.5235C257.084 84.6856 257.143 83.831 257.38 83.018C257.617 82.205 258.026 81.4526 258.579 80.8119C259.133 80.1712 259.818 79.6572 260.588 79.305C261.357 78.9527 262.194 78.7704 263.04 78.7705C263.406 78.7685 263.772 78.803 264.131 78.8734C264.707 77.9101 265.582 77.1617 266.623 76.7423C267.664 76.323 268.814 76.2557 269.896 76.5507C270.979 76.8458 271.936 77.4869 272.621 78.3765C273.305 79.266 273.68 80.3551 273.689 81.4778H273.771C274.413 81.4479 275.055 81.5487 275.657 81.7739C276.259 81.9992 276.809 82.3443 277.274 82.7884C277.739 83.2325 278.109 83.7663 278.362 84.3576C278.615 84.9489 278.746 85.5855 278.746 86.2286C278.746 86.8718 278.615 87.5083 278.362 88.0996C278.109 88.6909 277.739 89.2248 277.274 89.6689C276.809 90.113 276.259 90.4581 275.657 90.6834C275.055 90.9086 274.413 91.0093 273.771 90.9794H256.28C255.564 90.9502 254.886 90.6445 254.389 90.1264C253.892 89.6083 253.615 88.9179 253.616 88.2Z" fill="#407BFF"/>
<path d="M268.371 145.395C268.371 145.395 265.819 140.804 258.895 136.82C254.774 136.672 250.673 137.457 246.898 139.115C246.898 139.115 245.612 141.267 247.073 142.111C248.534 142.955 249.758 141.257 249.758 141.257C249.758 141.257 250.026 143.84 251.94 143.923C252.493 143.928 253.032 143.754 253.479 143.428C253.926 143.101 254.255 142.64 254.419 142.111C254.486 142.797 254.758 143.447 255.198 143.977C255.638 144.508 256.227 144.894 256.888 145.086C257.479 145.22 258.095 145.182 258.664 144.976C259.233 144.769 259.731 144.404 260.098 143.923C260.225 144.488 260.489 145.013 260.868 145.452C261.247 145.89 261.728 146.228 262.269 146.434C262.702 146.551 263.16 146.539 263.587 146.403C264.013 146.266 264.392 146.009 264.677 145.662C264.677 145.662 265.088 147.721 266.601 147.721C267.897 147.773 268.371 145.395 268.371 145.395Z" fill="#407BFF"/>
<path d="M157.829 169.071C157.829 169.071 155.668 135.502 144.577 91.7825L146.83 90.0736C146.83 90.0736 156.553 105.875 166.317 167.085L157.829 169.071Z" fill="#407BFF"/>
<g opacity="0.5">
<path d="M157.829 169.071C157.829 169.071 155.668 135.502 144.577 91.7825L146.83 90.0736C146.83 90.0736 156.553 105.875 166.317 167.085L157.829 169.071Z" fill="#8BC16D"/>
</g>
<path d="M169.753 163.358C169.753 163.358 166.316 115.387 185.33 67.3954L183.035 65.3365C183.035 65.3365 162.221 101.16 160.338 164.007L169.753 163.358Z" fill="#407BFF"/>
<g opacity="0.6">
<path d="M169.753 163.358C169.753 163.358 166.316 115.387 185.33 67.3954L183.035 65.3365C183.035 65.3365 162.221 101.16 160.338 164.007L169.753 163.358Z" fill="#8BC16D"/>
</g>
<path d="M138.579 96.8368V97.9589L138.836 97.5059L138.579 96.8368ZM167.325 98.278C166.296 89.0132 162.418 85.575 156.388 85.0088C155.054 84.8892 153.711 85.1013 152.479 85.6264L153.209 85.1941L151.851 81.4161L153.693 84.9367C154.356 84.6094 155.044 84.334 155.751 84.1132L154.331 78.5955L157.119 83.7426C157.829 83.5857 158.546 83.4689 159.269 83.3926L158.817 81.6014L159.794 83.3514C160.329 83.3514 160.823 83.3514 161.296 83.3514L159.845 79.9955C159.959 80.1705 160.874 81.6734 161.831 83.3617C162.677 83.3876 163.52 83.4805 164.352 83.6396C160.71 76.2896 152.005 73.819 148.374 78.5543C146.182 81.4161 146.316 85.647 146.655 88.1794L146.583 88.2412C146.583 88.097 146.48 87.9529 146.419 87.7985C146.233 84.4014 145.39 73.7984 142.303 72.6145C140.647 71.9763 139.412 73.1087 138.548 74.5396V78.1837L139.031 76.1249L138.733 78.4102C139.175 78.5041 139.601 78.66 139.999 78.8734L140.729 75.8572L140.41 79.1102L140.894 79.4499L141.748 76.5984L141.171 79.6867C142.01 80.4175 142.74 81.2631 143.342 82.1984V78.0808L144.207 83.5882L144.618 84.3705C143.857 83.2597 142.859 82.3315 141.696 81.6529C140.736 81.1168 139.647 80.8535 138.548 80.8911V95.7868L139.278 96.7442C139.536 96.3633 139.793 95.9927 140.06 95.6324L139.453 93.8927L140.307 95.3236C140.492 95.0868 140.688 94.8603 140.883 94.6339L140.122 92.3177L141.202 94.2941C141.744 93.7197 142.352 93.2117 143.013 92.7809L141.871 89.9706L143.486 92.4C141.593 94.3868 140.06 97.8662 143.435 103.312C143.435 103.312 143.486 101.747 143.713 99.678L142.921 98.7001L143.774 99.1118C143.847 98.4736 143.939 97.8045 144.042 97.1148L143.414 96.1368L144.145 96.5177L144.268 95.8383L143.414 93.8927L144.536 94.6133C144.618 94.2942 144.7 93.9853 144.793 93.6765L145.112 95.3956L145.297 94.7883L145.987 92.6265L147.581 94.6339L148.013 92.6265H148.096L149.773 93.8412C149.596 92.5854 149.292 91.3508 148.867 90.1559H149.042C149.422 90.4267 149.786 90.7188 150.133 91.0309L150.616 90.2897V91.5662C150.911 91.8681 151.199 92.177 151.481 92.4927L152.242 90.3618L152.057 93.1927C152.458 93.6971 152.839 94.2221 153.189 94.7471L153.446 92.6882L153.61 95.4059C153.981 96.003 154.331 96.5795 154.639 97.1251L154.804 93.3368L155.205 98.1957C155.946 99.6471 156.358 100.677 156.358 100.677C156.358 100.677 156.985 94.5 154.423 90.5574C154.949 90.6828 155.468 90.8374 155.977 91.0206C156.678 91.2622 157.365 91.544 158.035 91.8647L158.786 89.4044L158.549 92.1221C159.197 92.4412 159.835 92.8015 160.442 93.1515L160.751 91.0103L160.885 93.4191C161.636 93.8824 162.346 94.3662 163.004 94.8294L162.675 91.0103L163.529 95.2206C164.208 95.7148 164.815 96.1883 165.34 96.6206L165.216 93.9544L166.132 97.2795C166.893 97.8662 167.284 98.278 167.284 98.278H167.325ZM139.546 88.2412L139.741 85.6676L139.916 88.1382L139.546 88.2412ZM141.995 88.3647L142.19 84.0617C142.19 84.0617 142.334 86.2441 142.519 88.55L141.995 88.3647ZM150.925 86.4191C150.925 86.2544 150.812 86.0897 150.761 85.9147L150.452 85.0397C150.112 84.0102 149.773 83.0632 149.505 82.3117L149.382 81.9617C149.354 81.8601 149.319 81.7604 149.279 81.6632C149.279 81.5602 149.217 81.4778 149.186 81.3955L149.022 80.9323L151.522 86.0794C151.316 86.1926 151.121 86.3161 150.925 86.4191ZM152.407 88.3235C152.322 88.2526 152.232 88.1872 152.139 88.1279L152.571 87.1705L152.407 88.3235ZM154.104 89.9706C153.866 89.6564 153.605 89.3604 153.322 89.0853L154.351 87.6235L154.104 89.9706Z" fill="#407BFF"/>
<path d="M190.474 54.8158C189.151 55.585 188.016 56.6401 187.151 57.904C187.306 57.6055 187.45 57.2967 187.604 57.0187L188.633 50.7393V55.3923C189.325 54.3324 190.159 53.3729 191.112 52.5408L190.454 49.051L191.431 52.2937C191.617 52.1496 191.802 52.026 191.977 51.9128L191.617 48.1966L192.44 51.6452C192.89 51.3956 193.376 51.2151 193.88 51.1099L193.551 48.5054L194.148 51.0584C194.382 51.0229 194.62 51.0057 194.857 51.0069L194.353 49.051L195.29 51.0378C195.476 51.0614 195.659 51.1063 195.835 51.1716C195.835 51.1716 194.003 42.9363 189.816 44.5113C186.308 45.8598 185.351 57.8937 185.124 61.8055L184.939 62.31L184.857 62.2379C185.248 59.3555 185.402 54.5378 182.902 51.2746C178.787 45.8701 168.858 48.6907 164.701 57.0599C165.652 56.8791 166.615 56.7758 167.582 56.7511C168.693 54.8261 169.712 53.1172 169.835 52.9113L168.179 56.7408C168.714 56.7408 169.29 56.7408 169.897 56.8026L171.008 54.8055L170.494 56.8643C171.317 56.9536 172.134 57.0877 172.943 57.2658L176.122 51.4084L174.506 57.6879C175.308 57.9519 176.092 58.2682 176.852 58.6349L178.91 54.6202L177.408 58.9335L178.241 59.4173C176.84 58.8219 175.313 58.5814 173.797 58.7173C166.913 59.3555 162.479 63.2673 161.327 73.8395C161.327 73.8395 161.821 73.366 162.685 72.6248L163.714 68.8365L163.57 71.8733C164.166 71.3895 164.856 70.8439 165.627 70.2777L166.656 65.4806L166.276 69.835C167.027 69.2997 167.839 68.7541 168.693 68.2291L168.837 65.4806L169.187 67.9306C169.887 67.5085 170.607 67.1071 171.348 66.7365L171.08 63.6482L171.934 66.4585C172.689 66.0975 173.462 65.7745 174.249 65.4909C174.867 65.2747 175.453 65.11 176.019 64.9659C173.107 69.5056 173.827 76.4954 173.827 76.4954C173.827 76.4954 174.28 75.3218 175.134 73.6645L175.597 68.1262L175.782 72.4498C176.122 71.8218 176.513 71.163 176.935 70.4939L177.13 67.4056L177.408 69.7733C177.819 69.1762 178.252 68.5791 178.704 68.0027L178.498 64.7806L179.363 67.21C179.682 66.8394 180.011 66.4791 180.392 66.1806V64.8218L180.947 65.6556C181.335 65.2894 181.744 64.9457 182.172 64.6262H182.388C181.907 65.9605 181.562 67.3401 181.359 68.7438C181.356 68.7781 181.356 68.8125 181.359 68.8468L183.416 67.3953L183.9 69.6806L185.238 68.0027L185.711 67.4056L186.74 70.5762L187.1 68.6203C187.203 68.96 187.295 69.3203 187.388 69.6497L188.674 68.8262L187.697 71.0498C187.697 71.3071 187.789 71.5645 187.841 71.8218L188.674 71.3895L187.954 72.5012C188.077 73.2836 188.18 74.0454 188.262 74.7763L189.23 74.3027L188.334 75.4248C188.581 77.7719 188.643 79.5425 188.643 79.5425C192.481 73.366 190.701 69.3718 188.581 67.1174L190.413 64.3791L189.127 67.5497C189.875 68.0436 190.565 68.6202 191.184 69.2688L192.409 67.0247L191.555 69.6703C191.781 69.9174 191.997 70.1747 192.213 70.4424L193.18 68.8159L192.481 70.8027C192.8 71.2042 193.088 71.6365 193.376 72.0689L195.115 69.8041L193.921 72.8924C194.846 74.4842 195.651 76.1427 196.329 77.8542L197.615 74.2924L196.72 78.8733C197.152 80.0263 197.491 81.066 197.749 81.869L198.603 78.7807L197.975 82.6616C198.14 83.2587 198.222 83.6087 198.222 83.6087C201.308 73.6233 198.891 67.0041 195.783 64.0497L196.812 57.6364L197.399 64.2762C198.212 64.4311 199.016 64.6339 199.806 64.8835L200.146 62.8247L200.372 65.11C200.959 65.3056 201.483 65.5218 201.977 65.7379V61.5379C201.977 61.5379 202.245 63.5967 202.523 65.985C203.397 66.3919 204.237 66.8705 205.033 67.4159C204.385 58.0276 196.411 51.501 190.474 54.8158ZM176.369 64.3688L176.111 61.7026L177.254 63.3703C176.934 63.6808 176.639 64.0146 176.369 64.3688ZM178.303 62.4953L178.118 61.1776L178.601 62.2688L178.303 62.4953ZM179.99 60.3232C179.774 60.1893 179.548 60.0452 179.311 59.9217L182.172 54.0437C182.172 54.0437 180.988 57.3687 179.99 60.3232ZM189.621 62.732C189.826 60.0967 189.991 57.5849 189.991 57.5849L190.207 62.485L189.621 62.732ZM192.573 62.2688L192.789 59.4482L192.995 62.3717C192.857 62.3277 192.716 62.2933 192.573 62.2688Z" fill="#407BFF"/>
<g opacity="0.7">
<path opacity="0.7" d="M151.522 86.0794L149.012 80.9323C149.012 80.9323 150.041 83.8661 150.925 86.4603C151.121 86.3161 151.316 86.1926 151.522 86.0794Z" fill="white"/>
<path opacity="0.7" d="M142.149 84.0617L141.953 88.3544L142.478 88.55C142.293 86.2338 142.149 84.0617 142.149 84.0617Z" fill="white"/>
<path opacity="0.7" d="M153.321 89.1058C153.606 89.3786 153.868 89.6748 154.103 89.9911L154.33 87.644L153.321 89.1058Z" fill="white"/>
<path opacity="0.7" d="M152.406 88.3338L152.571 87.1808L152.139 88.1382L152.406 88.3338Z" fill="white"/>
<path opacity="0.7" d="M182.182 54.0335L179.321 59.9115C179.548 60.0453 179.774 60.1791 179.99 60.3233C180.988 57.3688 182.182 54.0335 182.182 54.0335Z" fill="white"/>
<path opacity="0.7" d="M139.7 85.6573L139.504 88.2309L139.875 88.1382L139.7 85.6573Z" fill="white"/>
<path opacity="0.7" d="M189.621 62.7424C189.812 62.6597 190.008 62.5875 190.207 62.5262L189.991 57.6262C189.991 57.6262 189.826 60.0968 189.621 62.7424Z" fill="white"/>
<path opacity="0.7" d="M192.573 62.2586L192.995 62.3718L192.789 59.438L192.573 62.2586Z" fill="white"/>
<path opacity="0.7" d="M178.601 62.2688L178.117 61.1776L178.302 62.485L178.601 62.2688Z" fill="white"/>
<path opacity="0.7" d="M176.111 61.713L176.369 64.3792C176.638 64.0145 176.933 63.6704 177.253 63.3498L176.111 61.713Z" fill="white"/>
<path d="M138.578 96.8368V97.9589L138.835 97.5059L138.578 96.8368ZM167.325 98.278C166.296 89.0132 162.417 85.5749 156.388 85.0087C155.054 84.8891 153.711 85.1013 152.478 85.6264L153.209 85.194L151.851 81.4161L153.692 84.9367C154.356 84.6093 155.044 84.334 155.75 84.1131L154.33 78.5954L157.118 83.7425C157.828 83.5857 158.546 83.4689 159.269 83.3925L158.816 81.6014L159.793 83.3514C160.328 83.3514 160.822 83.3514 161.296 83.3514L159.845 79.9955C159.958 80.1705 160.874 81.6734 161.831 83.3617C162.677 83.3876 163.52 83.4805 164.351 83.6396C160.709 76.2895 152.005 73.8189 148.373 78.5543C146.182 81.4161 146.315 85.647 146.655 88.1794L146.583 88.2411C146.583 88.097 146.48 87.9529 146.418 87.7985C146.233 84.4014 145.389 73.7983 142.303 72.6145C140.646 71.9763 139.412 73.1086 138.547 74.5395V78.1837L139.031 76.1248L138.733 78.4101C139.174 78.5041 139.6 78.66 139.998 78.8734L140.729 75.8572L140.41 79.1101L140.893 79.4499L141.747 76.5984L141.171 79.6866C142.009 80.4175 142.74 81.2631 143.342 82.1984V78.0807L144.206 83.5881L144.618 84.3705C143.856 83.2596 142.859 82.3315 141.696 81.6528C140.735 81.1168 139.647 80.8534 138.547 80.8911V95.7868L139.278 96.7441C139.535 96.3633 139.792 95.9927 140.06 95.6324L139.453 93.8926L140.307 95.3235C140.492 95.0868 140.687 94.8603 140.883 94.6338L140.122 92.3176L141.202 94.2941C141.743 93.7197 142.351 93.2117 143.013 92.7809L141.871 89.9706L143.486 92.4C141.593 94.3868 140.06 97.8662 143.434 103.312C143.434 103.312 143.486 101.747 143.712 99.678L142.92 98.7L143.774 99.1118C143.846 98.4736 143.939 97.8045 144.042 97.1147L143.414 96.1368L144.144 96.5177L144.268 95.8383L143.414 93.8926L144.535 94.6133C144.618 94.2941 144.7 93.9853 144.793 93.6765L145.112 95.3956L145.297 94.7883L145.986 92.6265L147.581 94.6338L148.013 92.6265H148.095L149.772 93.8412C149.595 92.5854 149.292 91.3507 148.867 90.1559H149.042C149.422 90.4267 149.786 90.7188 150.132 91.0309L150.616 90.2897V91.5662C150.911 91.8681 151.199 92.1769 151.48 92.4926L152.242 90.3617L152.056 93.1926C152.458 93.6971 152.838 94.2221 153.188 94.7471L153.445 92.6882L153.61 95.4059C153.98 96.003 154.33 96.5794 154.639 97.125L154.803 93.3368L155.205 98.1956C155.946 99.6471 156.357 100.677 156.357 100.677C156.357 100.677 156.985 94.5 154.423 90.5573C154.949 90.6828 155.468 90.8374 155.976 91.0206C156.678 91.2622 157.365 91.544 158.034 91.8647L158.785 89.4044L158.549 92.122C159.197 92.4412 159.835 92.8015 160.442 93.1515L160.75 91.0103L160.884 93.4191C161.635 93.8824 162.345 94.3662 163.004 94.8294L162.674 91.0103L163.528 95.2206C164.207 95.7147 164.814 96.1883 165.339 96.6206L165.216 93.9544L166.131 97.2794C166.893 97.8662 167.284 98.278 167.284 98.278H167.325ZM139.545 88.2411L139.741 85.6676L139.916 88.1382L139.545 88.2411ZM141.994 88.3647L142.19 84.0617C142.19 84.0617 142.334 86.2441 142.519 88.55L141.994 88.3647ZM150.925 86.419C150.925 86.2543 150.811 86.0896 150.76 85.9146L150.451 85.0396C150.112 84.0102 149.772 83.0631 149.505 82.3117L149.381 81.9617C149.353 81.8601 149.319 81.7604 149.278 81.6631C149.278 81.5602 149.217 81.4778 149.186 81.3955L149.021 80.9322L151.521 86.0793C151.316 86.1926 151.12 86.3161 150.925 86.419ZM152.406 88.3235C152.321 88.2526 152.232 88.1872 152.139 88.1279L152.571 87.1705L152.406 88.3235ZM154.104 89.9706C153.866 89.6563 153.604 89.3604 153.322 89.0852L154.351 87.6235L154.104 89.9706Z" fill="url(#paint0_linear)"/>
<path d="M190.474 54.8158C189.15 55.5851 188.015 56.6401 187.151 57.9041C187.305 57.6055 187.449 57.2967 187.603 57.0188L188.632 50.7393V55.3923C189.324 54.3325 190.159 53.3729 191.112 52.5408L190.453 49.051L191.431 52.2937C191.616 52.1496 191.801 52.0261 191.976 51.9128L191.616 48.1966L192.439 51.6452C192.89 51.3956 193.375 51.2152 193.88 51.1099L193.55 48.5055L194.147 51.0584C194.382 51.0229 194.619 51.0057 194.857 51.007L194.353 49.051L195.289 51.0378C195.475 51.0615 195.658 51.1064 195.834 51.1717C195.834 51.1717 194.003 42.9363 189.816 44.5113C186.307 45.8598 185.35 57.8938 185.124 61.8056L184.939 62.31L184.856 62.2379C185.247 59.3555 185.402 54.5379 182.902 51.2746C178.786 45.8701 168.857 48.6907 164.701 57.0599C165.651 56.8791 166.615 56.7758 167.582 56.7511C168.693 54.8261 169.711 53.1173 169.835 52.9114L168.178 56.7408C168.713 56.7408 169.29 56.7408 169.897 56.8026L171.008 54.8055L170.493 56.8643C171.316 56.9537 172.134 57.0877 172.942 57.2658L176.121 51.4084L174.506 57.6879C175.308 57.9519 176.091 58.2683 176.852 58.635L178.91 54.6202L177.407 58.9335L178.241 59.4173C176.839 58.8219 175.313 58.5815 173.796 58.7173C166.913 59.3556 162.479 63.2674 161.326 73.8395C161.326 73.8395 161.82 73.366 162.684 72.6248L163.713 68.8365L163.569 71.8733C164.166 71.3895 164.855 70.8439 165.627 70.2777L166.656 65.4806L166.275 69.8351C167.026 69.2998 167.839 68.7542 168.693 68.2292L168.837 65.4806L169.187 67.9306C169.886 67.5086 170.607 67.1071 171.347 66.7365L171.08 63.6482L171.934 66.4586C172.689 66.0975 173.461 65.7745 174.249 65.4909C174.866 65.2747 175.453 65.11 176.018 64.9659C173.107 69.5056 173.827 76.4954 173.827 76.4954C173.827 76.4954 174.28 75.3219 175.134 73.6645L175.597 68.1262L175.782 72.4498C176.121 71.8218 176.512 71.163 176.934 70.4939L177.13 67.4056L177.407 69.7733C177.819 69.1762 178.251 68.5792 178.704 68.0027L178.498 64.7806L179.362 67.21C179.681 66.8394 180.01 66.4791 180.391 66.1806V64.8218L180.947 65.6556C181.335 65.2894 181.744 64.9457 182.171 64.6262H182.387C181.906 65.9605 181.561 67.3401 181.358 68.7439C181.356 68.7781 181.356 68.8125 181.358 68.8468L183.416 67.3953L183.9 69.6807L185.237 68.0027L185.71 67.4056L186.739 70.5762L187.099 68.6203C187.202 68.9601 187.295 69.3204 187.387 69.6498L188.673 68.8262L187.696 71.0498C187.696 71.3071 187.789 71.5645 187.84 71.8219L188.673 71.3895L187.953 72.5013C188.077 73.2836 188.18 74.0454 188.262 74.7763L189.229 74.3027L188.334 75.4248C188.581 77.7719 188.643 79.5425 188.643 79.5425C192.48 73.366 190.7 69.3718 188.581 67.1174L190.412 64.3791L189.126 67.5497C189.875 68.0436 190.565 68.6203 191.184 69.2689L192.408 67.0247L191.554 69.6703C191.781 69.9174 191.997 70.1748 192.213 70.4424L193.18 68.8159L192.48 70.8027C192.799 71.2042 193.087 71.6365 193.375 72.0689L195.114 69.8042L193.921 72.8924C194.845 74.4842 195.65 76.1428 196.328 77.8542L197.614 74.2925L196.719 78.8734C197.151 80.0263 197.491 81.066 197.748 81.869L198.602 78.7807L197.974 82.6617C198.139 83.2587 198.221 83.6087 198.221 83.6087C201.308 73.6233 198.89 67.0042 195.783 64.0497L196.812 57.6364L197.398 64.2762C198.212 64.4311 199.016 64.6339 199.806 64.8835L200.145 62.8247L200.372 65.11C200.958 65.3056 201.483 65.5218 201.977 65.738V61.5379C201.977 61.5379 202.244 63.5968 202.522 65.985C203.397 66.3919 204.237 66.8705 205.032 67.4159C204.384 58.0276 196.411 51.5011 190.474 54.8158ZM176.368 64.3688L176.111 61.7026L177.253 63.3703C176.934 63.6808 176.638 64.0146 176.368 64.3688ZM178.302 62.4953L178.117 61.1776L178.601 62.2688L178.302 62.4953ZM179.99 60.3232C179.774 60.1894 179.547 60.0453 179.311 59.9217L182.171 54.0437C182.171 54.0437 180.988 57.3688 179.99 60.3232ZM189.62 62.7321C189.826 60.0967 189.99 57.585 189.99 57.585L190.206 62.485L189.62 62.7321ZM192.573 62.2688L192.789 59.4482L192.995 62.3718C192.857 62.3278 192.716 62.2934 192.573 62.2688Z" fill="url(#paint1_linear)"/>
</g>
<path d="M288.494 161.567V175.104H141.768L142.94 173.045C144.75 172.934 146.519 172.462 148.143 171.655C149.767 170.849 151.213 169.725 152.396 168.351C153.363 167.249 154.289 166.127 155.307 165.067C155.362 165.015 155.411 164.956 155.452 164.892C155.782 164.678 156.126 164.486 156.48 164.315L156.985 164.13L157.375 163.976L158.199 163.657C158.95 163.358 159.67 163.039 160.369 162.699C162.094 161.882 163.658 160.763 164.989 159.395C166.018 158.293 166.862 157.017 167.952 155.946C167.952 155.946 168.199 155.874 168.292 155.792L169.125 155.679H169.465H170.494C171.121 155.679 171.749 155.761 172.376 155.812C174.835 159.405 177.932 164.315 179.311 164.964C181.42 165.993 200.969 171.141 202.399 170.821C203.829 170.502 211.391 171.13 213.284 171.058C215.177 170.986 218.603 170.142 223.573 167.857C228.542 165.571 231.258 165.561 237.236 163.657C243.214 161.752 247.226 161.021 250.725 163.955C251.026 164.212 251.376 164.404 251.753 164.521C252.114 164.635 252.487 164.704 252.865 164.727C257.176 165.005 264.316 160.558 266.816 159.817C269.82 158.932 275.551 153.857 279.461 156.224C282.517 158.057 285.161 159.148 288.494 161.567Z" fill="#407BFF"/>
<path opacity="0.7" d="M288.494 161.567V175.104H141.768L142.94 173.045C144.75 172.934 146.519 172.462 148.143 171.655C149.767 170.849 151.213 169.725 152.396 168.351C153.363 167.249 154.289 166.127 155.307 165.067C155.362 165.015 155.411 164.956 155.452 164.892C155.782 164.678 156.126 164.486 156.48 164.315L156.985 164.13L157.375 163.976L158.199 163.657C158.95 163.358 159.67 163.039 160.369 162.699C162.094 161.882 163.658 160.763 164.989 159.395C166.018 158.293 166.862 157.017 167.952 155.946C167.952 155.946 168.199 155.874 168.292 155.792L169.125 155.679H169.465H170.494C171.121 155.679 171.749 155.761 172.376 155.812C174.835 159.405 177.932 164.315 179.311 164.964C181.42 165.993 200.969 171.141 202.399 170.821C203.829 170.502 211.391 171.13 213.284 171.058C215.177 170.986 218.603 170.142 223.573 167.857C228.542 165.571 231.258 165.561 237.236 163.657C243.214 161.752 247.226 161.021 250.725 163.955C251.026 164.212 251.376 164.404 251.753 164.521C252.114 164.635 252.487 164.704 252.865 164.727C257.176 165.005 264.316 160.558 266.816 159.817C269.82 158.932 275.551 153.857 279.461 156.224C282.517 158.057 285.161 159.148 288.494 161.567Z" fill="white"/>
<path opacity="0.8" d="M217.132 66.7881C217.132 66.0482 217.426 65.3386 217.948 64.8154C218.471 64.2923 219.181 63.9983 219.92 63.9983C220.191 63.9991 220.462 64.0372 220.723 64.1116C220.6 63.2737 220.659 62.4191 220.896 61.6061C221.133 60.7931 221.542 60.0407 222.096 59.4C222.649 58.7593 223.334 58.2453 224.104 57.8931C224.873 57.5408 225.71 57.3585 226.556 57.3586C226.922 57.3566 227.288 57.3911 227.647 57.4615C228.214 56.478 229.091 55.7099 230.14 55.2769C231.19 54.8438 232.353 54.7702 233.448 55.0674C234.544 55.3647 235.51 56.0161 236.197 56.9202C236.884 57.8243 237.253 58.9303 237.246 60.0659C237.888 60.036 238.53 60.1368 239.132 60.362C239.734 60.5873 240.284 60.9324 240.749 61.3765C241.214 61.8206 241.584 62.3544 241.837 62.9457C242.09 63.5371 242.221 64.1736 242.221 64.8167C242.221 65.4599 242.09 66.0964 241.837 66.6877C241.584 67.279 241.214 67.8129 240.749 68.257C240.284 68.7011 239.734 69.0462 239.132 69.2715C238.53 69.4967 237.888 69.5974 237.246 69.5675H219.755C219.046 69.528 218.378 69.2178 217.89 68.7008C217.402 68.1838 217.131 67.4992 217.132 66.7881Z" fill="white"/>
<path opacity="0.8" d="M253.616 88.2C253.616 87.4601 253.909 86.7505 254.432 86.2273C254.955 85.7042 255.664 85.4102 256.404 85.4102C256.675 85.411 256.945 85.4491 257.206 85.5235C257.084 84.6856 257.143 83.831 257.38 83.018C257.617 82.205 258.026 81.4526 258.579 80.8119C259.133 80.1712 259.818 79.6572 260.588 79.305C261.357 78.9527 262.194 78.7704 263.04 78.7705C263.406 78.7685 263.772 78.803 264.131 78.8734C264.707 77.9101 265.582 77.1617 266.623 76.7423C267.664 76.323 268.814 76.2557 269.896 76.5507C270.979 76.8458 271.936 77.4869 272.621 78.3765C273.305 79.266 273.68 80.3551 273.689 81.4778H273.771C274.413 81.4479 275.055 81.5487 275.657 81.7739C276.259 81.9992 276.809 82.3443 277.274 82.7884C277.739 83.2325 278.109 83.7663 278.362 84.3576C278.615 84.9489 278.746 85.5855 278.746 86.2286C278.746 86.8718 278.615 87.5083 278.362 88.0996C278.109 88.6909 277.739 89.2248 277.274 89.6689C276.809 90.113 276.259 90.4581 275.657 90.6834C275.055 90.9086 274.413 91.0093 273.771 90.9794H256.28C255.564 90.9502 254.886 90.6445 254.389 90.1264C253.892 89.6083 253.615 88.9179 253.616 88.2Z" fill="white"/>
<path opacity="0.7" d="M268.371 145.395C268.371 145.395 265.819 140.804 258.895 136.82C254.774 136.672 250.673 137.457 246.898 139.115C246.898 139.115 245.612 141.267 247.073 142.111C248.534 142.955 249.758 141.257 249.758 141.257C249.758 141.257 250.026 143.84 251.94 143.923C252.493 143.928 253.032 143.754 253.479 143.428C253.926 143.101 254.255 142.64 254.419 142.111C254.486 142.797 254.758 143.447 255.198 143.977C255.638 144.508 256.227 144.894 256.888 145.086C257.479 145.22 258.095 145.182 258.664 144.976C259.233 144.769 259.731 144.404 260.098 143.923C260.225 144.488 260.489 145.013 260.868 145.452C261.247 145.89 261.728 146.228 262.269 146.434C262.702 146.551 263.16 146.539 263.587 146.403C264.013 146.266 264.392 146.009 264.677 145.662C264.677 145.662 265.088 147.721 266.601 147.721C267.897 147.773 268.371 145.395 268.371 145.395Z" fill="white"/>
<path d="M221.042 96.806C221.042 96.806 221.237 107.934 231.207 108.881" stroke="#263238" stroke-width="0.5" stroke-linecap="round" stroke-linejoin="round"/>
<path d="M234.674 121.769C232.271 122.988 229.769 124 227.194 124.796L226.567 119.855L226.083 116.005C226.083 116.005 235.343 115.521 237.216 110.93C239.088 106.338 231.845 102.355 226.989 100.327C224.725 99.3692 222.997 98.8339 222.997 98.8339V92.9765C222.997 92.9765 224.252 93.4295 226.155 94.2221C231.567 96.4663 242.226 101.428 244.335 106.472C246.588 111.866 242.977 117.528 234.674 121.769Z" fill="#EBB376"/>
<path opacity="0.2" d="M226.958 100.316C224.694 99.359 222.966 98.8237 222.966 98.8237V92.9663C222.966 92.9663 224.221 93.4193 226.124 94.2119C226.709 96.193 226.99 98.2511 226.958 100.316Z" fill="black"/>
<path opacity="0.2" d="M234.674 121.769C232.271 122.988 229.769 124 227.195 124.796L226.567 119.855C228.573 119.824 232.102 120.061 234.674 121.769Z" fill="black"/>
<path d="M195.455 77.0514C199.633 73.3023 204.782 70.8052 210.311 69.8455C219.88 68.0131 226.722 77.0514 226.053 85.1324C225.384 93.2133 221.32 98.3605 220.806 100.903C220.291 103.446 223.059 110.405 226.053 112.927C226.053 112.927 200.331 119.258 194.251 116.015C188.17 112.772 192.029 105.988 190.135 97.681C188.242 89.3736 188.129 79.3985 195.455 77.0514Z" fill="#263238"/>
<path d="M235.096 175.093L232.113 169.102L200.382 167.043C199.652 169.885 199.024 172.54 198.489 175.063L235.096 175.093Z" fill="#263238"/>
<path d="M200.403 169.195L199.343 173.807L232.452 172.191L231.906 166.817L200.403 169.195Z" fill="black"/>
<path d="M211.186 175.083L211 167.558L209.447 167.589L209.622 175.083H211.186Z" fill="#263238"/>
<path d="M224.628 167.708L217.748 168.133L218.069 173.322L224.949 172.896L224.628 167.708Z" fill="white"/>
<path d="M230.247 166L228.684 166.037L228.87 173.94L230.433 173.903L230.247 166Z" fill="#263238"/>
<path d="M232.246 169.164L199.919 169.288C200.258 166.017 200.178 162.717 199.682 159.467C198.908 154.624 197.707 149.86 196.092 145.23C192.048 132.877 187.604 122.83 196.956 119.422C205.804 116.19 226.042 116.005 226.042 116.005C226.042 116.005 229.756 125.547 230.867 132.125C233.635 148.246 232.246 169.164 232.246 169.164Z" fill="#EBB376"/>
<path d="M213.933 114.121C213.895 116.091 214.159 118.056 214.715 119.947L202.646 118.331C204.498 116.416 204.519 112.155 204.128 108.655C203.942 106.956 203.665 105.412 203.438 104.341C203.253 103.435 203.109 102.869 203.109 102.869L207.842 103.899L215.579 105.515C214.5 108.256 213.941 111.175 213.933 114.121Z" fill="#EBB376"/>
<path opacity="0.2" d="M215.578 105.474C214.494 108.228 213.936 111.161 213.932 114.121C210.113 113.53 206.634 111.586 204.127 108.644C203.942 106.946 203.664 105.402 203.438 104.331C204.991 104.135 206.452 103.981 207.841 103.857L215.578 105.474Z" fill="black"/>
<path d="M208.181 77.1544C217.781 76.1249 221.444 80.8706 223.254 90.6912C225.528 102.962 223.769 112.052 211.474 110.755C194.775 109.066 192.244 78.9867 208.181 77.1544Z" fill="#EBB376"/>
<path d="M216.989 90.8868C217.918 92.2376 219.006 93.4715 220.23 94.5619C219.995 94.9912 219.645 95.3468 219.22 95.5886C218.795 95.8304 218.311 95.949 217.822 95.931L216.989 90.8868Z" fill="#D58745"/>
<path d="M211.031 90.7633C211.134 91.556 210.794 92.2457 210.269 92.3177C209.745 92.3898 209.24 91.8133 209.127 91.0207C209.014 90.228 209.364 89.5383 209.889 89.4663C210.413 89.3942 210.918 89.981 211.031 90.7633Z" fill="#263238"/>
<path d="M209.673 89.5074L211.289 88.6015C211.289 88.6015 210.64 90.1868 209.673 89.5074Z" fill="#263238"/>
<path d="M220.785 89.2706C220.887 90.053 220.548 90.753 220.023 90.825C219.499 90.8971 218.994 90.3206 218.881 89.528C218.768 88.7353 219.118 88.0456 219.643 87.9735C220.167 87.9015 220.671 88.4779 220.785 89.2706Z" fill="#263238"/>
<path d="M219.427 88.0456L221.043 87.1397C221.043 87.1397 220.394 88.6941 219.427 88.0456Z" fill="#263238"/>
<path d="M210.187 84.1441C210.187 84.1441 207.451 84.1441 206.185 86.0691" stroke="#263238" stroke-width="0.72" stroke-linecap="round" stroke-linejoin="round"/>
<path d="M217.122 82.9602C217.758 82.719 218.44 82.6251 219.117 82.6857C219.794 82.7464 220.449 82.9599 221.032 83.3102" stroke="#263238" stroke-width="0.72" stroke-linecap="round" stroke-linejoin="round"/>
<path d="M199.508 94.5618C199.508 94.5618 203.109 86.172 201.741 80.1499C201.741 80.1499 219.89 70.2366 222.997 89.4147C222.997 89.4147 222.935 72.0484 206.391 73.5204C189.847 74.9925 192.625 99.1428 201.957 105.371C201.957 105.412 197.286 99.8016 199.508 94.5618Z" fill="#263238"/>
<path d="M201.298 96.4148C201.082 95.3144 200.438 94.3446 199.509 93.7176C198.579 93.0907 197.44 92.8575 196.339 93.0692C193.396 93.728 192.666 99.9972 200.228 100.635C201.319 100.728 201.802 99.6266 201.298 96.4148Z" fill="#EBB376"/>
<path d="M215.446 100.831C214.521 100.699 213.645 100.336 212.897 99.7767C212.15 99.2173 211.554 98.479 211.166 97.6295" stroke="#263238" stroke-width="0.5" stroke-linecap="round" stroke-linejoin="round"/>
<path d="M193.17 136.192C193.17 136.192 219.386 129.727 230.364 129.459C233.761 142.417 234.402 155.943 232.247 169.164L199.92 169.288C199.92 169.288 199.591 156.749 193.17 136.192Z" fill="#454545"/>
<path d="M201.74 80.15C201.74 80.15 219.231 74.1484 224.108 87.675" stroke="#263238" stroke-width="0.5" stroke-linecap="round" stroke-linejoin="round"/>
<path d="M195.392 77.8646C197.141 75.6102 202.378 68.1881 212.883 68.394C223.388 68.5999 224.067 77.8646 224.067 77.8646" stroke="#263238" stroke-width="0.5" stroke-linecap="round" stroke-linejoin="round"/>
<path d="M190.711 92.9663C190.716 97.4222 190.135 101.859 188.983 106.163C187.048 113.596 189.384 116.756 192.748 117.364" stroke="#263238" stroke-width="0.5" stroke-linecap="round" stroke-linejoin="round"/>
<path d="M201.493 118.197C201.493 118.197 206.102 127.133 220.229 134.668C220.229 134.668 219.107 121.286 214.827 116.499" stroke="#263238" stroke-width="0.5" stroke-linecap="round" stroke-linejoin="round"/>
<path d="M220.229 134.534C220.229 134.534 223.377 137.993 221.402 138.436C219.427 138.878 220.229 134.534 220.229 134.534Z" fill="#263238"/>
<path opacity="0.2" d="M198.325 131.714C198.325 131.714 203.027 141.339 195.619 146.959L192.532 134.946C192.532 134.946 195.557 130.612 198.325 131.714Z" fill="black"/>
<path d="M180.33 175.094H187.789C189.435 172.005 195.073 161.124 195.392 157.779C195.763 153.857 198.397 131.106 198.397 131.106L196.997 119.422C196.997 119.422 191.627 121.337 189.795 125.774C186.709 133.175 187.151 150.295 187.151 154.598C187.151 158.283 181.76 171.604 180.33 175.094Z" fill="#EBB376"/>
<path d="M178.499 174.517C178.499 174.517 178.694 173.971 179.034 173.076" stroke="#407BFF" stroke-width="0.5" stroke-linecap="round" stroke-linejoin="round"/>
<path d="M179.754 171.069C181.74 165.623 185.361 155.565 185.33 154.968C185.279 154.155 184.425 137.726 185.33 132.712C185.963 128.461 187.826 124.488 190.691 121.286" stroke="#407BFF" stroke-width="0.5" stroke-linecap="round" stroke-linejoin="round" stroke-dasharray="3.1 2.07"/>
<path d="M191.421 120.503C191.77 120.143 192.131 119.783 192.522 119.422C192.02 119.31 191.528 119.158 191.05 118.969" stroke="#407BFF" stroke-width="0.5" stroke-linecap="round" stroke-linejoin="round"/>
<path d="M189.168 118.022C188.445 117.599 187.814 117.035 187.311 116.366C186.807 115.696 186.442 114.933 186.235 114.121C185.279 109.9 188.561 100.09 188.293 97.3928C188.026 94.6957 184.949 85.822 187.738 80.3043C188.771 78.0832 190.61 76.3387 192.882 75.4249" stroke="#407BFF" stroke-width="0.5" stroke-linecap="round" stroke-linejoin="round" stroke-dasharray="3.08 2.06"/>
<path d="M193.869 75.0955C194.366 74.9639 194.878 74.8913 195.392 74.8793C195.392 74.8793 195.742 74.4264 196.421 73.7161" stroke="#407BFF" stroke-width="0.5" stroke-linecap="round" stroke-linejoin="round"/>
<path d="M197.799 72.2954C201.153 69.1351 207.707 64.3792 215.578 66.0571C226.031 68.2807 229.118 81.3029 226.896 89.9088" stroke="#407BFF" stroke-width="0.5" stroke-linecap="round" stroke-linejoin="round" stroke-dasharray="2.91 1.94"/>
<path d="M226.66 90.8766C226.495 91.381 226.32 91.906 226.125 92.328C226.125 92.328 226.67 92.4824 227.596 92.7913" stroke="#407BFF" stroke-width="0.5" stroke-linecap="round" stroke-linejoin="round"/>
<path d="M229.572 93.5016C235.159 95.5604 245.715 100.46 247.011 107.594C248.524 115.83 244.583 120.019 234.829 124.528" stroke="#407BFF" stroke-width="0.5" stroke-linecap="round" stroke-linejoin="round" stroke-dasharray="3.07 2.04"/>
<path d="M233.862 124.961L232.452 125.589C232.452 125.589 232.576 126.124 232.792 127.092" stroke="#407BFF" stroke-width="0.5" stroke-linecap="round" stroke-linejoin="round"/>
<path d="M233.193 129.068C234.705 136.706 237.689 155.329 233.995 168.412L236.053 172.767" stroke="#407BFF" stroke-width="0.5" stroke-linecap="round" stroke-linejoin="round" stroke-dasharray="2.95 1.96"/>
<path d="M236.455 173.683L237.113 175.083" stroke="#407BFF" stroke-width="0.5" stroke-linecap="round" stroke-linejoin="round"/>
<path opacity="0.3" d="M110.84 31.4171H98.5244V201.117H110.84V31.4171Z" fill="white"/>
<path opacity="0.3" d="M369.363 11.4258H98.5244V29.9554H369.363V11.4258Z" fill="white"/>
<path opacity="0.3" d="M369.364 36.5642H311.891V83.4853H369.364V36.5642Z" fill="white"/>
<path opacity="0.2" d="M367.779 38.0569H313.311V75.4661H367.779V38.0569Z" fill="black"/>
<path d="M357.572 38.8702H317.354V74.6426H357.572V38.8702Z" fill="white"/>
<path d="M322.519 73.0367C321.906 66.0394 320.715 59.1049 318.959 52.3041L319.566 51.8512C319.566 51.8512 322.169 56.0924 324.793 72.5117L322.519 73.0367Z" fill="#407BFF"/>
<g opacity="0.5">
<path opacity="0.5" d="M322.519 73.0367C321.906 66.0394 320.715 59.1049 318.959 52.3041L319.566 51.8512C319.566 51.8512 322.169 56.0924 324.793 72.5117L322.519 73.0367Z" fill="#8BC16D"/>
</g>
<path d="M317.354 53.6629V53.9615L317.416 53.8379L317.354 53.6629ZM325.06 54.0438C324.782 51.5629 323.743 50.6364 322.128 50.4923C321.777 50.458 321.422 50.5147 321.099 50.657L321.295 50.5335L320.945 49.5041L321.439 50.4511C321.615 50.3627 321.797 50.287 321.984 50.2247L321.603 48.7526L322.354 50.1217L322.93 50.0291L322.807 49.5555L323.075 50.0188H323.476L323.085 49.1129L323.62 50.0188C323.847 50.0284 324.074 50.0525 324.299 50.0908C323.321 48.1246 320.986 47.4555 320.008 48.732C319.537 49.5051 319.372 50.4269 319.545 51.3158C319.545 51.3158 319.545 51.2438 319.545 51.2026C319.494 50.2864 319.268 47.4452 318.434 47.0849C317.992 46.9099 317.663 47.2187 317.405 47.5996V48.629L317.529 48.0835L317.447 48.6908C317.565 48.7169 317.679 48.7584 317.786 48.8143L317.982 48.0114L317.899 48.8761L318.033 48.9688L318.259 48.207L318.105 49.0305C318.33 49.2261 318.527 49.4512 318.692 49.6997V48.6085L318.918 50.0805L319.031 50.2967C318.829 49.9975 318.561 49.7477 318.249 49.5658C317.993 49.4183 317.701 49.3469 317.405 49.3599V53.3644L317.601 53.6217L317.807 53.3232L317.642 52.86L317.868 53.2409L318.023 53.0556L317.827 52.4379L318.115 52.9732C318.259 52.8165 318.421 52.6782 318.599 52.5614L318.29 51.81L318.722 52.4585C318.218 52.9938 317.807 53.9306 318.722 55.3924C318.722 55.3924 318.722 54.9703 318.794 54.3629L318.589 54.0953L318.815 54.2085C318.815 54.0335 318.815 53.8585 318.887 53.6732L318.712 53.4159L318.918 53.5188V53.3335L318.681 52.8085L318.99 53.0041L319.052 52.757L319.144 53.21L319.196 53.0453L319.381 52.4688L319.803 53.0041L319.916 52.4688L320.358 52.7982C320.32 52.447 320.24 52.1015 320.122 51.7688L320.42 52.0056L320.543 51.81V52.1291L320.78 52.3761L320.986 51.81L320.934 52.5717C321.048 52.7056 321.14 52.8394 321.243 52.9835L321.305 52.4276L321.356 53.1585L321.624 53.6115V52.582L321.737 53.8791C321.932 54.2703 322.046 54.5482 322.046 54.5482C322.133 53.6108 321.951 52.6679 321.521 51.8305L321.943 51.9541L322.488 52.1806L322.694 51.5217L322.622 52.2526C322.797 52.335 322.972 52.4379 323.136 52.5306L323.219 51.9541V52.6026C323.424 52.7261 323.61 52.86 323.795 52.9835L323.702 51.9541L323.928 53.0864C324.114 53.2203 324.278 53.3438 324.422 53.4673V52.7467L324.669 53.6423L325.06 54.0438ZM317.601 51.357V50.6673V51.3261V51.357ZM318.259 51.357L318.311 50.2041C318.311 50.2041 318.311 50.7908 318.393 51.4085L318.259 51.357ZM320.657 50.8423C320.661 50.7978 320.661 50.753 320.657 50.7085L320.574 50.4717L320.317 49.7408V49.6482C320.317 49.6482 320.317 49.5864 320.317 49.5658V49.4938C320.314 49.4527 320.314 49.4113 320.317 49.3702L320.986 50.7497L320.657 50.8423ZM321.058 51.357L320.986 51.2953L321.099 51.0482L321.058 51.357ZM321.511 51.7894C321.449 51.707 321.377 51.635 321.305 51.5526L321.572 51.1614L321.511 51.7894Z" fill="#407BFF"/>
<g opacity="0.7">
<path opacity="0.7" d="M318.311 50.2349L318.259 51.3878L318.393 51.4393C318.342 50.8216 318.311 50.2349 318.311 50.2349Z" fill="white"/>
<path opacity="0.7" d="M317.652 50.6673V51.357H317.745L317.652 50.6673Z" fill="white"/>
<path opacity="0.7" d="M317.354 53.6629V53.9615L317.416 53.8379L317.354 53.6629ZM325.06 54.0438C324.782 51.5629 323.743 50.6364 322.128 50.4923C321.777 50.458 321.422 50.5147 321.099 50.657L321.295 50.5335L320.945 49.5041L321.439 50.4511C321.615 50.3627 321.797 50.287 321.984 50.2247L321.603 48.7526L322.354 50.1217L322.93 50.0291L322.807 49.5555L323.075 50.0188H323.476L323.085 49.1129L323.62 50.0188C323.847 50.0284 324.074 50.0525 324.299 50.0908C323.321 48.1246 320.986 47.4555 320.008 48.732C319.537 49.5051 319.372 50.4269 319.545 51.3158C319.545 51.3158 319.545 51.2438 319.545 51.2026C319.494 50.2864 319.268 47.4452 318.434 47.0849C317.992 46.9099 317.663 47.2187 317.405 47.5996V48.629L317.529 48.0835L317.447 48.6908C317.565 48.7169 317.679 48.7584 317.786 48.8143L317.982 48.0114L317.899 48.8761L318.033 48.9688L318.259 48.207L318.105 49.0305C318.33 49.2261 318.527 49.4512 318.692 49.6997V48.6085L318.918 50.0805L319.031 50.2967C318.829 49.9975 318.561 49.7477 318.249 49.5658C317.993 49.4184 317.701 49.3469 317.405 49.3599V53.3644L317.601 53.6217L317.807 53.3232L317.642 52.86L317.868 53.2409L318.023 53.0556L317.827 52.4379L318.115 52.9732C318.259 52.8165 318.421 52.6782 318.599 52.5614L318.29 51.81L318.722 52.4585C318.218 52.9938 317.807 53.9306 318.722 55.3924C318.722 55.3924 318.722 54.9703 318.794 54.3629L318.589 54.0953L318.815 54.2085C318.815 54.0335 318.815 53.8585 318.887 53.6732L318.712 53.4159L318.918 53.5188V53.3335L318.681 52.8085L318.99 53.0041L319.052 52.757L319.144 53.21L319.196 53.0453L319.381 52.4688L319.803 53.0041L319.916 52.4688L320.358 52.7982C320.32 52.447 320.24 52.1015 320.122 51.7688L320.42 52.0056L320.543 51.81V52.1291L320.78 52.3761L320.986 51.81L320.934 52.5717C321.048 52.7056 321.14 52.8394 321.243 52.9835L321.305 52.4276L321.356 53.1585L321.624 53.6115V52.582L321.737 53.8791C321.932 54.2703 322.046 54.5482 322.046 54.5482C322.133 53.6108 321.951 52.6679 321.521 51.8305L321.943 51.9541L322.488 52.1806L322.694 51.5217L322.622 52.2526C322.797 52.335 322.972 52.4379 323.136 52.5306L323.219 51.9541V52.6026C323.424 52.7261 323.61 52.86 323.795 52.9835L323.702 51.9541L323.928 53.0864C324.114 53.2203 324.278 53.3438 324.422 53.4673V52.7467L324.669 53.6423L325.06 54.0438ZM317.601 51.357V50.6673V51.3261V51.357ZM318.259 51.357L318.311 50.2041C318.311 50.2041 318.311 50.7908 318.393 51.4085L318.259 51.357ZM320.657 50.8423C320.661 50.7978 320.661 50.753 320.657 50.7085L320.574 50.4717L320.317 49.7408V49.6482C320.317 49.6482 320.317 49.5864 320.317 49.5658V49.4938C320.314 49.4527 320.314 49.4113 320.317 49.3702L320.986 50.7497L320.657 50.8423ZM321.058 51.357L320.986 51.2953L321.099 51.0482L321.058 51.357ZM321.511 51.7894C321.449 51.707 321.377 51.635 321.305 51.5526L321.572 51.1614L321.511 51.7894Z" fill="#8BC16D"/>
</g>
<path d="M357.563 70.9777V74.6116H318.208L318.517 74.066C319.004 74.0359 319.48 73.9083 319.916 73.6908C320.353 73.4733 320.741 73.1703 321.058 72.7998C321.316 72.5116 321.563 72.2027 321.84 71.9248V71.8733L322.128 71.7189H322.262H322.365L322.591 71.6366L323.168 71.3792C323.631 71.1596 324.053 70.86 324.413 70.4939C324.701 70.1954 324.917 69.8557 325.215 69.5674C325.215 69.5674 325.277 69.5674 325.308 69.5674H325.524H325.884H326.388C326.904 70.4622 327.529 71.2888 328.25 72.0277C330.269 72.6916 332.332 73.2144 334.423 73.5925C334.804 73.5101 336.831 73.6748 337.345 73.6645C338.305 73.5426 339.236 73.2498 340.092 72.7998C341.29 72.3416 342.517 71.9667 343.766 71.6777C345.371 71.163 346.441 70.9674 347.377 71.7601C347.46 71.8241 347.554 71.8729 347.655 71.9042C347.752 71.9356 347.852 71.9563 347.953 71.966C349.116 72.038 351.04 70.8439 351.698 70.6483C352.357 70.4527 354.044 69.0424 355.093 69.6807C355.958 70.0821 356.668 70.3807 357.563 70.9777Z" fill="#407BFF"/>
<path opacity="0.7" d="M357.563 70.9777V74.6116H318.208L318.517 74.066C319.004 74.0359 319.48 73.9083 319.916 73.6908C320.353 73.4733 320.741 73.1703 321.058 72.7998C321.316 72.5116 321.563 72.2027 321.84 71.9248V71.8733L322.128 71.7189H322.262H322.365L322.591 71.6366L323.168 71.3792C323.631 71.1596 324.053 70.86 324.413 70.4939C324.701 70.1954 324.917 69.8557 325.215 69.5674C325.215 69.5674 325.277 69.5674 325.308 69.5674H325.524H325.884H326.388C326.904 70.4622 327.529 71.2888 328.25 72.0277C330.269 72.6916 332.332 73.2144 334.423 73.5925C334.804 73.5101 336.831 73.6748 337.345 73.6645C338.305 73.5426 339.236 73.2498 340.092 72.7998C341.29 72.3416 342.517 71.9667 343.766 71.6777C345.371 71.163 346.441 70.9674 347.377 71.7601C347.46 71.8241 347.554 71.8729 347.655 71.9042C347.752 71.9356 347.852 71.9563 347.953 71.966C349.116 72.038 351.04 70.8439 351.698 70.6483C352.357 70.4527 354.044 69.0424 355.093 69.6807C355.958 70.0821 356.668 70.3807 357.563 70.9777Z" fill="white"/>
<path opacity="0.2" d="M357.572 38.8702H317.354V74.6426H357.572V38.8702Z" fill="#8BC16D"/>
<path opacity="0.2" d="M354.085 78.5338H313.311V79.9544H354.085V78.5338Z" fill="black"/>
<path opacity="0.3" d="M369.364 90.0941H311.891V137.015H369.364V90.0941Z" fill="white"/>
<path opacity="0.2" d="M351.543 92.2765H313.311V119.175H351.543V92.2765Z" fill="black"/>
<path opacity="0.5" d="M313.311 116.612C313.311 116.767 314.453 116.993 314.576 116.972C315.409 116.849 315.605 116.056 316.099 115.366C316.167 115.265 316.25 115.175 316.346 115.099C316.452 115.031 316.575 114.995 316.701 114.995C316.826 114.995 316.95 115.031 317.056 115.099C317.26 115.253 317.428 115.45 317.549 115.675C318.311 113.874 318.928 111.897 319.854 110.178C320.616 108.778 321.377 108.119 321.655 106.38C321.86 105.155 322.272 102.406 322.684 102.2C323.095 101.994 323.712 108.212 324.412 108.212C325.112 108.212 325.441 112.69 326.151 112.999C326.861 113.308 326.861 111.465 327.571 111.465C328.281 111.465 329.093 113.102 329.505 112.69C329.916 112.278 330.534 108.922 331.645 108.922C333.116 108.922 333.703 102.808 334.505 101.716C334.69 101.819 334.68 102.087 334.67 102.303C334.66 102.519 334.732 102.797 334.948 102.818C335.112 102.406 335.287 101.994 335.462 101.583C335.709 100.996 336.8 96.4354 337.787 97.6193C337.929 97.8236 338.027 98.0548 338.075 98.2987L340.133 106.122C340.195 106.38 340.329 106.688 340.586 106.709L340.977 105.68C340.987 105.637 341.008 105.598 341.038 105.566C341.131 105.463 341.316 105.566 341.378 105.659C341.427 105.787 341.445 105.925 341.429 106.061C341.429 107.038 341.748 107.152 342.242 106.513C342.267 106.485 342.298 106.462 342.333 106.447C342.367 106.431 342.405 106.423 342.443 106.423C342.481 106.423 342.518 106.431 342.553 106.447C342.588 106.462 342.618 106.485 342.644 106.513C342.736 106.637 342.793 106.782 342.808 106.936C343.364 108.91 344.109 110.827 345.031 112.659C345.053 112.745 345.104 112.821 345.175 112.875C345.411 113.03 345.648 112.721 345.751 112.464C346.162 111.434 346.615 110.405 347.099 109.375C347.265 109.391 347.433 109.362 347.585 109.291C347.737 109.221 347.867 109.111 347.963 108.974C348.159 108.697 348.302 108.386 348.385 108.058C348.559 107.512 348.786 105.175 349.568 105.453C349.887 105.566 350.257 106.709 350.257 107.028H351.543V119.134H313.311V116.612Z" fill="white"/>
<path opacity="0.2" d="M351.534 131.899H313.846V133.32H351.534V131.899Z" fill="black"/>
<path opacity="0.2" d="M351.534 124.693H313.846V126.114H351.534V124.693Z" fill="black"/>
<path opacity="0.2" d="M370.742 203.753H97.4956V210.917H370.742V203.753Z" fill="black"/>
<path d="M369.364 31.7568H311.891V36.5642H369.364V31.7568Z" fill="#454545"/>
<path d="M369.25 85.2868H311.777V90.0942H369.25V85.2868Z" fill="#454545"/>
<path opacity="0.3" d="M369.364 143.624H311.891V201.982H369.364V143.624Z" fill="white"/>
<path opacity="0.3" d="M367.511 145.714H313.311V157.521H367.511V145.714Z" fill="white"/>
<path opacity="0.2" d="M326.13 146.939H315.008V156.307H326.13V146.939Z" fill="black"/>
<path opacity="0.3" d="M367.614 158.88H313.413V170.688H367.614V158.88Z" fill="white"/>
<path opacity="0.2" d="M326.233 160.105H315.111V169.473H326.233V160.105Z" fill="black"/>
<path opacity="0.3" d="M367.717 172.046H313.516V183.854H367.717V172.046Z" fill="white"/>
<path opacity="0.2" d="M326.326 173.271H315.204V182.639H326.326V173.271Z" fill="black"/>
<path opacity="0.3" d="M367.81 185.223H313.609V197.03H367.81V185.223Z" fill="white"/>
<path opacity="0.2" d="M326.429 186.438H315.307V195.806H326.429V186.438Z" fill="black"/>
<path d="M369.25 138.817H311.777V143.624H369.25V138.817Z" fill="#454545"/>
<path opacity="0.3" d="M108.608 33.5891H100.017V42.1848H108.608V33.5891Z" fill="white"/>
<path opacity="0.3" d="M108.608 44.0584H100.017V52.6541H108.608V44.0584Z" fill="white"/>
<path opacity="0.3" d="M108.608 54.5276H100.017V63.1233H108.608V54.5276Z" fill="white"/>
<path opacity="0.3" d="M108.608 64.9968H100.017V73.5925H108.608V64.9968Z" fill="white"/>
<path opacity="0.3" d="M108.608 75.4661H100.017V84.0618H108.608V75.4661Z" fill="white"/>
<path opacity="0.3" d="M108.608 85.9353H100.017V94.5309H108.608V85.9353Z" fill="white"/>
<path opacity="0.3" d="M108.608 96.4045H100.017V105H108.608V96.4045Z" fill="white"/>
<path opacity="0.3" d="M108.608 106.874H100.017V115.469H108.608V106.874Z" fill="white"/>
<path opacity="0.3" d="M108.608 117.343H100.017V125.939H108.608V117.343Z" fill="white"/>
<path opacity="0.3" d="M108.608 127.812H100.017V136.408H108.608V127.812Z" fill="white"/>
<path opacity="0.3" d="M108.608 138.281H100.017V146.877H108.608V138.281Z" fill="white"/>
<path opacity="0.5" d="M141.78 151.734C144.211 151.734 146.707 149.132 147.344 145.907C147.981 142.681 146.512 140.066 144.068 140.066C143.623 140.076 143.183 140.164 142.768 140.327C142.543 141.477 142.05 142.558 141.33 143.482C140.609 144.406 139.681 145.148 138.621 145.646C138.615 145.733 138.615 145.82 138.621 145.907C137.867 149.119 139.336 151.734 141.78 151.734Z" fill="white"/>
<path d="M219.338 379.395H211.382L197.069 180.063H207.638L219.338 379.395Z" fill="black"/>
<path opacity="0.2" d="M208.21 189.493H197.771L197.069 180.388H207.638L208.21 189.493Z" fill="black"/>
<path d="M563.448 336.069H-86.5522V336.394H563.448V336.069Z" fill="#EBEBEB"/>
<path d="M37.793 347.112H-18.354V347.437H37.793V347.112Z" fill="#EBEBEB"/>
<path d="M57.6045 347.112H49.3755V347.437H57.6045V347.112Z" fill="#EBEBEB"/>
<path d="M206.143 352.601H84.3589V352.926H206.143V352.601Z" fill="#EBEBEB"/>
<path d="M40.8089 267.535L40.3409 287.787L38.2089 379.395H31.1759L29.0569 287.787L28.5889 267.535H40.8089Z" fill="#263238"/>
<path opacity="0.4" d="M40.8089 267.535L40.3409 287.787L38.2089 379.395H31.1759L29.0569 287.787L28.5889 267.535H40.8089Z" fill="white"/>
<path opacity="0.2" d="M40.8089 267.535L40.3409 288.346H29.0569L28.5889 267.535H40.8089Z" fill="black"/>
<path d="M79.0023 379.07L72.5023 268.966H61.8813L70.9683 379.07H79.0023Z" fill="#263238"/>
<path opacity="0.5" d="M70.9554 379.07H78.9893L73.0874 278.851L72.5023 268.836H61.8813L62.7003 278.851L70.9554 379.07Z" fill="white"/>
<path opacity="0.2" d="M61.8813 268.836L62.7003 279.241H73.0873L72.5023 268.836H61.8813Z" fill="black"/>
<path d="M-1.58465 379.07L7.50235 268.966H-3.11865L-9.61865 379.07H-1.58465Z" fill="#263238"/>
<path opacity="0.5" d="M-1.57146 379.07L6.68353 278.851L7.50253 268.836H-3.11847L-3.70347 278.851L-9.60547 379.07H-1.57146Z" fill="white"/>
<path opacity="0.2" d="M7.50238 268.836L6.68338 279.241H-3.70361L-3.11861 268.836H7.50238Z" fill="black"/>
<path d="M-2.31298 257.559H71.683C73.4069 257.559 75.0602 258.244 76.2792 259.464C77.4982 260.683 78.183 262.337 78.183 264.062V272.764H-8.81299V264.062C-8.81299 262.337 -8.12817 260.683 -6.90918 259.464C-5.6902 258.244 -4.03689 257.559 -2.31298 257.559Z" fill="#3B3B3B"/>
<path d="M79.7433 265.168H-10.3597C-11.8028 265.168 -12.9727 266.338 -12.9727 267.782V270.149C-12.9727 271.593 -11.8028 272.764 -10.3597 272.764H79.7433C81.1865 272.764 82.3563 271.593 82.3563 270.149V267.782C82.3563 266.338 81.1865 265.168 79.7433 265.168Z" fill="#263238"/>
<path opacity="0.6" d="M79.7433 265.168H-10.3597C-11.8028 265.168 -12.9727 266.338 -12.9727 267.782V270.149C-12.9727 271.593 -11.8028 272.764 -10.3597 272.764H79.7433C81.1865 272.764 82.3563 271.593 82.3563 270.149V267.782C82.3563 266.338 81.1865 265.168 79.7433 265.168Z" fill="white"/>
<path d="M88.6097 154.595C88.6097 154.595 103.976 165.001 107.057 164.337C110.138 163.674 138.348 159.486 138.348 159.486L139.947 167.381C139.947 167.381 113.843 170.75 105.562 172.259C97.2807 173.767 82.8896 164.78 82.8896 164.78L88.6097 154.595Z" fill="#EBB376"/>
<path d="M77.2475 141.315C82.3825 144.658 101.128 160.826 101.128 160.826L92.1455 173.559L66.9385 160.826L77.2475 141.315Z" fill="#83BD62"/>
<path d="M71.541 370.004L81.902 368.573L83.332 343.951L72.997 345.382L71.541 370.004Z" fill="#EBB376"/>
<path opacity="0.2" d="M72.9967 345.382L83.3318 343.964L82.5128 358.038L72.1777 358.948L72.9967 345.382Z" fill="black"/>
<path d="M71.9568 225.21L69.4478 202.877L11.3898 199.391C11.3898 199.391 5.21479 238.855 9.95979 247.634C18.4228 263.243 64.0528 255.439 77.4168 256.947C69.4348 289.608 70.2148 353.433 70.2148 353.433L89.2858 354.89C89.2858 354.89 103.95 286.109 106.927 253.435C108.916 231.376 90.6508 231.922 71.9568 225.21Z" fill="#263238"/>
<path d="M67.966 354.318L90.885 355.826L92.848 346.006L67.667 344.835L67.966 354.318Z" fill="#407BFF"/>
<path d="M95.4355 360.808L105.862 361.576L112.388 337.773L101.975 337.031L95.4355 360.808Z" fill="#EBB376"/>
<path d="M107.304 362.044C107.304 362.044 107.304 362.044 107.304 362.122H107.395C108.22 362.579 109.092 362.946 109.995 363.214C110.648 363.468 111.371 363.468 112.023 363.214C112.238 363.094 112.415 362.916 112.532 362.699C112.649 362.483 112.703 362.237 112.686 361.992C112.7 361.835 112.674 361.678 112.611 361.535C112.547 361.392 112.448 361.267 112.322 361.172C111.393 360.797 110.359 360.769 109.41 361.094C110.149 360.584 110.684 359.828 110.918 358.961C110.937 358.754 110.883 358.547 110.768 358.374C110.652 358.201 110.48 358.073 110.281 358.012C110.12 357.931 109.942 357.89 109.761 357.89C109.581 357.89 109.403 357.931 109.241 358.012C107.941 358.701 107.486 361.628 107.447 361.784H107.265C107.241 361.825 107.232 361.873 107.239 361.921C107.246 361.968 107.269 362.012 107.304 362.044ZM108.084 361.459L107.85 361.524C108.097 360.574 108.617 358.922 109.371 358.584C109.459 358.542 109.554 358.521 109.651 358.521C109.748 358.521 109.843 358.542 109.93 358.584H110.047C110.372 358.714 110.411 358.896 110.398 359.039C110.307 359.716 109.111 360.899 108.084 361.459ZM108.084 361.992C109.462 361.576 111.373 361.198 111.984 361.641C112.042 361.69 112.088 361.752 112.117 361.822C112.147 361.892 112.159 361.968 112.153 362.044C112.159 362.199 112.124 362.354 112.054 362.492C111.983 362.631 111.879 362.75 111.75 362.837C111.165 363.162 109.826 362.863 108.123 361.992H108.084Z" fill="#407BFF"/>
<path opacity="0.2" d="M101.974 337.031L112.387 337.786L108.656 351.391L98.3599 350.129L101.974 337.031Z" fill="black"/>
<path d="M115.923 349.713L97.5674 344.315C97.5674 344.315 108.526 282.428 119.667 260.966C118.835 260.693 117.73 260.342 116.365 259.939C113.908 259.198 110.645 258.274 106.81 257.207C80.1344 249.806 26.0674 235.928 26.0674 235.928L50.7674 214.167C50.7674 214.167 149.151 227.877 151.192 253.813C152.141 266.286 115.923 349.713 115.923 349.713Z" fill="#263238"/>
<path d="M95.2007 344.718L117.301 350.975L121.266 341.779L96.8777 335.379L95.2007 344.718Z" fill="#407BFF"/>
<path opacity="0.2" d="M116.339 259.939C113.882 259.197 110.619 258.274 106.784 257.207C107.551 250.912 107.564 243.693 104.535 240.012C98.516 232.676 83.033 228.371 74.219 226.81C66.848 225.509 42.083 222.908 42.083 222.908C42.083 222.908 74.219 219.825 107.083 229.411C123.307 234.172 120.148 250.054 116.339 259.939Z" fill="black"/>
<path opacity="0.2" d="M67.966 354.318L90.885 355.826L92.848 346.006L67.667 344.835L67.966 354.318Z" fill="white"/>
<path opacity="0.2" d="M95.2007 344.718L117.301 350.975L121.266 341.779L96.8777 335.379L95.2007 344.718Z" fill="white"/>
<path d="M106.874 360.509L95.5903 357.361C95.404 357.303 95.2024 357.319 95.0279 357.406C94.8533 357.494 94.7194 357.645 94.6543 357.83L91.5473 366.635C91.4197 367.11 91.4848 367.615 91.7283 368.042C91.9719 368.468 92.3741 368.781 92.8473 368.912C96.8123 369.952 98.7493 370.212 103.728 371.591C106.783 372.436 112.737 374.387 117.092 374.882C121.447 375.376 121.811 371.058 120.017 370.472C115.753 369.042 110.644 364.593 108.434 361.576C108.045 361.059 107.497 360.684 106.874 360.509Z" fill="#263238"/>
<path d="M82.9286 368.612H83.1496C83.1496 368.612 83.3836 368.677 83.4096 368.703C83.4072 368.729 83.4072 368.755 83.4096 368.781C83.4238 368.788 83.4393 368.792 83.4551 368.792C83.4708 368.792 83.4864 368.788 83.5006 368.781C84.3869 369.067 85.3028 369.25 86.2306 369.328C86.919 369.449 87.6278 369.31 88.2196 368.938C88.3957 368.776 88.5241 368.57 88.5906 368.34C88.6571 368.111 88.6592 367.867 88.5966 367.637C88.574 367.481 88.5136 367.333 88.4207 367.206C88.3278 367.079 88.2052 366.977 88.0636 366.908C87.0689 366.742 86.0474 366.931 85.1776 367.442C85.7922 366.796 86.1563 365.952 86.2046 365.061C86.1631 364.851 86.0545 364.66 85.895 364.517C85.7356 364.374 85.534 364.286 85.3206 364.268C85.1173 364.231 84.9085 364.236 84.7072 364.283C84.506 364.33 84.3165 364.418 84.1506 364.541C83.0716 365.478 82.8506 368.443 82.8506 368.612H82.9286ZM84.0466 368.001L83.8386 368.118C83.8386 367.13 84.0596 365.517 84.7226 364.931C84.7925 364.863 84.8762 364.81 84.9681 364.776C85.06 364.743 85.158 364.729 85.2556 364.736H85.3726C85.7106 364.801 85.7886 364.983 85.8016 365.126C85.5931 366.287 84.9692 367.332 84.0466 368.066V368.001ZM84.2026 368.521C85.5026 367.832 87.2446 367.064 87.9076 367.377C87.9784 367.407 88.0399 367.455 88.0856 367.517C88.1313 367.578 88.1596 367.651 88.1676 367.728C88.2065 367.879 88.2054 368.038 88.1644 368.188C88.1234 368.339 88.0438 368.476 87.9336 368.586C87.4136 369.029 86.0486 369.003 84.2026 368.521Z" fill="#407BFF"/>
<path d="M82.6825 367.338L70.9825 366.609C70.8858 366.597 70.7875 366.604 70.6935 366.63C70.5995 366.656 70.5118 366.7 70.4354 366.761C70.359 366.822 70.2955 366.897 70.2488 366.983C70.2021 367.068 70.1731 367.163 70.1635 367.26L69.0195 376.495C69.0018 376.738 69.0327 376.983 69.1103 377.215C69.1878 377.447 69.3106 377.661 69.4714 377.844C69.6322 378.028 69.8279 378.178 70.0471 378.286C70.2663 378.394 70.5047 378.457 70.7485 378.472C74.8305 378.654 76.7935 378.537 81.9415 378.823C85.1005 379.005 91.3275 379.681 95.6955 379.265C100.063 378.849 99.5175 374.531 97.6325 374.336C93.1735 373.815 87.2325 370.538 84.4635 368.04C83.9659 367.612 83.3383 367.364 82.6825 367.338Z" fill="#263238"/>
<path d="M77.2476 141.315C77.2476 141.315 68.8236 133.784 53.3666 130.688C37.9096 127.593 24.1946 134.447 24.1946 134.447C24.1946 134.447 13.9116 159.161 9.45264 202.084L71.1636 206.701C71.1636 206.701 68.5766 177.67 77.2476 141.315Z" fill="#407BFF"/>
<path opacity="0.8" d="M71.1638 206.649C71.1638 206.649 69.1488 184.017 74.6608 153.659C75.3758 149.666 76.2338 145.542 77.2608 141.315C77.2608 141.315 68.8498 133.784 53.3798 130.688C37.9098 127.593 24.2078 134.447 24.2078 134.447C21.6377 141.12 19.4927 147.95 17.7858 154.894C13.837 170.376 11.0558 186.133 9.46582 202.032L71.1638 206.649Z" fill="white"/>
<path d="M17.7729 154.894C21.6729 163.479 31.2669 163.635 34.673 155.909C37.3954 150.054 41.0825 144.698 45.58 140.066C45.58 140.066 56.903 149.028 61.804 148.274C63.1895 148.066 64.4769 147.435 65.4894 146.466C66.5019 145.497 67.1899 144.238 67.459 142.863C73.868 148.755 74.583 153.268 74.6349 153.659C75.3499 149.665 76.208 145.542 77.235 141.315C77.235 141.315 68.824 133.784 53.354 130.688C37.884 127.593 24.182 134.447 24.182 134.447C21.6162 141.121 19.4756 147.95 17.7729 154.894Z" fill="#8BC16D"/>
<path d="M36.3501 151.734C43.3441 170.75 42.0441 170.672 79.4451 159.538C80.6249 158.47 81.9354 157.557 83.3451 156.819C84.8791 156.234 97.7491 159.785 98.5291 160.839C99.3091 161.892 95.9291 167.706 94.6291 168.279C93.3291 168.851 81.3301 168.279 80.6541 168.279C79.9781 168.279 78.7561 168.279 78.7561 168.279C78.7561 168.279 54.8231 179.4 45.5151 179.556C36.2071 179.712 26.0151 155.909 26.0151 155.909L36.3501 151.734Z" fill="#EBB376"/>
<path d="M24.1951 134.447C17.8381 137.712 16.5771 154.075 34.6861 176.382L46.503 165.638C46.503 165.638 38.339 155.102 37.858 145.243C37.377 135.384 24.1951 134.447 24.1951 134.447Z" fill="#8BC16D"/>
<path d="M56.8897 108.576C55.4337 115.86 51.6898 128.763 45.0728 131.326C46.217 134.208 47.9221 136.834 50.0891 139.051C52.256 141.268 54.8416 143.032 57.6958 144.242C66.2627 148.014 66.0288 139.988 66.0288 139.988C59.2558 135.085 61.7518 129.583 65.2227 124.874L56.8897 108.576Z" fill="#EBB376"/>
<path opacity="0.2" d="M60.3482 115.223L65.2753 124.874C64.4452 125.955 63.7142 127.109 63.0913 128.321C60.3872 126.721 57.7482 121.935 58.6842 118.8C59.0059 117.512 59.5707 116.298 60.3482 115.223Z" fill="black"/>
<path d="M72.5153 95.4133C68.2253 97.7676 69.6033 102.58 78.0143 110.723C82.1873 106.274 83.7083 97.0132 80.9913 94.3727C78.2743 91.7323 76.2593 93.3972 72.5153 95.4133Z" fill="#263238"/>
<path d="M54.4593 101.241C53.9393 111.139 53.1593 116.849 57.5143 122.507C64.1053 130.949 76.7413 127.84 80.2123 118.293C83.3063 109.721 83.6573 94.9842 74.4923 89.9765C72.4771 88.8652 70.2117 88.287 67.9107 88.2966C65.6097 88.3061 63.3491 88.9031 61.3432 90.0311C59.3372 91.159 57.6521 92.7805 56.4475 94.7421C55.2429 96.7037 54.5586 98.9404 54.4593 101.241Z" fill="#EBB376"/>
<path d="M68.8244 105.611C68.7334 106.417 69.0844 107.12 69.6044 107.172C70.1244 107.224 70.6184 106.638 70.7094 105.871C70.8004 105.104 70.4494 104.388 69.9294 104.31C69.4094 104.232 68.9674 104.83 68.8244 105.611Z" fill="#263238"/>
<path d="M77.8976 106.625C77.8067 107.432 78.1576 108.134 78.6906 108.186C79.2236 108.238 79.7046 107.653 79.7956 106.886C79.8866 106.118 79.5356 105.39 79.0156 105.325C78.4956 105.26 77.9886 105.871 77.8976 106.625Z" fill="#263238"/>
<path d="M74.8951 106.703C75.5655 109.261 76.5894 111.713 77.9371 113.987C77.3457 114.313 76.6906 114.506 76.0172 114.553C75.3437 114.601 74.6681 114.501 74.0371 114.26L74.8951 106.703Z" fill="#D58745"/>
<path d="M66.6665 102.463C66.5634 102.467 66.4623 102.435 66.3805 102.372C66.2916 102.282 66.2417 102.161 66.2417 102.034C66.2417 101.907 66.2916 101.786 66.3805 101.696C66.8825 101.137 67.5129 100.709 68.2173 100.448C68.9217 100.188 69.6789 100.102 70.4235 100.2C70.4818 100.208 70.538 100.227 70.5886 100.257C70.6393 100.287 70.6835 100.327 70.7186 100.374C70.7537 100.422 70.7791 100.475 70.7931 100.532C70.8072 100.59 70.8097 100.649 70.8005 100.707C70.7725 100.827 70.7011 100.931 70.6002 101.001C70.4993 101.071 70.3761 101.101 70.2545 101.084C69.6647 101.02 69.0681 101.098 68.5141 101.31C67.9602 101.523 67.465 101.865 67.0695 102.307C67.0185 102.362 66.9558 102.405 66.8859 102.432C66.8161 102.459 66.7411 102.469 66.6665 102.463Z" fill="#263238"/>
<path d="M82.4483 104.024C82.3587 104.015 82.2734 103.981 82.2021 103.926C82.1308 103.87 82.0765 103.796 82.0453 103.712C81.8626 103.146 81.5498 102.632 81.1321 102.209C80.7144 101.787 80.2034 101.468 79.6403 101.279C79.5804 101.264 79.5241 101.237 79.4747 101.2C79.4252 101.163 79.3836 101.117 79.3522 101.064C79.3208 101.011 79.3002 100.952 79.2916 100.89C79.2831 100.829 79.2867 100.767 79.3023 100.707C79.3331 100.588 79.4082 100.486 79.5121 100.421C79.616 100.355 79.7409 100.332 79.8613 100.356C80.577 100.584 81.2282 100.979 81.7616 101.508C82.295 102.037 82.6952 102.686 82.9293 103.4C82.9715 103.515 82.9666 103.643 82.9155 103.755C82.8644 103.867 82.7713 103.954 82.6563 103.998C82.5915 104.028 82.5186 104.038 82.4483 104.024Z" fill="#263238"/>
<path d="M59.3727 92.981C63.7797 95.0882 62.6487 99.9658 54.6927 108.589C50.2857 104.375 48.2707 95.1922 50.7927 92.4348C53.3147 89.6773 55.5247 91.1601 59.3727 92.981Z" fill="#263238"/>
<path d="M48.8814 108.563C49.2965 111.024 50.6653 113.221 52.6904 114.677C55.3944 116.563 57.8904 114.417 58.0074 111.295C58.1504 108.472 56.9154 104.102 53.7694 103.491C50.6234 102.879 48.4004 105.546 48.8814 108.563Z" fill="#EBB376"/>
<path d="M66.4839 115.171C67.0748 116.296 67.9633 117.236 69.0523 117.89C70.1413 118.544 71.3889 118.886 72.6589 118.878" stroke="#263238" stroke-width="0.53" stroke-linecap="round" stroke-linejoin="round"/>
<path d="M60.6073 95.8295C60.6073 95.8295 72.3073 89.4561 80.4973 95.8295C80.4973 95.8295 85.0733 90.4317 82.3563 84.4875C79.6393 78.5433 60.6593 81.3788 55.5503 83.5119C46.4503 87.284 53.4183 97.4034 53.4183 97.4034L60.6073 95.8295Z" fill="#263238"/>
<path d="M159.629 166.08V169.527C159.629 170.555 157.861 171.283 156.834 171.283H76.5071C75.4801 171.283 73.8291 170.555 73.8291 169.527V166.08H159.629Z" fill="#263238"/>
<path opacity="0.3" d="M159.629 166.08V169.527C159.629 170.555 157.861 171.283 156.834 171.283H103.859C102.819 171.283 101.129 170.555 101.129 169.527V166.08H159.629Z" fill="black"/>
<path d="M172.512 123.821L162.944 167.368C162.775 168.078 162.381 168.715 161.821 169.184C161.262 169.652 160.566 169.928 159.837 169.97H107.603C107.268 169.94 106.944 169.835 106.654 169.664C106.364 169.493 106.116 169.259 105.928 168.98C105.74 168.701 105.617 168.384 105.567 168.051C105.517 167.718 105.542 167.378 105.64 167.056L115.195 123.977C115.39 123.319 115.805 122.747 116.37 122.359C116.936 121.97 117.618 121.789 118.302 121.844H170.536C171.94 121.857 172.824 122.403 172.512 123.821Z" fill="#263238"/>
<path opacity="0.2" d="M172.512 123.821L162.944 167.368C162.775 168.078 162.381 168.715 161.821 169.184C161.262 169.652 160.566 169.928 159.837 169.97H109.384C109.049 169.939 108.725 169.835 108.435 169.664C108.144 169.493 107.896 169.259 107.707 168.981C107.518 168.702 107.393 168.385 107.341 168.052C107.29 167.719 107.313 167.379 107.408 167.056L116.963 123.977C117.158 123.319 117.573 122.747 118.139 122.359C118.704 121.97 119.386 121.789 120.07 121.844H170.536C171.94 121.857 172.824 122.403 172.512 123.821Z" fill="white"/>
<path d="M134.785 379.395H126.829L125.529 180.063H136.085L134.785 379.395Z" fill="black"/>
<path opacity="0.6" d="M136.098 180.388L135.89 212.541L134.798 379.395H126.829L125.737 212.541L125.529 180.388H136.098Z" fill="white"/>
<path opacity="0.2" d="M136.098 180.388L135.89 212.906H125.737L125.529 180.388H136.098Z" fill="black"/>
<path opacity="0.7" d="M219.351 379.395H211.382L197.771 189.961L197.069 180.388H207.638L208.21 189.961L219.351 379.395Z" fill="white"/>
<path d="M50.2333 379.395H42.2773L53.9773 180.063H64.5463L50.2333 379.395Z" fill="black"/>
<path opacity="0.7" d="M64.5463 180.388L63.8443 189.961L50.2333 379.395H42.2773L53.4053 189.961L53.9773 180.388H64.5463Z" fill="white"/>
<path opacity="0.2" d="M53.9773 180.388H64.5463L63.8443 189.493H53.4053L53.9773 180.388Z" fill="black"/>
<path d="M45.605 175.068H216.009V182.235C216.009 182.98 215.713 183.695 215.187 184.222C214.66 184.749 213.946 185.045 213.201 185.045H48.413C47.6682 185.045 46.954 184.749 46.4274 184.222C45.9008 183.695 45.605 182.98 45.605 182.235V175.068Z" fill="black"/>
<path opacity="0.8" d="M45.605 175.068H216.009V182.235C216.009 182.98 215.713 183.695 215.187 184.222C214.66 184.749 213.946 185.045 213.201 185.045H48.413C47.6682 185.045 46.954 184.749 46.4274 184.222C45.9008 183.695 45.605 182.98 45.605 182.235V175.068Z" fill="white"/>
<path opacity="0.2" d="M216.009 175.068H45.605V180.063H216.009V175.068Z" fill="black"/>
<path d="M220.95 176.382H40.6659C39.92 176.379 39.2058 176.08 38.6796 175.551C38.1533 175.022 37.8579 174.306 37.8579 173.56C37.8579 172.814 38.1538 172.1 38.6804 171.573C39.207 171.046 39.9212 170.75 40.6659 170.75H220.95C221.695 170.75 222.409 171.046 222.935 171.573C223.462 172.1 223.758 172.814 223.758 173.56C223.758 174.306 223.462 175.022 222.936 175.551C222.41 176.08 221.696 176.379 220.95 176.382Z" fill="black"/>
<path opacity="0.8" d="M220.95 176.382H40.6659C39.92 176.379 39.2058 176.08 38.6796 175.551C38.1533 175.022 37.8579 174.306 37.8579 173.56C37.8579 172.814 38.1538 172.1 38.6804 171.573C39.207 171.046 39.9212 170.75 40.6659 170.75H220.95C221.695 170.75 222.409 171.046 222.935 171.573C223.462 172.1 223.758 172.814 223.758 173.56C223.758 174.306 223.462 175.022 222.936 175.551C222.41 176.08 221.696 176.379 220.95 176.382Z" fill="white"/>
<defs>
<linearGradient id="paint0_linear" x1="138.547" y1="87.872" x2="167.325" y2="87.872" gradientUnits="userSpaceOnUse">
<stop stop-color="#76B852"/>
<stop offset="1" stop-color="#8DC26F"/>
</linearGradient>
<linearGradient id="paint1_linear" x1="161.326" y1="63.9599" x2="205.032" y2="63.9599" gradientUnits="userSpaceOnUse">
<stop stop-color="#76B852"/>
<stop offset="1" stop-color="#8DC26F"/>
</linearGradient>
</defs>
</svg>
