<svg width="320" height="661" viewBox="0 0 320 661" fill="none" xmlns="http://www.w3.org/2000/svg">
<path d="M327.78 191.237C297.458 192.138 285.867 223.933 256.454 256.864C232.853 283.288 218.08 286.966 201.554 304.052C186.929 319.187 159.563 318.922 137.809 310.978C116.056 303.035 98.76 295.719 77.9443 285.658C57.1286 275.598 15.1791 277.539 -1.15084 299.323C-27.7416 347.279 -15.7331 351.056 -51.5299 373.351C-72.9761 386.694 -103.889 380.963 -128.217 369.299C-152.546 357.636 -193.349 332.075 -218.58 322.29C-253.327 308.813 -279.882 311.546 -327.97 315.691C-380.852 325.025 -392.89 319.724 -448.708 353.74C-476.315 365.935 -454.678 409.47 -454.678 409.47C-454.678 409.47 355.97 544.909 478.331 572.982L531.347 332.202L414.795 259.835C375.695 236.616 358.132 190.336 327.78 191.237Z" fill="url(#paint0_linear)"/>
<defs>
<linearGradient id="paint0_linear" x1="-378.964" y1="205.989" x2="499.22" y2="448.527" gradientUnits="userSpaceOnUse">
<stop stop-color="#EB3349"/>
<stop offset="1" stop-color="#F45C43"/>
</linearGradient>
</defs>
</svg>
