<svg width="35" height="35" viewBox="0 0 35 35" fill="none" xmlns="http://www.w3.org/2000/svg">
<path d="M22.091 32.8529C19.7471 35.2043 15.9393 35.2052 13.5943 32.855L2.48628 21.7225C0.146185 19.3773 0.149812 15.5792 2.49439 13.2385L13.4529 2.29775C15.7961 -0.0415933 19.5913 -0.040676 21.9333 2.2998L33.0309 13.39C35.3728 15.7303 35.3764 19.5252 33.0391 21.8699L22.091 32.8529ZM10.4612 13.2324C8.11617 15.5759 8.11617 19.377 10.4612 21.7205L13.6025 24.8597C15.9453 27.201 19.7421 27.201 22.0849 24.8597L25.0767 21.87C27.4217 19.5265 27.4217 15.7253 25.0767 13.3819L21.9354 10.2427C19.5926 7.90139 15.7957 7.9014 13.4529 10.2427L10.4612 13.2324Z" fill="white"/>
</svg>
