<svg width="110" height="110" viewBox="0 0 110 110" fill="none" xmlns="http://www.w3.org/2000/svg">
<path d="M3.3327 109.056C2.65381 109.075 1.99393 108.83 1.49132 108.374C0.98871 107.917 0.682368 107.284 0.6365 106.607C0.590632 105.93 0.808791 105.261 1.24526 104.741C1.68173 104.221 2.30264 103.89 2.97789 103.818L26.7155 100.582C29.3855 100.218 31.4853 98.1183 31.8499 95.4484L34.7448 74.248C35.1094 71.5782 37.2091 69.4789 39.8789 69.1148L61.0996 66.221C63.7694 65.8569 65.869 63.7578 66.2337 61.0882L69.1285 39.9005C69.493 37.232 71.591 35.1334 74.2594 34.7681L95.4877 31.862C98.1553 31.4968 100.253 29.3993 100.618 26.7318L103.871 2.9916C103.965 2.29914 104.33 1.67239 104.887 1.24924C105.443 0.826096 106.145 0.64118 106.838 0.735217C107.531 0.829254 108.158 1.19454 108.582 1.75068C109.005 2.30681 109.19 3.00823 109.096 3.70069L105.296 31.4197C104.93 34.0882 102.831 36.1859 100.162 36.5498L78.9394 39.444C76.2696 39.8081 74.1699 41.9074 73.8053 44.5772L70.91 65.7806C70.5456 68.4491 68.4478 70.5478 65.7794 70.9133L44.5685 73.8187C41.9003 74.1841 39.8026 76.2827 39.438 78.951L36.5432 100.139C36.1785 102.809 34.079 104.908 31.4094 105.272L3.67138 109.056H3.3327Z" fill="white"/>
</svg>
