<svg width="81" height="93" viewBox="0 0 81 93" fill="none" xmlns="http://www.w3.org/2000/svg">
<path d="M2.55485 92.3144C1.9807 92.3305 1.42263 92.1238 0.997555 91.7378C0.572484 91.3518 0.313403 90.8163 0.274611 90.2436C0.235819 89.6709 0.420322 89.1055 0.789457 88.6657C1.15859 88.2259 1.68371 87.946 2.25478 87.8846L21.6333 85.2428C24.3033 84.8788 26.4031 82.7794 26.7677 80.1095L29.0257 63.5737C29.3903 60.9039 31.4899 58.8046 34.1598 58.4405L50.7129 56.1831C53.3826 55.819 55.4822 53.72 55.847 51.0503L58.1048 34.5247C58.4693 31.8562 60.5673 29.7576 63.2357 29.3923L79.7964 27.1252C82.464 26.76 84.5616 24.6625 84.9271 21.995L87.5823 2.61349C87.6619 2.02786 87.971 1.4978 88.4416 1.13994C88.9123 0.782071 89.5059 0.625683 90.0919 0.705212C90.678 0.784742 91.2083 1.09367 91.5664 1.56401C91.9245 2.03435 92.081 2.62755 92.0014 3.21318L88.8831 25.9594C88.5173 28.6278 86.4182 30.7255 83.7495 31.0895L67.1942 33.3471C64.5243 33.7112 62.4247 35.8105 62.0601 38.4803L59.8017 55.0192C59.4373 57.6877 57.3395 59.7864 54.6711 60.1519L38.1254 62.4183C35.4572 62.7837 33.3594 64.8823 32.9948 67.5506L30.737 84.0767C30.3723 86.7463 28.2728 88.8453 25.6032 89.2095L2.84128 92.3144H2.55485Z" fill="white"/>
</svg>
