<svg width="164" height="140" viewBox="0 0 164 140" fill="none" xmlns="http://www.w3.org/2000/svg">
<path d="M20.9153 118.089C48.3642 130.58 82.2995 130.616 108.966 116.506C122.371 109.498 133.981 99.4999 142.897 87.2868C151.814 75.0738 157.798 60.9731 160.385 46.0769C162.845 32.4306 150.956 17.5302 136.803 16.3236C129.776 15.4728 122.692 17.3652 117.028 21.6064C111.364 25.8475 107.557 32.11 106.4 39.0884C106.4 39.0884 104.759 45.8919 105.506 43.5755C106.39 40.8969 103.978 47.2654 103.75 47.8168C103.522 48.3683 100.683 54.2346 101.84 52.0383C102.996 49.8419 99.5699 55.4088 99.1001 55.929C97.7446 57.7644 96.4004 59.5119 94.7733 61.2005C91.7857 64.5898 99.0909 58.0727 92.8176 63.1817C91.043 64.6277 89.2712 66.0518 87.3788 67.3709C86.7665 67.7832 81.873 70.5236 85.0814 68.8833C83.3807 69.758 81.6035 70.5333 79.8319 71.2648C79.8319 71.2648 72.0052 73.6925 75.5815 72.8372C71.3359 73.8292 67.001 74.3909 62.6426 74.5138C60.7059 74.6206 60.7088 74.5986 62.6426 74.5138L59.7391 74.3167C57.3422 74.0064 54.9453 73.6961 52.5484 73.3858C50.1515 73.0755 53.9392 74.2138 49.7764 72.6918C47.0222 71.6873 44.3673 70.6063 41.7267 69.4154C28.8094 63.498 11.0322 70.4246 6.14671 83.4664C3.56534 90.0205 3.65489 97.3246 6.3962 103.814C9.13751 110.304 14.3126 115.464 20.813 118.188L20.9153 118.089Z" fill="url(#paint0_linear)"/>
<defs>
<linearGradient id="paint0_linear" x1="8.32248" y1="60.3196" x2="156.09" y2="79.4484" gradientUnits="userSpaceOnUse">
<stop stop-color="#76B852"/>
<stop offset="1" stop-color="#8DC26F"/>
</linearGradient>
</defs>
</svg>
