<svg width="100" height="84" viewBox="0 0 100 84" fill="none" xmlns="http://www.w3.org/2000/svg">
<path d="M4.01124 98.9104C3.4117 98.9464 2.81584 98.7948 2.3065 98.4767C1.79715 98.1586 1.39962 97.6899 1.16918 97.1356C0.938733 96.5813 0.886827 95.9691 1.02067 95.3839C1.15452 94.7988 1.46746 94.2699 1.916 93.8707L94.3957 1.4522C94.9495 0.896872 95.7013 0.584122 96.4858 0.582768C97.2703 0.581414 98.0232 0.891559 98.5789 1.44497C99.1346 1.99838 99.4476 2.74974 99.4489 3.53373C99.4503 4.31773 99.1399 5.07012 98.5862 5.62545L6.10649 97.9718C5.83995 98.263 5.51651 98.4965 5.15615 98.658C4.79578 98.8194 4.40613 98.9053 4.01124 98.9104Z" fill="white"/>
</svg>
