<svg width="118" height="117" viewBox="0 0 118 117" fill="none" xmlns="http://www.w3.org/2000/svg">
<path d="M3.58011 116.293C2.87175 116.278 2.19446 115.999 1.68181 115.511C1.16916 115.022 0.858337 114.359 0.810633 113.652C0.762929 112.946 0.981807 112.247 1.4241 111.694C1.8664 111.141 2.50003 110.774 3.20004 110.664L28.9502 107.154C31.62 106.79 33.7197 104.691 34.0845 102.021L37.2729 78.6842C37.6376 76.0146 39.7372 73.9155 42.4069 73.5515L65.7822 70.3638C68.4521 69.9997 70.5518 67.9004 70.9164 65.2306L74.105 41.8788C74.4697 39.2081 76.5707 37.1084 79.2417 36.7453L102.718 33.5541C105.388 33.1911 107.488 31.0927 107.854 28.4231L111.382 2.67542C111.482 1.93365 111.874 1.26227 112.47 0.80899C113.066 0.355711 113.818 0.157679 114.56 0.258413C115.303 0.359146 115.974 0.750394 116.428 1.34613C116.882 1.94187 117.08 2.69329 116.979 3.43506L112.879 33.4491C112.515 36.1178 110.417 38.2165 107.748 38.5817L84.3402 41.7846C81.6765 42.149 79.5804 44.241 79.2107 46.9041L75.9696 70.2491C75.5997 72.9132 73.5022 75.0056 70.8373 75.369L47.4518 78.5581C44.782 78.9222 42.6823 81.0215 42.3177 83.6913L39.129 107.043C38.7643 109.714 36.6633 111.813 33.9922 112.176L3.96018 116.258L3.58011 116.293Z" fill="white"/>
</svg>
