<svg width="1433" height="875" viewBox="0 0 1433 875" fill="none" xmlns="http://www.w3.org/2000/svg">
<path d="M6.45836 10.8879C70.6203 40.2057 110.525 107.198 96.0598 186.085C85.4902 243.302 47.0156 281.165 67.6287 335.933C85.858 384.433 144.698 408.374 198.16 409.33C251.622 410.287 303.586 394.261 356.871 389.428C410.156 384.594 470.081 394.011 503.941 434.093C569.962 512.384 492.335 640.804 549.714 725.043C584.103 775.476 655.266 789.826 717.463 784.398C779.659 778.97 889.159 755.844 951.662 755.618C1037.74 755.302 1092.25 785.524 1191.65 838.368C1296.84 907.645 1327.21 906.059 1417.32 1035.66C1465.9 1088.94 1381.9 1171.28 1381.9 1171.28C1381.9 1171.28 -446.681 811.211 -733.03 767.011L-663.048 105.748L-350.823 41.205C-246.995 22.0255 -57.7681 -18.459 6.45836 10.8879Z" fill="url(#paint0_linear)"/>
<defs>
<linearGradient id="paint0_linear" x1="1395.77" y1="627.724" x2="-694.873" y2="406.471" gradientUnits="userSpaceOnUse">
<stop stop-color="#EB3349"/>
<stop offset="1" stop-color="#F45C43"/>
</linearGradient>
</defs>
</svg>
