<svg width="321" height="366" viewBox="0 0 321 366" fill="none" xmlns="http://www.w3.org/2000/svg">
<path d="M12.6541 67.4558C30.4169 82.0601 47.5609 107.263 42.0909 152.985C37.9411 187.672 37.478 225.646 61.7568 234.573C94.2026 246.503 145.476 225.853 145.476 225.853C145.476 225.853 177.683 206.163 200.319 206.978C231.377 208.096 257.337 223.943 268.104 248.668C283.306 301.132 271.697 302.297 300.046 331.617C317.033 349.168 346.173 350.07 370.442 343.788C394.71 337.505 436.531 321.106 461.268 316.85C495.336 310.987 518.94 319.245 561.836 333.41C608.118 353.656 620.038 351.007 664.382 395.994C687.178 413.719 659.409 451.717 659.409 451.717C659.409 451.717 -102.004 413.573 -218.356 415.272L-221.591 168.794L-139.321 77.4587C-68.9442 29.9703 -32.4718 40.6841 12.6541 67.4558Z" fill="url(#paint0_linear)"/>
<defs>
<linearGradient id="paint0_linear" x1="622.932" y1="238.871" x2="-219.785" y2="291.195" gradientUnits="userSpaceOnUse">
<stop stop-color="#EB3349"/>
<stop offset="1" stop-color="#F45C43"/>
</linearGradient>
</defs>
</svg>
