<svg width="26" height="26" viewBox="0 0 26 26" fill="none" xmlns="http://www.w3.org/2000/svg">
<g clip-path="url(#clip0)">
<path d="M13.2282 0.338898C6.21163 0.338898 0.523438 6.02709 0.523438 13.0437C0.523438 19.3367 5.10376 24.5484 11.1093 25.5576V15.6942H8.04454V12.1448H11.1093V9.52757C11.1093 6.49085 12.964 4.83601 15.6734 4.83601C16.971 4.83601 18.0862 4.9327 18.4099 4.97529V8.14947L16.5308 8.15038C15.0576 8.15038 14.7736 8.85027 14.7736 9.87766V12.143H18.2887L17.8302 15.6924H14.7736V25.6425C21.0595 24.8774 25.9328 19.533 25.9328 13.04C25.9328 6.02709 20.2446 0.338898 13.2282 0.338898Z" fill="white"/>
</g>
<defs>
<clipPath id="clip0">
<rect width="25.4094" height="25.4094" fill="white" transform="translate(0.523438 0.286041)"/>
</clipPath>
</defs>
</svg>
