<svg width="806" height="766" viewBox="0 0 806 766" fill="none" xmlns="http://www.w3.org/2000/svg">
<g clip-path="url(#clip0)">
<path d="M713.194 240.782C713.194 240.782 700.301 230.882 681.504 262.111C662.707 293.34 655.114 311.416 655.114 311.416C655.114 311.416 650.277 317.885 645.938 313.193C641.598 308.501 636.121 295.419 628.03 297.108C619.654 298.885 616.293 307.772 616.897 321.405C617.502 335.037 617.751 364.737 617.751 367.439C617.751 370.141 615.973 373.838 612.416 370.994C608.859 368.15 589.582 343.32 578.307 353.22C567.033 363.12 574.911 400.641 575.711 404.764C576.511 408.888 575.569 410.541 573.577 411.412C571.585 412.282 565.877 403.289 560.08 396.428C554.282 389.567 546.351 382.618 540.322 388.874C534.294 395.131 530.541 422.645 553.624 469.283L565.735 490.221L590.027 490.594C642.079 488.248 664.326 471.718 666.904 463.418C669.483 455.117 659.56 451.545 650.739 449.785C641.919 448.026 631.302 447.35 631.089 445.182C630.875 443.013 631.907 441.414 635.908 440.116C639.909 438.819 676.578 427.675 679.797 412.976C683.016 398.277 651.842 393.424 647.787 391.647C643.732 389.87 646.133 386.564 648.445 385.302C650.757 384.04 677.023 369.838 689.205 363.813C701.386 357.788 707.61 350.518 705.103 342.342C702.702 334.451 688.635 335.944 682.376 334.433C676.116 332.922 679.441 325.546 679.441 325.546C679.441 325.546 691.73 310.118 709.958 278.623C728.186 247.128 712.874 240.534 712.874 240.534" fill="#DAF9C9"/>
<path d="M696.3 268.758C696.3 268.758 696.193 268.99 695.962 269.434L694.86 271.389C693.882 273.166 692.441 275.637 690.609 278.872C686.91 285.359 681.487 294.726 674.747 306.261C661.267 329.367 642.381 361.076 621.396 396.055C600.412 431.034 581.455 462.725 567.869 485.724L551.863 513.007L547.489 520.401L546.333 522.32C546.066 522.765 545.924 522.96 545.924 522.96C545.924 522.96 546.031 522.729 546.262 522.285C546.493 521.84 546.884 521.165 547.347 520.33L551.615 512.847C555.313 506.359 560.737 496.993 567.477 485.457C580.957 462.351 599.843 430.643 620.827 395.664C641.812 360.685 660.769 328.994 674.355 305.995L690.36 278.73L694.735 271.318L695.891 269.398C696.158 268.865 696.3 268.758 696.3 268.758Z" fill="#E0E0E0"/>
<path d="M634.965 315.557C635.199 316.092 635.366 316.653 635.463 317.228C635.73 318.33 636.085 319.912 636.494 321.885C637.312 325.813 638.273 331.269 639.286 337.33C640.3 343.391 641.065 348.688 641.758 352.811C642.06 354.677 642.327 356.241 642.523 357.503C642.657 358.087 642.734 358.682 642.754 359.281C642.518 358.746 642.345 358.185 642.238 357.61C641.972 356.526 641.616 354.926 641.225 352.953C640.442 349.025 639.535 343.551 638.539 337.49C637.543 331.429 636.654 326.15 635.979 322.027C635.658 320.249 635.392 318.614 635.178 317.352C635.043 316.763 634.971 316.161 634.965 315.557Z" fill="#E0E0E0"/>
<path d="M644.924 359.814C644.924 359.619 656.074 357.077 669.821 354.162C683.567 351.247 694.895 349.025 694.948 349.221C695.002 349.416 683.816 351.958 670.052 354.891C656.287 357.823 644.977 360.027 644.924 359.814Z" fill="#E0E0E0"/>
<path d="M610.3 412.087C610.891 412.017 611.487 412.017 612.078 412.087L616.915 412.443C621.005 412.745 626.661 413.136 632.92 413.331C639.18 413.527 644.835 413.545 648.925 413.509H653.78C654.371 413.432 654.968 413.432 655.559 413.509C654.976 413.649 654.379 413.72 653.78 413.722C652.624 413.722 650.971 413.918 648.925 413.989C644.817 414.167 639.145 414.255 632.92 413.989C626.696 413.722 620.988 413.313 616.915 412.887C614.87 412.656 613.216 412.46 612.078 412.283C611.479 412.294 610.882 412.228 610.3 412.087Z" fill="#E0E0E0"/>
<path d="M592.463 374.033C592.809 374.468 593.096 374.946 593.316 375.455C593.868 376.539 594.561 377.854 595.379 379.436C597.158 382.813 599.398 387.506 601.924 392.713C604.449 397.921 606.69 402.631 608.272 406.079C609.001 407.679 609.624 409.048 610.051 410.167C610.315 410.654 610.512 411.174 610.637 411.714C610.292 411.279 610.005 410.801 609.784 410.292C609.233 409.208 608.539 407.874 607.721 406.31C605.943 402.933 603.702 398.241 601.177 393.033C598.651 387.826 596.411 383.098 594.828 379.667L593.05 375.579C592.799 375.087 592.602 374.568 592.463 374.033Z" fill="#E0E0E0"/>
<path d="M556.025 416.282C556.426 416.846 556.783 417.44 557.092 418.059L559.759 423.16C561.965 427.479 564.988 433.469 568.278 440.098C571.568 446.728 574.52 452.771 576.618 457.144L579.054 462.351C579.391 462.972 579.66 463.628 579.855 464.306C579.461 463.737 579.105 463.144 578.788 462.529L576.138 457.428C573.915 453.109 570.892 447.119 567.602 440.49C564.312 433.86 561.378 427.835 559.279 423.444L556.825 418.237C556.485 417.618 556.216 416.962 556.025 416.282Z" fill="#E0E0E0"/>
<path d="M579.624 463.045C580.375 462.975 581.131 462.975 581.882 463.045L588.035 463.293C593.228 463.489 600.483 463.72 608.344 463.773C616.204 463.827 623.46 463.685 628.652 463.542L634.823 463.382C635.575 463.322 636.33 463.322 637.082 463.382C636.338 463.536 635.582 463.625 634.823 463.649C633.383 463.773 631.266 463.916 628.67 464.04C623.477 464.307 616.222 464.538 608.344 464.484C600.466 464.431 593.21 464.111 588.017 463.773C585.403 463.613 583.305 463.453 581.864 463.311C581.111 463.294 580.36 463.204 579.624 463.045Z" fill="#E0E0E0"/>
<path d="M306.13 299.056L295.904 299.111L298.363 753.262L308.588 753.207L306.13 299.056Z" fill="#E0E0E0"/>
<path d="M330.634 298.923L320.409 298.979L322.867 753.13L333.092 753.074L330.634 298.923Z" fill="#E0E0E0"/>
<path d="M546.031 239.289H253.424C242.08 239.289 232.884 248.48 232.884 259.818V733.527C232.884 744.865 242.08 754.056 253.424 754.056H546.031C557.375 754.056 566.571 744.865 566.571 733.527V259.818C566.571 248.48 557.375 239.289 546.031 239.289Z" fill="#455A64"/>
<path d="M86.1378 658.76C88.8841 654.875 92.3875 651.585 96.437 649.091C100.486 646.596 104.998 644.948 109.7 644.246C119.11 642.898 128.701 643.725 137.739 646.662C155.318 651.832 171.63 665.183 184.016 678.676C168.202 691.489 144.612 690.929 132.661 689.933C113.772 688.302 80.6398 673.899 86.17 658.706" fill="#8ED864"/>
<path d="M216.671 666.329C211.363 666.465 206.115 665.195 201.457 662.646C196.8 660.097 192.9 656.361 190.151 651.815C187.494 647.225 185.775 642.151 185.095 636.889C184.415 631.626 184.788 626.279 186.191 621.16C186.587 618.746 187.5 616.446 188.87 614.419C190.239 612.392 192.031 610.686 194.122 609.419C196.259 608.573 198.583 608.316 200.852 608.675C203.121 609.033 205.252 609.995 207.023 611.46C210.531 614.436 213.188 618.289 214.726 622.628C220.667 637.174 223.705 652.292 216.671 666.329Z" fill="#8ED864"/>
<path d="M268.307 695.175C267.071 694.886 265.862 694.493 264.692 694.001C262.214 693.068 258.981 691.866 255.075 690.445C244.296 686.794 234.17 681.44 225.082 674.586C215.993 667.52 208.965 658.141 204.733 647.426C203.507 644.194 202.67 640.828 202.239 637.398C202.109 636.473 202.043 635.54 202.042 634.605C202.009 634.277 202.011 633.947 202.047 633.619C202.793 638.215 203.979 642.728 205.589 647.096C209.995 657.462 216.953 666.541 225.814 673.485C234.8 680.255 244.743 685.649 255.316 689.49C259.32 691.116 262.568 692.474 264.804 693.446C266.024 693.911 267.196 694.49 268.307 695.175Z" fill="#263238"/>
<path d="M112.348 667.477C112.892 667.458 113.437 667.49 113.975 667.571L118.65 668.134C122.684 668.606 128.555 669.372 135.773 670.393C150.208 672.437 170.111 675.553 192.023 679.469C213.936 683.386 233.7 687.408 247.969 690.525C255.091 692.075 260.892 693.385 264.792 694.326C266.673 694.792 268.181 695.145 269.355 695.445C269.897 695.551 270.427 695.709 270.939 695.916C270.39 695.894 269.844 695.824 269.307 695.709L264.712 694.828C260.538 693.979 254.887 692.905 247.76 691.425C233.469 688.589 213.695 684.707 191.89 680.855C170.086 677.003 150.129 673.671 135.725 671.391C128.669 670.283 122.868 669.339 118.758 668.565L114.142 667.781C113.532 667.77 112.927 667.668 112.348 667.477Z" fill="#263238"/>
<path d="M223.08 694.465C211.888 694.364 200.832 696.935 190.827 701.966C180.822 706.997 172.158 714.342 165.552 723.392C162.256 728.051 159.478 734.413 162.543 739.142C165.607 743.87 172.496 744.218 178.059 743.113C189.66 740.561 200.249 734.631 208.496 726.07C216.743 717.509 222.278 706.699 224.406 695.001" fill="#8ED864"/>
<path d="M182.977 723.921C183.567 722.891 184.23 721.904 184.961 720.968C185.73 719.816 186.58 718.721 187.505 717.69C188.597 716.475 189.71 714.98 191.211 713.569C192.733 711.999 194.34 710.515 196.026 709.123C197.954 707.428 199.983 705.853 202.102 704.405C211.802 697.606 223.02 693.297 234.769 691.856C237.302 691.55 239.849 691.374 242.4 691.33C244.622 691.324 246.842 691.43 249.052 691.646C251.115 691.745 252.931 692.135 254.52 692.353C255.906 692.54 257.278 692.822 258.625 693.197C259.788 693.407 260.924 693.743 262.014 694.199C261.868 694.442 257.068 693.109 248.994 692.601C246.793 692.452 244.585 692.428 242.38 692.527C239.823 692.569 237.27 692.754 234.733 693.08C228.998 693.889 223.368 695.324 217.945 697.36C212.567 699.501 207.426 702.196 202.604 705.401C200.497 706.81 198.472 708.339 196.539 709.979C194.825 711.355 193.181 712.818 191.616 714.361C186.096 719.925 183.365 724.19 182.977 723.921Z" fill="#263238"/>
<path d="M409.953 730.114C409.773 732.607 408.869 734.992 407.351 736.978C405.834 738.964 403.77 740.464 401.412 741.294C399.053 742.124 396.504 742.248 394.076 741.651C391.649 741.053 389.449 739.76 387.746 737.931C386.043 736.101 384.912 733.814 384.491 731.351C384.069 728.888 384.377 726.356 385.376 724.065C386.374 721.774 388.02 719.824 390.112 718.455C392.203 717.086 394.649 716.357 397.149 716.357C400.67 716.492 403.994 718.015 406.394 720.593C408.793 723.171 410.073 726.595 409.953 730.114Z" fill="#263238"/>
<path d="M447.796 254.113H351.641C350.443 254.113 349.472 255.084 349.472 256.281V257.632C349.472 258.83 350.443 259.8 351.641 259.8H447.796C448.994 259.8 449.966 258.83 449.966 257.632V256.281C449.966 255.084 448.994 254.113 447.796 254.113Z" fill="#263238"/>
<path d="M556.896 268.83H244.265V703.134H556.896V268.83Z" fill="white"/>
<path d="M475.733 658.308L476.889 658.201C478.012 658.132 479.13 657.984 480.232 657.757C482.017 657.376 483.749 656.779 485.389 655.98C487.642 654.918 489.693 653.475 491.453 651.714C493.68 649.521 495.413 646.879 496.54 643.964C497.854 640.499 498.348 636.775 497.98 633.087C497.583 628.572 495.818 624.285 492.92 620.798C490.022 617.311 486.13 614.79 481.762 613.571C480.548 613.242 479.312 613.005 478.063 612.86C476.782 612.86 475.502 612.718 474.168 612.736H466.059H448.862H410.895H323.916C320.146 612.763 316.443 613.728 313.14 615.544C309.904 617.376 307.18 619.992 305.219 623.15C303.259 626.308 302.124 629.909 301.918 633.62C301.63 637.252 302.183 640.901 303.537 644.284C304.919 647.548 307.044 650.445 309.743 652.745C312.412 654.977 315.567 656.553 318.955 657.348C322.327 657.956 325.759 658.165 329.18 657.97H339.263L410.308 658.077L458.199 658.219L471.216 658.308H474.595H475.751H474.595H471.216H458.199L410.308 658.45L339.263 658.557H323.952C323.08 658.557 322.174 658.557 321.302 658.397C320.423 658.287 319.551 658.133 318.688 657.935C315.162 657.113 311.879 655.475 309.103 653.154C306.291 650.763 304.075 647.751 302.63 644.355C301.235 640.871 300.657 637.114 300.94 633.371C301.173 629.58 302.367 625.911 304.408 622.707C306.458 619.418 309.309 616.703 312.695 614.815C316.137 612.914 320.001 611.906 323.934 611.883H410.913H448.88H474.186C475.502 611.883 476.836 611.883 478.152 612.007C479.437 612.169 480.709 612.425 481.957 612.771C486.47 614.058 490.477 616.701 493.436 620.341C496.395 623.982 498.161 628.444 498.496 633.122C498.847 636.883 498.317 640.675 496.949 644.196C495.781 647.149 493.999 649.821 491.72 652.034C489.914 653.804 487.814 655.248 485.514 656.3C483.844 657.103 482.082 657.7 480.268 658.077C479.152 658.28 478.022 658.393 476.889 658.415C476.195 658.326 475.733 658.308 475.733 658.308Z" fill="#263238"/>
<path d="M360.479 632.376L359.377 633.762C358.982 633.326 358.503 632.975 357.967 632.731C357.432 632.486 356.853 632.353 356.265 632.341C355.725 632.304 355.184 632.379 354.674 632.561C354.165 632.742 353.698 633.026 353.303 633.395C352.908 633.764 352.594 634.211 352.378 634.706C352.163 635.202 352.052 635.737 352.052 636.277C352.052 636.818 352.163 637.353 352.378 637.848C352.594 638.344 352.908 638.79 353.303 639.16C353.698 639.529 354.165 639.813 354.674 639.994C355.184 640.176 355.725 640.251 356.265 640.214C357.432 640.189 358.545 639.719 359.377 638.899L360.497 640.143C359.33 641.266 357.778 641.902 356.158 641.921C355.387 641.964 354.616 641.849 353.891 641.584C353.167 641.319 352.504 640.909 351.943 640.38C351.382 639.85 350.935 639.211 350.63 638.503C350.325 637.794 350.167 637.031 350.167 636.26C350.167 635.488 350.325 634.725 350.63 634.017C350.935 633.308 351.382 632.67 351.943 632.14C352.504 631.61 353.167 631.2 353.891 630.935C354.616 630.67 355.387 630.556 356.158 630.599C357.775 630.604 359.326 631.242 360.479 632.376Z" fill="#263238"/>
<path d="M373.052 636.304C373.109 637.489 372.81 638.663 372.192 639.676C371.575 640.689 370.669 641.494 369.59 641.987C368.511 642.48 367.308 642.639 366.138 642.443C364.968 642.247 363.883 641.706 363.024 640.888C362.164 640.07 361.57 639.014 361.316 637.855C361.063 636.697 361.163 635.489 361.603 634.387C362.043 633.286 362.803 632.341 363.785 631.676C364.767 631.01 365.926 630.653 367.113 630.652C367.876 630.623 368.638 630.748 369.353 631.018C370.068 631.289 370.721 631.699 371.275 632.226C371.828 632.753 372.271 633.385 372.576 634.085C372.881 634.786 373.043 635.54 373.052 636.304ZM363.093 636.304C363.103 637.366 363.533 638.382 364.289 639.128C365.046 639.874 366.067 640.29 367.13 640.285C367.916 640.275 368.681 640.033 369.329 639.589C369.977 639.145 370.479 638.519 370.772 637.791C371.066 637.063 371.137 636.264 370.977 635.495C370.818 634.726 370.434 634.022 369.875 633.471C369.316 632.919 368.606 632.545 367.835 632.396C367.063 632.246 366.265 632.328 365.54 632.631C364.816 632.934 364.197 633.444 363.761 634.098C363.326 634.751 363.094 635.519 363.093 636.304Z" fill="#263238"/>
<path d="M383.011 641.903L377.035 633.869V641.903H375.15V630.705H376.929L382.939 638.757V630.705H384.718V641.903H383.011Z" fill="#263238"/>
<path d="M389.715 632.394V635.629H394.801V637.317H389.715V641.903H387.812V630.705H395.353V632.394H389.715Z" fill="#263238"/>
<path d="M397.024 641.903V630.705H398.909V641.903H397.024Z" fill="#263238"/>
<path d="M406.841 638.455H403.675V641.832H401.861V630.634H406.396C409.259 630.634 410.913 632.021 410.913 634.456C410.961 635.218 410.762 635.975 410.345 636.615C409.929 637.255 409.317 637.745 408.601 638.01L411.109 641.761H408.957L406.841 638.455ZM406.325 636.784C408.103 636.784 409.046 636.037 409.046 634.527C409.046 633.016 408.068 632.34 406.325 632.34H403.675V636.784H406.325Z" fill="#263238"/>
<path d="M423.521 641.903V633.531L419.965 640.641H418.72L415.163 633.531V641.903H413.385V630.705H415.732L419.431 638.135L423.112 630.705H425.353V641.903H423.521Z" fill="#263238"/>
<path d="M430.119 632.394V635.415H435.596V637.193H430.119V640.232H436.432V641.921H428.181V630.723H436.183V632.412L430.119 632.394Z" fill="#263238"/>
<path d="M443.332 630.705C444.818 630.705 446.242 631.295 447.293 632.345C448.343 633.395 448.934 634.819 448.934 636.304C448.934 637.789 448.343 639.213 447.293 640.263C446.242 641.313 444.818 641.903 443.332 641.903H438.779V630.705H443.332ZM440.629 640.232H443.367C443.88 640.245 444.389 640.152 444.865 639.96C445.34 639.768 445.771 639.481 446.131 639.116C446.49 638.752 446.772 638.317 446.957 637.839C447.143 637.362 447.228 636.851 447.209 636.34C447.223 635.821 447.132 635.305 446.941 634.823C446.75 634.341 446.462 633.903 446.096 633.536C445.73 633.168 445.293 632.879 444.812 632.686C444.331 632.493 443.815 632.399 443.296 632.412H440.629V640.232Z" fill="#263238"/>
<path d="M279.778 420.227L516.581 418.521L523.179 579.428L277.982 577.153L279.778 420.227Z" fill="#8ED864"/>
<path d="M279.778 420.227L399.994 323.004L516.582 418.521" fill="#8ED864"/>
<g opacity="0.3">
<path opacity="0.3" d="M279.778 420.227L399.994 323.004L516.582 418.521" fill="black"/>
</g>
<path d="M277.982 577.153C277.68 576.886 296.637 556.197 320.324 530.941C344.012 505.684 363.431 485.457 363.733 485.742C364.036 486.026 345.079 506.697 321.391 531.954C297.704 557.21 278.284 577.437 277.982 577.153Z" fill="#263238"/>
<path d="M523.179 579.428C522.877 579.694 504.418 559.432 481.957 534.158C459.497 508.883 441.518 488.177 441.82 487.946C442.122 487.715 460.582 507.941 483.042 533.216C505.502 558.49 523.481 579.161 523.179 579.428Z" fill="#263238"/>
<g opacity="0.5">
<path opacity="0.5" d="M516.582 418.521L397.664 513.451L279.778 420.227" fill="black"/>
</g>
<path d="M291.711 429.025L291.355 360.187L498.763 355.104L501.021 430.43L397.664 512.207L291.711 429.025Z" fill="#EBEBEB"/>
<path d="M400.563 487.484C393.287 487.503 386.089 485.983 379.443 483.024C372.796 480.065 366.851 475.733 361.999 470.314C357.147 464.895 353.496 458.512 351.288 451.582C349.08 444.653 348.364 437.335 349.187 430.11C350.727 416.52 357.605 404.097 368.309 395.576C379.013 387.054 392.665 383.132 406.263 384.671C419.86 386.21 432.289 393.085 440.815 403.783C449.341 414.481 453.266 428.126 451.726 441.716C450.307 454.292 444.308 465.907 434.873 474.347C425.438 482.787 413.226 487.463 400.563 487.484ZM400.421 386.173C390.815 386.183 381.418 388.97 373.361 394.197C365.305 399.425 358.933 406.87 355.014 415.635C351.095 424.4 349.796 434.111 351.274 443.597C352.752 453.083 356.943 461.939 363.343 469.098C369.743 476.257 378.078 481.413 387.344 483.945C396.609 486.476 406.409 486.276 415.563 483.366C424.717 480.457 432.834 474.964 438.934 467.548C445.035 460.133 448.86 451.112 449.947 441.574C450.69 435.075 450.143 428.494 448.339 422.206C446.534 415.919 443.507 410.048 439.431 404.931C435.355 399.813 430.309 395.549 424.583 392.383C418.856 389.216 412.561 387.208 406.058 386.475C404.188 386.233 402.306 386.096 400.421 386.066V386.173Z" fill="#E8505B"/>
<path d="M365.387 443.067L373.994 432.509L394.178 447.066L426.953 408.461L436.841 417.135L394.676 465.693L365.387 443.067Z" fill="#E8505B"/>
<path d="M623.673 512.865C623.761 513.181 623.92 513.472 624.139 513.716C624.358 513.961 624.63 514.151 624.935 514.273C625.239 514.396 625.568 514.446 625.895 514.42C626.222 514.395 626.539 514.294 626.821 514.127C627.366 513.727 627.786 513.181 628.032 512.551C628.277 511.921 628.338 511.235 628.208 510.572C627.924 509.26 627.386 508.016 626.625 506.91C627.144 507.201 627.723 507.369 628.317 507.402C628.912 507.435 629.505 507.332 630.054 507.101C630.602 506.87 631.09 506.517 631.482 506.068C631.873 505.62 632.157 505.089 632.312 504.515C632.466 503.94 632.488 503.338 632.375 502.754C632.262 502.17 632.017 501.62 631.659 501.145C631.301 500.67 630.839 500.283 630.309 500.013C629.779 499.743 629.194 499.597 628.599 499.588C630.29 499.341 631.891 498.675 633.258 497.65C633.924 497.115 634.408 496.387 634.643 495.566C634.879 494.745 634.855 493.871 634.574 493.065C634.399 492.688 634.137 492.358 633.81 492.102C633.483 491.847 633.101 491.671 632.693 491.592C632.285 491.512 631.865 491.53 631.465 491.644C631.066 491.758 630.699 491.964 630.395 492.247C631.315 491.735 632.12 491.039 632.76 490.203C633.074 489.78 633.254 489.273 633.276 488.747C633.298 488.221 633.162 487.7 632.885 487.253C632.466 486.812 631.919 486.516 631.321 486.408C630.723 486.299 630.106 486.383 629.559 486.648C628.473 487.172 627.421 487.766 626.412 488.426C625.131 489.104 623.694 489.433 622.245 489.38C620.797 489.327 619.388 488.894 618.16 488.123L611.527 493.598L623.673 512.865Z" fill="#263238"/>
<path d="M588.231 482.774C586.391 483.382 584.764 484.503 583.542 486.005C582.319 487.507 581.552 489.328 581.331 491.252C581.221 491.95 581.25 492.663 581.418 493.349C581.586 494.036 581.889 494.682 582.309 495.251C582.904 495.861 583.651 496.302 584.473 496.527C585.296 496.752 586.163 496.753 586.986 496.53C588.621 496.076 590.142 495.283 591.45 494.202C592.488 493.605 593.395 492.805 594.116 491.849C594.838 490.893 595.358 489.801 595.647 488.639C595.706 487.457 595.396 486.286 594.758 485.289C594.121 484.292 593.188 483.518 592.09 483.076C590.991 482.66 589.816 482.479 588.643 482.547C587.469 482.614 586.323 482.928 585.279 483.467" fill="#263238"/>
<path d="M593.975 515.602C593.393 517.961 592.4 520.199 591.041 522.214C590.357 523.218 589.471 524.067 588.439 524.707C587.406 525.347 586.251 525.763 585.048 525.928C583.842 526.062 582.626 525.797 581.586 525.175C580.545 524.552 579.737 523.605 579.286 522.48C579.086 523.171 578.708 523.798 578.19 524.297C577.672 524.796 577.032 525.15 576.334 525.324C575.629 525.476 574.893 525.399 574.235 525.105C573.576 524.811 573.028 524.315 572.67 523.689C572.35 523.046 572.279 522.309 572.469 521.617C572.659 520.925 573.098 520.327 573.702 519.939C572.279 520.738 570.501 521.556 569.096 520.721C568.493 520.34 568.05 519.752 567.851 519.068C567.122 516.828 568.509 514.482 570.056 512.705C571.603 510.927 573.417 509.15 573.791 506.875C573.899 504.988 573.615 503.1 572.955 501.329C572.376 499.305 572.29 497.172 572.706 495.108C572.92 494.073 573.346 493.092 573.958 492.229C574.57 491.367 575.355 490.64 576.263 490.096C577.17 489.564 578.215 489.313 579.266 489.373C580.316 489.433 581.326 489.802 582.167 490.434L582.469 493.456L594.028 515.602" fill="#263238"/>
<path d="M621.628 550.83C621.628 550.83 625.772 594.642 622.286 600.347C618.801 606.053 576.049 665.684 576.049 665.684H576.156C575.32 666.04 574.378 666.377 573.453 666.751C571.962 667.279 570.393 667.556 568.811 667.568C566.851 667.659 564.887 667.474 562.979 667.017C561.2 666.413 559.724 668.208 560.649 669.559C561.574 670.91 566.251 672.652 572.048 672.101C577.845 671.55 571.319 677.966 568.989 680.348C566.66 682.729 559.795 690.461 559.973 691.758C560.222 693.66 562.303 693.749 564.579 691.314C566.855 688.879 574.164 682.036 575.374 683.334C576.583 684.631 564.526 696.593 564.526 696.593C564.526 696.593 561.538 698.744 562.89 700.29C565.29 703.063 577.116 689.377 578.237 688.044C579.001 687.119 580.353 688.47 579.481 689.412C578.61 690.354 567.211 701.108 569.647 703.951C571.515 706.138 579.499 692.772 583.092 691.865C586.684 690.959 575.978 701.374 577.881 703.4C578.575 704.147 579.197 704.609 584.461 697.73C588.626 691.738 592.456 685.52 595.931 679.103C601.533 673.043 656.75 613.127 657.177 601.929C657.622 590.145 659.738 550.261 659.738 550.261L621.628 550.83Z" fill="#EB996E"/>
<path d="M555.776 745.844L555.26 729.581L585.741 728.444L586.737 752.225L584.852 752.421C576.458 753.203 542.172 755.798 536.428 754.305C530.097 752.634 555.776 745.844 555.776 745.844Z" fill="#E8505B"/>
<g opacity="0.4">
<path opacity="0.4" d="M543.239 749.612C543.239 749.612 534.258 752.563 535.45 754.02C536.641 755.478 571.425 754.145 586.737 752.243L586.648 751.568L546.084 753.452C546.084 753.452 545.017 749.612 543.239 749.612Z" fill="white"/>
</g>
<path d="M587.129 751.514H586.613L585.119 751.656L579.589 752.118C574.911 752.456 568.456 752.847 561.307 753.132C554.158 753.416 547.685 753.505 543.008 753.523H537.46H535.948C535.771 753.549 535.591 753.549 535.415 753.523H535.948H537.46L542.99 753.434C547.685 753.345 554.158 753.203 561.289 752.918C568.421 752.634 574.894 752.296 579.571 752.012L585.101 751.674H586.613L587.129 751.514Z" fill="#263238"/>
<path d="M546.102 753.985C545.831 753.074 545.455 752.197 544.982 751.372C544.401 750.621 543.739 749.935 543.008 749.328C543.958 749.623 544.768 750.255 545.284 751.105C545.921 751.922 546.215 752.955 546.102 753.985Z" fill="#263238"/>
<path d="M554.923 749.008C554.923 749.008 554.389 748.564 553.927 747.871C553.591 747.486 553.348 747.03 553.215 746.538C553.304 746.538 553.749 746.982 554.229 747.657C554.709 748.333 555.011 748.955 554.923 749.008Z" fill="#263238"/>
<path d="M557.341 747.604C557.341 747.604 556.79 747.391 556.239 746.929C555.687 746.467 555.314 746.058 555.385 745.969C555.456 745.88 555.936 746.2 556.488 746.644C557.039 747.089 557.413 747.533 557.341 747.604Z" fill="#263238"/>
<path d="M558.799 744.671C558.297 744.874 557.757 744.965 557.217 744.938C557.171 745.128 557.057 745.295 556.896 745.407C556.735 745.519 556.539 745.569 556.344 745.546C556.15 745.523 555.97 745.429 555.84 745.283C555.71 745.136 555.638 744.947 555.638 744.751C555.638 744.555 555.71 744.366 555.84 744.22C555.97 744.074 556.15 743.98 556.344 743.957C556.539 743.934 556.735 743.983 556.896 744.095C557.057 744.207 557.171 744.374 557.217 744.565C557.746 744.484 558.286 744.52 558.799 744.671Z" fill="#263238"/>
<path d="M559.262 742.627C558.74 742.995 558.121 743.199 557.483 743.214C556.886 743.319 556.27 743.257 555.705 743.036C556.292 742.923 556.886 742.858 557.483 742.841C558.068 742.711 558.663 742.64 559.262 742.627Z" fill="#263238"/>
<path d="M553.784 746.395C553.137 746.509 552.475 746.509 551.828 746.395C551.119 746.334 550.417 746.209 549.73 746.022C549.313 745.916 548.907 745.767 548.521 745.578C548.279 745.447 548.096 745.232 548.005 744.973C547.97 744.831 547.976 744.682 548.023 744.543C548.071 744.405 548.157 744.282 548.272 744.191C549.002 743.788 549.851 743.654 550.67 743.813C551.49 743.973 552.227 744.415 552.753 745.062C553.073 745.434 553.31 745.871 553.446 746.342C553.486 746.518 553.486 746.7 553.446 746.875C553.221 746.28 552.896 745.727 552.486 745.24C552.008 744.729 551.389 744.37 550.708 744.209C550.322 744.095 549.918 744.058 549.518 744.1C549.118 744.143 548.731 744.265 548.378 744.458C548.076 744.707 548.218 745.062 548.574 745.258C548.926 745.436 549.296 745.579 549.676 745.684C550.344 745.89 551.028 746.039 551.721 746.129C553.037 746.36 553.784 746.324 553.784 746.395Z" fill="#263238"/>
<path d="M553.286 746.502C553.035 746.1 552.94 745.619 553.02 745.151C553.051 744.638 553.216 744.141 553.5 743.712C553.648 743.411 553.872 743.155 554.149 742.968C554.427 742.781 554.749 742.67 555.082 742.645C555.281 742.68 555.458 742.79 555.577 742.952C555.697 743.115 555.749 743.316 555.723 743.516C555.699 743.833 555.595 744.139 555.42 744.405C555.183 744.849 554.891 745.261 554.549 745.631C553.944 746.253 553.482 746.502 553.446 746.467C553.411 746.431 553.82 746.093 554.353 745.453C554.65 745.085 554.907 744.686 555.118 744.263C555.367 743.836 555.527 743.072 555.029 743.018C554.531 742.965 554.069 743.481 553.784 743.889C553.523 744.281 553.348 744.723 553.269 745.187C553.235 745.625 553.241 746.065 553.286 746.502Z" fill="#263238"/>
<path d="M586.186 743.196C586.186 743.196 585.314 743.196 583.945 743.356C582.16 743.642 580.487 744.41 579.108 745.578C577.75 746.764 576.747 748.301 576.209 750.021C575.782 751.354 575.782 752.225 575.711 752.225C575.68 752.019 575.68 751.809 575.711 751.603C575.744 751.045 575.834 750.491 575.978 749.95C576.456 748.14 577.471 746.518 578.89 745.296C580.309 744.074 582.065 743.311 583.927 743.107C584.483 743.046 585.043 743.046 585.599 743.107C585.798 743.101 585.997 743.131 586.186 743.196Z" fill="#263238"/>
<path d="M582.558 730.648C582.846 732.716 583.012 734.799 583.056 736.887C583.228 738.973 583.269 741.069 583.18 743.161C582.903 741.086 582.736 738.997 582.683 736.904C582.511 734.823 582.469 732.734 582.558 730.648Z" fill="#263238"/>
<path d="M571.728 749.577C570.284 749.968 568.796 750.171 567.3 750.181C565.804 750.31 564.299 750.251 562.818 750.004C562.818 749.897 564.828 750.004 567.282 749.808C569.736 749.612 571.71 749.47 571.728 749.577Z" fill="#263238"/>
<path d="M577.703 749.346C577.703 749.346 577.543 749.772 577.365 750.235C577.187 750.697 577.081 751.106 576.974 751.106C576.867 751.106 576.796 750.626 576.974 750.092C577.152 749.559 577.561 749.275 577.703 749.346Z" fill="#263238"/>
<path d="M579.837 746.449C579.837 746.449 579.73 746.84 579.428 747.178C579.125 747.515 578.823 747.729 578.734 747.657C578.645 747.586 578.859 747.266 579.161 746.929C579.463 746.591 579.766 746.378 579.837 746.449Z" fill="#263238"/>
<path d="M583.02 745.098C583.02 745.204 582.593 745.222 582.149 745.4C581.704 745.578 581.384 745.827 581.313 745.755C581.242 745.684 581.473 745.258 582.024 745.045C582.575 744.831 583.038 744.956 583.02 745.098Z" fill="#263238"/>
<path d="M585.279 744.369C585.279 744.458 585.154 744.618 584.905 744.724C584.656 744.831 584.425 744.849 584.372 744.724C584.318 744.6 584.514 744.458 584.763 744.351C585.012 744.245 585.243 744.262 585.279 744.369Z" fill="#263238"/>
<g opacity="0.3">
<path opacity="0.3" d="M586.114 742.379L555.651 743.036L555.562 739.357L586.292 740.441L586.114 742.379Z" fill="black"/>
</g>
<path d="M670.515 635.504L574.164 634.189C574.164 634.189 547.329 636.677 547.329 671.585L550.726 740.317H591.788L588.996 674.447C591.29 674.447 622.375 675.478 622.375 675.478L670.515 635.504Z" fill="#263238"/>
<path d="M550.744 740.317C550.661 739.925 550.619 739.526 550.619 739.126C550.619 738.255 550.495 737.117 550.423 735.713L549.694 723.165C549.072 712.501 547.916 697.944 547.062 681.734C546.778 673.647 546.155 665.898 547.062 658.842C547.28 657.122 547.631 655.423 548.112 653.758C548.613 652.195 549.275 650.689 550.086 649.261C551.546 646.707 553.435 644.423 555.67 642.507C557.512 640.939 559.543 639.608 561.716 638.544C563.367 637.801 565.081 637.206 566.838 636.766L568.758 636.304L570.199 636.073C570.591 635.992 570.99 635.951 571.39 635.949C571.018 636.095 570.63 636.197 570.234 636.251L568.829 636.571L566.926 637.104C565.222 637.642 563.558 638.302 561.947 639.077C559.843 640.162 557.878 641.499 556.096 643.058C553.965 644.966 552.162 647.212 550.761 649.706C550.027 651.102 549.431 652.566 548.983 654.078C548.532 655.705 548.199 657.362 547.987 659.037C547.08 665.933 547.72 673.683 547.987 681.77C548.787 697.944 549.89 712.572 550.352 723.201C550.601 728.533 550.726 732.798 550.779 735.767C550.779 737.189 550.779 738.308 550.779 739.197C550.808 739.57 550.796 739.946 550.744 740.317Z" fill="#455A64"/>
<path d="M734.641 745.862L718.387 746.946L716.271 716.553L740.012 714.776L740.279 716.553C741.346 724.907 745.151 759.21 743.835 764.845C742.341 771.279 734.641 745.862 734.641 745.862Z" fill="#E8505B"/>
<g opacity="0.4">
<path opacity="0.4" d="M738.856 758.251C738.856 758.251 742.11 767.137 743.533 765.876C744.956 764.614 742.395 729.937 739.976 714.722H739.301L742.626 755.193C742.626 755.193 738.785 756.473 738.856 758.251Z" fill="white"/>
</g>
<path d="M739.194 714.349C739.251 714.516 739.287 714.689 739.301 714.865C739.301 715.309 739.425 715.807 739.496 716.358C739.674 717.851 739.887 719.699 740.136 721.867C740.652 726.524 741.274 732.958 741.79 740.086C742.306 747.213 742.661 753.665 742.839 758.357C742.839 760.526 742.964 762.392 743.017 763.885C743.017 764.454 743.017 764.951 743.017 765.396C743.037 765.573 743.037 765.752 743.017 765.929C743.006 765.751 743.006 765.573 743.017 765.396C743.017 764.951 743.017 764.454 742.928 763.903C742.928 762.392 742.75 760.543 742.626 758.357C742.377 753.683 742.004 747.231 741.488 740.103C740.972 732.976 740.367 726.542 739.923 721.885C739.727 719.717 739.549 717.868 739.407 716.375C739.407 715.807 739.318 715.327 739.265 714.865C739.212 714.402 739.194 714.349 739.194 714.349Z" fill="#263238"/>
<path d="M743.035 755.229C742.142 755.55 741.284 755.961 740.474 756.455C739.737 757.056 739.074 757.742 738.5 758.499C738.778 757.522 739.412 756.685 740.278 756.153C741.054 755.519 742.034 755.191 743.035 755.229Z" fill="#263238"/>
<path d="M737.824 746.591C737.824 746.68 737.398 747.142 736.74 747.64C736.082 748.137 735.477 748.475 735.406 748.386C735.335 748.297 735.851 747.835 736.509 747.337C736.892 747.002 737.34 746.748 737.824 746.591Z" fill="#263238"/>
<path d="M736.349 744.227C736.349 744.227 736.135 744.796 735.709 745.364C735.282 745.933 734.855 746.324 734.784 746.253C734.713 746.182 734.979 745.684 735.424 745.133C735.869 744.582 736.26 744.174 736.349 744.227Z" fill="#263238"/>
<path d="M733.361 742.894C733.468 742.894 733.61 743.587 733.681 744.458C733.803 744.984 733.803 745.531 733.681 746.058C733.574 746.058 733.432 745.365 733.361 744.494C733.29 743.623 733.254 742.894 733.361 742.894Z" fill="#263238"/>
<path d="M731.298 742.503C731.694 743.013 731.918 743.635 731.938 744.28C732.076 744.871 732.039 745.488 731.832 746.058C731.692 745.475 731.608 744.879 731.583 744.28C731.43 743.699 731.335 743.103 731.298 742.503Z" fill="#263238"/>
<path d="M735.246 747.817C735.414 748.455 735.462 749.118 735.388 749.772C735.348 750.486 735.241 751.194 735.068 751.888C734.981 752.309 734.85 752.72 734.677 753.114C734.557 753.354 734.355 753.543 734.108 753.647C733.963 753.689 733.81 753.69 733.666 753.649C733.521 753.608 733.391 753.528 733.29 753.416C732.86 752.698 732.698 751.852 732.832 751.026C732.965 750.2 733.385 749.448 734.019 748.902C734.382 748.571 734.813 748.322 735.281 748.173C735.443 748.1 735.621 748.07 735.797 748.084C735.205 748.319 734.662 748.663 734.197 749.097C733.706 749.58 733.372 750.199 733.236 750.874C733.131 751.262 733.107 751.667 733.165 752.065C733.223 752.462 733.363 752.844 733.574 753.185C733.823 753.487 734.179 753.345 734.357 752.972C734.521 752.611 734.652 752.236 734.748 751.852C734.927 751.176 735.052 750.486 735.121 749.79C735.246 748.653 735.193 747.835 735.246 747.817Z" fill="#263238"/>
<path d="M735.388 748.315C734.995 748.591 734.513 748.712 734.037 748.653C733.524 748.624 733.025 748.478 732.578 748.226C732.275 748.081 732.012 747.862 731.817 747.588C731.621 747.315 731.497 746.996 731.458 746.662C731.489 746.464 731.595 746.285 731.753 746.163C731.912 746.041 732.112 745.984 732.312 746.005C732.631 746.02 732.942 746.111 733.219 746.271C733.671 746.49 734.09 746.771 734.463 747.106C734.832 747.383 735.131 747.742 735.335 748.155C735.335 748.155 734.961 747.8 734.303 747.302C733.918 747.022 733.507 746.778 733.076 746.573C732.632 746.342 731.885 746.2 731.831 746.698C731.778 747.195 732.347 747.657 732.756 747.924C733.155 748.174 733.605 748.332 734.072 748.386C734.512 748.411 734.953 748.387 735.388 748.315Z" fill="#263238"/>
<path d="M730.925 715.576C730.925 715.576 730.925 716.447 731.174 717.815C731.512 719.584 732.33 721.225 733.539 722.561C734.779 723.874 736.352 724.826 738.091 725.316C739.443 725.671 740.314 725.653 740.314 725.725C740.108 725.759 739.898 725.759 739.692 725.725C739.135 725.715 738.58 725.643 738.038 725.511C736.212 725.093 734.555 724.132 733.286 722.756C732.016 721.379 731.193 719.65 730.925 717.797C730.859 717.242 730.859 716.682 730.925 716.127C730.896 715.944 730.896 715.758 730.925 715.576Z" fill="#263238"/>
<path d="M718.494 719.646C720.553 719.291 722.631 719.053 724.718 718.935C726.795 718.688 728.886 718.569 730.978 718.579C728.92 718.946 726.841 719.184 724.753 719.29C722.676 719.537 720.586 719.656 718.494 719.646Z" fill="#263238"/>
<path d="M737.807 729.795C738.251 731.225 738.508 732.707 738.572 734.203C738.776 735.689 738.776 737.196 738.572 738.682C738.465 738.682 738.447 736.691 738.234 734.238C738.02 731.785 737.7 729.83 737.807 729.795Z" fill="#263238"/>
<path d="M737.362 723.769C737.362 723.769 737.789 723.911 738.269 724.071C738.749 724.231 739.14 724.32 739.14 724.427C739.14 724.534 738.678 724.622 738.144 724.427C737.611 724.231 737.291 723.911 737.362 723.769Z" fill="#263238"/>
<path d="M734.392 721.796C734.392 721.796 734.801 721.903 735.139 722.187C735.477 722.472 735.708 722.774 735.637 722.863C735.566 722.952 735.246 722.756 734.89 722.472C734.534 722.187 734.339 721.885 734.392 721.796Z" fill="#263238"/>
<path d="M732.88 718.686C732.987 718.686 733.023 719.095 733.2 719.539C733.378 719.983 733.663 720.285 733.592 720.357C733.521 720.428 733.094 720.232 732.863 719.681C732.631 719.13 732.791 718.668 732.88 718.686Z" fill="#263238"/>
<path d="M732.116 716.446C732.116 716.446 732.383 716.553 732.489 716.802C732.596 717.051 732.632 717.282 732.489 717.335C732.347 717.388 732.223 717.211 732.098 716.962C731.974 716.713 732.027 716.482 732.116 716.446Z" fill="#263238"/>
<g opacity="0.3">
<path opacity="0.3" d="M730.106 715.665L731.831 746.076L728.168 746.289V715.576L730.106 715.665Z" fill="black"/>
</g>
<path d="M635.001 715.806C635.001 715.806 717.107 670.999 726.408 656.406C729.197 652.135 730.904 647.249 731.381 642.17C731.858 637.091 731.091 631.973 729.146 627.257L660.058 636.482L610.922 685.662C600.252 694.14 580.922 711.861 580.922 729.332C580.922 759.228 619.601 754.34 647.361 754.411C685.31 754.5 727.902 754.66 727.902 754.66L728.008 713.905L635.001 715.806Z" fill="#263238"/>
<path d="M615.493 724.338C618.955 723.258 622.337 721.934 625.611 720.374C628.99 719.05 632.266 717.476 635.41 715.664C631.945 716.746 628.564 718.076 625.291 719.646C621.913 720.964 618.638 722.533 615.493 724.338Z" fill="#455A64"/>
<path d="M622.019 714.349C624.361 714.812 626.746 715.02 629.132 714.971C631.538 715.174 633.958 715.12 636.352 714.811C634.01 714.351 631.626 714.136 629.239 714.171C626.833 713.956 624.411 714.015 622.019 714.349Z" fill="#455A64"/>
<path d="M654.652 643.396C654.423 643.703 654.167 643.988 653.887 644.249L651.54 646.56L642.808 654.967L613.768 682.445C608.095 687.777 602.582 692.807 597.763 697.553C593.467 701.687 589.671 706.31 586.453 711.328C584.314 714.725 582.74 718.447 581.793 722.347L581.384 724.125C581.384 724.658 581.26 725.102 581.189 725.511C581.166 725.892 581.094 726.268 580.975 726.631C580.932 726.253 580.932 725.871 580.975 725.493C580.975 725.085 580.975 724.622 581.082 724.089C581.189 723.556 581.278 722.916 581.402 722.205C582.228 718.214 583.738 714.395 585.866 710.919C589.037 705.796 592.816 701.075 597.123 696.86C601.906 692.043 607.401 687.049 613.128 681.681L642.363 654.451L651.255 646.275L653.727 644.071C654.017 643.823 654.327 643.597 654.652 643.396Z" fill="#455A64"/>
<path d="M630.004 554.366C628.27 555.302 626.358 555.862 624.393 556.012C622.428 556.161 620.454 555.896 618.598 555.235C616.742 554.573 615.046 553.528 613.619 552.169C612.193 550.81 611.068 549.167 610.318 547.346L607.188 539.721C607.188 539.721 596.518 543.489 591.183 533.767C588.16 528.31 583.874 518.996 580.708 511.869C579.4 508.905 578.877 505.655 579.189 502.43C579.5 499.205 580.636 496.115 582.487 493.455C591.183 482.489 598.083 484.32 611.9 486.559L613.963 486.897L636.21 536.219C637.666 539.468 637.835 543.147 636.684 546.515C635.532 549.883 633.145 552.689 630.004 554.366Z" fill="#FFBE9D"/>
<path d="M587.484 516.686C587.594 516.384 587.611 516.056 587.534 515.745C587.457 515.433 587.288 515.151 587.05 514.935C586.812 514.72 586.515 514.579 586.197 514.533C585.879 514.486 585.555 514.536 585.265 514.674C584.975 514.813 584.733 515.035 584.569 515.311C584.406 515.588 584.329 515.907 584.347 516.227C584.366 516.548 584.48 516.856 584.674 517.112C584.869 517.367 585.135 517.56 585.439 517.664C585.637 517.734 585.848 517.764 586.058 517.753C586.268 517.742 586.474 517.69 586.664 517.599C586.854 517.508 587.024 517.381 587.165 517.224C587.306 517.068 587.414 516.885 587.484 516.686Z" fill="#263238"/>
<path d="M583.109 515.051C583.358 515.14 583.909 513.878 585.261 513.149C586.613 512.42 587.964 512.58 588.017 512.332C588.071 512.083 587.733 511.994 587.128 511.905C586.33 511.786 585.514 511.943 584.816 512.349C584.101 512.749 583.539 513.374 583.216 514.127C582.896 514.642 583.002 515.015 583.109 515.051Z" fill="#263238"/>
<path d="M599.185 508.706C599.024 508.982 598.948 509.301 598.968 509.62C598.988 509.94 599.102 510.247 599.296 510.501C599.49 510.756 599.756 510.947 600.059 511.051C600.362 511.155 600.69 511.166 600.999 511.084C601.309 511.001 601.587 510.829 601.799 510.588C602.01 510.348 602.146 510.05 602.187 509.732C602.229 509.415 602.176 509.092 602.034 508.805C601.892 508.517 601.668 508.279 601.391 508.119C601.208 508.011 601.005 507.941 600.795 507.912C600.584 507.883 600.37 507.896 600.165 507.951C599.96 508.005 599.767 508.1 599.599 508.23C599.431 508.359 599.29 508.521 599.185 508.706Z" fill="#263238"/>
<path d="M597.834 508.386C598.083 508.475 598.634 507.213 599.986 506.484C601.337 505.755 602.689 505.915 602.742 505.666C602.795 505.417 602.457 505.328 601.853 505.24C601.054 505.121 600.239 505.278 599.541 505.684C598.826 506.084 598.263 506.709 597.941 507.461C597.692 507.977 597.727 508.35 597.834 508.386Z" fill="#263238"/>
<path d="M598.901 522.658C598.057 522.743 597.237 522.984 596.482 523.369C596.109 523.511 595.789 523.582 595.664 523.369C595.461 523.025 595.357 522.631 595.362 522.231C595.237 521.147 595.095 520.063 594.953 518.926C594.725 516.063 594.194 513.233 593.37 510.483C593.329 513.35 593.573 516.214 594.099 519.032C594.259 520.17 594.419 521.254 594.579 522.338C594.589 522.912 594.796 523.464 595.166 523.902C595.288 524.011 595.434 524.088 595.591 524.129C595.749 524.169 595.915 524.17 596.073 524.133C596.304 524.084 596.526 524 596.731 523.884C598.189 523.245 599.025 522.765 598.901 522.658Z" fill="#263238"/>
<path d="M607.099 539.597C611.663 537.248 615.422 533.59 617.893 529.092C617.893 529.092 618.676 537.748 608.45 542.138L607.099 539.597Z" fill="#EB996E"/>
<path d="M618.338 497.846C618.498 497.668 626.163 493.136 628.439 501.489C630.413 508.723 622.232 509.968 622.126 509.737C622.019 509.505 618.338 497.846 618.338 497.846Z" fill="#FFBE9D"/>
<path d="M623.602 505.489C623.602 505.489 623.744 505.489 623.993 505.489C624.325 505.5 624.649 505.386 624.9 505.169C625.239 504.72 625.454 504.189 625.523 503.63C625.592 503.072 625.512 502.505 625.291 501.987C625.092 501.386 624.758 500.839 624.313 500.387C624.169 500.196 623.98 500.043 623.763 499.94C623.546 499.838 623.308 499.79 623.068 499.801C622.919 499.82 622.781 499.887 622.674 499.994C622.568 500.1 622.5 500.238 622.481 500.387C622.481 500.619 622.481 500.743 622.481 500.761C622.481 500.778 622.286 500.761 622.25 500.405C622.219 500.22 622.257 500.031 622.357 499.872C622.495 499.656 622.712 499.503 622.962 499.445C623.266 499.394 623.579 499.423 623.869 499.529C624.159 499.635 624.416 499.814 624.615 500.05C625.127 500.543 625.511 501.153 625.736 501.827C625.983 502.42 626.053 503.071 625.936 503.702C625.819 504.334 625.521 504.917 625.078 505.382C624.915 505.505 624.727 505.59 624.526 505.63C624.326 505.67 624.12 505.664 623.922 505.613C623.673 505.666 623.584 505.524 623.602 505.489Z" fill="#EB996E"/>
<path d="M614.781 553.14C614.781 553.14 633.899 521.147 663.455 548.075C682.75 565.671 714.226 601.965 725.465 616.184C727.99 619.366 731.921 624.218 729.164 627.204C720.735 636.304 697.759 656.709 655.239 641.423L614.906 585.364C611.538 580.677 609.713 575.058 609.684 569.287C609.655 563.516 611.424 557.879 614.746 553.158L614.781 553.14Z" fill="#E8505B"/>
<path d="M639.287 537.908L633.899 529.092L606.37 550.99L611.51 559.254L639.287 537.908Z" fill="#E8505B"/>
<g opacity="0.3">
<path opacity="0.3" d="M638.113 539.046C638.113 539.046 616.435 557.779 616.133 557.459C615.831 557.139 607.473 551.132 607.473 551.132L615.102 555.415L638.113 539.046Z" fill="black"/>
</g>
<path d="M639.518 537.802C639.025 537.99 638.559 538.24 638.131 538.548C637.277 539.081 636.05 539.881 634.574 540.912C631.587 542.956 627.585 545.924 623.175 549.195C620.17 551.416 617.342 553.46 614.924 555.131H615.279C612.701 553.745 610.549 552.589 609.037 551.825C608.263 551.37 607.447 550.989 606.601 550.688C607.291 551.26 608.043 551.755 608.842 552.163C610.3 553.052 612.398 554.278 614.941 555.718L615.119 555.806L615.297 555.7C617.769 554.065 620.632 552.056 623.638 549.834L634.894 541.374L638.309 538.815C638.752 538.528 639.158 538.188 639.518 537.802Z" fill="#263238"/>
<path d="M521.988 621.907L516.759 619.792C513.69 618.951 510.712 617.808 507.868 616.38C506.444 615.703 505.15 614.783 504.044 613.66C502.606 612.323 501.361 610.791 500.345 609.11C500.236 608.728 500.002 608.394 499.68 608.161C499.359 607.928 498.969 607.809 498.572 607.823C498.175 607.838 497.794 607.985 497.49 608.24C497.186 608.496 496.977 608.846 496.895 609.235C496.593 610.852 498.674 615.402 503.066 619.135C507.459 622.867 498.371 622.689 495.046 622.689C491.72 622.689 481.388 623.223 480.57 624.253C479.379 625.746 480.784 627.293 484.127 627.204C487.47 627.115 497.482 627.559 497.393 629.319C497.304 631.079 480.339 630.883 480.339 630.883C480.339 630.883 476.782 630.261 476.551 632.287C476.267 635.966 494.335 634.811 496.113 634.651C497.304 634.544 497.287 636.428 495.988 636.517C494.69 636.606 479.059 635.949 478.721 639.681C478.472 642.543 493.605 638.881 496.771 640.801C499.936 642.72 485.016 642.418 484.892 645.155C484.892 646.186 484.892 646.933 493.552 645.884C502.213 644.835 525.722 637.993 525.722 637.993L521.774 621.623" fill="#FFBE9D"/>
<path d="M624.136 564.302C624.136 564.302 596.02 603.049 589.511 604.56C583.003 606.071 510.518 617.464 510.518 617.464L514.074 641.103C514.074 641.103 604.04 638.579 612.754 630.634C621.468 622.689 647.787 582.289 647.787 582.289L624.136 564.302Z" fill="#FFBE9D"/>
<path d="M604.342 629.959C604.342 629.959 604.538 630.279 605.089 630.617C605.904 631.062 606.832 631.254 607.757 631.168C608.455 631.109 609.131 630.891 609.732 630.53C610.333 630.17 610.844 629.676 611.224 629.088C611.716 628.37 611.998 627.529 612.039 626.659C612.08 625.79 611.878 624.926 611.456 624.165C611.015 623.335 610.279 622.701 609.393 622.387C608.552 622.118 607.639 622.188 606.85 622.583C606.521 622.756 606.232 622.995 606 623.285C605.767 623.575 605.597 623.909 605.498 624.267C605.4 624.625 605.376 624.999 605.428 625.367C605.48 625.734 605.607 626.087 605.801 626.404C606.091 626.802 606.504 627.093 606.976 627.234C607.448 627.376 607.953 627.359 608.415 627.186C609.037 626.92 609.197 626.529 609.162 626.511C609.126 626.493 608.877 626.742 608.308 626.884C607.931 626.976 607.534 626.951 607.172 626.811C606.809 626.671 606.498 626.424 606.281 626.102C606.151 625.855 606.072 625.584 606.048 625.306C606.023 625.029 606.054 624.749 606.138 624.483C606.223 624.217 606.359 623.97 606.539 623.757C606.719 623.544 606.939 623.368 607.188 623.24C607.802 622.956 608.502 622.918 609.144 623.134C609.835 623.381 610.412 623.875 610.762 624.52C611.07 625.109 611.232 625.764 611.236 626.428C611.239 627.093 611.084 627.749 610.784 628.341C610.483 628.934 610.045 629.447 609.506 629.836C608.967 630.226 608.343 630.481 607.686 630.581C606.535 630.696 605.375 630.48 604.342 629.959Z" fill="#EB996E"/>
<path d="M656.234 576.104L629.559 621.872L598.794 596.419C598.794 596.419 620.134 561.547 630.182 550.741L656.234 576.104Z" fill="#E8505B"/>
<path d="M579.73 663.48C582.2 664.369 584.362 665.949 585.958 668.033C587.553 670.116 588.515 672.614 588.729 675.229C587.122 670.421 583.955 666.286 579.73 663.48Z" fill="#455A64"/>
<path d="M611.581 502.005C611.772 502.367 612.045 502.679 612.379 502.916C612.712 503.154 613.097 503.31 613.501 503.373C614.301 503.533 615.119 503.516 615.937 503.676C617.209 503.916 618.358 504.588 619.192 505.577C619.523 506.029 619.898 506.446 620.312 506.822C620.526 507.004 620.79 507.116 621.07 507.145C621.349 507.173 621.631 507.116 621.877 506.982C622.588 506.448 622.268 505.346 621.877 504.547C620.205 501.241 618.546 497.935 616.898 494.629L607.473 496.673L611.527 501.383" fill="#263238"/>
<path d="M580.798 490.754C581.882 489.456 583.501 488.39 584.781 489.51C585.966 490.75 586.737 492.328 586.986 494.024C587.251 495.711 587.817 497.337 588.658 498.823C589.267 499.712 590.106 500.418 591.085 500.868C592.064 501.318 593.147 501.493 594.218 501.377C595.289 501.26 596.309 500.855 597.168 500.205C598.027 499.555 598.694 498.684 599.097 497.686C600.267 499.701 601.77 501.504 603.543 503.018C604.439 503.756 605.505 504.258 606.645 504.479C607.785 504.699 608.962 504.631 610.069 504.28C610.604 504.076 611.092 503.768 611.505 503.372C611.918 502.976 612.248 502.501 612.473 501.975C612.699 501.449 612.816 500.884 612.819 500.312C612.821 499.74 612.709 499.173 612.488 498.646C613.696 499.649 615.203 500.224 616.773 500.281C617.552 500.303 618.319 500.098 618.983 499.691C619.646 499.284 620.176 498.692 620.508 497.988C620.648 497.627 620.712 497.241 620.698 496.855C620.683 496.468 620.59 496.088 620.423 495.739C620.257 495.389 620.021 495.078 619.73 494.822C619.438 494.567 619.098 494.374 618.73 494.255C619.597 494.827 620.618 495.121 621.657 495.098C622.695 495.076 623.703 494.739 624.545 494.131C625.36 493.486 625.92 492.573 626.125 491.555C626.33 490.536 626.167 489.478 625.665 488.568C625.103 487.716 624.225 487.122 623.225 486.915C622.225 486.709 621.184 486.907 620.33 487.466C621.556 486.858 622.594 485.931 623.336 484.782C623.684 484.197 623.791 483.499 623.635 482.836C623.479 482.173 623.072 481.596 622.5 481.227C621.024 480.552 619.441 481.92 617.823 482.223C615.191 482.702 613.039 480.339 610.923 478.668C608.949 477.271 606.704 476.304 604.333 475.829C601.962 475.355 599.518 475.383 597.158 475.913C592.433 477.02 588.076 479.335 584.514 482.631C582.131 484.711 579.837 487.732 580.798 490.736" fill="#263238"/>
<path d="M586.452 509.914C586.452 510.678 585.723 511.336 584.834 511.692C584.458 511.893 584.033 511.984 583.608 511.952C583.182 511.921 582.775 511.769 582.433 511.514C581.918 510.963 582.433 509.736 583.82 509.114C585.207 508.492 586.452 509.15 586.452 509.914Z" fill="#263238"/>
<path d="M600.466 503.16C600.306 503.924 599.363 504.404 598.421 504.849C597.478 505.293 596.465 505.648 595.789 505.24C595.62 505.077 595.511 504.862 595.479 504.63C595.447 504.398 595.493 504.162 595.611 503.96C595.94 503.223 596.538 502.638 597.283 502.325C598.015 501.97 598.856 501.913 599.63 502.165C600.217 502.396 600.501 502.787 600.466 503.16Z" fill="#263238"/>
<path d="M604.538 519.548C604.769 519.459 605.374 521.325 604.538 523.28C603.702 525.235 601.924 526.088 601.835 525.857C601.746 525.626 602.937 524.649 603.613 522.907C604.289 521.165 604.236 519.583 604.538 519.548Z" fill="#263238"/>
<path d="M625.06 491.145C625.06 491.145 624.936 491.252 624.651 491.394C624.223 491.573 623.764 491.67 623.3 491.678C622.417 491.706 621.544 491.484 620.783 491.038C620.021 490.591 619.402 489.938 618.996 489.154L619.476 489.261C617.871 490.729 615.783 491.557 613.608 491.589C612.277 491.64 610.952 491.401 609.724 490.888C608.496 490.375 607.394 489.602 606.494 488.621L607.277 488.301C607.278 488.905 607.125 489.5 606.833 490.028C606.54 490.557 606.118 491.003 605.605 491.323C604.592 492.005 603.368 492.301 602.155 492.158C600.254 491.754 598.547 490.713 597.318 489.208C596.091 487.875 595.113 486.488 593.975 485.404C592.973 484.33 591.672 483.581 590.24 483.253C588.983 483.048 587.693 483.209 586.524 483.716C584.785 484.493 583.228 485.625 581.953 487.039C581.486 487.578 580.974 488.078 580.424 488.532C580.773 487.892 581.197 487.296 581.686 486.755C582.909 485.196 584.473 483.938 586.257 483.076C587.544 482.479 588.976 482.263 590.383 482.454C591.977 482.774 593.435 483.574 594.562 484.746C595.789 485.902 596.802 487.288 597.976 488.55C599.071 489.884 600.579 490.816 602.262 491.198C604.218 491.483 606.476 490.096 606.388 488.301V487.004L607.241 487.999C608.066 488.894 609.07 489.603 610.189 490.081C611.308 490.559 612.516 490.794 613.732 490.772C615.73 490.773 617.664 490.068 619.192 488.781L619.512 488.497L619.672 488.87C620.014 489.584 620.544 490.191 621.205 490.626C621.866 491.061 622.633 491.308 623.424 491.341C623.974 491.323 624.521 491.257 625.06 491.145Z" fill="#455A64"/>
<path d="M660.698 569.03C660.609 569.03 660.698 567.964 660.289 566.115C659.815 563.485 658.83 560.973 657.391 558.721C655.293 555.376 652.221 552.752 648.588 551.203C644.116 549.357 639.13 549.18 634.539 550.705C632.203 551.52 630.021 552.722 628.084 554.26C626.257 555.711 624.588 557.349 623.104 559.148C620.616 562.256 618.357 565.541 616.347 568.977C614.568 571.874 613.11 574.309 612.025 575.82C611.509 576.619 611.065 577.206 610.763 577.597C610.46 577.988 610.3 578.201 610.265 578.184C610.688 577.29 611.175 576.429 611.723 575.606C612.754 573.829 614.124 571.465 615.777 568.621C617.734 565.104 619.963 561.747 622.446 558.579C625.486 554.584 629.573 551.509 634.254 549.692C639.052 548.088 644.272 548.296 648.926 550.279C652.048 551.67 654.764 553.835 656.815 556.57C658.866 559.304 660.184 562.516 660.645 565.902C660.746 566.638 660.788 567.381 660.769 568.124C660.804 568.427 660.78 568.735 660.698 569.03Z" fill="#263238"/>
<path d="M652.855 585.773C652.845 585.494 652.776 585.22 652.653 584.969C652.531 584.718 652.357 584.496 652.144 584.316C651.632 583.918 651.013 583.683 650.366 583.64C649.421 583.618 648.485 583.45 647.591 583.143C646.5 582.527 645.559 581.676 644.836 580.653C644.113 579.629 643.627 578.458 643.412 577.224C643.039 575.909 642.754 574.54 642.256 573.207C641.831 571.838 640.993 570.633 639.856 569.759C638.655 568.961 637.273 568.478 635.837 568.355C634.451 568.257 633.061 568.257 631.675 568.355C629.252 568.623 626.8 568.255 624.562 567.288C623.808 566.915 623.14 566.389 622.601 565.743C622.062 565.097 621.664 564.346 621.432 563.538C621.312 563.098 621.281 562.639 621.343 562.187C621.354 562.032 621.397 561.881 621.468 561.743C621.526 562.342 621.627 562.936 621.77 563.52C622.343 564.967 623.451 566.138 624.864 566.791C627.053 567.611 629.411 567.88 631.729 567.573C634.343 567.466 637.651 567.217 640.478 569.155C641.762 570.132 642.708 571.487 643.181 573.029C643.697 574.451 643.964 575.855 644.302 577.153C644.468 578.274 644.871 579.346 645.484 580.299C646.097 581.253 646.907 582.064 647.858 582.68C648.691 583.004 649.565 583.207 650.455 583.285C651.191 583.366 651.88 583.692 652.411 584.209C652.59 584.365 652.735 584.556 652.839 584.77C652.943 584.984 653.003 585.216 653.015 585.453C652.962 585.631 652.873 585.773 652.855 585.773Z" fill="#FAFAFA"/>
<path d="M642.239 600.97C642.132 600.97 642.097 600.383 641.474 599.548C640.551 598.449 639.308 597.666 637.918 597.308C636.139 596.722 633.863 596.793 631.356 595.975C630.002 595.556 628.818 594.715 627.977 593.576C627.141 592.385 626.679 590.999 625.914 589.879C624.349 587.604 621.539 586.839 619.156 586.324C616.906 585.957 614.753 585.141 612.825 583.925C611.542 583.005 610.643 581.644 610.3 580.103C610.156 579.54 610.206 578.945 610.442 578.415C610.531 578.415 610.442 579.019 610.656 580.014C611.072 581.378 611.945 582.558 613.128 583.356C615.023 584.436 617.104 585.153 619.263 585.471C620.586 585.73 621.879 586.123 623.122 586.644C624.516 587.215 625.718 588.171 626.59 589.399C627.443 590.679 627.888 592.047 628.635 593.078C629.354 594.082 630.376 594.83 631.551 595.211C633.845 596.011 636.175 596.029 638.042 596.722C639.551 597.157 640.863 598.098 641.759 599.388C641.985 599.751 642.136 600.156 642.203 600.579C642.257 600.827 642.275 600.97 642.239 600.97Z" fill="#FAFAFA"/>
<path d="M691.374 576.886C691.421 577.133 691.421 577.386 691.374 577.632C691.214 578.331 690.95 579.002 690.592 579.623C689.149 581.843 687.065 583.572 684.616 584.582C683.123 585.275 681.433 585.897 679.69 586.662C677.835 587.415 676.139 588.512 674.693 589.896C671.67 592.882 670.194 597.504 668.06 602.036C667.084 604.322 665.684 606.402 663.934 608.168C663.508 608.596 663.037 608.977 662.529 609.306C662.058 609.669 661.552 609.985 661.018 610.248C659.985 610.739 658.899 611.108 657.781 611.35C653.46 612.274 649.53 612.043 646.453 613.02C643.978 613.613 641.837 615.159 640.496 617.322C640.059 618.146 639.753 619.034 639.589 619.952C639.589 619.952 639.589 619.686 639.589 619.206C639.662 618.493 639.867 617.8 640.193 617.162C640.833 615.996 641.701 614.972 642.746 614.15C643.791 613.329 644.992 612.727 646.275 612.38C649.476 611.296 653.478 611.456 657.603 610.514C658.655 610.279 659.676 609.921 660.644 609.448C661.135 609.204 661.599 608.913 662.031 608.577C662.503 608.272 662.939 607.914 663.33 607.51C664.988 605.809 666.315 603.814 667.242 601.627C669.34 597.202 670.799 592.456 674.106 589.292C675.647 587.843 677.461 586.713 679.441 585.968C681.22 585.204 682.909 584.635 684.385 583.978C686.765 583.062 688.833 581.482 690.343 579.428C690.793 578.628 691.14 577.774 691.374 576.886Z" fill="#FAFAFA"/>
<path d="M709.247 598.872C709.114 599.879 708.722 600.835 708.109 601.645C706.456 603.869 704.205 605.576 701.618 606.568C698.452 608.026 694.327 608.683 690.414 610.799C688.373 611.872 686.686 613.515 685.559 615.526C684.435 617.78 683.438 620.094 682.572 622.458C680.588 627.106 677.15 630.985 672.773 633.514C669.216 635.569 665.162 636.608 661.054 636.517C658.314 636.47 655.607 635.916 653.069 634.882C652.381 634.603 651.71 634.282 651.06 633.922C650.615 633.656 650.402 633.514 650.419 633.478C650.437 633.442 651.398 633.905 653.194 634.544C655.727 635.422 658.39 635.867 661.072 635.86C665.037 635.856 668.929 634.794 672.346 632.785C676.524 630.315 679.807 626.58 681.718 622.12C682.593 619.691 683.614 617.317 684.777 615.011C686.003 612.874 687.818 611.134 690.005 609.999C694.131 607.83 698.257 607.262 701.369 605.911C703.88 604.999 706.107 603.442 707.824 601.396C708.382 600.605 708.858 599.759 709.247 598.872Z" fill="#FAFAFA"/>
<path d="M725.376 616.255C722.831 617.394 720.441 618.851 718.263 620.592C715.95 622.542 714.036 624.92 712.626 627.595C711.808 629.07 711.238 630.776 710.492 632.536C709.797 634.451 708.561 636.124 706.935 637.353C705.203 638.397 703.245 639.006 701.226 639.13C699.324 639.343 697.527 639.397 695.891 639.681C692.903 640.155 690.002 641.072 687.284 642.4C684.779 643.691 682.398 645.208 680.171 646.933C680.63 646.32 681.168 645.77 681.771 645.298C683.36 643.926 685.095 642.733 686.946 641.743C689.7 640.298 692.665 639.296 695.731 638.775C697.51 638.455 699.288 638.384 701.066 638.153C702.951 638.033 704.78 637.466 706.401 636.5C707.884 635.37 709.013 633.84 709.656 632.092C710.385 630.314 711.007 628.643 711.861 627.097C713.355 624.351 715.387 621.933 717.836 619.988C719.457 618.683 721.253 617.612 723.171 616.806C723.865 616.539 724.398 616.362 724.772 616.255C725.145 616.148 725.358 616.22 725.376 616.255Z" fill="#FAFAFA"/>
<path d="M654.029 583.356C655.547 582.8 656.929 581.927 658.084 580.796C659.294 579.533 660.259 578.057 660.929 576.442C661.733 574.43 662.37 572.355 662.832 570.239C663.325 568.07 664.034 565.956 664.948 563.929C665.743 562.258 666.883 560.774 668.292 559.574C669.232 558.74 670.351 558.132 671.564 557.797C672 557.656 672.463 557.619 672.915 557.69C671.369 558.157 669.939 558.944 668.718 560.001C667.457 561.214 666.437 562.656 665.713 564.249C664.865 566.239 664.205 568.304 663.739 570.416C663.248 572.58 662.57 574.697 661.712 576.744C660.962 578.43 659.886 579.953 658.546 581.223C657.636 582.081 656.55 582.73 655.363 583.125C654.948 583.322 654.487 583.402 654.029 583.356Z" fill="#FAFAFA"/>
<path d="M648.89 551.363C649.252 549.472 650.132 547.718 651.432 546.297C652.732 544.875 654.4 543.842 656.252 543.311C656.359 543.56 654.118 544.68 652.108 546.866C650.099 549.052 649.139 551.523 648.89 551.363Z" fill="#FAFAFA"/>
<path d="M636.406 533.162C635.606 534.638 634.671 536.036 633.614 537.339C632.575 538.842 631.459 540.289 630.271 541.676C629.513 542.52 628.594 543.203 627.568 543.684C626.436 544.126 625.224 544.325 624.011 544.271C622.88 544.19 621.745 544.19 620.614 544.271C619.61 544.418 618.641 544.743 617.751 545.231C616.226 546.082 615.026 547.413 614.337 549.017C613.747 550.544 613.498 552.182 613.608 553.816C613.381 553.407 613.259 552.949 613.252 552.483C613.112 551.224 613.277 549.95 613.732 548.768C614.386 546.976 615.644 545.468 617.289 544.502C618.259 543.922 619.335 543.542 620.454 543.382C621.636 543.262 622.825 543.232 624.011 543.293C625.062 543.389 626.121 543.234 627.101 542.841C628.081 542.449 628.954 541.83 629.648 541.036C631.018 539.596 632.102 538.068 633.098 536.877C634.081 535.537 635.188 534.293 636.406 533.162Z" fill="#FAFAFA"/>
<g opacity="0.2">
<path opacity="0.2" d="M660.022 574.771L646.525 629.426L634.717 612.985L660.022 574.771Z" fill="black"/>
</g>
<path d="M718.565 754.696C718.316 754.696 718.103 745.613 718.103 734.416C718.103 723.218 718.316 714.118 718.565 714.118C718.814 714.118 719.028 723.201 719.028 734.416C719.028 745.631 718.832 754.696 718.565 754.696Z" fill="#455A64"/>
<path opacity="0.5" d="M124.458 332.124C117.966 332.125 111.621 334.05 106.224 337.656C100.827 341.261 96.6205 346.385 94.1357 352.38C91.6509 358.375 90.9997 364.972 92.2643 371.337C93.5289 377.701 96.6525 383.549 101.24 388.139C105.828 392.73 111.675 395.858 118.04 397.128C124.406 398.398 131.005 397.752 137.005 395.274C143.004 392.795 148.133 388.595 151.745 383.203C155.356 377.811 157.288 371.469 157.295 364.98C157.3 360.666 156.454 356.394 154.806 352.408C153.158 348.421 150.74 344.798 147.69 341.747C144.64 338.695 141.018 336.275 137.032 334.623C133.046 332.972 128.773 332.123 124.458 332.124ZM124.458 381.794C121.126 381.794 117.869 380.806 115.099 378.955C112.329 377.104 110.17 374.473 108.896 371.395C107.622 368.318 107.29 364.932 107.942 361.665C108.593 358.399 110.199 355.399 112.557 353.045C114.914 350.692 117.917 349.09 121.186 348.443C124.454 347.796 127.841 348.132 130.918 349.41C133.995 350.688 136.624 352.849 138.472 355.62C140.319 358.392 141.303 361.649 141.299 364.98C141.289 369.439 139.51 373.712 136.353 376.861C133.196 380.01 128.918 381.779 124.458 381.779V381.794Z" fill="#FF998C"/>
</g>
<defs>
<clipPath id="clip0">
<rect width="805" height="766" fill="white" transform="translate(0.970215)"/>
</clipPath>
</defs>
</svg>
