<svg width="25" height="25" viewBox="0 0 25 25" fill="none" xmlns="http://www.w3.org/2000/svg">
<g clip-path="url(#clip0)">
<path d="M18.306 0.581787H7.20778C3.59574 0.581787 0.657227 3.5203 0.657227 7.13234V18.2308C0.657227 21.8426 3.59574 24.7812 7.20778 24.7812H18.3062C21.9181 24.7812 24.8566 21.8426 24.8566 18.2308V7.13234C24.8566 3.5203 21.9181 0.581787 18.306 0.581787V0.581787ZM12.7569 19.2983C9.10832 19.2983 6.14008 16.3301 6.14008 12.6815C6.14008 9.03288 9.10832 6.06464 12.7569 6.06464C16.4055 6.06464 19.3737 9.03288 19.3737 12.6815C19.3737 16.3301 16.4055 19.2983 12.7569 19.2983ZM19.532 7.6251C18.4537 7.6251 17.5768 6.74813 17.5768 5.66991C17.5768 4.59169 18.4537 3.71453 19.532 3.71453C20.6102 3.71453 21.4873 4.59169 21.4873 5.66991C21.4873 6.74813 20.6102 7.6251 19.532 7.6251Z" fill="white"/>
<path d="M12.7568 7.48325C9.89061 7.48325 7.55859 9.81508 7.55859 12.6814C7.55859 15.5475 9.89061 17.8796 12.7568 17.8796C15.6231 17.8796 17.9549 15.5475 17.9549 12.6814C17.9549 9.81508 15.6231 7.48325 12.7568 7.48325Z" fill="white"/>
<path d="M19.5321 5.13342C19.2364 5.13342 18.9956 5.37418 18.9956 5.66995C18.9956 5.96572 19.2364 6.20647 19.5321 6.20647C19.8281 6.20647 20.0688 5.9659 20.0688 5.66995C20.0688 5.37399 19.8281 5.13342 19.5321 5.13342Z" fill="white"/>
</g>
<defs>
<clipPath id="clip0">
<rect width="24.1994" height="24.1994" fill="white" transform="translate(0.657227 0.581787)"/>
</clipPath>
</defs>
</svg>
