<svg width="156" height="237" viewBox="0 0 156 237" fill="none" xmlns="http://www.w3.org/2000/svg">
<path d="M118.307 0.499725C87.0315 0.499725 57.0374 12.9197 34.9226 35.0273C12.8078 57.1349 0.383789 87.1193 0.383789 118.384C0.383789 149.65 12.8074 179.636 34.9218 201.746C57.0363 223.855 87.0303 236.278 118.307 236.281C149.585 236.281 179.582 223.86 201.699 201.75C223.816 179.64 236.242 149.652 236.242 118.384C236.238 87.1182 223.812 57.1338 201.695 35.0266C179.578 12.9193 149.583 0.499725 118.307 0.499725ZM118.307 224.034C90.286 224.031 63.4136 212.904 43.5978 193.099C23.7819 173.294 12.6447 146.433 12.6349 118.421C12.6381 90.4057 23.7724 63.5383 43.589 43.7281C63.4056 23.918 90.2817 12.7873 118.307 12.784C132.189 12.7759 145.937 15.5023 158.764 20.8074C171.592 26.1125 183.249 33.8924 193.068 43.7026C202.887 53.5127 210.676 65.1609 215.991 77.9814C221.305 90.802 224.04 104.544 224.04 118.421C224.042 132.3 221.308 146.043 215.994 158.865C210.68 171.687 202.891 183.337 193.072 193.148C183.253 202.96 171.596 210.741 158.767 216.047C145.939 221.353 132.19 224.079 118.307 224.071V224.034Z" fill="#F35645"/>
</svg>
