<svg width="67" height="66" viewBox="0 0 67 66" fill="none" xmlns="http://www.w3.org/2000/svg">
<path opacity="0.5" d="M33.6535 0.0712289C27.1622 0.0726988 20.8171 1.99781 15.4201 5.60328C10.023 9.20876 5.81627 14.3328 3.33151 20.3277C0.846745 26.3226 0.195499 32.9193 1.46008 39.2841C2.72466 45.6489 5.84831 51.4961 10.4362 56.0867C15.0241 60.6772 20.8704 63.8051 27.2361 65.0751C33.6018 66.345 40.2013 65.6999 46.2003 63.2213C52.1994 60.7428 57.3289 56.5421 60.9404 51.15C64.5519 45.758 66.4834 39.4166 66.4907 32.9275C66.4956 28.6139 65.6498 24.3416 64.0016 20.3551C62.3535 16.3685 59.9354 12.7458 56.8856 9.69424C53.8358 6.64267 50.2141 4.22206 46.2277 2.57086C42.2414 0.919659 37.9685 0.0702517 33.6535 0.0712289ZM33.6535 49.7411C30.3216 49.7411 27.0646 48.7532 24.2946 46.9022C21.5246 45.0513 19.366 42.4206 18.092 39.3429C16.818 36.2653 16.4858 32.879 17.1374 29.6126C17.789 26.3461 19.3952 23.3463 21.7527 20.9926C24.1103 18.639 27.1132 17.0373 30.3815 16.3902C33.6499 15.7431 37.0368 16.0797 40.1138 17.3573C43.1907 18.635 45.8195 20.7964 47.6673 23.5679C49.5152 26.3395 50.4992 29.5967 50.4948 32.9275C50.485 37.3862 48.7063 41.659 45.549 44.8083C42.3917 47.9576 38.1136 49.7263 33.6535 49.7263V49.7411Z" fill="#FF998C"/>
</svg>
