<svg width="40" height="41" viewBox="0 0 40 41" fill="none" xmlns="http://www.w3.org/2000/svg">
<path d="M29.699 0.685181H9.91016C4.46744 0.685181 0 5.15262 0 10.6268V30.4157C0 35.8584 4.46744 40.3258 9.91016 40.3258H29.699C35.1732 40.3258 39.6406 35.8584 39.6406 30.3842V10.6268C39.6406 5.15262 35.1732 0.685181 29.699 0.685181ZM18.7506 8.83353C18.8136 7.85825 19.7259 8.20432 20.1978 8.14139C26.1125 8.33016 31.2091 13.647 31.1462 19.3729C31.1462 19.9392 31.335 20.7572 30.4855 20.7572C29.6675 20.7572 29.8878 19.9077 29.7934 19.3414C29.0069 13.2695 26.1754 10.4066 20.0091 9.46275C19.5057 9.39983 18.7192 9.49421 18.7506 8.83353ZM27.5911 19.6246C26.6473 19.7504 26.8361 18.9325 26.7417 18.3976C26.1125 14.6852 24.7911 13.3324 20.9844 12.5144C20.4181 12.3886 19.5372 12.483 19.6945 11.6335C19.8203 10.8156 20.6068 11.0987 21.2046 11.1616C25.0113 11.6021 28.126 14.8425 28.0945 18.3976C28.0316 18.7752 28.2833 19.4987 27.5911 19.6246ZM25.2316 17.674C25.2316 18.1774 25.1687 18.6493 24.6024 18.7122C24.1934 18.7752 23.9417 18.4291 23.8788 18.0201C23.7215 16.51 22.9035 15.5976 21.3304 15.3459C20.8585 15.283 20.4181 15.1257 20.6383 14.4965C20.7956 14.0875 21.1731 14.0246 21.5821 14.0246C23.281 13.9931 25.2316 15.9751 25.2316 17.674ZM31.2091 29.2831C30.5485 31.0763 28.3147 32.9011 26.3956 32.8696C26.1125 32.8067 25.5776 32.7123 25.1057 32.5235C16.6742 28.9685 10.5394 23.1167 7.07868 14.7482C5.91463 11.9482 7.1416 9.55713 10.0675 8.61331C10.6023 8.42454 11.1057 8.42454 11.6405 8.61331C12.8989 9.05376 16.0765 13.3639 16.1394 14.6223C16.2023 15.5976 15.5102 16.1324 14.8495 16.5729C13.5596 17.4223 13.5596 18.492 14.1259 19.719C15.3529 22.4246 17.4608 24.3123 20.1978 25.5078C21.1731 25.9482 22.1484 25.9168 22.8091 24.91C24.0046 23.1167 25.4833 23.2111 27.0878 24.3123C27.9057 24.8785 28.7237 25.4134 29.4788 26.0111C30.517 26.8606 31.8383 27.5527 31.2091 29.2831Z" fill="#B8E3A0"/>
</svg>
