<svg width="24" height="24" viewBox="0 0 24 24" fill="none" xmlns="http://www.w3.org/2000/svg">
<path d="M20.76 10.0721C20.7888 6.68784 17.8291 3.58559 14.1629 3.15612C14.0837 3.1465 14.0048 3.13479 13.9262 3.12101C13.7419 3.08665 13.555 3.06708 13.3674 3.0625C12.6152 3.0625 12.4145 3.5774 12.3617 3.88282C12.31 4.18123 12.3593 4.43283 12.5071 4.62825C12.7558 4.95708 13.1944 5.01559 13.5465 5.0624C13.6486 5.07645 13.746 5.08932 13.8277 5.10687C17.1226 5.82421 18.2317 6.95113 18.7736 10.133C18.7869 10.2102 18.7929 10.3061 18.8001 10.408C18.8241 10.7883 18.8722 11.5793 19.7458 11.5793C19.8179 11.5793 19.8972 11.5735 19.9789 11.5618C20.7912 11.4413 20.766 10.7181 20.7539 10.3705C20.7503 10.2722 20.7467 10.1798 20.7563 10.1177C20.7583 10.1022 20.7591 10.0866 20.7587 10.0709L20.76 10.0721Z" fill="white"/>
<path d="M13.1536 1.91448C13.2521 1.9215 13.3434 1.92852 13.4203 1.93905C18.8313 2.75001 21.3199 5.24609 22.0085 10.5565C22.0205 10.6466 22.0229 10.7566 22.0241 10.8725C22.0313 11.2879 22.0457 12.1515 22.9974 12.1691H23.0263C23.3255 12.1691 23.5622 12.0813 23.7328 11.9081C24.0284 11.6074 24.0092 11.1592 23.9912 10.7988C23.9876 10.7098 23.984 10.6267 23.984 10.553C24.0537 5.12321 19.2255 0.197767 13.6547 0.0152128C13.6306 0.0152128 13.609 0.0152129 13.5874 0.0187235C13.5655 0.021417 13.5434 0.0225902 13.5213 0.0222342C13.4648 0.0222342 13.3975 0.0175533 13.3242 0.0128724C13.2377 0.00702135 13.138 0 13.0358 0C12.149 0 11.9808 0.614364 11.9591 0.980643C11.9099 1.82671 12.7498 1.88639 13.1536 1.91448ZM21.7477 17.4199C21.6316 17.3339 21.5167 17.2465 21.4028 17.1577C20.8116 16.6943 20.1832 16.2684 19.5764 15.8553L19.1978 15.5978C18.4192 15.0654 17.7198 14.8068 17.0589 14.8068C16.1673 14.8068 15.391 15.2866 14.7494 16.2309C14.4658 16.6499 14.1209 16.8535 13.6967 16.8535C13.4021 16.8435 13.113 16.7729 12.8484 16.6463C10.3369 15.537 8.54167 13.8355 7.51547 11.5898C7.01919 10.5039 7.18021 9.79472 8.05261 9.21664C8.54888 8.88898 9.47054 8.27929 9.40686 7.11024C9.33235 5.78439 6.32705 1.79277 5.06052 1.3399C4.51908 1.14756 3.92559 1.14591 3.38303 1.33522C1.92784 1.8115 0.884814 2.64937 0.3621 3.75523C-0.14259 4.82481 -0.118557 6.08045 0.426988 7.38642C2.00715 11.1627 4.22778 14.4557 7.02881 17.1729C9.76975 19.8329 13.1392 22.0106 17.0421 23.6478C17.3942 23.7952 17.7631 23.876 18.0334 23.9345C18.1248 23.9544 18.2041 23.9719 18.2618 23.9871C18.2935 23.9955 18.3262 23.9998 18.3591 24H18.3903C20.2264 24 22.4314 22.3664 23.108 20.5046C23.7016 18.8733 22.6177 18.067 21.7477 17.4199ZM13.9659 6.22907C13.6523 6.23609 12.9974 6.25247 12.7678 6.90077C12.6597 7.20503 12.6729 7.46716 12.8063 7.68365C13.001 7.99961 13.3747 8.09791 13.7135 8.15174C14.9452 8.34365 15.5785 9.006 15.7047 10.2382C15.7635 10.8116 16.1613 11.213 16.6696 11.213C16.7081 11.213 16.7467 11.2106 16.7849 11.206C17.3978 11.1358 17.6946 10.697 17.6681 9.90238C17.6778 9.07387 17.2331 8.13301 16.4749 7.38407C15.7155 6.63279 14.7998 6.20918 13.9659 6.22907Z" fill="white"/>
</svg>
