<svg width="25" height="25" viewBox="0 0 25 25" fill="none" xmlns="http://www.w3.org/2000/svg">
<g clip-path="url(#clip0)">
<path d="M12.8171 0.581787H12.811C6.13956 0.581787 0.714355 6.0085 0.714355 12.6815C0.714355 15.3283 1.56738 17.7815 3.01784 19.7734L1.50991 24.2685L6.16074 22.7817C8.074 24.0492 10.3563 24.7812 12.8171 24.7812C19.4886 24.7812 24.9138 19.353 24.9138 12.6815C24.9138 6.01002 19.4886 0.581787 12.8171 0.581787ZM19.8576 17.6681C19.5657 18.4924 18.4072 19.176 17.483 19.3757C16.8508 19.5103 16.025 19.6176 13.2451 18.4652C9.68931 16.992 7.39944 13.3787 7.22097 13.1443C7.05006 12.9099 5.78413 11.231 5.78413 9.49473C5.78413 7.75843 6.6659 6.91296 7.02133 6.54997C7.31323 6.25201 7.79571 6.11589 8.25852 6.11589C8.40826 6.11589 8.54287 6.12345 8.66386 6.1295C9.01929 6.14463 9.19776 6.1658 9.43219 6.72693C9.7241 7.43022 10.435 9.16653 10.5197 9.345C10.6059 9.52347 10.6921 9.76546 10.5711 9.9999C10.4576 10.2419 10.3578 10.3493 10.1793 10.555C10.0009 10.7607 9.83148 10.918 9.65301 11.1388C9.48967 11.3309 9.30515 11.5366 9.51084 11.892C9.71654 12.2399 10.4274 13.3999 11.474 14.3316C12.8246 15.534 13.9197 15.9182 14.3114 16.0815C14.6033 16.2025 14.9512 16.1738 15.1644 15.9469C15.4352 15.655 15.7694 15.171 16.1097 14.6946C16.3517 14.3528 16.6572 14.3104 16.9779 14.4314C17.3046 14.5448 19.0333 15.3994 19.3887 15.5763C19.7442 15.7548 19.9786 15.8395 20.0648 15.9893C20.1495 16.139 20.1495 16.8423 19.8576 17.6681Z" fill="white"/>
</g>
<defs>
<clipPath id="clip0">
<rect width="24.1994" height="24.1994" fill="white" transform="translate(0.714355 0.581787)"/>
</clipPath>
</defs>
</svg>
