<svg width="25" height="24" viewBox="0 0 25 24" fill="none" xmlns="http://www.w3.org/2000/svg">
<g clip-path="url(#clip0)">
<path d="M21.9006 3.63379H2.11938C0.957729 3.63379 0.0100098 4.54103 0.0100098 5.65527V19.1318C0.0100098 20.2423 0.95351 21.1533 2.11938 21.1533H21.9006C23.0594 21.1533 24.01 20.2491 24.01 19.1318V5.65527C24.01 4.5448 23.0665 3.63379 21.9006 3.63379ZM21.6094 4.98145L12.0547 14.138L2.41746 4.98145H21.6094ZM1.41626 18.8528V5.9279L8.18871 12.3625L1.41626 18.8528ZM2.41062 19.8057L9.18734 13.3113L11.5619 15.5674C11.8368 15.8286 12.2803 15.8277 12.5541 15.5653L14.8694 13.3465L21.6094 19.8057H2.41062ZM22.6038 18.8527L15.8637 12.3936L22.6038 5.93433V18.8527Z" fill="#EDEDED"/>
</g>
<defs>
<clipPath id="clip0">
<rect width="24" height="23" fill="white" transform="translate(0.0100098 0.893555)"/>
</clipPath>
</defs>
</svg>
