<svg width="23" height="24" viewBox="0 0 23 24" fill="none" xmlns="http://www.w3.org/2000/svg">
<g clip-path="url(#clip0)">
<path d="M22.7594 11.7761L21.1173 10.134L12.0812 1.09795C11.7604 0.777245 11.2404 0.777245 10.9197 1.09795L1.88353 10.134L0.240617 11.777C-0.0745553 12.1033 -0.0655545 12.6234 0.260785 12.9385C0.579134 13.246 1.08381 13.246 1.40215 12.9385L1.642 12.697V23.036C1.642 23.4897 2.00978 23.8574 2.46348 23.8574H20.5357C20.9894 23.8574 21.3572 23.4897 21.3572 23.036V12.697L21.5978 12.9377C21.9242 13.2529 22.4442 13.2438 22.7594 12.9176C23.0669 12.5992 23.0669 12.0945 22.7594 11.7761ZM13.964 22.2145H9.03522V15.6428H13.964V22.2145ZM19.7142 22.2145H15.6069V14.8213C15.6069 14.3676 15.2391 13.9999 14.7854 13.9999H8.21374C7.76005 13.9999 7.39226 14.3676 7.39226 14.8213V22.2145H3.28496V11.0541L11.4996 2.83944L19.7142 11.0541V22.2145Z" fill="#EDEDED"/>
</g>
<defs>
<clipPath id="clip0">
<rect width="23" height="23" fill="white" transform="translate(0 0.857422)"/>
</clipPath>
</defs>
</svg>
