<svg width="27" height="27" viewBox="0 0 27 27" fill="none" xmlns="http://www.w3.org/2000/svg">
<g clip-path="url(#clip0)">
<path d="M24.9174 9.5901C24.9176 7.14824 23.9605 4.84642 22.2226 3.10855C20.4848 1.37068 18.183 0.413574 15.7409 0.413574H10.3037C10.3035 0.413574 10.3035 0.413574 10.3035 0.413574C7.86186 0.413574 5.55984 1.37068 3.82217 3.10835C2.0843 4.84642 1.1272 7.14824 1.1272 9.5901V13.8641C1.1272 15.7553 1.70404 17.5743 2.79544 19.1249C3.7583 20.4928 5.05322 21.5614 6.56297 22.2388V24.6938C6.56297 25.9631 7.27371 26.4136 7.88229 26.4136C8.31711 26.4136 8.75192 26.1989 9.17523 25.7758L11.9103 23.0408L15.7411 23.0406C18.183 23.0406 20.4848 22.0835 22.2226 20.3458C23.9605 18.6079 24.9176 16.3059 24.9176 13.8641L24.9174 9.5901ZM15.7411 21.5172L11.5949 21.5173C11.3927 21.5173 11.1991 21.5975 11.0563 21.7403L8.09811 24.6985C8.09435 24.7025 8.09038 24.7063 8.08641 24.71C8.08641 24.7047 8.08641 24.6991 8.08641 24.6938V21.7304C8.08641 21.4144 7.89142 21.1313 7.59625 21.0187C4.63824 19.89 2.65083 17.0147 2.65083 13.8641V9.5901C2.65083 7.55508 3.44945 5.63571 4.89949 4.18547C6.34953 2.73563 8.26871 1.93701 10.3037 1.93701H15.7409C17.7759 1.93701 19.6953 2.73563 21.1453 4.18567C22.5956 5.63591 23.3942 7.55528 23.394 9.5901L23.3942 13.8641C23.394 18.0841 19.9609 21.5172 15.7411 21.5172Z" fill="#EDEDED"/>
<path d="M15.0479 12.872C14.7505 12.5744 14.2683 12.5744 13.9708 12.872L13.3554 13.4871L10.9711 11.103L11.5864 10.4878C11.7293 10.345 11.8096 10.1512 11.8096 9.94907C11.8096 9.74713 11.7293 9.55333 11.5864 9.41051L8.70182 6.52589C8.55899 6.38307 8.36539 6.30273 8.16326 6.30273C7.96132 6.30273 7.76752 6.38307 7.6247 6.52589L5.60535 8.54524C4.51335 9.63724 4.51335 11.4144 5.60555 12.507L11.9514 18.8532C12.4791 19.3807 13.1827 19.6711 13.9323 19.6711C14.6821 19.6711 15.3857 19.3807 15.9134 18.8532L17.9327 16.8341C18.0755 16.6911 18.1559 16.4975 18.1559 16.2953C18.1559 16.0934 18.0755 15.8996 17.9327 15.7568L15.0479 12.872ZM14.836 17.7757C14.5962 18.0155 14.2753 18.1477 13.9323 18.1477C13.5893 18.1477 13.2684 18.0155 13.0285 17.7757L6.68286 11.4297C6.18457 10.9314 6.18437 10.1205 6.68267 9.62236L8.16326 8.14157L9.97055 9.94907L9.35523 10.5642C9.21241 10.707 9.13207 10.9008 9.13207 11.1028C9.13207 11.3049 9.21241 11.4985 9.35523 11.6415L12.8167 15.103C13.1142 15.4003 13.5965 15.4005 13.894 15.103L14.5093 14.4878L16.3166 16.2951L14.836 17.7757Z" fill="#EDEDED"/>
<path d="M13.2073 3.7832C12.7865 3.7832 12.4456 4.12419 12.4456 4.54492C12.4456 4.96545 12.7865 5.30664 13.2073 5.30664C14.9505 5.30664 16.5896 5.98544 17.8222 7.21828C19.0551 8.45091 19.7339 10.0898 19.7339 11.8332C19.7339 12.2538 20.0748 12.5949 20.4956 12.5949C20.9161 12.5949 21.2573 12.254 21.2573 11.8332C21.2573 9.68295 20.42 7.66142 18.8995 6.14096C17.3791 4.6205 15.3575 3.7832 13.2073 3.7832Z" fill="#EDEDED"/>
<path d="M16.4704 11.8332C16.4704 12.2537 16.8116 12.5949 17.2321 12.5949C17.6528 12.5949 17.9938 12.2537 17.9938 11.8332C17.9938 9.19397 15.8465 7.04688 13.2073 7.04688C12.7865 7.04688 12.4456 7.38786 12.4456 7.80859C12.4456 8.22932 12.7865 8.57031 13.2073 8.57031C15.0066 8.57031 16.4704 10.034 16.4704 11.8332Z" fill="#EDEDED"/>
</g>
<defs>
<clipPath id="clip0">
<rect width="26" height="26" fill="white" transform="translate(0.0100098 0.413574)"/>
</clipPath>
</defs>
</svg>
