<svg width="15" height="14" viewBox="0 0 15 14" fill="none" xmlns="http://www.w3.org/2000/svg">
<path d="M8.36319 7.36403L13.8145 2.25327C14.1693 1.92083 14.1693 1.38333 13.8145 1.0509C13.4599 0.718466 12.8866 0.718466 12.532 1.0509L7.08049 6.16166L1.62917 1.0509C1.2744 0.718466 0.701236 0.718466 0.346639 1.0509C-0.00812438 1.38333 -0.00812438 1.92083 0.346639 2.25327L5.79797 7.36403L0.346639 12.4748C-0.00812438 12.8072 -0.00812438 13.3447 0.346639 13.6772C0.523356 13.843 0.755713 13.9263 0.987903 13.9263C1.22009 13.9263 1.45228 13.843 1.62917 13.6772L7.08049 8.5664L12.532 13.6772C12.7089 13.843 12.9411 13.9263 13.1733 13.9263C13.4054 13.9263 13.6376 13.843 13.8145 13.6772C14.1693 13.3447 14.1693 12.8072 13.8145 12.4748L8.36319 7.36403Z" fill="white"/>
</svg>
