<svg width="178" height="42" viewBox="0 0 178 42" fill="none" xmlns="http://www.w3.org/2000/svg">
<path d="M46.8118 8.0973H50.5168C52.1382 8.0973 53.3478 8.40764 54.1458 9.0283C54.9438 9.6363 55.3428 10.6876 55.3428 12.1823C55.3428 13.1576 55.1972 13.9556 54.9058 14.5763C54.6272 15.1843 54.1395 15.6276 53.4428 15.9063L55.5898 23.4873H52.7778L50.9348 16.4383H49.6048V23.4873H46.8118V8.0973ZM50.4978 14.6903C51.2958 14.6903 51.8595 14.5066 52.1888 14.1393C52.5308 13.772 52.7018 13.1703 52.7018 12.3343C52.7018 11.5236 52.5498 10.9346 52.2458 10.5673C51.9545 10.2 51.4225 10.0163 50.6498 10.0163H49.6048V14.6903H50.4978ZM60.6162 23.6583C59.4002 23.6583 58.5072 23.3226 57.9372 22.6513C57.3672 21.9673 57.0822 20.9603 57.0822 19.6303V16.3623C57.0822 15.0196 57.3672 14.0126 57.9372 13.3413C58.5199 12.67 59.4129 12.3343 60.6162 12.3343C61.8576 12.3343 62.7316 12.6826 63.2382 13.3793C63.7576 14.076 64.0172 15.1273 64.0172 16.5333V18.1103H59.6472V20.2763C59.6472 20.8083 59.7232 21.1946 59.8752 21.4353C60.0399 21.676 60.2932 21.7963 60.6352 21.7963C60.9646 21.7963 61.1989 21.6823 61.3382 21.4543C61.4902 21.2136 61.5662 20.8526 61.5662 20.3713V19.4403H63.9982V20.2003C63.9982 21.3276 63.7132 22.189 63.1432 22.7843C62.5732 23.367 61.7309 23.6583 60.6162 23.6583ZM61.5662 16.8373V15.7923C61.5662 15.2223 61.4966 14.817 61.3572 14.5763C61.2179 14.323 60.9709 14.1963 60.6162 14.1963C60.2489 14.1963 59.9956 14.3293 59.8562 14.5953C59.7169 14.8613 59.6472 15.3553 59.6472 16.0773V16.8373H61.5662ZM65.7707 12.5053H68.2597V13.4743C68.9944 12.7016 69.8557 12.3153 70.8437 12.3153C71.287 12.3153 71.667 12.4293 71.9837 12.6573C72.3004 12.8726 72.5347 13.202 72.6867 13.6453C73.4467 12.7586 74.3714 12.3153 75.4607 12.3153C76.0687 12.3153 76.5564 12.537 76.9237 12.9803C77.3037 13.4236 77.4937 14.0633 77.4937 14.8993V23.4873H75.0237V15.1463C75.0237 14.741 74.954 14.456 74.8147 14.2913C74.688 14.1266 74.4917 14.0443 74.2257 14.0443C74.023 14.0443 73.795 14.1013 73.5417 14.2153C73.301 14.3293 73.0794 14.4876 72.8767 14.6903V14.8993V23.4873H70.4257V15.1463C70.4257 14.741 70.356 14.456 70.2167 14.2913C70.0774 14.1266 69.8747 14.0443 69.6087 14.0443C69.406 14.0443 69.1844 14.1013 68.9437 14.2153C68.703 14.3293 68.475 14.4876 68.2597 14.6903V23.4873H65.7707V12.5053ZM82.7334 23.6583C81.5554 23.6583 80.6751 23.3353 80.0924 22.6893C79.5097 22.0306 79.2184 21.0806 79.2184 19.8393V16.1533C79.2184 14.912 79.5097 13.9683 80.0924 13.3223C80.6751 12.6636 81.5554 12.3343 82.7334 12.3343C83.9114 12.3343 84.7917 12.6636 85.3744 13.3223C85.9697 13.9683 86.2674 14.912 86.2674 16.1533V19.8393C86.2674 21.0806 85.9697 22.0306 85.3744 22.6893C84.7917 23.3353 83.9114 23.6583 82.7334 23.6583ZM82.7524 21.8723C83.1451 21.8723 83.4047 21.7203 83.5314 21.4163C83.6581 21.0996 83.7214 20.6373 83.7214 20.0293V15.9823C83.7214 15.3743 83.6581 14.912 83.5314 14.5953C83.4047 14.2786 83.1451 14.1203 82.7524 14.1203C82.3471 14.1203 82.0811 14.2786 81.9544 14.5953C81.8277 14.912 81.7644 15.3743 81.7644 15.9823V20.0293C81.7644 20.6373 81.8277 21.0996 81.9544 21.4163C82.0811 21.7203 82.3471 21.8723 82.7524 21.8723ZM91.2279 23.6203C90.2272 23.6203 89.5179 23.3796 89.0999 22.8983C88.6946 22.417 88.4919 21.7013 88.4919 20.7513V14.1963H87.3899V12.5053H88.4919V9.2183H91.0949V12.5053H92.7479V14.1963H91.0949V20.5233C91.0949 20.8906 91.1709 21.1566 91.3229 21.3213C91.4876 21.486 91.7409 21.5683 92.0829 21.5683C92.3996 21.5683 92.6656 21.543 92.8809 21.4923V23.4873C92.3742 23.576 91.8232 23.6203 91.2279 23.6203ZM94.5345 8.0973H100.994V10.0733H97.3275V14.5003H100.215V16.4573H97.3275V21.5683H101.032V23.4873H94.5345V8.0973ZM102.49 12.5053H104.979V13.4743C105.714 12.7016 106.575 12.3153 107.563 12.3153C108.007 12.3153 108.387 12.4293 108.703 12.6573C109.02 12.8726 109.254 13.202 109.406 13.6453C110.166 12.7586 111.091 12.3153 112.18 12.3153C112.788 12.3153 113.276 12.537 113.643 12.9803C114.023 13.4236 114.213 14.0633 114.213 14.8993V23.4873H111.743V15.1463C111.743 14.741 111.674 14.456 111.534 14.2913C111.408 14.1266 111.211 14.0443 110.945 14.0443C110.743 14.0443 110.515 14.1013 110.261 14.2153C110.021 14.3293 109.799 14.4876 109.596 14.6903V14.8993V23.4873H107.145V15.1463C107.145 14.741 107.076 14.456 106.936 14.2913C106.797 14.1266 106.594 14.0443 106.328 14.0443C106.126 14.0443 105.904 14.1013 105.663 14.2153C105.423 14.3293 105.195 14.4876 104.979 14.6903V23.4873H102.49V12.5053ZM116.128 12.5053H118.712V13.3413C119.409 12.67 120.156 12.3343 120.954 12.3343C121.841 12.3343 122.468 12.7016 122.835 13.4363C123.202 14.171 123.386 15.026 123.386 16.0013V19.7253C123.386 20.9033 123.177 21.8533 122.759 22.5753C122.354 23.2973 121.708 23.6583 120.821 23.6583C120.112 23.6583 119.409 23.329 118.712 22.6703V27.0973H116.128V12.5053ZM119.852 21.8533C120.219 21.8533 120.466 21.676 120.593 21.3213C120.732 20.9666 120.802 20.4663 120.802 19.8203V15.8683C120.802 15.2983 120.732 14.855 120.593 14.5383C120.454 14.2216 120.2 14.0633 119.833 14.0633C119.453 14.0633 119.079 14.2216 118.712 14.5383V21.4733C119.067 21.7266 119.447 21.8533 119.852 21.8533ZM125.335 8.0973H127.9V23.4873H125.335V8.0973ZM133.276 23.6583C132.098 23.6583 131.218 23.3353 130.635 22.6893C130.053 22.0306 129.761 21.0806 129.761 19.8393V16.1533C129.761 14.912 130.053 13.9683 130.635 13.3223C131.218 12.6636 132.098 12.3343 133.276 12.3343C134.454 12.3343 135.335 12.6636 135.917 13.3223C136.513 13.9683 136.81 14.912 136.81 16.1533V19.8393C136.81 21.0806 136.513 22.0306 135.917 22.6893C135.335 23.3353 134.454 23.6583 133.276 23.6583ZM133.295 21.8723C133.688 21.8723 133.948 21.7203 134.074 21.4163C134.201 21.0996 134.264 20.6373 134.264 20.0293V15.9823C134.264 15.3743 134.201 14.912 134.074 14.5953C133.948 14.2786 133.688 14.1203 133.295 14.1203C132.89 14.1203 132.624 14.2786 132.497 14.5953C132.371 14.912 132.307 15.3743 132.307 15.9823V20.0293C132.307 20.6373 132.371 21.0996 132.497 21.4163C132.624 21.7203 132.89 21.8723 133.295 21.8723ZM138.674 24.6083C139.358 24.6083 139.839 24.545 140.118 24.4183C140.409 24.3043 140.555 24.0763 140.555 23.7343C140.555 23.5063 140.422 22.8603 140.156 21.7963L137.743 12.5053H140.251L141.676 19.7633L142.911 12.5053H145.4L142.835 23.9243C142.62 24.849 142.208 25.5013 141.6 25.8813C141.005 26.274 140.194 26.4703 139.168 26.4703H138.674V24.6083ZM149.92 23.6583C148.704 23.6583 147.811 23.3226 147.241 22.6513C146.671 21.9673 146.386 20.9603 146.386 19.6303V16.3623C146.386 15.0196 146.671 14.0126 147.241 13.3413C147.824 12.67 148.717 12.3343 149.92 12.3343C151.161 12.3343 152.035 12.6826 152.542 13.3793C153.061 14.076 153.321 15.1273 153.321 16.5333V18.1103H148.951V20.2763C148.951 20.8083 149.027 21.1946 149.179 21.4353C149.344 21.676 149.597 21.7963 149.939 21.7963C150.268 21.7963 150.503 21.6823 150.642 21.4543C150.794 21.2136 150.87 20.8526 150.87 20.3713V19.4403H153.302V20.2003C153.302 21.3276 153.017 22.189 152.447 22.7843C151.877 23.367 151.035 23.6583 149.92 23.6583ZM150.87 16.8373V15.7923C150.87 15.2223 150.8 14.817 150.661 14.5763C150.522 14.323 150.275 14.1963 149.92 14.1963C149.553 14.1963 149.299 14.3293 149.16 14.5953C149.021 14.8613 148.951 15.3553 148.951 16.0773V16.8373H150.87ZM158.399 23.6583C157.183 23.6583 156.29 23.3226 155.72 22.6513C155.15 21.9673 154.865 20.9603 154.865 19.6303V16.3623C154.865 15.0196 155.15 14.0126 155.72 13.3413C156.303 12.67 157.196 12.3343 158.399 12.3343C159.641 12.3343 160.515 12.6826 161.021 13.3793C161.541 14.076 161.8 15.1273 161.8 16.5333V18.1103H157.43V20.2763C157.43 20.8083 157.506 21.1946 157.658 21.4353C157.823 21.676 158.076 21.7963 158.418 21.7963C158.748 21.7963 158.982 21.6823 159.121 21.4543C159.273 21.2136 159.349 20.8526 159.349 20.3713V19.4403H161.781V20.2003C161.781 21.3276 161.496 22.189 160.926 22.7843C160.356 23.367 159.514 23.6583 158.399 23.6583ZM159.349 16.8373V15.7923C159.349 15.2223 159.28 14.817 159.14 14.5763C159.001 14.323 158.754 14.1963 158.399 14.1963C158.032 14.1963 157.779 14.3293 157.639 14.5953C157.5 14.8613 157.43 15.3553 157.43 16.0773V16.8373H159.349ZM166.537 23.6583C165.612 23.6583 164.852 23.4113 164.257 22.9173C163.662 22.4233 163.237 21.7013 162.984 20.7513L164.903 20.0103C165.194 21.239 165.726 21.8533 166.499 21.8533C166.79 21.8533 167.012 21.7773 167.164 21.6253C167.329 21.4733 167.411 21.2643 167.411 20.9983C167.411 20.707 167.322 20.441 167.145 20.2003C166.968 19.947 166.651 19.6303 166.195 19.2503L164.884 18.1103C164.327 17.6543 163.915 17.211 163.649 16.7803C163.383 16.3496 163.25 15.824 163.25 15.2033C163.25 14.342 163.541 13.6516 164.124 13.1323C164.719 12.6003 165.467 12.3343 166.366 12.3343C167.227 12.3343 167.93 12.594 168.475 13.1133C169.02 13.62 169.374 14.3103 169.539 15.1843L167.848 15.9063C167.747 15.3996 167.576 14.988 167.335 14.6713C167.107 14.342 166.809 14.1773 166.442 14.1773C166.176 14.1773 165.961 14.2596 165.796 14.4243C165.644 14.589 165.568 14.798 165.568 15.0513C165.568 15.254 165.657 15.4693 165.834 15.6973C166.011 15.9253 166.277 16.1913 166.632 16.4953L167.962 17.7113C168.532 18.2053 168.969 18.6803 169.273 19.1363C169.59 19.5796 169.748 20.118 169.748 20.7513C169.748 21.676 169.444 22.3916 168.836 22.8983C168.241 23.405 167.474 23.6583 166.537 23.6583Z" fill="white"/>
<path d="M48.8107 38.3901H48.2574V31.0532H45.7062V30.5376H51.3619V31.0532H48.8107V38.3901ZM56.4698 38.3901V34.6035C56.4698 34.0163 56.3463 33.5902 56.0992 33.3252C55.8522 33.0566 55.469 32.9224 54.9498 32.9224C54.2516 32.9224 53.7395 33.0996 53.4137 33.4541C53.0914 33.805 52.9303 34.3761 52.9303 35.1675V38.3901H52.3986V30.0327H52.9303V32.6914L52.9034 33.438H52.941C53.1595 33.0871 53.4352 32.8328 53.7682 32.6753C54.1012 32.5177 54.5148 32.439 55.0089 32.439C56.3338 32.439 56.9962 33.1497 56.9962 34.5713V38.3901H56.4698ZM61.2448 38.4976C60.3961 38.4976 59.7337 38.2362 59.2574 37.7134C58.7848 37.1906 58.5485 36.4583 58.5485 35.5166C58.5485 34.5856 58.7776 33.8408 59.236 33.2822C59.6943 32.7201 60.312 32.439 61.089 32.439C61.7765 32.439 62.319 32.6789 62.7164 33.1587C63.1139 33.6385 63.3126 34.2902 63.3126 35.1138V35.5435H59.1071C59.1142 36.3455 59.3004 36.9578 59.6656 37.3804C60.0345 37.8029 60.5608 38.0142 61.2448 38.0142C61.5778 38.0142 61.8696 37.9909 62.1202 37.9443C62.3745 37.8978 62.6949 37.7975 63.0817 37.6436V38.127C62.7522 38.2702 62.4479 38.3669 62.1686 38.417C61.8893 38.4707 61.5813 38.4976 61.2448 38.4976ZM61.089 32.9116C60.5268 32.9116 60.0756 33.0978 59.7355 33.4702C59.3953 33.839 59.1966 34.3726 59.1393 35.0708H62.7487C62.7487 34.394 62.6018 33.8659 62.3082 33.4863C62.0146 33.1032 61.6082 32.9116 61.089 32.9116ZM72.61 35.4629C72.61 36.4154 72.379 37.1602 71.9171 37.6973C71.4552 38.2308 70.8178 38.4976 70.005 38.4976C69.493 38.4976 69.0418 38.374 68.6515 38.127C68.2612 37.8799 67.9622 37.5254 67.7545 37.0635C67.5468 36.6016 67.443 36.068 67.443 35.4629C67.443 34.5104 67.674 33.7692 68.1359 33.2393C68.5978 32.7057 69.2316 32.439 70.0372 32.439C70.8393 32.439 71.4677 32.7093 71.9225 33.25C72.3808 33.7871 72.61 34.5247 72.61 35.4629ZM68.0016 35.4629C68.0016 36.265 68.177 36.8916 68.528 37.3428C68.8824 37.7904 69.382 38.0142 70.0265 38.0142C70.671 38.0142 71.1687 37.7904 71.5197 37.3428C71.8741 36.8916 72.0514 36.265 72.0514 35.4629C72.0514 34.6572 71.8724 34.0324 71.5143 33.5884C71.1598 33.1444 70.6603 32.9224 70.0157 32.9224C69.3712 32.9224 68.8735 33.1444 68.5226 33.5884C68.1753 34.0288 68.0016 34.6536 68.0016 35.4629ZM74.6886 32.5518V36.333C74.6886 36.9202 74.8121 37.3481 75.0592 37.6167C75.3063 37.8817 75.6894 38.0142 76.2086 38.0142C76.9033 38.0142 77.4135 37.8387 77.7394 37.4878C78.0688 37.1369 78.2335 36.5658 78.2335 35.7744V32.5518H78.7599V38.3901H78.3087L78.212 37.5845H78.1798C77.8003 38.1932 77.1253 38.4976 76.1549 38.4976C74.8265 38.4976 74.1622 37.7868 74.1622 36.3652V32.5518H74.6886ZM82.2565 38.0249C82.5931 38.0249 82.8867 37.9963 83.1373 37.939V38.3687C82.8795 38.4546 82.5823 38.4976 82.2457 38.4976C81.7301 38.4976 81.3488 38.3597 81.1017 38.084C80.8582 37.8083 80.7365 37.375 80.7365 36.7842V33.0137H79.8717V32.7021L80.7365 32.4604L81.005 31.1392H81.2789V32.5518H82.9923V33.0137H81.2789V36.709C81.2789 37.1566 81.3577 37.4878 81.5153 37.7026C81.6728 37.9175 81.9199 38.0249 82.2565 38.0249ZM88.0197 36.8701C88.0197 37.3929 87.8209 37.7957 87.4235 38.0786C87.026 38.3579 86.462 38.4976 85.7316 38.4976C84.951 38.4976 84.3315 38.3776 83.8732 38.1377V37.563C84.4604 37.8566 85.0799 38.0034 85.7316 38.0034C86.3081 38.0034 86.7449 37.9085 87.0421 37.7188C87.3429 37.5254 87.4933 37.2694 87.4933 36.9507C87.4933 36.6571 87.3733 36.41 87.1334 36.2095C86.8971 36.009 86.5068 35.812 85.9625 35.6187C85.3789 35.4074 84.9689 35.2266 84.7325 35.0762C84.4962 34.9222 84.3172 34.7503 84.1954 34.5605C84.0773 34.3672 84.0182 34.1326 84.0182 33.8569C84.0182 33.4201 84.2008 33.0745 84.566 32.8203C84.9349 32.5661 85.4487 32.439 86.1075 32.439C86.7378 32.439 87.3357 32.5571 87.9015 32.7935L87.7028 33.2769C87.1298 33.0405 86.5981 32.9224 86.1075 32.9224C85.6313 32.9224 85.2535 33.0011 84.9742 33.1587C84.6949 33.3162 84.5553 33.5347 84.5553 33.814C84.5553 34.1183 84.6627 34.3618 84.8776 34.5444C85.096 34.7271 85.5203 34.9312 86.1505 35.1567C86.6769 35.3465 87.06 35.5184 87.2999 35.6724C87.5398 35.8228 87.7189 35.9946 87.837 36.188C87.9588 36.3813 88.0197 36.6087 88.0197 36.8701ZM91.0651 38.0249C91.4017 38.0249 91.6953 37.9963 91.9459 37.939V38.3687C91.6881 38.4546 91.3909 38.4976 91.0543 38.4976C90.5387 38.4976 90.1573 38.3597 89.9103 38.084C89.6668 37.8083 89.545 37.375 89.545 36.7842V33.0137H88.6803V32.7021L89.545 32.4604L89.8136 31.1392H90.0875V32.5518H91.8009V33.0137H90.0875V36.709C90.0875 37.1566 90.1663 37.4878 90.3239 37.7026C90.4814 37.9175 90.7285 38.0249 91.0651 38.0249ZM96.7531 38.3901L96.6188 37.4663H96.5758C96.2822 37.8423 95.9796 38.109 95.6681 38.2666C95.3601 38.4206 94.9949 38.4976 94.5724 38.4976C93.9995 38.4976 93.5537 38.3507 93.235 38.0571C92.9163 37.7635 92.757 37.3571 92.757 36.8379C92.757 36.2686 92.9933 35.8263 93.4659 35.5112C93.9422 35.1961 94.6297 35.0296 95.5284 35.0117L96.6403 34.9795V34.5928C96.6403 34.0378 96.5275 33.6188 96.3019 33.3359C96.0763 33.0531 95.7128 32.9116 95.2115 32.9116C94.6709 32.9116 94.1105 33.062 93.5304 33.3628L93.3317 32.9009C93.9726 32.6001 94.6064 32.4497 95.233 32.4497C95.874 32.4497 96.352 32.6162 96.6671 32.9492C96.9858 33.2822 97.1451 33.8014 97.1451 34.5068V38.3901H96.7531ZM94.6046 38.0142C95.2277 38.0142 95.7182 37.8369 96.0763 37.4824C96.4379 37.1243 96.6188 36.6284 96.6188 35.9946V35.4199L95.5983 35.4629C94.7783 35.5023 94.1928 35.6312 93.8419 35.8496C93.4946 36.0645 93.3209 36.401 93.3209 36.8594C93.3209 37.2246 93.4319 37.5093 93.6539 37.7134C93.8795 37.9139 94.1964 38.0142 94.6046 38.0142ZM101.211 33.0137H99.8361V38.3901H99.3043V33.0137H98.2194V32.7021L99.3043 32.5034V32.0522C99.3043 31.3361 99.435 30.8115 99.6964 30.4785C99.9614 30.1419 100.393 29.9736 100.991 29.9736C101.313 29.9736 101.635 30.022 101.958 30.1187L101.834 30.5806C101.548 30.491 101.263 30.4463 100.98 30.4463C100.565 30.4463 100.269 30.5698 100.094 30.8169C99.922 31.0604 99.8361 31.4578 99.8361 32.0093V32.5518H101.211V33.0137ZM104.509 33.0137H103.134V38.3901H102.602V33.0137H101.517V32.7021L102.602 32.5034V32.0522C102.602 31.3361 102.733 30.8115 102.994 30.4785C103.259 30.1419 103.691 29.9736 104.289 29.9736C104.611 29.9736 104.933 30.022 105.255 30.1187L105.132 30.5806C104.845 30.491 104.561 30.4463 104.278 30.4463C103.863 30.4463 103.567 30.5698 103.392 30.8169C103.22 31.0604 103.134 31.4578 103.134 32.0093V32.5518H104.509V33.0137ZM106.174 38.3901H105.642V32.5518H106.174V38.3901ZM105.567 30.9297C105.567 30.5859 105.68 30.4141 105.905 30.4141C106.016 30.4141 106.102 30.4588 106.163 30.5483C106.228 30.6379 106.26 30.765 106.26 30.9297C106.26 31.0908 106.228 31.2179 106.163 31.311C106.102 31.4041 106.016 31.4507 105.905 31.4507C105.68 31.4507 105.567 31.277 105.567 30.9297ZM112.2 38.3901V34.6035C112.2 34.0163 112.077 33.5902 111.83 33.3252C111.583 33.0566 111.2 32.9224 110.68 32.9224C109.982 32.9224 109.47 33.0996 109.144 33.4541C108.822 33.805 108.661 34.3761 108.661 35.1675V38.3901H108.129V32.5518H108.58L108.682 33.3521H108.714C109.094 32.7433 109.769 32.439 110.739 32.439C112.064 32.439 112.727 33.1497 112.727 34.5713V38.3901H112.2ZM119.172 32.5518V32.9224L117.964 32.9976C118.286 33.3986 118.447 33.839 118.447 34.3188C118.447 34.881 118.259 35.3376 117.883 35.6885C117.511 36.0358 117.009 36.2095 116.379 36.2095C116.114 36.2095 115.928 36.1987 115.82 36.1772C115.609 36.2882 115.448 36.4189 115.337 36.5693C115.226 36.7197 115.171 36.8791 115.171 37.0474C115.171 37.2336 115.24 37.3696 115.38 37.4556C115.523 37.5415 115.761 37.5845 116.094 37.5845H117.115C117.749 37.5845 118.234 37.7134 118.57 37.9712C118.907 38.2254 119.075 38.6032 119.075 39.1045C119.075 39.7204 118.825 40.1948 118.323 40.5278C117.826 40.8644 117.115 41.0327 116.191 41.0327C115.457 41.0327 114.888 40.8913 114.483 40.6084C114.082 40.3255 113.881 39.9316 113.881 39.4268C113.881 39.0257 114.005 38.6927 114.252 38.4277C114.503 38.1628 114.841 37.9819 115.267 37.8853C115.092 37.8101 114.95 37.7044 114.843 37.5684C114.739 37.4287 114.687 37.2694 114.687 37.0903C114.687 36.7 114.936 36.3563 115.434 36.0591C115.094 35.9194 114.829 35.701 114.639 35.4038C114.449 35.103 114.354 34.7593 114.354 34.3726C114.354 33.7889 114.539 33.3216 114.907 32.9707C115.28 32.6162 115.781 32.439 116.411 32.439C116.794 32.439 117.092 32.4766 117.303 32.5518H119.172ZM114.445 39.3784C114.445 40.1805 115.042 40.5815 116.234 40.5815C117.767 40.5815 118.533 40.0928 118.533 39.1152C118.533 38.7643 118.413 38.5101 118.173 38.3525C117.933 38.195 117.545 38.1162 117.007 38.1162H116.051C114.981 38.1162 114.445 38.5369 114.445 39.3784ZM114.891 34.3726C114.891 34.8237 115.027 35.1746 115.299 35.4253C115.575 35.6724 115.942 35.7959 116.401 35.7959C116.887 35.7959 117.26 35.6724 117.518 35.4253C117.779 35.1782 117.91 34.8201 117.91 34.3511C117.91 33.8534 117.776 33.481 117.507 33.2339C117.242 32.9832 116.87 32.8579 116.39 32.8579C115.924 32.8579 115.557 32.9922 115.289 33.2607C115.024 33.5257 114.891 33.8963 114.891 34.3726ZM125.564 38.4976C124.729 38.4976 124.076 38.2344 123.603 37.708C123.13 37.1816 122.894 36.4476 122.894 35.5059C122.894 34.5391 123.139 33.7871 123.63 33.25C124.121 32.7093 124.792 32.439 125.644 32.439C126.149 32.439 126.632 32.5267 127.094 32.7021L126.949 33.1748C126.444 33.0065 126.006 32.9224 125.633 32.9224C124.917 32.9224 124.375 33.1444 124.006 33.5884C123.637 34.0288 123.453 34.6644 123.453 35.4951C123.453 36.2829 123.637 36.9006 124.006 37.3481C124.375 37.7922 124.89 38.0142 125.553 38.0142C126.083 38.0142 126.575 37.9193 127.03 37.7295V38.2236C126.658 38.4062 126.169 38.4976 125.564 38.4976ZM133.293 35.4629C133.293 36.4154 133.062 37.1602 132.6 37.6973C132.138 38.2308 131.5 38.4976 130.688 38.4976C130.176 38.4976 129.724 38.374 129.334 38.127C128.944 37.8799 128.645 37.5254 128.437 37.0635C128.229 36.6016 128.126 36.068 128.126 35.4629C128.126 34.5104 128.357 33.7692 128.818 33.2393C129.28 32.7057 129.914 32.439 130.72 32.439C131.522 32.439 132.15 32.7093 132.605 33.25C133.063 33.7871 133.293 34.5247 133.293 35.4629ZM128.684 35.4629C128.684 36.265 128.86 36.8916 129.211 37.3428C129.565 37.7904 130.065 38.0142 130.709 38.0142C131.354 38.0142 131.851 37.7904 132.202 37.3428C132.557 36.8916 132.734 36.265 132.734 35.4629C132.734 34.6572 132.555 34.0324 132.197 33.5884C131.842 33.1444 131.343 32.9224 130.698 32.9224C130.054 32.9224 129.556 33.1444 129.205 33.5884C128.858 34.0288 128.684 34.6536 128.684 35.4629ZM142.203 38.3901V34.5605C142.203 33.9912 142.092 33.5758 141.87 33.3145C141.648 33.0531 141.308 32.9224 140.85 32.9224C140.252 32.9224 139.81 33.0871 139.523 33.4165C139.237 33.7459 139.093 34.2633 139.093 34.9688V38.3901H138.551V34.3994C138.551 33.4147 138.1 32.9224 137.197 32.9224C136.585 32.9224 136.139 33.1014 135.86 33.4595C135.581 33.814 135.441 34.3833 135.441 35.1675V38.3901H134.909V32.5518H135.35L135.463 33.3521H135.495C135.656 33.062 135.885 32.8382 136.182 32.6807C136.479 32.5195 136.807 32.439 137.165 32.439C138.085 32.439 138.676 32.7845 138.938 33.4756H138.959C139.149 33.1426 139.403 32.8866 139.722 32.7075C140.044 32.5285 140.409 32.439 140.818 32.439C141.455 32.439 141.933 32.609 142.252 32.9492C142.57 33.2894 142.73 33.8301 142.73 34.5713V38.3901H142.203ZM147.118 38.4976C146.219 38.4976 145.564 38.161 145.152 37.4878H145.114L145.13 37.939C145.145 38.2039 145.152 38.494 145.152 38.8091V41.0327H144.62V32.5518H145.071L145.173 33.3843H145.206C145.607 32.7541 146.248 32.439 147.129 32.439C147.916 32.439 148.516 32.6986 148.928 33.2178C149.343 33.7334 149.551 34.4854 149.551 35.4736C149.551 36.4333 149.332 37.1781 148.896 37.708C148.462 38.2344 147.87 38.4976 147.118 38.4976ZM147.107 38.0249C147.705 38.0249 148.167 37.8029 148.493 37.3589C148.822 36.9149 148.987 36.2936 148.987 35.4951C148.987 33.7799 148.367 32.9224 147.129 32.9224C146.448 32.9224 145.949 33.1104 145.63 33.4863C145.311 33.8587 145.152 34.4674 145.152 35.3125V35.4844C145.152 36.3975 145.304 37.0492 145.609 37.4395C145.916 37.8298 146.416 38.0249 147.107 38.0249ZM154.718 38.3901L154.584 37.4663H154.541C154.247 37.8423 153.944 38.109 153.633 38.2666C153.325 38.4206 152.96 38.4976 152.537 38.4976C151.964 38.4976 151.519 38.3507 151.2 38.0571C150.881 37.7635 150.722 37.3571 150.722 36.8379C150.722 36.2686 150.958 35.8263 151.431 35.5112C151.907 35.1961 152.595 35.0296 153.493 35.0117L154.605 34.9795V34.5928C154.605 34.0378 154.492 33.6188 154.267 33.3359C154.041 33.0531 153.678 32.9116 153.176 32.9116C152.636 32.9116 152.075 33.062 151.495 33.3628L151.297 32.9009C151.937 32.6001 152.571 32.4497 153.198 32.4497C153.839 32.4497 154.317 32.6162 154.632 32.9492C154.951 33.2822 155.11 33.8014 155.11 34.5068V38.3901H154.718ZM152.569 38.0142C153.193 38.0142 153.683 37.8369 154.041 37.4824C154.403 37.1243 154.584 36.6284 154.584 35.9946V35.4199L153.563 35.4629C152.743 35.5023 152.158 35.6312 151.807 35.8496C151.459 36.0645 151.286 36.401 151.286 36.8594C151.286 37.2246 151.397 37.5093 151.619 37.7134C151.844 37.9139 152.161 38.0142 152.569 38.0142ZM161.077 38.3901V34.6035C161.077 34.0163 160.954 33.5902 160.707 33.3252C160.46 33.0566 160.076 32.9224 159.557 32.9224C158.859 32.9224 158.347 33.0996 158.021 33.4541C157.699 33.805 157.538 34.3761 157.538 35.1675V38.3901H157.006V32.5518H157.457L157.559 33.3521H157.591C157.971 32.7433 158.646 32.439 159.616 32.439C160.941 32.439 161.604 33.1497 161.604 34.5713V38.3901H161.077ZM162.517 32.5518H163.065L164.3 35.8281C164.676 36.8343 164.914 37.5129 165.014 37.8638H165.047C165.197 37.4019 165.442 36.7126 165.782 35.7959L167.018 32.5518H167.566L164.95 39.3354C164.739 39.8869 164.561 40.2593 164.418 40.4526C164.275 40.646 164.107 40.791 163.913 40.8877C163.723 40.9844 163.492 41.0327 163.22 41.0327C163.016 41.0327 162.789 40.9951 162.538 40.9199V40.458C162.746 40.5153 162.97 40.5439 163.21 40.5439C163.392 40.5439 163.553 40.501 163.693 40.415C163.833 40.3291 163.958 40.1948 164.069 40.0122C164.184 39.8332 164.314 39.5467 164.461 39.1528C164.611 38.7625 164.708 38.5083 164.751 38.3901L162.517 32.5518Z" fill="white"/>
<g opacity="0.3">
<g opacity="0.3">
<path opacity="0.3" d="M2.90369 4.68213L12.3727 10.1318H36.403V4.68213H2.90369Z" fill="black"/>
<path opacity="0.3" d="M14.5612 18.1281C10.7135 20.0019 7.26629 22.548 4.36263 25.6376V12.2493L14.5612 18.1281ZM0 41.0856C1.71645 35.1209 5.16364 29.9001 9.76944 25.9808L18.4947 41.0856H23.5439L13.3168 23.3776C16.7496 21.2034 20.6403 19.6872 24.8169 19.0006L0 4.68262V41.0856Z" fill="black"/>
<path opacity="0.3" d="M29.523 20.0444H36.4031V25.4941H16.2205L15.2908 23.8921C19.4961 21.5034 24.345 20.116 29.523 20.0444Z" fill="black"/>
<path opacity="0.3" d="M22.0706 35.6211L25.2317 41.0851H36.4029V35.6211H22.0706Z" fill="black"/>
</g>
</g>
<path d="M3.6189 3.96729L13.088 9.417H37.1182V3.96729H3.6189Z" fill="#F78F01"/>
<path d="M15.2764 17.4128C11.4287 19.2866 7.9815 21.8326 5.07784 24.9222V11.534L15.2764 17.4128ZM0.71521 40.3702C2.43166 34.4056 5.87885 29.1847 10.4846 25.2655L19.2099 40.3702H24.2591L14.032 22.6622C17.4649 20.4881 21.3555 18.9719 25.5322 18.2853L0.71521 3.96729V40.3702Z" fill="#FBBF13"/>
<path d="M30.2381 19.3291H37.1181V24.7788H16.9356L16.0059 23.1768C20.2112 20.7881 25.0601 19.4006 30.2381 19.3291Z" fill="#F78F01"/>
<path d="M22.7859 34.9062L25.947 40.3703H37.1182V34.9062H22.7859Z" fill="#F78F01"/>
</svg>
