<svg width="148" height="37" viewBox="0 0 148 37" fill="none" xmlns="http://www.w3.org/2000/svg">
<path d="M41.2243 6.34084H44.3443C45.7096 6.34084 46.7283 6.60217 47.4003 7.12484C48.0723 7.63684 48.4083 8.52217 48.4083 9.78084C48.4083 10.6022 48.2856 11.2742 48.0403 11.7968C47.8056 12.3088 47.395 12.6822 46.8083 12.9168L48.6163 19.3008H46.2483L44.6963 13.3648H43.5763V19.3008H41.2243V6.34084ZM44.3283 11.8928C45.0003 11.8928 45.475 11.7382 45.7523 11.4288C46.0403 11.1195 46.1843 10.6128 46.1843 9.90884C46.1843 9.22618 46.0563 8.73018 45.8003 8.42084C45.555 8.11151 45.107 7.95684 44.4563 7.95684H43.5763V11.8928H44.3283ZM52.849 19.4448C51.825 19.4448 51.073 19.1622 50.593 18.5968C50.113 18.0208 49.873 17.1728 49.873 16.0528V13.3008C49.873 12.1702 50.113 11.3222 50.593 10.7568C51.0837 10.1915 51.8357 9.90884 52.849 9.90884C53.8944 9.90884 54.6304 10.2022 55.057 10.7888C55.4944 11.3755 55.713 12.2608 55.713 13.4448V14.7728H52.033V16.5968C52.033 17.0448 52.097 17.3702 52.225 17.5728C52.3637 17.7755 52.577 17.8768 52.865 17.8768C53.1424 17.8768 53.3397 17.7808 53.457 17.5888C53.585 17.3862 53.649 17.0822 53.649 16.6768V15.8928H55.697V16.5328C55.697 17.4822 55.457 18.2075 54.977 18.7088C54.497 19.1995 53.7877 19.4448 52.849 19.4448ZM53.649 13.7008V12.8208C53.649 12.3408 53.5904 11.9995 53.473 11.7968C53.3557 11.5835 53.1477 11.4768 52.849 11.4768C52.5397 11.4768 52.3264 11.5888 52.209 11.8128C52.0917 12.0368 52.033 12.4528 52.033 13.0608V13.7008H53.649ZM57.1897 10.0528H59.2857V10.8688C59.9043 10.2182 60.6297 9.89284 61.4617 9.89284C61.835 9.89284 62.155 9.98884 62.4217 10.1808C62.6883 10.3622 62.8857 10.6395 63.0137 11.0128C63.6537 10.2662 64.4323 9.89284 65.3497 9.89284C65.8617 9.89284 66.2723 10.0795 66.5817 10.4528C66.9017 10.8262 67.0617 11.3648 67.0617 12.0688V19.3008H64.9817V12.2768C64.9817 11.9355 64.923 11.6955 64.8057 11.5568C64.699 11.4182 64.5337 11.3488 64.3097 11.3488C64.139 11.3488 63.947 11.3968 63.7337 11.4928C63.531 11.5888 63.3443 11.7222 63.1737 11.8928V12.0688V19.3008H61.1097V12.2768C61.1097 11.9355 61.051 11.6955 60.9337 11.5568C60.8163 11.4182 60.6457 11.3488 60.4217 11.3488C60.251 11.3488 60.0643 11.3968 59.8617 11.4928C59.659 11.5888 59.467 11.7222 59.2857 11.8928V19.3008H57.1897V10.0528ZM71.474 19.4448C70.482 19.4448 69.7407 19.1728 69.25 18.6288C68.7594 18.0742 68.514 17.2742 68.514 16.2288V13.1248C68.514 12.0795 68.7594 11.2848 69.25 10.7408C69.7407 10.1862 70.482 9.90884 71.474 9.90884C72.466 9.90884 73.2074 10.1862 73.698 10.7408C74.1994 11.2848 74.45 12.0795 74.45 13.1248V16.2288C74.45 17.2742 74.1994 18.0742 73.698 18.6288C73.2074 19.1728 72.466 19.4448 71.474 19.4448ZM71.49 17.9408C71.8207 17.9408 72.0394 17.8128 72.146 17.5568C72.2527 17.2902 72.306 16.9008 72.306 16.3888V12.9808C72.306 12.4688 72.2527 12.0795 72.146 11.8128C72.0394 11.5462 71.8207 11.4128 71.49 11.4128C71.1487 11.4128 70.9247 11.5462 70.818 11.8128C70.7114 12.0795 70.658 12.4688 70.658 12.9808V16.3888C70.658 16.9008 70.7114 17.2902 70.818 17.5568C70.9247 17.8128 71.1487 17.9408 71.49 17.9408ZM78.6273 19.4128C77.7846 19.4128 77.1873 19.2102 76.8353 18.8048C76.494 18.3995 76.3233 17.7968 76.3233 16.9968V11.4768H75.3953V10.0528H76.3233V7.28484H78.5153V10.0528H79.9073V11.4768H78.5153V16.8048C78.5153 17.1142 78.5793 17.3382 78.7073 17.4768C78.846 17.6155 79.0593 17.6848 79.3473 17.6848C79.614 17.6848 79.838 17.6635 80.0193 17.6208V19.3008C79.5926 19.3755 79.1286 19.4128 78.6273 19.4128ZM81.4118 6.34084H86.8518V8.00484H83.7638V11.7328H86.1958V13.3808H83.7638V17.6848H86.8838V19.3008H81.4118V6.34084ZM88.1115 10.0528H90.2075V10.8688C90.8262 10.2182 91.5515 9.89284 92.3835 9.89284C92.7569 9.89284 93.0769 9.98884 93.3435 10.1808C93.6102 10.3622 93.8075 10.6395 93.9355 11.0128C94.5755 10.2662 95.3542 9.89284 96.2715 9.89284C96.7835 9.89284 97.1942 10.0795 97.5035 10.4528C97.8235 10.8262 97.9835 11.3648 97.9835 12.0688V19.3008H95.9035V12.2768C95.9035 11.9355 95.8449 11.6955 95.7275 11.5568C95.6209 11.4182 95.4555 11.3488 95.2315 11.3488C95.0609 11.3488 94.8689 11.3968 94.6555 11.4928C94.4529 11.5888 94.2662 11.7222 94.0955 11.8928V12.0688V19.3008H92.0315V12.2768C92.0315 11.9355 91.9729 11.6955 91.8555 11.5568C91.7382 11.4182 91.5675 11.3488 91.3435 11.3488C91.1729 11.3488 90.9862 11.3968 90.7835 11.4928C90.5809 11.5888 90.3889 11.7222 90.2075 11.8928V19.3008H88.1115V10.0528ZM99.5959 10.0528H101.772V10.7568C102.359 10.1915 102.988 9.90884 103.66 9.90884C104.407 9.90884 104.935 10.2182 105.244 10.8368C105.553 11.4555 105.708 12.1755 105.708 12.9968V16.1328C105.708 17.1248 105.532 17.9248 105.18 18.5328C104.839 19.1408 104.295 19.4448 103.548 19.4448C102.951 19.4448 102.359 19.1675 101.772 18.6128V22.3408H99.5959V10.0528ZM102.732 17.9248C103.041 17.9248 103.249 17.7755 103.356 17.4768C103.473 17.1782 103.532 16.7568 103.532 16.2128V12.8848C103.532 12.4048 103.473 12.0315 103.356 11.7648C103.239 11.4982 103.025 11.3648 102.716 11.3648C102.396 11.3648 102.081 11.4982 101.772 11.7648V17.6048C102.071 17.8182 102.391 17.9248 102.732 17.9248ZM107.349 6.34084H109.509V19.3008H107.349V6.34084ZM114.037 19.4448C113.045 19.4448 112.303 19.1728 111.813 18.6288C111.322 18.0742 111.077 17.2742 111.077 16.2288V13.1248C111.077 12.0795 111.322 11.2848 111.813 10.7408C112.303 10.1862 113.045 9.90884 114.037 9.90884C115.029 9.90884 115.77 10.1862 116.261 10.7408C116.762 11.2848 117.013 12.0795 117.013 13.1248V16.2288C117.013 17.2742 116.762 18.0742 116.261 18.6288C115.77 19.1728 115.029 19.4448 114.037 19.4448ZM114.053 17.9408C114.383 17.9408 114.602 17.8128 114.709 17.5568C114.815 17.2902 114.869 16.9008 114.869 16.3888V12.9808C114.869 12.4688 114.815 12.0795 114.709 11.8128C114.602 11.5462 114.383 11.4128 114.053 11.4128C113.711 11.4128 113.487 11.5462 113.381 11.8128C113.274 12.0795 113.221 12.4688 113.221 12.9808V16.3888C113.221 16.9008 113.274 17.2902 113.381 17.5568C113.487 17.8128 113.711 17.9408 114.053 17.9408ZM118.582 20.2448C119.158 20.2448 119.563 20.1915 119.798 20.0848C120.043 19.9888 120.166 19.7968 120.166 19.5088C120.166 19.3168 120.054 18.7728 119.83 17.8768L117.798 10.0528H119.91L121.11 16.1648L122.15 10.0528H124.246L122.086 19.6688C121.904 20.4475 121.558 20.9968 121.046 21.3168C120.544 21.6475 119.862 21.8128 118.998 21.8128H118.582V20.2448ZM128.052 19.4448C127.028 19.4448 126.276 19.1622 125.796 18.5968C125.316 18.0208 125.076 17.1728 125.076 16.0528V13.3008C125.076 12.1702 125.316 11.3222 125.796 10.7568C126.287 10.1915 127.039 9.90884 128.052 9.90884C129.097 9.90884 129.833 10.2022 130.26 10.7888C130.697 11.3755 130.916 12.2608 130.916 13.4448V14.7728H127.236V16.5968C127.236 17.0448 127.3 17.3702 127.428 17.5728C127.567 17.7755 127.78 17.8768 128.068 17.8768C128.345 17.8768 128.543 17.7808 128.66 17.5888C128.788 17.3862 128.852 17.0822 128.852 16.6768V15.8928H130.9V16.5328C130.9 17.4822 130.66 18.2075 130.18 18.7088C129.7 19.1995 128.991 19.4448 128.052 19.4448ZM128.852 13.7008V12.8208C128.852 12.3408 128.793 11.9995 128.676 11.7968C128.559 11.5835 128.351 11.4768 128.052 11.4768C127.743 11.4768 127.529 11.5888 127.412 11.8128C127.295 12.0368 127.236 12.4528 127.236 13.0608V13.7008H128.852ZM135.193 19.4448C134.169 19.4448 133.417 19.1622 132.937 18.5968C132.457 18.0208 132.217 17.1728 132.217 16.0528V13.3008C132.217 12.1702 132.457 11.3222 132.937 10.7568C133.427 10.1915 134.179 9.90884 135.193 9.90884C136.238 9.90884 136.974 10.2022 137.401 10.7888C137.838 11.3755 138.057 12.2608 138.057 13.4448V14.7728H134.377V16.5968C134.377 17.0448 134.441 17.3702 134.569 17.5728C134.707 17.7755 134.921 17.8768 135.209 17.8768C135.486 17.8768 135.683 17.7808 135.801 17.5888C135.929 17.3862 135.993 17.0822 135.993 16.6768V15.8928H138.041V16.5328C138.041 17.4822 137.801 18.2075 137.321 18.7088C136.841 19.1995 136.131 19.4448 135.193 19.4448ZM135.993 13.7008V12.8208C135.993 12.3408 135.934 11.9995 135.817 11.7968C135.699 11.5835 135.491 11.4768 135.193 11.4768C134.883 11.4768 134.67 11.5888 134.553 11.8128C134.435 12.0368 134.377 12.4528 134.377 13.0608V13.7008H135.993ZM142.045 19.4448C141.267 19.4448 140.627 19.2368 140.125 18.8208C139.624 18.4048 139.267 17.7968 139.053 16.9968L140.669 16.3728C140.915 17.4075 141.363 17.9248 142.013 17.9248C142.259 17.9248 142.445 17.8608 142.573 17.7328C142.712 17.6048 142.781 17.4288 142.781 17.2048C142.781 16.9595 142.707 16.7355 142.557 16.5328C142.408 16.3195 142.141 16.0528 141.757 15.7328L140.653 14.7728C140.184 14.3888 139.837 14.0155 139.613 13.6528C139.389 13.2902 139.277 12.8475 139.277 12.3248C139.277 11.5995 139.523 11.0182 140.013 10.5808C140.515 10.1328 141.144 9.90884 141.901 9.90884C142.627 9.90884 143.219 10.1275 143.677 10.5648C144.136 10.9915 144.435 11.5728 144.573 12.3088L143.149 12.9168C143.064 12.4902 142.92 12.1435 142.717 11.8768C142.525 11.5995 142.275 11.4608 141.965 11.4608C141.741 11.4608 141.56 11.5302 141.421 11.6688C141.293 11.8075 141.229 11.9835 141.229 12.1968C141.229 12.3675 141.304 12.5488 141.453 12.7408C141.603 12.9328 141.827 13.1568 142.125 13.4128L143.245 14.4368C143.725 14.8528 144.093 15.2528 144.349 15.6368C144.616 16.0102 144.749 16.4635 144.749 16.9968C144.749 17.7755 144.493 18.3782 143.981 18.8048C143.48 19.2315 142.835 19.4448 142.045 19.4448Z" fill="#111111"/>
<path d="M42.832 29.4923H42.3794V23.4893H40.292V23.0675H44.9194V23.4893H42.832V29.4923ZM49.0986 29.4923V26.3941C49.0986 25.9137 48.9976 25.565 48.7954 25.3482C48.5933 25.1285 48.2798 25.0186 47.855 25.0186C47.2837 25.0186 46.8647 25.1637 46.5981 25.4537C46.3345 25.7408 46.2026 26.2081 46.2026 26.8556V29.4923H45.7676V22.6544H46.2026V24.8297L46.1807 25.4405H46.2114C46.3901 25.1534 46.6157 24.9454 46.8882 24.8165C47.1606 24.6876 47.499 24.6231 47.9033 24.6231C48.9873 24.6231 49.5293 25.2047 49.5293 26.3678V29.4923H49.0986ZM53.0054 29.5802C52.311 29.5802 51.769 29.3663 51.3794 28.9386C50.9927 28.5108 50.7993 27.9117 50.7993 27.1412C50.7993 26.3795 50.9868 25.7701 51.3618 25.3131C51.7368 24.8531 52.2422 24.6231 52.8779 24.6231C53.4404 24.6231 53.8843 24.8194 54.2095 25.212C54.5347 25.6046 54.6973 26.1378 54.6973 26.8116V27.1632H51.2563C51.2622 27.8194 51.4146 28.3204 51.7134 28.6661C52.0151 29.0118 52.4458 29.1847 53.0054 29.1847C53.2778 29.1847 53.5166 29.1656 53.7217 29.1275C53.9297 29.0894 54.1919 29.0074 54.5083 28.8814V29.2769C54.2388 29.3941 53.9897 29.4732 53.7612 29.5143C53.5327 29.5582 53.2808 29.5802 53.0054 29.5802ZM52.8779 25.0099C52.418 25.0099 52.0488 25.1622 51.7705 25.4669C51.4922 25.7686 51.3296 26.2052 51.2827 26.7765H54.2358C54.2358 26.2227 54.1157 25.7906 53.8755 25.4801C53.6353 25.1666 53.3027 25.0099 52.8779 25.0099ZM62.3042 27.0973C62.3042 27.8766 62.1152 28.4859 61.7373 28.9254C61.3594 29.3619 60.8379 29.5802 60.1729 29.5802C59.7539 29.5802 59.3848 29.4791 59.0654 29.2769C58.7461 29.0748 58.5015 28.7848 58.3315 28.4068C58.1616 28.0289 58.0767 27.5924 58.0767 27.0973C58.0767 26.318 58.2656 25.7115 58.6436 25.2779C59.0215 24.8414 59.54 24.6231 60.1992 24.6231C60.8555 24.6231 61.3696 24.8443 61.7417 25.2867C62.1167 25.7262 62.3042 26.3297 62.3042 27.0973ZM58.5337 27.0973C58.5337 27.7535 58.6772 28.2662 58.9644 28.6353C59.2544 29.0016 59.6631 29.1847 60.1904 29.1847C60.7178 29.1847 61.125 29.0016 61.4121 28.6353C61.7021 28.2662 61.8472 27.7535 61.8472 27.0973C61.8472 26.4381 61.7007 25.9268 61.4077 25.5636C61.1177 25.2003 60.709 25.0186 60.1816 25.0186C59.6543 25.0186 59.2471 25.2003 58.96 25.5636C58.6758 25.9239 58.5337 26.4352 58.5337 27.0973ZM64.0049 24.7154V27.8092C64.0049 28.2896 64.106 28.6397 64.3081 28.8595C64.5103 29.0763 64.8237 29.1847 65.2485 29.1847C65.8169 29.1847 66.2344 29.0411 66.501 28.754C66.7705 28.4669 66.9053 27.9996 66.9053 27.3521V24.7154H67.3359V29.4923H66.9668L66.8877 28.8331H66.8613C66.5508 29.3311 65.9985 29.5802 65.2046 29.5802C64.1177 29.5802 63.5742 28.9986 63.5742 27.8355V24.7154H64.0049ZM70.1968 29.1935C70.4722 29.1935 70.7124 29.17 70.9175 29.1231V29.4747C70.7065 29.545 70.4634 29.5802 70.188 29.5802C69.7661 29.5802 69.4541 29.4674 69.252 29.2418C69.0527 29.0162 68.9531 28.6617 68.9531 28.1783V25.0934H68.2456V24.8385L68.9531 24.6407L69.1729 23.5597H69.397V24.7154H70.7988V25.0934H69.397V28.1168C69.397 28.483 69.4614 28.754 69.5903 28.9298C69.7192 29.1056 69.9214 29.1935 70.1968 29.1935ZM74.9121 28.2486C74.9121 28.6764 74.7495 29.006 74.4243 29.2374C74.0991 29.4659 73.6377 29.5802 73.04 29.5802C72.4014 29.5802 71.8945 29.482 71.5195 29.2857V28.8155C72 29.0558 72.5068 29.1759 73.04 29.1759C73.5117 29.1759 73.8691 29.0982 74.1123 28.943C74.3584 28.7848 74.4814 28.5753 74.4814 28.3145C74.4814 28.0743 74.3833 27.8722 74.187 27.7081C73.9937 27.544 73.6743 27.3829 73.229 27.2247C72.7515 27.0518 72.416 26.9039 72.2227 26.7809C72.0293 26.6549 71.8828 26.5143 71.7832 26.359C71.6865 26.2008 71.6382 26.0089 71.6382 25.7833C71.6382 25.4259 71.7876 25.1432 72.0864 24.9352C72.3882 24.7271 72.8086 24.6231 73.3477 24.6231C73.8633 24.6231 74.3525 24.7198 74.8154 24.9132L74.6528 25.3087C74.1841 25.1153 73.749 25.0186 73.3477 25.0186C72.958 25.0186 72.6489 25.0831 72.4204 25.212C72.1919 25.3409 72.0776 25.5196 72.0776 25.7481C72.0776 25.9972 72.1655 26.1964 72.3413 26.3458C72.52 26.4952 72.8672 26.6622 73.3828 26.8468C73.8135 27.002 74.127 27.1427 74.3232 27.2686C74.5195 27.3917 74.666 27.5323 74.7627 27.6905C74.8623 27.8487 74.9121 28.0348 74.9121 28.2486ZM77.4038 29.1935C77.6792 29.1935 77.9194 29.17 78.1245 29.1231V29.4747C77.9136 29.545 77.6704 29.5802 77.395 29.5802C76.9731 29.5802 76.6611 29.4674 76.459 29.2418C76.2598 29.0162 76.1602 28.6617 76.1602 28.1783V25.0934H75.4526V24.8385L76.1602 24.6407L76.3799 23.5597H76.604V24.7154H78.0059V25.0934H76.604V28.1168C76.604 28.483 76.6685 28.754 76.7974 28.9298C76.9263 29.1056 77.1284 29.1935 77.4038 29.1935ZM82.0576 29.4923L81.9478 28.7364H81.9126C81.6724 29.044 81.4248 29.2623 81.1699 29.3912C80.918 29.5172 80.6191 29.5802 80.2734 29.5802C79.8047 29.5802 79.4399 29.4601 79.1792 29.2198C78.9185 28.9796 78.7881 28.6471 78.7881 28.2223C78.7881 27.7564 78.9814 27.3946 79.3682 27.1368C79.7578 26.879 80.3203 26.7428 81.0557 26.7281L81.9653 26.7018V26.3853C81.9653 25.9312 81.873 25.5885 81.6885 25.357C81.5039 25.1256 81.2065 25.0099 80.7964 25.0099C80.354 25.0099 79.8955 25.1329 79.4209 25.379L79.2583 25.0011C79.7827 24.755 80.3013 24.6319 80.814 24.6319C81.3384 24.6319 81.7295 24.7682 81.9873 25.0406C82.248 25.3131 82.3784 25.7379 82.3784 26.315V29.4923H82.0576ZM80.2998 29.1847C80.8096 29.1847 81.2109 29.0396 81.5039 28.7496C81.7998 28.4566 81.9478 28.0509 81.9478 27.5323V27.0621L81.1128 27.0973C80.4419 27.1295 79.9629 27.235 79.6758 27.4137C79.3916 27.5894 79.2495 27.8648 79.2495 28.2398C79.2495 28.5387 79.3403 28.7716 79.522 28.9386C79.7065 29.1026 79.9658 29.1847 80.2998 29.1847ZM85.7051 25.0934H84.5801V29.4923H84.145V25.0934H83.2573V24.8385L84.145 24.6759V24.3067C84.145 23.7208 84.252 23.2916 84.4658 23.0191C84.6826 22.7437 85.0356 22.606 85.5249 22.606C85.7886 22.606 86.0522 22.6456 86.3159 22.7247L86.2148 23.1026C85.9805 23.0294 85.7476 22.9928 85.5161 22.9928C85.1763 22.9928 84.9346 23.0938 84.791 23.296C84.6504 23.4952 84.5801 23.8204 84.5801 24.2716V24.7154H85.7051V25.0934ZM88.4033 25.0934H87.2783V29.4923H86.8433V25.0934H85.9556V24.8385L86.8433 24.6759V24.3067C86.8433 23.7208 86.9502 23.2916 87.1641 23.0191C87.3809 22.7437 87.7339 22.606 88.2231 22.606C88.4868 22.606 88.7505 22.6456 89.0142 22.7247L88.9131 23.1026C88.6787 23.0294 88.4458 22.9928 88.2144 22.9928C87.8745 22.9928 87.6328 23.0938 87.4893 23.296C87.3486 23.4952 87.2783 23.8204 87.2783 24.2716V24.7154H88.4033V25.0934ZM89.7656 29.4923H89.3306V24.7154H89.7656V29.4923ZM89.269 23.3883C89.269 23.107 89.3613 22.9664 89.5459 22.9664C89.6367 22.9664 89.707 23.003 89.7568 23.0763C89.8096 23.1495 89.8359 23.2535 89.8359 23.3883C89.8359 23.5201 89.8096 23.6241 89.7568 23.7003C89.707 23.7765 89.6367 23.8145 89.5459 23.8145C89.3613 23.8145 89.269 23.6725 89.269 23.3883ZM94.6963 29.4923V26.3941C94.6963 25.9137 94.5952 25.565 94.3931 25.3482C94.1909 25.1285 93.8774 25.0186 93.4526 25.0186C92.8813 25.0186 92.4624 25.1637 92.1958 25.4537C91.9321 25.7408 91.8003 26.2081 91.8003 26.8556V29.4923H91.3652V24.7154H91.7344L91.8179 25.3702H91.8442C92.1548 24.8722 92.707 24.6231 93.501 24.6231C94.585 24.6231 95.127 25.2047 95.127 26.3678V29.4923H94.6963ZM100.4 24.7154V25.0186L99.4116 25.0802C99.6753 25.4083 99.8071 25.7686 99.8071 26.1612C99.8071 26.6212 99.6533 26.9947 99.3457 27.2818C99.041 27.566 98.6309 27.7081 98.1152 27.7081C97.8984 27.7081 97.7461 27.6993 97.6582 27.6817C97.4854 27.7726 97.3535 27.8795 97.2627 28.0025C97.1719 28.1256 97.1265 28.256 97.1265 28.3936C97.1265 28.546 97.1836 28.6573 97.2979 28.7276C97.415 28.7979 97.6099 28.8331 97.8823 28.8331H98.7173C99.2358 28.8331 99.6328 28.9386 99.9082 29.1495C100.184 29.3575 100.321 29.6666 100.321 30.0768C100.321 30.5807 100.116 30.9688 99.7061 31.2413C99.2988 31.5167 98.7173 31.6544 97.9614 31.6544C97.3608 31.6544 96.895 31.5387 96.564 31.3072C96.2358 31.0758 96.0718 30.7535 96.0718 30.3404C96.0718 30.0123 96.1729 29.7398 96.375 29.523C96.5801 29.3062 96.8569 29.1583 97.2056 29.0792C97.062 29.0177 96.9463 28.9312 96.8584 28.8199C96.7734 28.7057 96.731 28.5753 96.731 28.4288C96.731 28.1095 96.9346 27.8282 97.3418 27.5851C97.0635 27.4708 96.8467 27.2921 96.6914 27.0489C96.5361 26.8028 96.4585 26.5216 96.4585 26.2052C96.4585 25.7276 96.6094 25.3453 96.9111 25.0582C97.2158 24.7682 97.626 24.6231 98.1416 24.6231C98.4551 24.6231 98.6982 24.6539 98.8711 24.7154H100.4ZM96.5332 30.3009C96.5332 30.9571 97.021 31.2852 97.9966 31.2852C99.2505 31.2852 99.8774 30.8853 99.8774 30.0855C99.8774 29.7984 99.7793 29.5904 99.583 29.4615C99.3867 29.3326 99.0688 29.2682 98.6294 29.2682H97.8472C96.9712 29.2682 96.5332 29.6124 96.5332 30.3009ZM96.8979 26.2052C96.8979 26.5743 97.0093 26.8614 97.2319 27.0665C97.4575 27.2686 97.7578 27.3697 98.1328 27.3697C98.5312 27.3697 98.8359 27.2686 99.0469 27.0665C99.2607 26.8643 99.3677 26.5714 99.3677 26.1876C99.3677 25.7804 99.2578 25.4757 99.0381 25.2735C98.8213 25.0685 98.5166 24.9659 98.124 24.9659C97.7432 24.9659 97.4429 25.0758 97.2231 25.2955C97.0063 25.5123 96.8979 25.8155 96.8979 26.2052ZM105.63 29.5802C104.947 29.5802 104.413 29.3648 104.026 28.9342C103.639 28.5035 103.446 27.9029 103.446 27.1324C103.446 26.3414 103.646 25.7262 104.048 25.2867C104.449 24.8443 104.999 24.6231 105.696 24.6231C106.109 24.6231 106.504 24.6949 106.882 24.8385L106.764 25.2252C106.351 25.0875 105.992 25.0186 105.687 25.0186C105.101 25.0186 104.657 25.2003 104.355 25.5636C104.054 25.9239 103.903 26.4439 103.903 27.1236C103.903 27.7682 104.054 28.2735 104.355 28.6397C104.657 29.003 105.079 29.1847 105.621 29.1847C106.055 29.1847 106.458 29.107 106.83 28.9518V29.356C106.525 29.5055 106.125 29.5802 105.63 29.5802ZM111.954 27.0973C111.954 27.8766 111.765 28.4859 111.387 28.9254C111.009 29.3619 110.487 29.5802 109.822 29.5802C109.403 29.5802 109.034 29.4791 108.715 29.2769C108.396 29.0748 108.151 28.7848 107.981 28.4068C107.811 28.0289 107.726 27.5924 107.726 27.0973C107.726 26.318 107.915 25.7115 108.293 25.2779C108.671 24.8414 109.189 24.6231 109.849 24.6231C110.505 24.6231 111.019 24.8443 111.391 25.2867C111.766 25.7262 111.954 26.3297 111.954 27.0973ZM108.183 27.0973C108.183 27.7535 108.327 28.2662 108.614 28.6353C108.904 29.0016 109.312 29.1847 109.84 29.1847C110.367 29.1847 110.774 29.0016 111.062 28.6353C111.352 28.2662 111.497 27.7535 111.497 27.0973C111.497 26.4381 111.35 25.9268 111.057 25.5636C110.767 25.2003 110.358 25.0186 109.831 25.0186C109.304 25.0186 108.896 25.2003 108.609 25.5636C108.325 25.9239 108.183 26.4352 108.183 27.0973ZM119.244 29.4923V26.359C119.244 25.8932 119.153 25.5533 118.972 25.3394C118.79 25.1256 118.512 25.0186 118.137 25.0186C117.647 25.0186 117.286 25.1534 117.051 25.4229C116.817 25.6925 116.7 26.1158 116.7 26.693V29.4923H116.256V26.2271C116.256 25.4215 115.887 25.0186 115.148 25.0186C114.647 25.0186 114.283 25.1651 114.054 25.4581C113.826 25.7481 113.711 26.214 113.711 26.8556V29.4923H113.276V24.7154H113.637L113.729 25.3702H113.755C113.887 25.1329 114.075 24.9498 114.318 24.8209C114.561 24.6891 114.829 24.6231 115.122 24.6231C115.875 24.6231 116.358 24.9059 116.572 25.4713H116.59C116.745 25.1988 116.953 24.9893 117.214 24.8429C117.478 24.6964 117.776 24.6231 118.11 24.6231C118.632 24.6231 119.023 24.7623 119.284 25.0406C119.544 25.3189 119.675 25.7613 119.675 26.3678V29.4923H119.244ZM123.265 29.5802C122.53 29.5802 121.994 29.3048 121.657 28.754H121.626L121.639 29.1231C121.651 29.3399 121.657 29.5772 121.657 29.8351V31.6544H121.222V24.7154H121.591L121.674 25.3966H121.701C122.029 24.881 122.553 24.6231 123.274 24.6231C123.918 24.6231 124.409 24.8355 124.746 25.2603C125.086 25.6822 125.256 26.2975 125.256 27.106C125.256 27.8912 125.077 28.5006 124.72 28.9342C124.365 29.3648 123.88 29.5802 123.265 29.5802ZM123.256 29.1935C123.746 29.1935 124.124 29.0118 124.39 28.6485C124.66 28.2852 124.794 27.7769 124.794 27.1236C124.794 25.7203 124.288 25.0186 123.274 25.0186C122.717 25.0186 122.309 25.1725 122.048 25.4801C121.787 25.7848 121.657 26.2828 121.657 26.9742V27.1148C121.657 27.8619 121.781 28.3951 122.03 28.7144C122.282 29.0338 122.691 29.1935 123.256 29.1935ZM129.483 29.4923L129.374 28.7364H129.338C129.098 29.044 128.851 29.2623 128.596 29.3912C128.344 29.5172 128.045 29.5802 127.699 29.5802C127.23 29.5802 126.866 29.4601 126.605 29.2198C126.344 28.9796 126.214 28.6471 126.214 28.2223C126.214 27.7564 126.407 27.3946 126.794 27.1368C127.184 26.879 127.746 26.7428 128.481 26.7281L129.391 26.7018V26.3853C129.391 25.9312 129.299 25.5885 129.114 25.357C128.93 25.1256 128.632 25.0099 128.222 25.0099C127.78 25.0099 127.321 25.1329 126.847 25.379L126.684 25.0011C127.208 24.755 127.727 24.6319 128.24 24.6319C128.764 24.6319 129.155 24.7682 129.413 25.0406C129.674 25.3131 129.804 25.7379 129.804 26.315V29.4923H129.483ZM127.726 29.1847C128.235 29.1847 128.637 29.0396 128.93 28.7496C129.226 28.4566 129.374 28.0509 129.374 27.5323V27.0621L128.539 27.0973C127.868 27.1295 127.389 27.235 127.102 27.4137C126.817 27.5894 126.675 27.8648 126.675 28.2398C126.675 28.5387 126.766 28.7716 126.948 28.9386C127.132 29.1026 127.392 29.1847 127.726 29.1847ZM134.687 29.4923V26.3941C134.687 25.9137 134.585 25.565 134.383 25.3482C134.181 25.1285 133.868 25.0186 133.443 25.0186C132.872 25.0186 132.453 25.1637 132.186 25.4537C131.922 25.7408 131.791 26.2081 131.791 26.8556V29.4923H131.355V24.7154H131.725L131.808 25.3702H131.834C132.145 24.8722 132.697 24.6231 133.491 24.6231C134.575 24.6231 135.117 25.2047 135.117 26.3678V29.4923H134.687ZM135.864 24.7154H136.312L137.323 27.3961C137.631 28.2193 137.826 28.7745 137.908 29.0616H137.934C138.057 28.6837 138.258 28.1197 138.536 27.3697L139.547 24.7154H139.995L137.855 30.2657C137.682 30.7169 137.537 31.0216 137.42 31.1798C137.303 31.338 137.165 31.4566 137.007 31.5357C136.852 31.6148 136.663 31.6544 136.44 31.6544C136.273 31.6544 136.087 31.6236 135.882 31.5621V31.1842C136.052 31.231 136.235 31.2545 136.431 31.2545C136.581 31.2545 136.712 31.2193 136.827 31.149C136.941 31.0787 137.043 30.9688 137.134 30.8194C137.228 30.6729 137.335 30.4386 137.455 30.1163C137.578 29.797 137.657 29.589 137.692 29.4923L135.864 24.7154Z" fill="#353535"/>
<g opacity="0.3">
<g opacity="0.3">
<path opacity="0.3" d="M2.55994 3.99902L10.908 8.80359H32.0935V3.99902H2.55994Z" fill="black"/>
<path opacity="0.3" d="M12.8374 15.8533C9.4452 17.5053 6.40609 19.7499 3.84618 22.4738V10.6704L12.8374 15.8533ZM0 36.093C1.51325 30.8345 4.55236 26.2317 8.61291 22.7764L16.3053 36.093H20.7567L11.7403 20.4813C14.7668 18.5645 18.1968 17.2278 21.8791 16.6225L0 3.99951V36.093Z" fill="black"/>
<path opacity="0.3" d="M26.0278 17.5428H32.0934V22.3473H14.3001L13.4805 20.935C17.1879 18.829 21.4629 17.6058 26.0278 17.5428Z" fill="black"/>
<path opacity="0.3" d="M19.4578 31.2756L22.2447 36.0928H32.0934V31.2756H19.4578Z" fill="black"/>
</g>
</g>
<path d="M3.19043 3.36896L11.5385 8.17353H32.724V3.36896H3.19043Z" fill="#F78F01"/>
<path d="M13.4679 15.2227C10.0757 16.8747 7.03658 19.1194 4.47667 21.8432V10.0399L13.4679 15.2227ZM0.630493 35.4625C2.14374 30.2039 5.18285 25.6011 9.24341 22.1459L16.9358 35.4625H21.3872L12.3708 19.8508C15.3973 17.934 18.8273 16.5973 22.5096 15.992L0.630493 3.36896V35.4625Z" fill="#FBBF13"/>
<path d="M26.6583 16.9121H32.7239V21.7167H14.9306L14.111 20.3043C17.8184 18.1984 22.0934 16.9752 26.6583 16.9121Z" fill="#F78F01"/>
<path d="M20.0884 30.645L22.8753 35.4621H32.724V30.645H20.0884Z" fill="#F78F01"/>
</svg>
