<svg width="78" height="79" viewBox="0 0 78 79" fill="none" xmlns="http://www.w3.org/2000/svg">
<g clip-path="url(#clip0)">
<path d="M60.0796 52.4585L10.8995 61.4932C10.0417 61.6508 9.21858 61.0831 9.0609 60.2253L0.026006 11.0454C-0.131517 10.1875 0.436115 9.36442 1.29396 9.20675L50.474 0.172002C51.3319 0.0144787 52.155 0.582111 52.3127 1.43996L61.3476 50.62C61.5051 51.4777 60.9375 52.3008 60.0796 52.4585Z" fill="#FFD88F"/>
<path d="M61.3478 50.6193L52.313 1.43923C52.1555 0.581379 51.3323 0.0137463 50.4744 0.17127L44.1575 1.33182C45.0153 1.17415 45.8384 1.74193 45.9961 2.59963L55.031 51.7797C55.1885 52.6375 54.6209 53.4607 53.763 53.6183L60.08 52.4579C60.9378 52.3003 61.5055 51.4771 61.3478 50.6193Z" fill="#FFC963"/>
<path d="M47.3992 6.60327L54.9352 47.5725L13.966 55.1085L6.42995 14.1393L47.3992 6.60327Z" fill="#59A1A5"/>
<path d="M68.2753 78.1249L18.8996 70.2291C18.0384 70.0914 17.4519 69.2815 17.5896 68.4203L25.4854 19.0446C25.6232 18.1834 26.433 17.5969 27.2942 17.7346L76.6699 25.6305C77.5311 25.7682 78.1176 26.578 77.9799 27.4392L70.0841 76.8149C69.9464 77.6761 69.1365 78.2626 68.2753 78.1249Z" fill="#FFF7E8"/>
<path d="M76.6699 25.6304L70.353 24.6202C71.2142 24.758 71.8007 25.5678 71.663 26.429L63.7672 75.8049C63.6295 76.6658 62.8204 77.2521 61.9595 77.115L68.2753 78.1251C69.1365 78.2628 69.9464 77.6763 70.0841 76.8151L77.9799 27.4394C78.1176 26.5779 77.5311 25.7681 76.6699 25.6304Z" fill="#FFF1D6"/>
<path d="M71.6111 30.6727L65.0327 71.8085L23.8969 65.2301L30.4753 24.0943L71.6111 30.6727Z" fill="#B5E8E0"/>
<path d="M45.6669 68.6734L48.335 51.9883C48.4383 51.3422 47.9985 50.7349 47.3524 50.6315C46.7074 50.5297 46.0992 50.9682 45.9958 51.6141L43.3276 68.2993L45.6669 68.6734Z" fill="#59A1A5"/>
<path d="M53.9424 62.8999C49.3867 65.5863 45.4271 63.135 45.4271 63.135C45.4271 63.135 45.3418 58.399 49.7541 55.7973C54.274 53.1321 58.2694 55.5622 58.2694 55.5622C58.2694 55.5622 58.2829 60.3405 53.9424 62.8999Z" fill="#59A1A5"/>
<path d="M51.0755 55.1509C51.634 55.3687 51.9524 55.5623 51.9524 55.5623C51.9524 55.5623 51.9659 60.3406 47.6253 62.9C47.1761 63.1649 46.7331 63.3782 46.2986 63.5505C47.7107 64.1097 50.6728 64.828 53.9423 62.9C58.2827 60.3406 58.2693 55.5623 58.2693 55.5623C58.2693 55.5623 55.0245 53.5905 51.0755 55.1509Z" fill="#419296"/>
<path d="M37.2655 60.2331C40.7563 64.2062 45.2827 63.1117 45.2827 63.1117C45.2827 63.1117 46.8406 58.6386 43.4598 54.7907C39.9965 50.8488 35.4425 51.9119 35.4425 51.9119C35.4425 51.9119 33.9395 56.4476 37.2655 60.2331Z" fill="#59A1A5"/>
<path d="M47.1641 51.8111C42.1072 51.0024 38.6633 46.2473 39.4719 41.1904L40.8443 32.6089L44.6346 38.2682L50.0007 34.0731L53.791 39.7323L59.1572 35.5372L57.7849 44.1188C56.9759 49.1758 52.221 52.6197 47.1641 51.8111Z" fill="#FF7893"/>
<path d="M53.7908 39.7323L52.4817 37.7776L51.4677 44.1187C50.9167 47.5643 48.533 50.2594 45.4707 51.3724C46.0109 51.5674 46.576 51.7168 47.164 51.811C52.2209 52.6196 56.976 49.1758 57.7846 44.1189L59.157 35.5374L53.7908 39.7323Z" fill="#FF5E7F"/>
</g>
<defs>
<clipPath id="clip0">
<rect width="78" height="78" fill="white" transform="translate(0 0.14502)"/>
</clipPath>
</defs>
</svg>
