<svg width="73" height="74" viewBox="0 0 73 74" fill="none" xmlns="http://www.w3.org/2000/svg">
<path d="M73 68.0122H0V15.2583H73V68.0122Z" fill="#FFF8D5"/>
<path d="M36.5 15.2583H73V68.0122H36.5V15.2583Z" fill="#FFE3BA"/>
<path d="M49.9023 39.2114C46.3646 39.2114 43.4863 36.3332 43.4863 32.7954V11.6938C43.4863 8.15606 46.3646 5.27783 49.9023 5.27783H58.457C61.9948 5.27783 64.873 8.15606 64.873 11.6938V15.2583H60.5957V11.6938C60.5957 10.5146 59.6363 9.55518 58.457 9.55518H49.9023C48.7231 9.55518 47.7637 10.5146 47.7637 11.6938V32.7954C47.7637 33.9747 48.7231 34.9341 49.9023 34.9341C51.0816 34.9341 52.041 33.9747 52.041 32.7954V25.2388H56.3184V32.7954C56.3184 36.3332 53.4401 39.2114 49.9023 39.2114Z" fill="#265D77"/>
<path d="M73 68.0122H0V51.803L19.5332 40.5955L37.1579 50.708L53.9785 45.054L73 53.0461V68.0122Z" fill="#4BBAED"/>
<path d="M14.9707 36.645C11.4329 36.645 8.55469 33.7668 8.55469 30.229C8.55469 26.6912 11.4329 23.813 14.9707 23.813C18.5085 23.813 21.3867 26.6912 21.3867 30.229C21.3867 33.7668 18.5085 36.645 14.9707 36.645Z" fill="#FFD400"/>
<path d="M37.1579 50.7079L36.5 50.3303V68.0122H73V53.046L53.9785 45.054L37.1579 50.7079Z" fill="#388CB3"/>
</svg>
