<svg width="72" height="73" viewBox="0 0 72 73" fill="none" xmlns="http://www.w3.org/2000/svg">
<path d="M14.2165 20.7546V10.4671C14.2165 9.59576 13.5102 8.8894 12.6389 8.8894H7.38187C6.51056 8.8894 5.8042 9.59576 5.8042 10.4671V20.7546" fill="#E5E9EA"/>
<path d="M9.62456 20.7546V8.8894H7.38187C6.51056 8.8894 5.8042 9.59576 5.8042 10.4671V20.7546" fill="#D1D1D1"/>
<path d="M72 22.6296V61.1202C72 63.7592 69.8605 65.8986 67.2216 65.8986H4.77844C2.13947 65.8986 0 63.7592 0 61.1202V22.6296C0 19.9906 2.13947 17.8512 4.77844 17.8512H14.227C16.2622 17.8512 18.0754 16.5625 18.7425 14.6391L20.4867 9.60504C21.1538 7.68157 22.9655 6.39148 25.0021 6.39148H52.876C54.9111 6.39148 56.7228 7.68157 57.3899 9.60504L59.1355 14.6391C59.8026 16.5626 61.6143 17.8512 63.6494 17.8512H67.2214C69.8605 17.8512 72 19.9906 72 22.6296Z" fill="#FCB65F"/>
<path d="M8.52539 65.8987H4.77844C2.13947 65.8987 0 63.7592 0 61.1202V22.6296C0 19.9907 2.13947 17.8512 4.77844 17.8512H8.22853V17.8601C5.72766 18.0143 3.74695 20.0906 3.74695 22.6296V61.1202C3.74695 63.7594 5.88642 65.8987 8.52539 65.8987Z" fill="#E29A4B"/>
<path d="M28.7489 6.39148C26.7124 6.39148 24.9006 7.68157 24.2335 9.60504L22.4893 14.6391C21.8222 16.5626 20.009 17.8512 17.9738 17.8512H14.7676V17.8204C16.5778 17.6146 18.1354 16.3906 18.7422 14.6391L20.4864 9.60504C21.1535 7.68157 22.9652 6.39148 25.0018 6.39148C25.0021 6.39148 28.7489 6.39148 28.7489 6.39148Z" fill="#E29A4B"/>
<path d="M72 30.8552V61.1203C72 63.7592 69.8605 65.8987 67.2216 65.8987H4.77844C2.13947 65.8987 0 63.7592 0 61.1203V30.8552H72Z" fill="#53BCE9"/>
<path d="M8.52539 65.8985H4.77844C2.13947 65.8985 0 63.7591 0 61.1201V30.8552H3.74695V61.1203C3.74695 63.7592 5.88642 65.8985 8.52539 65.8985Z" fill="#36A6CE"/>
<path d="M36 61.417C46.9953 61.417 55.9087 52.5036 55.9087 41.5083C55.9087 30.513 46.9953 21.5996 36 21.5996C25.0047 21.5996 16.0913 30.513 16.0913 41.5083C16.0913 52.5036 25.0047 61.417 36 61.417Z" fill="#E5E9EA"/>
<path d="M50.0767 41.5084C50.0767 45.6536 48.2855 49.3798 45.4334 51.9572C42.937 54.2127 39.6308 55.5865 36 55.5865C32.3706 55.5865 29.063 54.2126 26.5666 51.9571C23.7146 49.3812 21.9219 45.6534 21.9219 41.5082C21.9219 37.363 23.7146 33.6352 26.5666 31.0609C29.0631 28.8039 32.3706 27.4315 36 27.4315C39.6308 27.4315 42.937 28.8054 45.4334 31.0609C48.2855 33.6369 50.0767 37.3632 50.0767 41.5084Z" fill="#566368"/>
<path d="M45.9531 31.5542C48.8841 34.4852 50.2526 38.3867 50.0582 42.2259C46.219 42.4201 42.3175 41.0518 39.3865 38.1208C36.4554 35.1898 35.087 31.2883 35.2823 27.4502C39.1204 27.2549 43.0221 28.6233 45.9531 31.5542Z" fill="#6F7B7F"/>
<path d="M32.6121 44.8953C35.5431 47.8263 36.9116 51.7278 36.7172 55.567C32.879 55.7624 28.9754 54.3941 26.0445 51.4629C23.1134 48.5319 21.745 44.6282 21.9413 40.7912C25.7795 40.5957 29.681 41.9641 32.6121 44.8953Z" fill="#6F7B7F"/>
<path d="M35.9995 56.6878C27.6297 56.6878 20.8202 49.8783 20.8202 41.5084C20.8202 33.1386 27.6297 26.3291 35.9995 26.3291C44.3694 26.3291 51.1789 33.1384 51.1789 41.5084C51.1789 49.8784 44.3694 56.6878 35.9995 56.6878ZM35.9995 28.5331C28.845 28.5331 23.0242 34.3539 23.0242 41.5084C23.0242 48.663 28.845 54.4838 35.9995 54.4838C43.1541 54.4838 48.9749 48.663 48.9749 41.5084C48.9749 34.3539 43.1541 28.5331 35.9995 28.5331Z" fill="#435054"/>
<path d="M35.9995 35.8574C32.8836 35.8574 30.3485 38.3925 30.3485 41.5086C30.3485 44.6247 32.8836 47.1596 35.9995 47.1596C39.1155 47.1596 41.6505 44.6246 41.6505 41.5086C41.6505 38.3926 39.1155 35.8574 35.9995 35.8574Z" fill="#435054"/>
<path d="M43.1518 16.7497H51.8119C52.9504 16.7497 53.8734 15.8268 53.8734 14.6882V12.4196C53.8734 11.2811 52.9505 10.358 51.8119 10.358H43.1518C42.0133 10.358 41.0902 11.281 41.0902 12.4196V14.6882C41.0902 15.8267 42.0133 16.7497 43.1518 16.7497Z" fill="#E5E9EA"/>
<path d="M51.8119 17.8517H43.1518C41.4073 17.8517 39.9882 16.4325 39.9882 14.688V12.4197C39.9882 10.6753 41.4073 9.2561 43.1518 9.2561H51.8119C53.5564 9.2561 54.9756 10.6753 54.9756 12.4197V14.6882C54.9754 16.4326 53.5562 17.8517 51.8119 17.8517ZM43.1518 11.4601C42.6226 11.4601 42.1923 11.8906 42.1923 12.4196V14.688C42.1923 15.2172 42.6226 15.6475 43.1518 15.6475H51.8119C52.3411 15.6475 52.7714 15.2171 52.7714 14.688V12.4197C52.7714 11.8906 52.3409 11.4603 51.8119 11.4603C51.8119 11.4601 43.1518 11.4601 43.1518 11.4601Z" fill="#E29A4B"/>
<path d="M13.6873 61.8197C15.8882 61.8197 17.6723 60.0355 17.6723 57.8346C17.6723 55.6338 15.8882 53.8496 13.6873 53.8496C11.4864 53.8496 9.70227 55.6338 9.70227 57.8346C9.70227 60.0355 11.4864 61.8197 13.6873 61.8197Z" fill="#566368"/>
</svg>
