<svg width="698" height="391" viewBox="0 0 698 391" fill="none" xmlns="http://www.w3.org/2000/svg">
<path d="M503.542 179.289C503.542 179.289 490.982 162.643 504.331 153.395C504.331 153.395 513.955 148.363 521.486 149.287C521.486 149.287 509.632 166.614 513.003 168.599C516.348 170.612 524.803 148.363 524.803 148.363C524.803 148.363 546.036 147.628 552.643 151.327C552.643 151.327 533.666 164.982 537.418 166.097C541.17 167.212 561.56 153.939 561.56 153.939C561.56 153.939 580.999 158.508 579.205 170.449C577.411 182.39 570.396 185.654 567.46 185.164C564.497 184.647 547.504 176.923 546.988 179.343C546.444 181.764 556.449 190.387 563.763 191.23C563.763 191.23 548.945 205.646 540.028 200.668C531.083 195.691 530.757 188.646 525.183 185.654C519.61 182.662 514.716 182.363 516.919 185.191C519.121 188.02 529.343 191.257 532.279 197.268C535.189 203.279 537.907 207.386 528.473 205.346C519.039 203.306 503.977 195.364 503.814 187.34C503.542 179.289 503.542 179.289 503.542 179.289Z" fill="#82B378"/>
<path d="M569.527 170.15C569.527 170.15 516.293 164.764 503.542 179.289C503.542 179.289 500.443 186.932 491.988 193.542L490.52 196.86C490.52 196.86 500.389 187.694 503.733 187.286C503.706 187.313 499.709 168.083 569.527 170.15Z" fill="#82B378"/>
<path d="M491.96 193.569C491.96 193.569 479.971 201.321 478.231 216.417L480.297 216.744C480.297 216.744 484.946 201.321 491.933 195.609C498.947 189.87 491.96 193.569 491.96 193.569Z" fill="#82B378"/>
<path d="M441.963 139.495C441.963 139.495 414.123 123.91 427.118 102.748C427.118 102.748 437.504 89.7467 448.651 86.4283C448.651 86.4283 442.724 117.98 448.651 118.715C454.578 119.449 452.729 83.0827 452.729 83.0827C452.729 83.0827 482.037 68.9659 493.537 70.0811C493.537 70.0811 475.349 100.899 481.303 100.137C487.23 99.4027 507.648 68.2043 507.648 68.2043C507.648 68.2043 537.69 62.6283 542.529 80.4443C547.341 98.2603 539.566 107.182 535.107 108.297C530.648 109.412 502.074 109.031 502.835 112.758C503.569 116.457 522.873 122.414 533.639 119.068C533.639 119.068 521.758 148.39 506.179 146.921C490.601 145.425 485.762 135.796 476.137 135.035C466.486 134.3 459.444 136.884 464.256 139.495C469.069 142.107 485.408 140.339 493.184 146.975C500.987 153.612 507.294 157.692 492.803 160.657C478.34 163.622 452.348 161.772 447.155 150.647C441.963 139.495 441.963 139.495 441.963 139.495Z" fill="#A8D29F"/>
<path d="M528.772 86.0476C528.772 86.0476 450.853 111.289 441.963 139.496C441.963 139.496 442.343 152.116 434.54 166.587V172.163C434.54 172.163 442.697 153.232 447.155 150.62C447.155 150.648 429.701 126.14 528.772 86.0476Z" fill="#82B378"/>
<path d="M434.54 166.614C434.54 166.614 422.523 184.865 429.375 207.088L432.474 206.245C432.474 206.245 429.483 181.765 435.764 169.47C442.044 157.176 434.54 166.614 434.54 166.614Z" fill="#82B378"/>
<path d="M295.204 147.492C295.204 147.492 327.585 133.784 315.921 109.032C315.921 109.032 306.107 93.5276 294.307 88.5228C294.307 88.5228 296.999 123.828 290.392 123.91C283.786 123.992 290.229 84.3612 290.229 84.3612C290.229 84.3612 259.806 65.3484 247.083 65.1852C247.083 65.1852 263.286 101.144 256.87 99.6204C250.454 98.0972 231.858 61.4316 231.858 61.4316C231.858 61.4316 199.586 51.694 192.164 70.6252C184.715 89.5564 192.191 100.273 196.922 102.041C201.652 103.809 233.027 106.856 231.749 110.827C230.498 114.798 208.612 118.987 197.248 114.009C197.248 114.009 206.709 147.574 223.973 147.846C241.237 148.118 247.681 138.108 258.338 138.462C268.996 138.816 276.418 142.515 270.817 144.772C265.217 147.03 247.545 143.14 238.192 149.451C228.84 155.761 221.445 159.488 236.942 164.492C252.439 169.497 281.121 170.612 288.163 159.052C295.204 147.492 295.204 147.492 295.204 147.492Z" fill="#A8D29F"/>
<path d="M206.546 78.4043C206.546 78.4043 288.87 115.505 295.204 147.52C295.204 147.52 293.274 161.31 300.044 178.12L299.364 184.212C299.364 184.212 292.703 162.48 288.136 159.08C288.163 159.08 310.239 134.328 206.546 78.4043Z" fill="#82B378"/>
<path d="M300.071 178.092C300.071 178.092 311.028 199.553 300.832 223.081L297.543 221.803C297.543 221.803 303.796 195.337 298.385 181.084C293.002 166.831 300.071 178.092 300.071 178.092Z" fill="#82B378"/>
<path d="M228.785 227.053C223.076 218.784 222.423 211.113 222.423 211.113C222.423 211.113 238.247 199.744 228.921 187.776C228.921 187.776 221.717 180.595 214.729 179.317C214.729 179.317 220.493 198.085 216.932 198.928C213.37 199.798 212.011 177.576 212.011 177.576C212.011 177.576 193.251 171.021 186.346 172.489C186.346 172.489 199.504 189.952 195.834 189.925C192.191 189.87 177.646 172.326 177.646 172.326C177.646 172.326 159.022 170.993 157.309 182.145C155.597 193.297 160.953 198.166 163.726 198.547C166.499 198.928 183.844 196.725 183.627 199.037C183.437 201.349 172.127 206.272 165.357 204.966C165.357 204.966 174.573 221.966 183.926 220.008C193.278 218.049 195.562 211.848 201.353 210.733C207.171 209.617 211.63 210.705 208.857 212.637C206.111 214.541 196.079 214.595 191.783 219.165C187.515 223.734 183.953 226.645 192.952 227.461C201.951 228.277 217.584 225.366 219.977 218.24C220.085 217.941 220.167 217.641 220.276 217.342C220.14 217.913 219.977 218.24 219.977 218.24C221.717 219.001 224.653 223.245 226.719 226.509C227.018 227.08 227.508 227.841 228.187 228.875C228.459 229.337 228.704 229.745 228.867 230.017C232.836 237.416 232.7 250.989 232.7 250.989L234.631 251.288C237.349 237.334 228.785 227.053 228.785 227.053Z" fill="#82B378"/>
<path d="M122.972 36.9516C122.808 36.1084 120.797 26.9148 106.632 28.4924C106.632 28.4924 113.701 28.302 115.332 31.1852C115.332 31.1852 110.058 28.1116 106.387 29.8796C102.717 31.6476 101.439 38.7196 101.738 40.95C102.037 43.1804 105.218 50.0076 107.747 50.2524C108.698 50.3612 109.758 50.1436 110.71 49.8172C110.221 50.9324 109.731 52.1292 109.296 53.4892C105.354 65.8652 112.776 76.3372 117.371 74.3788C120.307 73.1276 121.938 78.2412 121.938 78.2412L148.147 49.8716C148.12 49.8444 133.955 28.846 122.972 36.9516Z" fill="#2C3A64"/>
<path d="M157.119 378.638L150.757 381.005C150.757 381.005 123.08 342.571 119.655 308.789C119.057 302.75 119.247 296.902 120.579 291.517C120.579 291.517 120.307 289.966 119.845 287.246C119.627 285.968 119.356 284.445 119.057 282.677C118.159 277.509 116.909 270.464 115.495 262.413C112.232 243.917 108.018 220.253 104.729 202.872L106.442 202.328L125.038 196.317L128.871 184.104L142.71 180.459C142.71 180.459 145.809 186.497 148.555 215.085C149.072 218.838 149.534 222.973 149.887 227.461C150.975 241.142 151.056 258.115 148.582 277.536C147.957 282.513 147.141 287.627 146.162 292.904C145.428 296.766 145.32 302.043 145.619 308.081C146.978 335.689 157.119 378.638 157.119 378.638Z" fill="#2B478B"/>
<path d="M149.86 227.433L119.818 287.218C119.6 285.94 119.328 284.417 119.029 282.649C118.132 277.481 116.882 270.436 115.468 262.385C112.205 243.889 107.991 220.225 104.702 202.844L106.414 202.3L125.011 196.289L128.844 184.076L142.682 180.431C142.682 180.431 145.782 186.47 148.528 215.057C149.044 218.838 149.507 222.972 149.86 227.433Z" fill="#233862"/>
<path d="M136.647 188.102L135.94 182.145C124.277 185.246 93.1469 173.496 93.1469 173.496C93.1469 173.496 81.8641 183.424 83.3323 207.224C84.0663 218.838 85.3713 268.206 86.7579 282.812C87.2473 288.116 87.6823 291.87 87.8726 293.393C87.8726 293.393 87.8726 293.393 87.8726 293.42C87.9269 293.883 87.7638 294.318 87.5463 294.726C85.5073 298.18 83.8216 301.771 82.4623 305.443C68.9229 341.564 84.5557 386.064 84.5557 386.064L88.6066 384.432C88.6066 384.432 97.4969 334.928 104.729 313.059C105.952 309.36 107.121 306.422 108.209 304.681C111.363 299.595 114.272 291.299 116.909 281.452C121.911 262.793 125.935 238.531 128.627 219.817C128.98 219.79 136.647 188.102 136.647 188.102Z" fill="#2B478B"/>
<path d="M155.433 140.284C155.651 140.529 155.896 140.747 156.14 140.964C166.091 150.24 179.522 158.454 186.699 160.276C191.43 161.473 201.842 159.868 210.488 158.1C216.252 156.958 221.254 155.707 223.321 155.217C223.973 155.054 224.354 154.945 224.354 154.945L223.457 149.124C223.457 149.124 218.264 148.716 211.847 147.982C202.876 146.921 191.511 145.316 188.602 143.576C181.86 139.55 170.006 122.713 160.49 112.132C160.001 111.561 159.512 110.99 159.022 110.446C158.669 110.038 158.315 109.657 157.962 109.276C157.88 109.195 157.799 109.086 157.69 109.004C157.255 108.596 156.874 108.188 156.521 107.862C156.494 107.808 156.439 107.78 156.385 107.753C154.699 106.067 151.736 104 151.736 104C150.078 103.048 148.718 102.857 147.739 103.673C147.739 103.673 146.489 104.897 145.265 107.182C144.993 107.672 144.749 108.188 144.504 108.76C144.314 109.086 144.205 109.412 144.096 109.739C143.281 111.86 142.71 114.526 142.818 117.627C142.9 119.966 143.335 122.577 144.395 125.433C145.999 130.112 150.213 135.334 155.433 140.284Z" fill="#FFB27D"/>
<path d="M146.761 115.668C143.389 117.872 139.175 119.64 133.928 120.7C114.244 124.672 107.23 107.917 104.729 96.4925C107.448 95.0509 109.949 94.7789 111.417 94.6429C112.831 94.5069 114.326 94.4525 115.549 94.4253C117.779 92.7933 121.259 86.0205 122.292 75.3582L123.216 75.6302L138.496 80.2814C138.496 80.2814 137.653 85.1501 137.163 89.7741C136.783 93.3917 136.647 96.8461 137.327 97.7165C138.523 98.0157 139.23 98.2061 139.23 98.2061C139.23 98.2061 139.23 98.2061 139.23 98.2333C139.42 98.5869 143.688 106.067 146.761 115.668Z" fill="#FFB27D"/>
<path d="M153.612 127.963C153.53 128.371 153.422 128.779 153.286 129.214C149.833 140.774 147.032 186.932 147.032 186.932C148.854 192.699 115.332 193.895 96.8172 191.23C90.1018 190.251 85.344 188.782 85.0178 186.823C81.7009 179.371 89.8028 165.417 94.479 158.345C95.0772 157.447 95.5665 156.523 95.9744 155.543C97.0347 153.095 97.5512 150.457 97.4425 147.764C97.3065 144.092 96.9803 140.556 96.5997 137.211C95.8928 130.927 94.914 125.433 94.4247 121.571C95.4034 120.591 96.355 119.694 97.225 118.851C98.5572 117.545 99.7534 116.321 100.569 115.124C101.466 113.846 101.983 112.567 101.874 111.262C101.792 110.255 101.602 109.249 101.357 108.243C101.249 107.78 101.113 107.291 100.977 106.828C99.4815 101.905 96.7084 97.6347 96.7084 97.6347C101.711 94.6971 111.362 94.6155 111.362 94.6155C111.362 94.6155 111.417 95.1323 111.553 96.0027C112.015 99.4571 113.347 108.351 114.707 109.847C116.392 111.751 143.063 117.219 143.987 114.199C144.912 111.207 139.393 98.6683 139.175 98.1787V98.1515C147.712 100.191 151.437 102.476 151.6 102.612C147.005 106.747 156.032 116.892 153.612 127.963Z" fill="#F15045"/>
<path d="M138.469 80.3084C138.469 80.3084 137.626 85.1772 137.136 89.8012C128.436 88.686 124.63 80.254 123.162 75.6572L138.469 80.3084Z" fill="#ED985F"/>
<path d="M140.942 84.9597C140.942 84.9597 120.253 83.2189 121.531 70.3533C122.808 57.4876 120.987 48.5932 134.254 49.1644C147.522 49.7356 149.588 54.8764 150.213 59.2828C150.839 63.6892 146.353 85.0957 140.942 84.9597Z" fill="#FFB27D"/>
<path d="M150.322 52.0748C147.522 47.886 145.021 48.4844 143.553 49.518C132.895 42.174 124.684 50.6332 124.684 50.6332C122.373 59.718 115.196 64.342 115.196 64.342C115.196 64.342 118.73 67.0348 127.621 65.6748C130.339 65.2668 132.895 63.6076 135.124 61.5132C131.019 67.062 125.826 70.8156 125.826 70.8156C136.674 67.062 142.275 53.054 142.846 51.5852C143.988 52.8364 146.244 55.5564 146.761 58.0316C147.468 61.4044 147.25 68.2044 149.235 68.1772C149.235 68.2044 154.536 58.358 150.322 52.0748Z" fill="#2C3A64"/>
<path d="M242.597 148.308C240.53 150.267 238.437 155.217 232.075 155.108C227.535 155.081 222.94 155.571 220.711 155.843C219.841 156.006 219.351 156.06 219.351 156.06L219.134 148.852C219.134 148.852 219.215 148.852 219.433 148.825C220.983 148.58 228.785 147.383 231.885 145.343C235.365 143.004 243.467 145.18 243.467 145.18C243.467 145.18 244.69 146.377 242.597 148.308Z" fill="#FFB27D"/>
<path d="M108.127 389.354H76.0187C76.0187 389.354 75.2575 384.458 76.9159 380.732C78.52 377.169 81.0484 375.537 80.4503 371.239C82.4894 373.334 85.8063 375.7 90.4553 375.074C91.0263 375.999 94.1256 380.922 96.0287 382.31C98.1222 383.806 107.475 383.262 108.127 389.354Z" fill="#233862"/>
<path d="M177.075 389.355H144.939C144.939 389.355 143.743 384.242 145.836 380.733C147.712 377.659 146.978 375.891 145.592 373.334C147.06 373.933 148.936 374.477 151.002 374.341C152.606 374.259 154.292 373.525 155.787 372.654C157.173 374.232 163.073 380.95 164.922 382.256C167.07 383.806 176.422 383.262 177.075 389.355Z" fill="#233862"/>
<path d="M136.022 77.5342C136.022 77.5342 136.321 79.2478 140.508 79.2478C140.508 79.2478 144.015 79.2478 144.042 77.3982C144.015 77.3982 140.698 75.875 136.022 77.5342Z" fill="white"/>
<path d="M101.194 159.325C99.9166 167.376 94.0984 183.533 96.8172 191.23C90.1019 190.251 85.344 188.782 85.0178 186.824C81.7009 179.371 89.8028 165.417 94.4791 158.345C95.0772 157.448 95.5666 156.523 95.9744 155.544C97.0347 153.096 97.5513 150.457 97.4425 147.765C97.3066 144.093 96.9803 140.557 96.5997 137.211C96.6269 137.238 102.554 150.784 101.194 159.325Z" fill="#E8453A"/>
<path d="M146.652 105.033C146.869 112.187 152.035 131.825 153.286 129.241C154.699 126.276 160.11 115.043 162.665 114.635C162.529 114.118 152.089 102.558 151.627 102.694C151.627 102.694 148.8 103.537 146.652 105.033Z" fill="#F15045"/>
<path d="M97.4153 206.489L92.0866 210.025C92.0866 210.025 90.7272 208.339 88.6066 205.646C87.9813 204.83 87.6278 204.34 87.6278 204.34C85.9422 202.164 83.9847 199.499 81.8369 196.588L81.8097 196.561C78.221 191.502 74.2516 185.763 71.2338 180.567C69.1403 176.895 67.5091 173.468 66.6934 170.803C66.6119 170.531 66.5575 170.286 66.5031 169.987C64.9263 163.187 67.8081 149.668 72.3756 136.503C73.001 134.681 73.6534 132.886 74.306 131.145C76.7256 124.671 79.4716 118.606 82.1903 113.71C83.7944 110.772 85.3985 108.188 86.9481 106.257C87.4919 105.577 87.9813 104.924 88.525 104.38C88.8241 104.054 89.1231 103.727 89.395 103.428C92.6031 103.7 99.3185 104.979 104.294 110.718C104.212 111.017 104.131 111.316 104.022 111.643C102.01 118.143 98.8835 126.113 95.6753 133.947C93.9082 138.244 92.1138 142.515 90.5641 146.513C89.5581 148.907 88.661 151.191 87.8453 153.313C86.3228 157.366 85.181 160.711 84.7188 163.078C84.4197 164.601 84.8547 167.484 85.6703 171.02C87.0841 177.195 89.7757 185.491 92.2769 192.535C93.31 195.473 94.316 198.22 95.1588 200.478C96.5182 204.095 97.4153 206.489 97.4153 206.489Z" fill="#FFB27D"/>
<path d="M99.7534 131.064C94.4247 123.04 79.1725 119.585 79.1725 119.585C87.7909 92.2491 110.384 94.7787 110.384 94.7787C110.384 94.7787 102.146 123.203 99.7534 131.064Z" fill="#F15045"/>
<path d="M92.0865 210.052C92.0865 210.052 93.4731 212.12 93.6362 213.616C93.7994 215.112 95.1315 220.035 96.8444 221.585C98.5572 223.163 102.472 226.291 103.016 225.801C103.56 225.339 105.137 221.64 103.668 219.028C103.016 217.859 102.119 214.568 100.922 213.779C99.4816 212.827 97.3881 206.489 97.3881 206.489L92.0865 210.052Z" fill="#FFB27D"/>
<path d="M97.4425 207.305C97.4425 207.305 101.684 209.454 102.255 211.168C102.826 212.881 105.191 216.363 104.946 216.771C104.674 217.206 101.004 214.84 99.7534 212.718C98.5028 210.569 97.4425 207.305 97.4425 207.305Z" fill="#FFB27D"/>
<path d="M198.254 187.286L353.386 94.3706C361.95 89.257 372.607 89.257 381.171 94.3706L536.303 187.286V338.735L198.254 321.79V187.286Z" fill="#F15045"/>
<path d="M507.186 120.183H227.345V362.155H507.186V120.183Z" fill="#FCECDB"/>
<path d="M239.875 133.403C241.345 132.794 242.044 131.107 241.435 129.636C240.826 128.165 239.14 127.466 237.669 128.075C236.199 128.685 235.5 130.371 236.11 131.843C236.719 133.314 238.405 134.012 239.875 133.403Z" fill="#EFCBAB"/>
<path d="M492.721 130.737C492.721 129.159 493.999 127.854 495.603 127.854C497.18 127.854 498.485 129.132 498.485 130.737C498.485 132.315 497.207 133.62 495.603 133.62C494.026 133.62 492.721 132.342 492.721 130.737Z" fill="#EFCBAB"/>
<path d="M495.604 130.438H238.763V131.064H495.604V130.438Z" fill="#EFCBAB"/>
<path d="M239.089 129.595H238.464V386.553H239.089V129.595Z" fill="#EFCBAB"/>
<path d="M496.039 129.595H495.413V386.553H496.039V129.595Z" fill="#EFCBAB"/>
<path d="M536.303 186.877V389.327H198.254V186.877L367.279 288.116L536.303 186.877Z" fill="#E8453A"/>
<path d="M198.254 389.354L353.087 278.297C361.569 272.204 372.988 272.204 381.47 278.297L536.303 389.354H198.254Z" fill="#F15045"/>
<path d="M418.881 153.694H316.846C315.378 153.694 314.154 152.47 314.154 151.001C314.154 149.532 315.378 148.308 316.846 148.308H418.881C420.349 148.308 421.572 149.532 421.572 151.001C421.572 152.497 420.349 153.694 418.881 153.694Z" fill="#EFCBAB"/>
<path d="M445.171 164.519H290.583C289.114 164.519 287.891 163.295 287.891 161.827C287.891 160.358 289.114 159.134 290.583 159.134H445.171C446.666 159.134 447.862 160.358 447.862 161.827C447.862 163.295 446.639 164.519 445.171 164.519Z" fill="#EFCBAB"/>
<path d="M425.106 198.057H313.257C312.197 198.057 311.3 197.187 311.3 196.099C311.3 195.038 312.17 194.14 313.257 194.14H425.106C426.167 194.14 427.064 195.011 427.064 196.099C427.064 197.187 426.194 198.057 425.106 198.057Z" fill="#EFCBAB"/>
<path d="M324.485 208.23H292.948C291.888 208.23 290.99 207.359 290.99 206.271C290.99 205.211 291.86 204.313 292.948 204.313H324.485C325.546 204.313 326.443 205.183 326.443 206.271C326.443 207.359 325.546 208.23 324.485 208.23Z" fill="#EFCBAB"/>
<path d="M372.064 208.23H333.947C332.886 208.23 331.989 207.359 331.989 206.271C331.989 205.211 332.859 204.313 333.947 204.313H372.064C373.124 204.313 374.021 205.183 374.021 206.271C373.994 207.359 373.124 208.23 372.064 208.23Z" fill="#EFCBAB"/>
<path d="M445.415 208.23H379.54C378.48 208.23 377.583 207.359 377.583 206.271C377.583 205.211 378.453 204.313 379.54 204.313H445.415C446.476 204.313 447.373 205.183 447.373 206.271C447.373 207.359 446.503 208.23 445.415 208.23Z" fill="#EFCBAB"/>
<path d="M372.308 220.089H311.028C309.967 220.089 309.07 219.218 309.07 218.13C309.07 217.069 309.94 216.172 311.028 216.172H372.308C373.369 216.172 374.266 217.042 374.266 218.13C374.239 219.218 373.369 220.089 372.308 220.089Z" fill="#EFCBAB"/>
<path d="M427.336 220.089H379.078C378.018 220.089 377.12 219.218 377.12 218.13C377.12 217.069 377.991 216.172 379.078 216.172H427.336C428.396 216.172 429.293 217.042 429.293 218.13C429.266 219.218 428.396 220.089 427.336 220.089Z" fill="#EFCBAB"/>
<path d="M389.518 244.161C385.82 247.235 381.878 249.764 377.746 252.103C378.099 251.015 378.398 249.846 378.344 248.839C378.262 247.425 377.148 246.827 376.033 246.228C375.761 246.092 375.489 245.929 375.244 245.766C375.679 245.331 375.897 244.759 375.625 244.107C375.163 243.046 373.831 243.209 373.369 244.188C373.287 244.379 373.233 244.542 373.205 244.732C373.015 244.623 372.879 244.542 372.77 244.379C373.45 243.1 374.103 241.795 374.701 240.489C374.837 240.19 374.674 239.836 374.429 239.646C373.45 238.911 372.091 239.156 371.302 240.081C370.351 241.196 370.595 242.883 371.058 244.134C371.085 244.215 371.112 244.297 371.166 244.406C370.296 245.983 369.345 247.506 368.339 248.975C368.257 248.866 368.149 248.785 368.04 248.703C367.768 248.458 367.496 248.105 367.251 247.751C367.714 246.555 368.013 245.276 368.121 243.943C368.176 243.345 367.578 243.073 367.088 243.236C365.729 243.753 364.995 245.14 365.158 246.554C365.212 247.044 365.375 247.507 365.593 247.942C365.294 248.595 364.94 249.247 364.505 249.873C364.233 250.281 364.424 250.689 364.75 250.879C364.315 252.375 363.69 253.898 362.684 254.959C361.841 255.83 360.264 256.51 359.258 255.449C358.606 254.796 358.524 253.681 358.443 252.81C358.225 250.662 358.062 248.431 358.144 246.282C358.171 245.249 358.279 244.215 358.633 243.263C358.85 242.665 359.149 241.74 359.448 242.801C359.584 243.318 359.394 244.107 359.34 244.623C359.258 245.548 360.672 245.657 360.781 244.732C360.889 243.644 361.379 241.387 360.155 240.707C359.149 240.135 358.198 240.951 357.736 241.795C356.05 244.841 356.73 249.003 356.974 252.294C357.165 254.932 358.171 258.142 361.515 257.326C364.668 256.537 365.838 252.566 366.572 249.818C366.626 249.655 366.599 249.492 366.544 249.356C366.544 249.329 366.572 249.302 366.572 249.302C366.708 249.438 366.844 249.574 366.979 249.71C367.17 249.873 367.333 250.063 367.523 250.226C367.197 250.689 366.844 251.151 366.517 251.586C366.327 251.831 366.381 252.239 366.572 252.457C367.632 253.735 369.535 252.783 369.508 251.206C369.508 250.852 369.399 250.526 369.263 250.226C370.269 248.785 371.194 247.316 372.064 245.793C372.526 246.228 373.097 246.527 373.776 246.473C373.831 246.473 373.885 246.473 373.912 246.446C374.293 246.827 374.728 247.153 375.163 247.398C375.571 247.615 376.033 247.779 376.414 248.078C377.093 248.649 376.903 249.274 376.74 250.063C376.549 251.097 376.223 252.158 375.897 253.164C374.456 253.98 373.042 255.041 372.553 256.7C372.118 258.223 372.499 259.828 373.804 260.753C374.184 261.025 374.701 260.807 374.891 260.399C375.707 258.386 376.441 256.346 377.066 254.279C377.093 254.225 377.12 254.143 377.12 254.089C378.398 253.354 379.73 252.729 380.981 251.967C384.325 249.982 387.506 247.724 390.497 245.249C391.176 244.651 390.225 243.563 389.518 244.161ZM372.091 242.257C372.091 241.686 372.39 240.625 373.042 240.652C372.743 241.305 372.444 241.931 372.118 242.583C372.091 242.447 372.091 242.339 372.091 242.257ZM373.912 258.822C373.314 257.679 374.184 256.292 375.163 255.367C374.755 256.537 374.347 257.706 373.912 258.822Z" fill="#F99746"/>
<g opacity="0.5">
<path opacity="0.5" d="M361.243 20.8218L375.815 52.9994L322.093 77.3434L307.52 45.1658L341.668 49.0826L361.243 20.8218Z" fill="#CDE0FB"/>
<path opacity="0.5" d="M307.52 45.1658L361.216 20.8218L345.148 47.8858C343.87 50.0074 341.423 51.1498 338.976 50.7146L307.52 45.1658Z" fill="#B1CFF2"/>
</g>
<g opacity="0.5">
<path opacity="0.5" d="M45.4872 230.86L53.1541 251.423L18.8163 264.235L11.1494 243.672L32.1653 247.561L45.4872 230.86Z" fill="#CDE0FB"/>
<path opacity="0.5" d="M11.1494 243.671L45.4872 230.86L34.3675 246.963C33.4975 248.241 31.9207 248.839 30.4254 248.459L11.1494 243.671Z" fill="#B1CFF2"/>
</g>
<g opacity="0.5">
<path opacity="0.5" d="M633.553 108.433L622.786 148.825L555.361 130.819L566.128 90.4539L594.457 119.639L633.553 108.433Z" fill="#CDE0FB"/>
<path opacity="0.5" d="M566.128 90.4539L633.553 108.46L598.562 121.19C595.789 122.196 592.717 121.38 590.787 119.15L566.128 90.4539Z" fill="#B1CFF2"/>
</g>
<path d="M30.6972 321.79C29.066 321.79 27.4891 321.763 25.9938 321.709C25.8307 321.709 25.6947 321.573 25.6947 321.382C25.6947 321.219 25.8307 321.083 26.021 321.083C27.5163 321.137 29.0932 321.137 30.6972 321.165C30.8604 321.165 30.9963 321.301 30.9963 321.491C31.0235 321.654 30.8604 321.79 30.6972 321.79ZM35.4007 321.763C35.2376 321.763 35.1016 321.627 35.1016 321.464C35.1016 321.301 35.2376 321.137 35.4007 321.137C36.896 321.11 38.4729 321.083 40.1041 321.029C40.2944 321.001 40.4304 321.165 40.4304 321.328C40.4304 321.491 40.2944 321.654 40.1313 321.654C38.5001 321.709 36.9232 321.736 35.4007 321.763ZM21.3176 321.518C19.6319 321.409 18.0551 321.301 16.6141 321.137C16.451 321.11 16.3151 320.974 16.3423 320.784C16.3694 320.621 16.5054 320.485 16.6957 320.512C18.1366 320.675 19.7135 320.784 21.3447 320.893C21.5079 320.893 21.6438 321.056 21.6438 321.219C21.6166 321.409 21.4807 321.518 21.3176 321.518ZM44.7804 321.464C44.6173 321.464 44.4813 321.328 44.4813 321.165C44.4813 321.001 44.6173 320.838 44.7804 320.838C46.2757 320.757 47.8526 320.675 49.4566 320.593C49.6198 320.593 49.7829 320.702 49.7829 320.893C49.7829 321.056 49.6741 321.219 49.4838 321.219C47.9069 321.301 46.3029 321.382 44.7804 321.464C44.8076 321.464 44.8076 321.464 44.7804 321.464ZM54.1873 320.92C54.0241 320.92 53.8882 320.784 53.8882 320.621C53.8882 320.457 53.9969 320.294 54.1873 320.294C55.7369 320.185 57.2866 320.077 58.8635 319.968C59.0266 319.968 59.1898 320.077 59.1898 320.267C59.1898 320.43 59.081 320.593 58.8907 320.593C57.3138 320.702 55.7369 320.811 54.1873 320.92ZM11.9923 320.485C11.9651 320.485 11.9651 320.485 11.9379 320.485C10.1979 320.185 8.67537 319.805 7.34319 319.369C7.18006 319.315 7.0985 319.152 7.15287 318.989C7.20725 318.825 7.37038 318.744 7.5335 318.798C8.8385 319.206 10.361 319.587 12.0466 319.886C12.2097 319.913 12.3185 320.077 12.2913 320.24C12.2641 320.403 12.1554 320.485 11.9923 320.485ZM63.5398 320.213C63.3766 320.213 63.2407 320.077 63.2407 319.913C63.2135 319.75 63.3494 319.587 63.5126 319.587C65.0622 319.451 66.6119 319.315 68.1888 319.179C68.3519 319.152 68.5151 319.288 68.5423 319.451C68.5694 319.614 68.4335 319.777 68.2704 319.805C66.6663 319.941 65.1166 320.077 63.5398 320.213C63.5669 320.213 63.5669 320.213 63.5398 320.213ZM72.8923 319.369C72.7291 319.369 72.5932 319.261 72.5932 319.097C72.566 318.934 72.7019 318.771 72.8651 318.744C74.4148 318.581 75.9644 318.445 77.5413 318.281C77.7044 318.254 77.8676 318.39 77.8948 318.553C77.9219 318.717 77.786 318.88 77.6229 318.907C76.046 319.07 74.4963 319.233 72.9466 319.369C72.9194 319.369 72.9194 319.369 72.8923 319.369ZM82.2448 318.39C82.0816 318.39 81.9457 318.281 81.9457 318.118C81.9185 317.955 82.0545 317.792 82.2176 317.765C83.7673 317.601 85.3169 317.438 86.8938 317.248C87.0569 317.221 87.2201 317.357 87.2473 317.52C87.2745 317.683 87.1385 317.846 86.9754 317.873C85.3985 318.037 83.8488 318.227 82.2991 318.39C82.2719 318.39 82.2719 318.39 82.2448 318.39ZM3.21068 317.411C3.15631 317.411 3.07475 317.384 3.02037 317.357C2.12319 316.704 1.47068 315.942 1.06287 315.126C0.790996 314.528 0.546307 313.929 0.355994 313.358C0.301619 313.195 0.383187 313.005 0.573499 312.977C0.736624 312.923 0.926935 313.005 0.954123 313.195C1.11725 313.739 1.36193 314.31 1.60662 314.881C1.93287 315.589 2.53099 316.269 3.34662 316.867C3.48256 316.976 3.50975 317.166 3.42819 317.302C3.401 317.384 3.29224 317.411 3.21068 317.411ZM91.5973 317.357C91.4341 317.357 91.2982 317.248 91.2982 317.085C91.271 316.921 91.4069 316.758 91.5701 316.731C93.1198 316.541 94.6694 316.377 96.2463 316.187C96.4094 316.16 96.5726 316.296 96.5998 316.459C96.6269 316.622 96.491 316.785 96.3279 316.813C94.7782 317.003 93.2013 317.193 91.6516 317.357C91.5973 317.357 91.5973 317.357 91.5973 317.357ZM100.923 316.214C100.759 316.214 100.624 316.105 100.624 315.942C100.596 315.779 100.732 315.616 100.895 315.589C102.445 315.398 103.995 315.208 105.544 314.99C105.708 314.963 105.871 315.099 105.898 315.262C105.925 315.425 105.789 315.589 105.626 315.616C104.076 315.806 102.527 316.024 100.977 316.214C100.95 316.214 100.923 316.214 100.923 316.214ZM110.221 315.017C110.058 315.017 109.922 314.909 109.922 314.745C109.894 314.582 110.03 314.419 110.194 314.392C111.743 314.174 113.293 313.984 114.843 313.766C115.006 313.739 115.169 313.875 115.196 314.038C115.223 314.201 115.087 314.365 114.924 314.392C113.374 314.609 111.825 314.8 110.275 315.017C110.248 315.017 110.221 315.017 110.221 315.017ZM119.519 313.766C119.356 313.766 119.22 313.657 119.22 313.494C119.193 313.331 119.329 313.168 119.492 313.141C121.041 312.923 122.591 312.705 124.141 312.488C124.304 312.461 124.467 312.569 124.494 312.76C124.521 312.923 124.413 313.086 124.222 313.113C122.673 313.331 121.123 313.549 119.573 313.766C119.546 313.766 119.546 313.766 119.519 313.766ZM128.844 312.433C128.681 312.433 128.545 312.325 128.545 312.161C128.518 311.998 128.627 311.835 128.817 311.808C130.367 311.59 131.916 311.373 133.466 311.128C133.629 311.101 133.792 311.209 133.819 311.4C133.847 311.563 133.738 311.726 133.548 311.753C131.998 311.971 130.448 312.216 128.898 312.433C128.871 312.433 128.844 312.433 128.844 312.433ZM138.142 311.073C137.979 311.073 137.843 310.965 137.843 310.801C137.816 310.638 137.925 310.475 138.115 310.448C139.665 310.203 141.214 309.985 142.764 309.741C142.927 309.713 143.09 309.822 143.118 310.013C143.145 310.176 143.036 310.339 142.846 310.366C141.296 310.611 139.746 310.829 138.197 311.073C138.169 311.073 138.142 311.073 138.142 311.073ZM147.413 309.659C147.25 309.659 147.141 309.55 147.114 309.387C147.087 309.224 147.196 309.061 147.386 309.033C148.936 308.789 150.485 308.544 152.035 308.326C152.198 308.299 152.361 308.408 152.389 308.598C152.416 308.761 152.307 308.925 152.117 308.952C150.567 309.197 149.017 309.441 147.468 309.659C147.44 309.659 147.44 309.659 147.413 309.659ZM0.383184 308.952C0.355996 308.952 0.328814 308.952 0.328814 308.952C0.165689 308.925 0.056932 308.761 0.0841195 308.571C0.383182 307.075 1.09006 305.633 2.17756 304.301C2.28631 304.165 2.47662 304.137 2.61256 304.246C2.7485 304.355 2.77568 304.545 2.66693 304.681C1.63381 305.933 0.981312 307.293 0.709437 308.68C0.655062 308.843 0.519121 308.952 0.383184 308.952ZM156.711 308.217C156.548 308.217 156.439 308.109 156.412 307.945C156.385 307.782 156.494 307.619 156.684 307.592C158.234 307.347 159.784 307.102 161.333 306.857C161.496 306.83 161.659 306.939 161.687 307.129C161.714 307.293 161.605 307.456 161.415 307.483C159.892 307.728 158.343 307.973 156.766 308.217C156.739 308.217 156.711 308.217 156.711 308.217ZM165.982 306.749C165.819 306.749 165.71 306.64 165.683 306.477C165.656 306.313 165.765 306.15 165.955 306.123C167.505 305.878 169.054 305.606 170.604 305.361C170.767 305.334 170.93 305.443 170.958 305.606C170.985 305.769 170.876 305.933 170.713 305.96C169.19 306.205 167.641 306.477 166.064 306.721C166.009 306.749 166.009 306.749 165.982 306.749ZM175.253 305.225C175.09 305.225 174.981 305.117 174.954 304.953C174.927 304.79 175.036 304.627 175.199 304.6C176.776 304.328 178.298 304.083 179.821 303.838C179.984 303.811 180.147 303.92 180.174 304.083C180.201 304.246 180.093 304.409 179.929 304.437C178.407 304.681 176.857 304.953 175.308 305.198C175.28 305.225 175.28 305.225 175.253 305.225ZM184.524 303.648C184.361 303.648 184.252 303.539 184.225 303.376C184.198 303.213 184.307 303.049 184.47 303.022C186.047 302.75 187.596 302.505 189.092 302.233C189.255 302.206 189.418 302.315 189.445 302.478C189.472 302.641 189.364 302.805 189.2 302.832C187.678 303.104 186.128 303.349 184.579 303.621C184.551 303.648 184.551 303.648 184.524 303.648ZM193.795 302.07C193.659 302.07 193.523 301.961 193.496 301.798C193.469 301.635 193.578 301.472 193.741 301.445C195.318 301.173 196.867 300.901 198.363 300.629C198.526 300.601 198.689 300.71 198.716 300.873C198.743 301.037 198.634 301.2 198.471 301.227C196.976 301.499 195.426 301.771 193.849 302.043C193.822 302.07 193.795 302.07 193.795 302.07ZM5.87506 301.689C5.76631 301.689 5.68475 301.635 5.63038 301.553C5.52163 301.417 5.576 301.227 5.71194 301.118C6.881 300.302 8.26756 299.486 9.81725 298.752C9.98038 298.67 10.1707 298.752 10.2251 298.888C10.3066 299.051 10.2251 299.241 10.0891 299.296C8.56662 300.03 7.23443 300.819 6.06537 301.635C5.98381 301.662 5.92944 301.689 5.87506 301.689ZM203.039 300.438C202.903 300.438 202.767 300.329 202.74 300.193C202.713 300.03 202.821 299.867 202.984 299.84C204.589 299.568 206.138 299.269 207.606 299.024C207.769 298.997 207.933 299.105 207.96 299.269C207.987 299.432 207.878 299.595 207.715 299.622C206.22 299.894 204.67 300.166 203.093 300.438C203.093 300.438 203.066 300.438 203.039 300.438ZM212.31 298.779C212.174 298.779 212.038 298.67 212.011 298.534C211.984 298.371 212.092 298.208 212.255 298.181C213.887 297.881 215.436 297.609 216.877 297.337C217.04 297.31 217.204 297.419 217.231 297.582C217.258 297.745 217.149 297.909 216.986 297.936C215.545 298.208 213.995 298.48 212.364 298.779C212.337 298.779 212.337 298.779 212.31 298.779ZM14.2488 297.501C14.1129 297.501 14.0041 297.419 13.9497 297.31C13.8954 297.147 13.9769 296.957 14.1401 296.902C15.5266 296.385 17.0219 295.896 18.626 295.406C18.7891 295.352 18.9794 295.461 19.0066 295.624C19.061 295.787 18.9523 295.95 18.7891 296.005C17.2122 296.467 15.7169 296.984 14.3576 297.473C14.3304 297.501 14.3032 297.501 14.2488 297.501ZM221.581 297.093C221.445 297.093 221.309 296.984 221.282 296.848C221.254 296.685 221.363 296.521 221.526 296.494C223.294 296.168 224.843 295.869 226.148 295.624C226.311 295.597 226.474 295.705 226.502 295.869C226.529 296.032 226.42 296.195 226.257 296.222C224.952 296.467 223.375 296.766 221.635 297.093C221.608 297.093 221.581 297.093 221.581 297.093ZM230.852 295.352C230.716 295.352 230.58 295.243 230.553 295.107C230.525 294.944 230.634 294.781 230.797 294.753C231.124 294.699 231.287 294.645 231.341 294.645C231.531 294.59 231.722 294.753 231.722 294.944C231.722 295.216 231.694 295.216 230.933 295.352C230.879 295.352 230.852 295.352 230.852 295.352ZM23.2479 294.781C23.1119 294.781 22.976 294.672 22.9488 294.536C22.8944 294.373 23.0032 294.209 23.1663 294.155C24.6344 293.801 26.1841 293.448 27.761 293.121C27.9241 293.094 28.0872 293.203 28.1416 293.366C28.1688 293.529 28.0601 293.693 27.8969 293.747C26.3201 294.073 24.7704 294.427 23.3294 294.781C23.3022 294.781 23.2751 294.781 23.2479 294.781ZM32.4644 292.877C32.3013 292.877 32.1926 292.768 32.1654 292.605C32.1382 292.441 32.2469 292.278 32.4101 292.251C33.9054 291.979 35.4823 291.734 37.0591 291.517C37.2222 291.489 37.3854 291.598 37.4126 291.789C37.4398 291.952 37.331 292.115 37.1407 292.142C35.5638 292.36 33.9869 292.632 32.4916 292.877C32.5188 292.877 32.4916 292.877 32.4644 292.877ZM41.7898 291.517C41.6266 291.517 41.4907 291.408 41.4907 291.245C41.4635 291.081 41.5994 290.918 41.7626 290.891C43.3123 290.701 44.8891 290.537 46.4388 290.374C46.6019 290.347 46.7651 290.483 46.7923 290.646C46.8194 290.809 46.6835 290.973 46.5204 291C44.9707 291.163 43.3938 291.326 41.8441 291.517C41.8169 291.517 41.7898 291.517 41.7898 291.517ZM51.1422 290.592C50.9791 290.592 50.8432 290.456 50.8432 290.293C50.8432 290.129 50.9519 289.966 51.1422 289.966C54.0513 289.749 55.8457 289.667 55.8729 289.667C56.036 289.64 56.1991 289.803 56.1991 289.966C56.1991 290.129 56.0632 290.293 55.9001 290.293C55.8729 290.293 54.0785 290.374 51.1422 290.592C51.1694 290.592 51.1694 290.592 51.1422 290.592Z" fill="#AFCDFB"/>
<path d="M241.292 311.835L279.844 289.994L244.69 292.061L247.382 298.018L240.122 306.069L241.292 311.835Z" fill="#AFCDFB"/>
<path d="M279.844 289.994L239.443 297.392L210.053 317.819L279.844 289.994Z" fill="white"/>
<path d="M244.69 292.061L279.844 289.994L243.059 279.195L244.69 292.061Z" fill="white"/>
<path d="M449.765 24.7657L493.51 31.6745L464.718 11.3833L463.141 17.7209L452.429 19.5161L449.765 24.7657Z" fill="#AFCDFB"/>
<path d="M493.51 31.6748L457.296 12.3084L421.572 9.96924L493.51 31.6748Z" fill="white"/>
<path d="M464.718 11.3835L493.51 31.6747L471.461 0.340332L464.718 11.3835Z" fill="white"/>
<path d="M582.223 202.11C582.223 202.11 573.305 202.735 566.726 218.811C560.092 235.022 574.937 234.859 569.934 245.195C564.932 255.531 577.139 261.678 580.836 270.137C584.534 278.596 603.212 298.996 604.707 308.299C606.175 317.601 622.787 298.616 622.787 298.616C622.787 298.616 639.67 280.609 633.607 270.137C623.629 252.892 632.275 249.139 631.949 239.51C631.677 229.854 613.38 191.883 582.223 202.11Z" fill="#233862"/>
<path d="M577.383 259.747C577.383 259.747 542.855 274.815 536.276 274.516C529.724 274.217 489.296 262.195 489.296 262.195L490.329 269.158C490.329 269.158 521.513 287.11 532.442 288.116C543.182 289.123 579.885 278.487 583.446 276.23C586.981 273.999 587.687 262.031 577.383 259.747Z" fill="#FFAD76"/>
<path d="M574.61 276.284C577.791 278.487 581.76 280.309 586.763 281.452C605.495 285.777 612.673 269.946 615.364 259.066C612.809 257.597 610.416 257.271 609.03 257.108C607.67 256.945 606.256 256.836 605.06 256.781C602.967 255.177 599.813 248.567 599.133 238.34L598.263 238.585L583.5 242.637C583.5 242.637 584.18 247.343 584.506 251.777C584.751 255.258 585.213 257.271 584.561 258.087C583.419 258.332 582.304 259.801 582.304 259.801C582.304 259.801 582.304 259.801 582.304 259.828C582.087 260.1 577.791 267.145 574.61 276.284Z" fill="#FFB27D"/>
<path d="M583.473 242.637C583.473 242.637 584.153 247.316 584.479 251.777C592.853 250.933 596.714 242.964 598.236 238.612L583.473 242.637Z" fill="#ED985F"/>
<path d="M581 247.044C581 247.044 600.846 245.956 599.976 233.58C599.106 221.231 601.091 212.772 588.367 212.935C575.671 213.126 573.523 217.995 572.816 222.183C572.109 226.399 575.807 246.99 581 247.044Z" fill="#FFB27D"/>
<path d="M621.02 316.649C622.814 307.483 628.659 270.844 622.814 259.067C620.721 254.823 612.483 254.443 603.429 254.824C600.629 256.646 589.89 263.5 585.513 262.657C585.458 262.657 585.377 262.63 585.268 262.603C583.202 262.086 582.821 259.312 584.561 258.06C584.561 258.06 579.667 258.931 574.121 259.992C570.994 260.59 562.512 264.969 562.512 264.969C562.512 264.969 566.78 272.667 573.061 275.332C572 284.907 573.577 289.123 583.501 311.236C591.875 329.923 582.359 346.732 582.359 346.732C582.359 346.732 631.704 386.444 631.976 366.208C632.194 350.976 618.709 328.372 621.02 316.649Z" fill="#739AF0"/>
<path d="M579.912 389.871C577.22 389.572 574.801 388.103 573.305 385.846C573.061 385.492 572.816 385.111 572.544 384.703C566.916 376.19 564.741 350.132 552.099 322.388C549.027 315.643 537.962 314.419 534.971 306.775C534.971 306.775 527.549 282.023 549.163 281.289C570.777 280.555 607.045 350.187 607.616 357.503C608.16 364.548 621.889 394.604 579.912 389.871Z" fill="#233862"/>
<path d="M494.027 389.3H524.775C524.775 389.3 525.917 384.404 523.905 381.058C522.111 378.094 522.791 376.407 524.123 373.986C522.736 374.558 520.915 375.074 518.93 374.966C517.408 374.884 515.776 374.177 514.363 373.361C513.031 374.884 507.376 381.303 505.608 382.582C503.597 383.996 494.652 383.479 494.027 389.3Z" fill="#172B4C"/>
<path d="M617.757 268.668C617.757 268.668 621.753 305.116 595.789 312.732C569.825 320.375 562.458 279.222 583.419 276.257C604.408 273.292 617.757 268.668 617.757 268.668Z" fill="#5486D6"/>
<path d="M534.264 288.415C532.416 302.315 525.184 346.134 512.433 367.54C508.328 374.449 522.791 378.311 522.873 378.284C524.803 377.767 528.038 374.667 529.534 373.334C539.892 364.004 560.908 337.566 560.908 316.35C560.908 306.014 561.098 286.267 553.567 281.262C548.945 278.161 534.998 282.921 534.264 288.415Z" fill="#233862"/>
<path d="M598.236 389.3C598.236 389.3 597.094 387.723 595.11 384.703C592.744 381.113 590.134 374.068 586.953 365.038C583.609 355.545 579.667 343.876 574.719 331.718C573.196 327.964 571.565 324.183 569.852 320.375C566.78 313.63 558.298 314.555 555.307 306.912C555.307 306.912 543.562 280.419 565.149 279.684C586.763 278.95 627.816 350.54 630.182 357.476C632.764 365.065 645.352 396.563 598.236 389.3Z" fill="#2B478B"/>
<path d="M516.592 389.3H547.341C547.341 389.3 548.483 384.404 546.471 381.058C544.677 378.094 545.357 376.407 546.689 373.986C545.302 374.558 543.481 375.074 541.496 374.966C539.973 374.884 538.342 374.177 536.928 373.361C535.596 374.884 529.941 381.303 528.174 382.582C526.189 383.996 517.218 383.479 516.592 389.3Z" fill="#233862"/>
<path d="M586.953 365.038C583.609 355.545 579.667 343.876 574.719 331.718C576.024 322.524 578.798 314.473 583.474 311.209C583.474 311.209 594.838 346.433 586.953 365.038Z" fill="#23407A"/>
<path d="M552.208 287.436C550.359 301.335 547.749 346.161 534.998 367.54C530.893 374.449 545.357 378.311 545.438 378.284C547.369 377.767 550.604 374.666 552.099 373.333C562.458 364.004 583.473 337.566 583.473 316.35C583.473 306.014 571.348 287.11 563.844 282.078C559.222 279.004 552.942 281.914 552.208 287.436Z" fill="#2B478B"/>
<path d="M514.145 251.015C514.145 251.015 512.569 247.017 509.714 247.262C506.859 247.534 480.813 251.015 480.813 251.015C480.813 251.015 483.858 251.75 485 253.735L497.017 289.15H527.821L514.145 251.015Z" fill="#EBF3FA"/>
<path d="M615.364 259.066C615.364 259.066 571.701 275.142 565.149 274.815C560.908 274.598 525.673 262.222 525.673 262.222L522.519 268.206C522.519 268.206 556.83 290.265 566.237 290.156C584.86 289.938 616.262 278.514 619.796 276.257C623.33 273.999 625.669 261.351 615.364 259.066Z" fill="#FFBF94"/>
<path d="M525.673 262.222C525.673 262.222 522.519 257.353 519.366 257.217C516.212 257.081 510.774 259.366 508.925 259.719C507.077 260.073 501.775 261.786 503.352 264.37C504.929 266.954 512.242 267.526 515.369 266.954C518.496 266.383 522.519 268.206 522.519 268.206L525.673 262.222Z" fill="#FFBF94"/>
<path d="M520.208 257.353C520.208 257.353 515.206 255.041 513.765 254.633C512.324 254.198 512.623 254.633 513.058 255.993C513.493 257.353 516.076 258.659 516.076 259.067C516.076 259.502 520.208 257.353 520.208 257.353Z" fill="#FFBF94"/>
<path d="M577.275 239.918C577.275 239.918 579.151 239.183 584.425 239.591C584.425 239.591 584.153 241.658 580.238 241.849C578.036 241.985 577.275 239.918 577.275 239.918Z" fill="white"/>
<path d="M592.88 267.009C592.88 267.009 596.795 279.385 610.199 282.187C610.199 282.187 632.329 275.359 621.319 260.263C621.291 260.263 610.389 252.158 592.88 267.009Z" fill="#739AF0"/>
<path d="M480.787 251.015C480.787 251.015 477.905 252.131 480.08 255.884L508.246 252.131C508.246 252.131 507.267 247.779 509.469 247.289L480.787 251.015Z" fill="white"/>
<path d="M490.873 260.263C491.553 257.598 491.498 256.945 489.976 255.313C488.97 254.225 487.447 256.918 486.659 258.522C486.36 257.815 485.87 256.646 485.707 256.591C485.463 256.51 486.033 260.182 486.033 260.182C486.006 260.345 486.006 260.481 486.006 260.644C486.006 260.644 484.783 266.057 490.112 268.994L489.106 266.002C489.731 265.894 490.193 262.983 490.873 260.263Z" fill="#FFAD76"/>
<path d="M580.238 215.655C580.238 215.655 584.425 214.187 586.437 218.457C588.476 222.727 589.101 232.955 597.23 233.798C605.36 234.641 605.659 216.471 605.659 216.471L585.322 208.447L574.583 215.22L580.238 215.655Z" fill="#233862"/>
<path d="M580.238 215.655C580.238 215.655 575.644 215.764 574.611 219.627C573.577 223.489 575.209 230.697 572.653 231.214C570.125 231.731 567.814 219.219 572.707 215.139C577.601 211.059 580.238 215.655 580.238 215.655Z" fill="#233862"/>
<path d="M220.602 148.662C220.602 148.662 225.197 146.921 225.713 145.724C226.23 144.527 227.752 144.011 229.574 143.167C231.396 142.324 232.483 140.828 232.755 141.019C233.027 141.236 233.081 142.27 232.347 143.059C231.613 143.847 228.514 149.315 227.372 149.94C226.176 150.566 220.602 148.662 220.602 148.662Z" fill="#FFB27D"/>
<path d="M696.465 389.083H666.994C665.417 387.75 668.081 384.703 670.881 384.486C672.105 384.404 673.627 384.649 675.367 385.03C675.775 379.644 678.086 355.409 686.813 356.388C696.628 357.476 686.813 367.051 684.04 372.735C681.974 376.924 679.826 382.963 678.82 385.819C679.609 385.982 680.451 386.172 681.294 386.308C682.599 382.31 687.439 368.873 693.583 369.662C700.815 370.587 697.906 375.972 692.794 379.182C689.043 381.548 684.421 384.867 682.219 386.499C684.067 386.798 686.025 387.015 687.982 386.961C693.066 386.798 695.513 388.294 696.465 389.083Z" fill="#82B378"/>
<path d="M35.8357 389.681C35.8357 389.681 24.6344 358.891 16.75 361.529C8.89285 364.14 35.8357 389.681 35.8357 389.681Z" fill="#82B378"/>
<path d="M31.54 389.681C30.5884 389.681 12.6991 371.104 11.5028 375.973C10.3066 380.841 31.54 389.681 31.54 389.681Z" fill="#82B378"/>
<path d="M50.5985 389.681C50.5985 389.681 43.2035 382.908 33.851 384.676C24.4985 386.444 20.5019 388.376 14.6022 387.043C8.72973 385.71 5.71191 389.708 5.71191 389.708H50.5985V389.681Z" fill="#82B378"/>
<path d="M278.756 377.387H220.521C217.258 377.387 214.621 374.748 214.621 371.484V355.6C214.621 352.336 217.258 349.697 220.521 349.697H278.756C282.018 349.697 284.656 352.336 284.656 355.6V371.484C284.656 374.748 282.018 377.387 278.756 377.387Z" fill="#FCECDB"/>
<path d="M266.902 356.606H223.022C222.532 356.606 222.125 356.198 222.125 355.709C222.125 355.219 222.532 354.811 223.022 354.811H266.902C267.392 354.811 267.799 355.219 267.799 355.709C267.799 356.198 267.392 356.606 266.902 356.606Z" fill="#EFCBAB"/>
<path d="M230.824 360.442H223.049C222.56 360.442 222.152 360.034 222.152 359.544C222.152 359.054 222.56 358.646 223.049 358.646H230.824C231.314 358.646 231.722 359.054 231.722 359.544C231.694 360.034 231.314 360.442 230.824 360.442Z" fill="#EFCBAB"/>
<path d="M255.32 360.442H233.897C233.407 360.442 233 360.034 233 359.544C233 359.054 233.407 358.646 233.897 358.646H255.32C255.81 358.646 256.218 359.054 256.218 359.544C256.218 360.034 255.81 360.442 255.32 360.442Z" fill="#EFCBAB"/>
<path d="M266.902 367.568H223.022C222.532 367.568 222.125 367.16 222.125 366.67C222.125 366.18 222.532 365.772 223.022 365.772H266.902C267.392 365.772 267.799 366.18 267.799 366.67C267.799 367.16 267.392 367.568 266.902 367.568Z" fill="#EFCBAB"/>
<path d="M238.954 371.403H223.022C222.532 371.403 222.125 370.995 222.125 370.505C222.125 370.015 222.532 369.607 223.022 369.607H238.954C239.443 369.607 239.851 370.015 239.851 370.505C239.851 370.995 239.443 371.403 238.954 371.403Z" fill="#EFCBAB"/>
<path d="M258.338 371.403H242.407C241.917 371.403 241.509 370.995 241.509 370.505C241.509 370.015 241.917 369.607 242.407 369.607H258.338C258.828 369.607 259.236 370.015 259.236 370.505C259.236 370.995 258.828 371.403 258.338 371.403Z" fill="#EFCBAB"/>
</svg>
