<svg width="1200" height="895" viewBox="0 0 1200 895" fill="none" xmlns="http://www.w3.org/2000/svg">
<g clip-path="url(#clip0)">
<path d="M1199.09 786.303H0.0878906V786.903H1199.09V786.303Z" fill="#EBEBEB"/>
<path d="M1078.95 824.908H999.526V825.508H1078.95V824.908Z" fill="#EBEBEB"/>
<path d="M794.354 831.434H773.515V832.033H794.354V831.434Z" fill="#EBEBEB"/>
<path d="M997.128 802.642H951.111V803.242H997.128V802.642Z" fill="#EBEBEB"/>
<path d="M229.457 806.673H125.887V807.273H229.457V806.673Z" fill="#EBEBEB"/>
<path d="M266.002 806.673H250.823V807.273H266.002V806.673Z" fill="#EBEBEB"/>
<path d="M539.997 816.798H315.353V817.398H539.997V816.798Z" fill="#EBEBEB"/>
<path d="M909.673 165.702L905.237 193.486C904.914 195.502 905.033 197.565 905.585 199.531C906.136 201.497 907.108 203.32 908.433 204.874C909.758 206.427 911.404 207.675 913.258 208.529C915.111 209.384 917.128 209.826 919.169 209.825H923.965C926.007 209.826 928.025 209.384 929.88 208.529C931.734 207.674 933.382 206.427 934.708 204.874C936.035 203.321 937.009 201.499 937.564 199.533C938.119 197.567 938.241 195.504 937.922 193.486L933.485 165.702H909.673Z" fill="#E6E6E6"/>
<path d="M976.602 199.556H663.806V215.631H976.602V199.556Z" fill="#E0E0E0"/>
<path d="M691.983 140.293H678.194V199.556H691.983V140.293Z" fill="#EBEBEB"/>
<path d="M758.623 140.293H744.835V199.556H758.623V140.293Z" fill="#EBEBEB"/>
<path d="M834.259 138.775L820.671 141.119L830.732 199.52L844.32 197.176L834.259 138.775Z" fill="#EBEBEB"/>
<path d="M709.057 148.115H695.268V199.58H709.057V148.115Z" fill="#EBEBEB"/>
<path d="M740.734 148.115H726.945V199.58H740.734V148.115Z" fill="#EBEBEB"/>
<path d="M820.683 148.115H806.895V199.58H820.683V148.115Z" fill="#EBEBEB"/>
<path d="M776.715 146.277L763.254 149.27L774.414 199.509L787.874 196.516L776.715 146.277Z" fill="#EBEBEB"/>
<path d="M720.951 137.342H714.068V199.556H720.951V137.342Z" fill="#EBEBEB"/>
<path d="M802.914 137.342H796.032V199.556H802.914V137.342Z" fill="#EBEBEB"/>
<path d="M663.782 335.692L976.577 335.692V319.617L663.782 319.617V335.692Z" fill="#E0E0E0"/>
<path d="M948.401 319.616H962.189V260.354H948.401V319.616Z" fill="#EBEBEB"/>
<path d="M881.76 319.616H895.549V260.354H881.76V319.616Z" fill="#EBEBEB"/>
<path d="M796.092 317.234L809.68 319.577L819.741 261.176L806.153 258.833L796.092 317.234Z" fill="#EBEBEB"/>
<path d="M931.351 319.592H945.14V268.128H931.351V319.592Z" fill="#EBEBEB"/>
<path d="M899.65 319.592H913.438V268.128H899.65V319.592Z" fill="#EBEBEB"/>
<path d="M819.7 319.592H833.489V268.128H819.7V319.592Z" fill="#EBEBEB"/>
<path d="M852.545 316.559L866.005 319.553L877.164 269.313L863.704 266.32L852.545 316.559Z" fill="#EBEBEB"/>
<path d="M919.433 319.592H926.315V257.379H919.433V319.592Z" fill="#EBEBEB"/>
<path d="M837.446 319.592H844.328V257.379H837.446V319.592Z" fill="#EBEBEB"/>
<path d="M693.829 319.065H760.973V272.686H693.829V319.065Z" fill="#EBEBEB"/>
<path d="M633.951 786.351H656.804V770.756H633.951V786.351Z" fill="#E6E6E6"/>
<path d="M517.864 158.408V190.871L444.294 465.877H435.613L517.864 158.408Z" fill="white"/>
<path d="M517.864 223.933V399.849L500.215 465.877H453.166L517.864 223.933Z" fill="white"/>
<path d="M929.721 799.307C929.721 799.307 936.627 694.17 911.328 670.896" stroke="#8AC16C" stroke-miterlimit="10"/>
<path d="M925.5 799.307C925.5 799.307 928.57 745.994 913.99 726.944C899.41 707.894 884.039 735.101 884.039 735.101" stroke="#8AC16C" stroke-miterlimit="10"/>
<path d="M930.512 806.456C930.512 806.456 921.088 681.693 936.699 660.651" stroke="#8AC16C" stroke-miterlimit="10"/>
<path d="M968.472 729.175C968.472 729.175 959.096 732.654 961.878 740.812C964.66 748.969 994.371 762.405 994.371 762.405C994.371 762.405 1006.79 751.009 995.378 732.462C983.963 713.916 968.736 723.345 968.472 729.175Z" fill="#8AC16C"/>
<path opacity="0.2" d="M968.472 729.175C968.472 729.175 959.096 732.654 961.878 740.812C964.66 748.969 994.371 762.405 994.371 762.405C994.371 762.405 1006.79 751.009 995.378 732.462C983.963 713.916 968.736 723.345 968.472 729.175Z" fill="white"/>
<path d="M927.658 713.628C927.658 713.628 937.658 713.196 938.234 721.833C938.809 730.471 916.651 754.296 916.651 754.296C916.651 754.296 900.777 748.561 904.206 727.04C907.635 705.518 925.188 708.325 927.658 713.628Z" fill="#8AC16C"/>
<path opacity="0.2" d="M927.658 713.628C927.658 713.628 937.658 713.196 938.234 721.833C938.809 730.471 916.651 754.296 916.651 754.296C916.651 754.296 900.777 748.561 904.206 727.04C907.635 705.518 925.188 708.325 927.658 713.628Z" fill="white"/>
<path d="M919.194 672.36C919.194 672.36 925.86 671.64 925.333 667.562C924.805 663.483 899.434 653.046 884.566 669.961C884.566 669.961 894.158 686.444 908.019 686.756C921.879 687.068 919.194 672.36 919.194 672.36Z" fill="#8AC16C"/>
<path opacity="0.2" d="M919.194 672.36C919.194 672.36 925.86 671.64 925.333 667.562C924.805 663.483 899.434 653.046 884.566 669.961C884.566 669.961 894.158 686.444 908.019 686.756C921.879 687.068 919.194 672.36 919.194 672.36Z" fill="white"/>
<path d="M931.615 662.499C931.615 662.499 925.596 665.402 923.894 661.683C922.191 657.964 938.282 635.651 959.864 642.081C959.864 642.081 960.439 661.131 948.785 668.641C937.131 676.151 931.615 662.499 931.615 662.499Z" fill="#8AC16C"/>
<path opacity="0.2" d="M931.615 662.499C931.615 662.499 925.596 665.402 923.894 661.683C922.191 657.964 938.282 635.651 959.864 642.081C959.864 642.081 960.439 661.131 948.785 668.641C937.131 676.151 931.615 662.499 931.615 662.499Z" fill="white"/>
<path d="M900.057 725.888C900.057 725.888 904.662 722.193 899.698 720.37C894.734 718.546 870.37 719.074 870.13 743.211C870.13 743.211 898.499 748.01 902 738.724C905.501 729.439 900.057 725.888 900.057 725.888Z" fill="#8AC16C"/>
<path opacity="0.2" d="M900.057 725.888C900.057 725.888 904.662 722.193 899.698 720.37C894.734 718.546 870.37 719.074 870.13 743.211C870.13 743.211 898.499 748.01 902 738.724C905.501 729.439 900.057 725.888 900.057 725.888Z" fill="white"/>
<path d="M957.921 671.76C957.921 671.76 953.317 668.041 958.281 666.218C963.245 664.394 987.608 664.922 987.848 689.059C987.848 689.059 959.48 693.858 955.979 684.596C952.478 675.335 957.921 671.76 957.921 671.76Z" fill="#8AC16C"/>
<path opacity="0.2" d="M957.921 671.76C957.921 671.76 953.317 668.041 958.281 666.218C963.245 664.394 987.608 664.922 987.848 689.059C987.848 689.059 959.48 693.858 955.979 684.596C952.478 675.335 957.921 671.76 957.921 671.76Z" fill="white"/>
<path d="M942.91 691.194C942.91 691.194 942.526 686.684 946.171 688.459C949.816 690.235 962.501 703.935 949.336 716.939C949.336 716.939 931.615 703.815 934.829 696.977C938.042 690.139 942.91 691.194 942.91 691.194Z" fill="#8AC16C"/>
<path opacity="0.2" d="M942.91 691.194C942.91 691.194 942.526 686.684 946.171 688.459C949.816 690.235 962.501 703.935 949.336 716.939C949.336 716.939 931.615 703.815 934.829 696.977C938.042 690.139 942.91 691.194 942.91 691.194Z" fill="white"/>
<path d="M970.223 866.223H894.806L886.652 783.567H978.376L970.223 866.223Z" fill="#407BFF"/>
<path opacity="0.5" d="M970.223 866.223H894.806L886.652 783.567H978.376L970.223 866.223Z" fill="white"/>
<path d="M982.405 774.45H882.624V792.684H982.405V774.45Z" fill="#407BFF"/>
<path opacity="0.2" d="M982.405 774.45H882.624V792.684H982.405V774.45Z" fill="white"/>
<path d="M1032.41 79.4715H425.553C417.269 79.4715 410.553 86.1872 410.553 94.4715V554.287C410.553 562.571 417.269 569.287 425.553 569.287H1032.41C1040.7 569.287 1047.41 562.571 1047.41 554.287V94.4715C1047.41 86.1872 1040.7 79.4715 1032.41 79.4715Z" fill="#83BE63"/>
<path opacity="0.3" d="M1047.41 101.905H410.553V569.263H1047.41V101.905Z" fill="white"/>
<path d="M855.718 174.891H506.306V485.744H855.718V174.891Z" fill="white"/>
<path d="M785.001 405.655L771.189 468.445L768.671 467.269L783.179 405.295L785.001 405.655Z" fill="#407BFF"/>
<path opacity="0.6" d="M785.001 405.655L771.189 468.445L768.671 467.269L783.179 405.295L785.001 405.655Z" fill="white"/>
<path d="M800.723 275.781C816.287 260.208 816.287 234.96 800.723 219.388C785.159 203.815 759.924 203.815 744.36 219.388C728.796 234.96 728.796 260.208 744.36 275.781C759.924 291.354 785.159 291.354 800.723 275.781Z" fill="#407BFF"/>
<path opacity="0.9" d="M800.723 275.781C816.287 260.208 816.287 234.96 800.723 219.388C785.159 203.815 759.924 203.815 744.36 219.388C728.796 234.96 728.796 260.208 744.36 275.781C759.924 291.354 785.159 291.354 800.723 275.781Z" fill="white"/>
<path d="M689.393 233.338C689.393 231.614 690.078 229.96 691.296 228.74C692.515 227.521 694.168 226.836 695.892 226.836C696.524 226.838 697.154 226.927 697.762 227.1C697.476 225.147 697.614 223.155 698.166 221.26C698.719 219.366 699.672 217.612 700.962 216.119C702.252 214.625 703.848 213.427 705.642 212.606C707.436 211.785 709.386 211.36 711.359 211.361C712.212 211.356 713.063 211.436 713.901 211.601C715.223 209.308 717.267 207.518 719.712 206.509C722.158 205.499 724.869 205.328 727.422 206.021C729.975 206.713 732.228 208.232 733.829 210.339C735.43 212.446 736.29 215.024 736.274 217.671C737.771 217.601 739.266 217.836 740.669 218.361C742.073 218.886 743.355 219.69 744.439 220.725C745.523 221.76 746.385 223.005 746.975 224.383C747.564 225.761 747.868 227.244 747.868 228.743C747.868 230.243 747.564 231.726 746.975 233.104C746.385 234.482 745.523 235.727 744.439 236.762C743.355 237.797 742.073 238.601 740.669 239.126C739.266 239.651 737.771 239.886 736.274 239.816H695.508C693.854 239.724 692.298 239.001 691.161 237.796C690.023 236.591 689.391 234.996 689.393 233.338Z" fill="#407BFF"/>
<path d="M774.426 283.243C774.426 281.519 775.111 279.865 776.329 278.646C777.548 277.426 779.201 276.741 780.925 276.741C781.557 276.743 782.187 276.832 782.795 277.005C782.509 275.052 782.647 273.061 783.199 271.166C783.752 269.271 784.705 267.517 785.995 266.024C787.285 264.53 788.881 263.333 790.675 262.512C792.469 261.691 794.419 261.266 796.392 261.266C797.245 261.261 798.096 261.342 798.934 261.506C800.277 259.26 802.317 257.516 804.743 256.539C807.169 255.561 809.848 255.405 812.372 256.092C814.895 256.78 817.125 258.274 818.721 260.347C820.317 262.421 821.191 264.959 821.211 267.576H821.403C822.899 267.506 824.395 267.741 825.798 268.266C827.201 268.791 828.484 269.595 829.568 270.63C830.651 271.665 831.514 272.91 832.104 274.288C832.693 275.666 832.997 277.15 832.997 278.649C832.997 280.148 832.693 281.631 832.104 283.009C831.514 284.388 830.651 285.632 829.568 286.667C828.484 287.702 827.201 288.506 825.798 289.031C824.395 289.556 822.899 289.791 821.403 289.721H780.637C778.966 289.653 777.386 288.941 776.228 287.733C775.07 286.526 774.425 284.917 774.426 283.243Z" fill="#407BFF"/>
<path d="M808.813 416.548C808.813 416.548 802.866 405.847 786.728 396.562C777.124 396.218 767.566 398.047 758.767 401.912C758.767 401.912 755.77 406.927 759.175 408.894C762.58 410.862 765.434 406.903 765.434 406.903C765.434 406.903 766.057 412.925 770.517 413.117C771.806 413.129 773.065 412.724 774.106 411.963C775.147 411.203 775.915 410.126 776.297 408.894C776.453 410.493 777.086 412.009 778.111 413.244C779.137 414.48 780.51 415.38 782.052 415.828C783.427 416.141 784.864 416.052 786.19 415.571C787.517 415.091 788.677 414.239 789.534 413.117C789.828 414.435 790.445 415.659 791.328 416.681C792.211 417.702 793.333 418.489 794.593 418.971C795.603 419.242 796.668 419.216 797.663 418.897C798.658 418.578 799.541 417.979 800.205 417.172C800.205 417.172 801.164 421.971 804.689 421.971C807.71 422.091 808.813 416.548 808.813 416.548Z" fill="#407BFF"/>
<path d="M551.172 471.732C551.172 471.732 546.136 393.491 520.286 291.593L525.538 287.61C525.538 287.61 548.199 324.439 570.956 467.101L551.172 471.732Z" fill="#407BFF"/>
<g opacity="0.5">
<path d="M551.172 471.732C551.172 471.732 546.136 393.491 520.286 291.593L525.538 287.61C525.538 287.61 548.199 324.439 570.956 467.101L551.172 471.732Z" fill="#8BC16D"/>
</g>
<path d="M578.965 458.416C578.965 458.416 570.956 346.609 615.271 234.754L609.923 229.955C609.923 229.955 561.412 313.45 557.023 459.927L578.965 458.416Z" fill="#407BFF"/>
<g opacity="0.6">
<path d="M578.965 458.416C578.965 458.416 570.956 346.609 615.271 234.754L609.923 229.955C609.923 229.955 561.412 313.45 557.023 459.927L578.965 458.416Z" fill="#8BC16D"/>
</g>
<path d="M506.306 303.373V305.989L506.905 304.933L506.306 303.373ZM573.306 306.732C570.908 285.139 561.867 277.125 547.815 275.805C544.705 275.527 541.575 276.021 538.703 277.245L540.405 276.237L537.24 267.432L541.532 275.637C543.079 274.875 544.682 274.233 546.328 273.718L543.019 260.858L549.518 272.854C551.172 272.489 552.845 272.216 554.529 272.039L553.474 267.864L555.752 271.943C556.999 271.943 558.15 271.943 559.253 271.943L555.872 264.121C556.136 264.529 558.27 268.032 560.5 271.967C562.473 272.027 564.437 272.244 566.375 272.614C557.887 255.483 537.599 249.725 529.135 260.762C524.027 267.432 524.339 277.293 525.13 283.195L524.962 283.339C524.962 283.003 524.722 282.667 524.578 282.307C524.147 274.39 522.18 249.677 514.986 246.918C511.126 245.43 508.248 248.07 506.234 251.405V259.898L507.361 255.1L506.665 260.426C507.694 260.645 508.687 261.008 509.615 261.506L511.317 254.476L510.574 262.057L511.701 262.849L513.691 256.203L512.349 263.401C514.302 265.105 516.005 267.075 517.408 269.255V259.658L519.423 272.494L520.382 274.318C518.608 271.729 516.282 269.565 513.572 267.984C511.333 266.734 508.796 266.121 506.234 266.208V300.926L507.936 303.157C508.536 302.27 509.135 301.406 509.759 300.566L508.344 296.511L510.334 299.846C510.766 299.294 511.221 298.767 511.677 298.239L509.903 292.84L512.42 297.447C513.683 296.108 515.099 294.924 516.641 293.92L513.979 287.37L517.744 293.032C513.332 297.663 509.759 305.773 517.624 318.465C517.624 318.465 517.744 314.818 518.272 309.995L516.425 307.716L518.415 308.676C518.583 307.188 518.799 305.629 519.039 304.021L517.576 301.742L519.279 302.629L519.567 301.046L517.576 296.511L520.19 298.191C520.382 297.447 520.574 296.727 520.789 296.007L521.533 300.014L521.965 298.599L523.571 293.56L527.288 298.239L528.295 293.56H528.487L532.396 296.391C531.983 293.465 531.276 290.587 530.286 287.802H530.693C531.578 288.433 532.427 289.114 533.235 289.841L534.362 288.114V291.089C535.05 291.793 535.721 292.512 536.376 293.248L538.151 288.282L537.719 294.88C538.655 296.055 539.542 297.279 540.357 298.503L540.957 293.704L541.34 300.038C542.204 301.43 543.019 302.773 543.738 304.045L544.122 295.216L545.057 306.54C546.784 309.923 547.743 312.323 547.743 312.323C547.743 312.323 549.206 297.927 543.235 288.738C544.461 289.03 545.67 289.39 546.856 289.817C548.491 290.38 550.092 291.037 551.652 291.785L553.402 286.05L552.851 292.385C554.361 293.128 555.848 293.968 557.263 294.784L557.982 289.793L558.294 295.408C560.045 296.487 561.699 297.615 563.234 298.695L562.467 289.793L564.457 299.606C566.04 300.758 567.455 301.862 568.678 302.869L568.39 296.655L570.524 304.405C572.299 305.773 573.21 306.732 573.21 306.732H573.306ZM508.56 283.339L509.015 277.341L509.423 283.099L508.56 283.339ZM514.267 283.627L514.723 273.598C514.723 273.598 515.058 278.685 515.49 284.059L514.267 283.627ZM535.082 279.092C535.082 278.709 534.818 278.325 534.698 277.917L533.978 275.877C533.187 273.478 532.396 271.271 531.772 269.519L531.485 268.704C531.419 268.467 531.339 268.234 531.245 268.008C531.245 267.768 531.101 267.576 531.029 267.384L530.645 266.304L536.472 278.301C535.993 278.565 535.537 278.853 535.082 279.092ZM538.535 283.531C538.337 283.366 538.129 283.214 537.911 283.075L538.918 280.844L538.535 283.531ZM542.491 287.37C541.936 286.638 541.327 285.948 540.669 285.307L543.067 281.9L542.491 287.37Z" fill="#407BFF"/>
<path d="M627.261 205.434C624.176 207.227 621.53 209.686 619.515 212.632C619.875 211.936 620.211 211.216 620.57 210.569L622.968 195.933V206.778C624.581 204.308 626.526 202.071 628.748 200.132L627.213 191.998L629.491 199.556C629.923 199.22 630.354 198.932 630.762 198.668L629.923 190.007L631.841 198.044C632.891 197.463 634.023 197.042 635.198 196.797L634.431 190.727L635.822 196.677C636.369 196.594 636.922 196.554 637.476 196.557L636.301 191.998L638.483 196.629C638.918 196.684 639.344 196.788 639.754 196.941C639.754 196.941 635.486 177.746 625.726 181.417C617.549 184.56 615.319 212.608 614.791 221.725L614.36 222.901L614.168 222.733C615.079 216.015 615.439 204.786 609.611 197.181C600.019 184.584 576.879 191.158 567.191 210.665C569.406 210.243 571.651 210.002 573.905 209.945C576.495 205.458 578.869 201.475 579.157 200.995L575.296 209.921C576.543 209.921 577.886 209.921 579.301 210.065L581.891 205.41L580.692 210.209C582.61 210.417 584.515 210.729 586.399 211.144L593.809 197.493L590.044 212.128C591.913 212.743 593.739 213.481 595.511 214.336L600.307 204.978L596.806 215.031L598.749 216.159C595.482 214.771 591.924 214.211 588.389 214.527C572.347 216.015 562.011 225.132 559.325 249.773C559.325 249.773 560.476 248.669 562.491 246.942L564.889 238.112L564.553 245.19C565.944 244.063 567.551 242.791 569.349 241.472L571.747 230.291L570.86 240.44C572.61 239.192 574.505 237.921 576.495 236.697L576.831 230.291L577.646 236.001C579.277 235.017 580.955 234.082 582.682 233.218L582.058 226.02L584.049 232.57C585.809 231.729 587.609 230.976 589.444 230.315C590.883 229.811 592.25 229.427 593.569 229.091C586.783 239.672 588.461 255.963 588.461 255.963C588.461 255.963 589.516 253.228 591.507 249.365L592.586 236.457L593.017 246.534C593.809 245.07 594.72 243.535 595.703 241.975L596.159 234.777L596.806 240.296C597.765 238.904 598.773 237.513 599.828 236.169L599.348 228.659L601.362 234.322C602.106 233.458 602.873 232.618 603.76 231.922V228.755L605.055 230.699C605.96 229.845 606.913 229.044 607.909 228.299H608.412C607.291 231.409 606.488 234.625 606.014 237.897C606.009 237.976 606.009 238.057 606.014 238.136L610.81 234.753L611.938 240.08L615.055 236.169L616.158 234.777L618.556 242.167L619.395 237.609C619.635 238.4 619.851 239.24 620.067 240.008L623.064 238.089L620.786 243.271C620.786 243.871 621.002 244.471 621.122 245.07L623.064 244.063L621.386 246.654C621.673 248.477 621.913 250.253 622.105 251.956L624.359 250.853L622.273 253.468C622.848 258.938 622.992 263.065 622.992 263.065C631.937 248.669 627.788 239.36 622.848 234.106L627.117 227.724L624.119 235.113C625.864 236.264 627.472 237.608 628.915 239.12L631.769 233.89L629.779 240.056C630.306 240.632 630.81 241.232 631.313 241.855L633.568 238.064L631.937 242.695C632.68 243.631 633.352 244.639 634.023 245.646L638.076 240.368L635.294 247.566C637.449 251.276 639.325 255.141 640.905 259.13L643.903 250.829L641.817 261.506C642.824 264.193 643.615 266.616 644.215 268.488L646.205 261.29L644.742 270.335C645.126 271.727 645.318 272.542 645.318 272.542C652.512 249.269 646.876 233.842 639.635 226.956L642.033 212.008L643.399 227.484C645.296 227.845 647.17 228.317 649.011 228.899L649.802 224.101L650.33 229.427C651.696 229.883 652.919 230.387 654.07 230.891V221.102C654.07 221.102 654.694 225.9 655.341 231.466C657.38 232.415 659.337 233.53 661.193 234.801C659.682 212.92 641.097 197.708 627.261 205.434ZM594.384 227.7L593.785 221.485L596.446 225.372C595.703 226.096 595.013 226.874 594.384 227.7ZM598.892 223.333L598.461 220.262L599.588 222.805L598.892 223.333ZM602.825 218.27C602.322 217.958 601.794 217.623 601.242 217.335L607.909 203.635C607.909 203.635 605.151 211.384 602.825 218.27ZM625.27 223.885C625.75 217.743 626.134 211.888 626.134 211.888L626.637 223.309L625.27 223.885ZM632.153 222.805L632.656 216.231L633.136 223.045C632.814 222.942 632.486 222.862 632.153 222.805Z" fill="#407BFF"/>
<g opacity="0.7">
<path opacity="0.7" d="M536.472 278.301L530.621 266.304C530.621 266.304 533.019 273.142 535.082 279.188C535.537 278.853 535.993 278.565 536.472 278.301Z" fill="white"/>
<path opacity="0.7" d="M514.627 273.598L514.171 283.603L515.394 284.059C514.962 278.661 514.627 273.598 514.627 273.598Z" fill="white"/>
<path opacity="0.7" d="M540.669 285.355C541.333 285.99 541.942 286.681 542.491 287.418L543.019 281.948L540.669 285.355Z" fill="white"/>
<path opacity="0.7" d="M538.535 283.555L538.918 280.868L537.911 283.099L538.535 283.555Z" fill="white"/>
<path opacity="0.7" d="M607.933 203.611L601.266 217.311C601.794 217.623 602.322 217.935 602.825 218.27C605.151 211.385 607.933 203.611 607.933 203.611Z" fill="white"/>
<path opacity="0.7" d="M508.919 277.317L508.464 283.315L509.327 283.099L508.919 277.317Z" fill="white"/>
<path opacity="0.7" d="M625.27 223.909C625.716 223.716 626.173 223.548 626.637 223.405L626.134 211.984C626.134 211.984 625.75 217.743 625.27 223.909Z" fill="white"/>
<path opacity="0.7" d="M632.153 222.781L633.136 223.045L632.656 216.207L632.153 222.781Z" fill="white"/>
<path opacity="0.7" d="M599.588 222.805L598.461 220.262L598.892 223.309L599.588 222.805Z" fill="white"/>
<path opacity="0.7" d="M593.785 221.51L594.384 227.724C595.011 226.874 595.7 226.072 596.446 225.324L593.785 221.51Z" fill="white"/>
<path d="M506.306 303.373V305.988L506.905 304.933L506.306 303.373ZM573.306 306.732C570.908 285.139 561.867 277.125 547.815 275.805C544.705 275.527 541.575 276.021 538.703 277.245L540.405 276.237L537.24 267.432L541.532 275.637C543.079 274.874 544.682 274.233 546.328 273.718L543.019 260.858L549.518 272.854C551.172 272.489 552.845 272.216 554.529 272.038L553.474 267.864L555.752 271.943C556.999 271.943 558.15 271.943 559.253 271.943L555.872 264.121C556.136 264.529 558.27 268.032 560.5 271.967C562.473 272.027 564.437 272.244 566.375 272.614C557.887 255.483 537.599 249.725 529.135 260.762C524.027 267.432 524.339 277.293 525.13 283.195L524.962 283.339C524.962 283.003 524.722 282.667 524.578 282.307C524.147 274.39 522.18 249.677 514.986 246.918C511.126 245.43 508.248 248.07 506.234 251.405V259.898L507.361 255.1L506.665 260.426C507.694 260.645 508.687 261.008 509.615 261.506L511.317 254.476L510.574 262.057L511.701 262.849L513.691 256.203L512.349 263.401C514.302 265.104 516.005 267.075 517.408 269.255V259.658L519.423 272.494L520.382 274.318C518.608 271.729 516.282 269.565 513.572 267.984C511.333 266.734 508.796 266.121 506.234 266.208V300.926L507.936 303.157C508.536 302.27 509.135 301.406 509.759 300.566L508.344 296.511L510.334 299.846C510.766 299.294 511.221 298.767 511.677 298.239L509.903 292.84L512.42 297.447C513.683 296.108 515.099 294.924 516.641 293.92L513.979 287.37L517.744 293.032C513.332 297.663 509.759 305.773 517.624 318.465C517.624 318.465 517.744 314.818 518.272 309.995L516.425 307.716L518.415 308.676C518.583 307.188 518.799 305.629 519.039 304.021L517.576 301.742L519.279 302.629L519.567 301.046L517.576 296.511L520.19 298.191C520.382 297.447 520.574 296.727 520.789 296.007L521.533 300.014L521.965 298.599L523.571 293.56L527.288 298.239L528.295 293.56H528.487L532.396 296.391C531.983 293.464 531.276 290.587 530.286 287.802H530.693C531.578 288.433 532.427 289.114 533.235 289.841L534.362 288.114V291.089C535.05 291.793 535.721 292.512 536.376 293.248L538.151 288.282L537.719 294.88C538.655 296.055 539.542 297.279 540.357 298.503L540.957 293.704L541.34 300.038C542.204 301.43 543.019 302.773 543.738 304.045L544.122 295.216L545.057 306.54C546.784 309.923 547.743 312.323 547.743 312.323C547.743 312.323 549.206 297.927 543.235 288.738C544.461 289.03 545.67 289.39 546.856 289.817C548.491 290.38 550.092 291.037 551.652 291.785L553.402 286.05L552.851 292.384C554.361 293.128 555.848 293.968 557.263 294.784L557.982 289.793L558.294 295.408C560.045 296.487 561.699 297.615 563.234 298.695L562.467 289.793L564.457 299.606C566.04 300.758 567.455 301.862 568.678 302.869L568.39 296.655L570.524 304.405C572.299 305.773 573.21 306.732 573.21 306.732H573.306ZM508.56 283.339L509.015 277.341L509.423 283.099L508.56 283.339ZM514.267 283.627L514.723 273.598C514.723 273.598 515.058 278.685 515.49 284.059L514.267 283.627ZM535.082 279.092C535.082 278.709 534.818 278.325 534.698 277.917L533.978 275.877C533.187 273.478 532.396 271.271 531.772 269.519L531.485 268.703C531.419 268.467 531.339 268.234 531.245 268.008C531.245 267.768 531.101 267.576 531.029 267.384L530.645 266.304L536.472 278.301C535.993 278.565 535.537 278.852 535.082 279.092ZM538.535 283.531C538.337 283.366 538.129 283.214 537.911 283.075L538.918 280.844L538.535 283.531ZM542.491 287.37C541.936 286.638 541.327 285.948 540.669 285.307L543.067 281.9L542.491 287.37Z" fill="url(#paint0_linear)"/>
<path d="M627.261 205.434C624.176 207.227 621.53 209.686 619.515 212.632C619.875 211.936 620.21 211.216 620.57 210.569L622.968 195.933V206.778C624.581 204.308 626.525 202.071 628.747 200.132L627.213 191.998L629.491 199.556C629.922 199.22 630.354 198.932 630.762 198.668L629.922 190.007L631.841 198.044C632.891 197.463 634.023 197.042 635.198 196.797L634.431 190.727L635.821 196.677C636.369 196.594 636.922 196.554 637.476 196.557L636.301 191.998L638.483 196.629C638.917 196.684 639.344 196.788 639.754 196.941C639.754 196.941 635.486 177.746 625.726 181.417C617.549 184.56 615.318 212.608 614.791 221.725L614.359 222.901L614.167 222.733C615.079 216.015 615.438 204.786 609.611 197.181C600.019 184.584 576.879 191.158 567.191 210.665C569.406 210.243 571.651 210.002 573.905 209.945C576.495 205.458 578.869 201.475 579.157 200.995L575.296 209.921C576.543 209.921 577.886 209.921 579.301 210.065L581.89 205.41L580.691 210.209C582.609 210.417 584.515 210.729 586.399 211.144L593.808 197.493L590.044 212.128C591.912 212.743 593.739 213.481 595.511 214.336L600.307 204.978L596.806 215.031L598.748 216.159C595.482 214.771 591.924 214.211 588.389 214.527C572.346 216.015 562.011 225.132 559.325 249.773C559.325 249.773 560.476 248.669 562.491 246.942L564.889 238.112L564.553 245.19C565.944 244.063 567.55 242.791 569.349 241.472L571.747 230.291L570.86 240.44C572.61 239.192 574.505 237.921 576.495 236.697L576.831 230.291L577.646 236.001C579.277 235.017 580.955 234.082 582.682 233.218L582.058 226.02L584.049 232.57C585.808 231.729 587.609 230.976 589.444 230.315C590.883 229.811 592.25 229.427 593.569 229.091C586.782 239.672 588.461 255.963 588.461 255.963C588.461 255.963 589.516 253.228 591.506 249.365L592.585 236.457L593.017 246.534C593.808 245.07 594.72 243.535 595.703 241.975L596.158 234.777L596.806 240.296C597.765 238.904 598.772 237.513 599.827 236.169L599.348 228.659L601.362 234.322C602.106 233.458 602.873 232.618 603.76 231.922V228.755L605.055 230.699C605.96 229.845 606.913 229.044 607.909 228.299H608.412C607.291 231.409 606.488 234.625 606.014 237.897C606.008 237.976 606.008 238.057 606.014 238.136L610.81 234.753L611.937 240.08L615.055 236.169L616.158 234.777L618.556 242.167L619.395 237.609C619.635 238.4 619.851 239.24 620.067 240.008L623.064 238.089L620.786 243.271C620.786 243.871 621.002 244.471 621.122 245.07L623.064 244.063L621.385 246.654C621.673 248.477 621.913 250.253 622.105 251.956L624.359 250.853L622.273 253.468C622.848 258.938 622.992 263.065 622.992 263.065C631.937 248.669 627.788 239.36 622.848 234.106L627.117 227.724L624.119 235.113C625.863 236.264 627.472 237.608 628.915 239.12L631.769 233.89L629.778 240.056C630.306 240.632 630.81 241.232 631.313 241.855L633.567 238.064L631.937 242.695C632.68 243.631 633.351 244.639 634.023 245.646L638.076 240.368L635.294 247.566C637.449 251.276 639.324 255.141 640.905 259.13L643.903 250.829L641.816 261.506C642.824 264.193 643.615 266.616 644.214 268.488L646.205 261.29L644.742 270.335C645.126 271.727 645.318 272.542 645.318 272.542C652.512 249.269 646.876 233.842 639.634 226.956L642.032 212.008L643.399 227.484C645.296 227.845 647.169 228.317 649.01 228.899L649.802 224.101L650.329 229.427C651.696 229.883 652.919 230.387 654.07 230.891V221.102C654.07 221.102 654.694 225.9 655.341 231.466C657.38 232.415 659.337 233.53 661.192 234.801C659.682 212.92 641.097 197.708 627.261 205.434ZM594.384 227.7L593.784 221.485L596.446 225.372C595.702 226.096 595.013 226.874 594.384 227.7ZM598.892 223.333L598.461 220.262L599.588 222.805L598.892 223.333ZM602.825 218.27C602.321 217.958 601.794 217.623 601.242 217.335L607.909 203.635C607.909 203.635 605.151 211.384 602.825 218.27ZM625.27 223.885C625.75 217.743 626.134 211.888 626.134 211.888L626.637 223.309L625.27 223.885ZM632.152 222.805L632.656 216.231L633.136 223.045C632.814 222.942 632.485 222.862 632.152 222.805Z" fill="url(#paint1_linear)"/>
</g>
<path d="M855.718 454.241V485.792H513.74L516.473 480.993C520.691 480.735 524.814 479.633 528.599 477.754C532.384 475.875 535.754 473.256 538.511 470.052C540.765 467.485 542.923 464.87 545.297 462.399C545.425 462.276 545.538 462.14 545.633 461.991C546.403 461.493 547.204 461.044 548.031 460.647L549.206 460.215L550.117 459.855L552.036 459.111C553.786 458.416 555.465 457.672 557.095 456.88C561.114 454.975 564.761 452.367 567.862 449.178C570.26 446.611 572.227 443.636 574.769 441.141C574.769 441.141 575.344 440.973 575.56 440.781L577.502 440.517H578.294H580.692C582.154 440.517 583.617 440.709 585.08 440.829C590.811 449.202 598.029 460.647 601.243 462.159C606.158 464.558 651.72 476.554 655.054 475.811C658.387 475.067 676.012 476.53 680.424 476.362C684.837 476.194 692.822 474.227 704.404 468.901C715.987 463.574 722.317 463.55 736.25 459.111C750.182 454.673 759.534 452.969 767.688 459.807C768.389 460.406 769.205 460.855 770.086 461.127C770.926 461.392 771.796 461.553 772.675 461.607C782.723 462.255 799.365 451.89 805.192 450.162C812.195 448.099 825.551 436.27 834.664 441.789C841.786 446.059 847.949 448.603 855.718 454.241Z" fill="#407BFF"/>
<path opacity="0.7" d="M855.718 454.241V485.792H513.74L516.473 480.993C520.691 480.735 524.814 479.633 528.599 477.754C532.384 475.875 535.754 473.256 538.511 470.052C540.765 467.485 542.923 464.87 545.297 462.399C545.425 462.276 545.538 462.14 545.633 461.991C546.403 461.493 547.204 461.044 548.031 460.647L549.206 460.215L550.117 459.855L552.036 459.111C553.786 458.416 555.465 457.672 557.095 456.88C561.114 454.975 564.761 452.367 567.862 449.178C570.26 446.611 572.227 443.636 574.769 441.141C574.769 441.141 575.344 440.973 575.56 440.781L577.502 440.517H578.294H580.692C582.154 440.517 583.617 440.709 585.08 440.829C590.811 449.202 598.029 460.647 601.243 462.159C606.158 464.558 651.72 476.554 655.054 475.811C658.387 475.067 676.012 476.53 680.424 476.362C684.837 476.194 692.822 474.227 704.404 468.901C715.987 463.574 722.317 463.55 736.25 459.111C750.182 454.673 759.534 452.969 767.688 459.807C768.389 460.406 769.205 460.855 770.086 461.127C770.926 461.392 771.796 461.553 772.675 461.607C782.723 462.255 799.365 451.89 805.192 450.162C812.195 448.099 825.551 436.27 834.664 441.789C841.786 446.059 847.949 448.603 855.718 454.241Z" fill="white"/>
<path opacity="0.8" d="M689.393 233.338C689.393 231.614 690.078 229.96 691.296 228.74C692.515 227.521 694.168 226.836 695.892 226.836C696.524 226.838 697.154 226.927 697.762 227.1C697.476 225.147 697.614 223.155 698.166 221.26C698.719 219.366 699.672 217.612 700.962 216.119C702.252 214.625 703.848 213.427 705.642 212.606C707.436 211.785 709.386 211.36 711.359 211.361C712.212 211.356 713.063 211.436 713.901 211.601C715.223 209.308 717.267 207.518 719.712 206.509C722.158 205.499 724.869 205.328 727.422 206.021C729.975 206.713 732.228 208.232 733.829 210.339C735.43 212.446 736.29 215.024 736.274 217.671C737.771 217.601 739.266 217.836 740.669 218.361C742.073 218.886 743.355 219.69 744.439 220.725C745.523 221.76 746.385 223.005 746.975 224.383C747.564 225.761 747.868 227.244 747.868 228.743C747.868 230.243 747.564 231.726 746.975 233.104C746.385 234.482 745.523 235.727 744.439 236.762C743.355 237.797 742.073 238.601 740.669 239.126C739.266 239.651 737.771 239.886 736.274 239.816H695.508C693.854 239.724 692.298 239.001 691.161 237.796C690.023 236.591 689.391 234.996 689.393 233.338Z" fill="white"/>
<path opacity="0.8" d="M774.426 283.243C774.426 281.519 775.111 279.865 776.329 278.646C777.548 277.426 779.201 276.741 780.925 276.741C781.557 276.743 782.187 276.832 782.795 277.005C782.509 275.052 782.647 273.061 783.199 271.166C783.752 269.271 784.705 267.517 785.995 266.024C787.285 264.53 788.881 263.333 790.675 262.512C792.469 261.691 794.419 261.266 796.392 261.266C797.245 261.261 798.096 261.342 798.934 261.506C800.277 259.26 802.317 257.516 804.743 256.539C807.169 255.561 809.848 255.405 812.372 256.092C814.895 256.78 817.125 258.274 818.721 260.347C820.317 262.421 821.191 264.959 821.211 267.576H821.403C822.899 267.506 824.395 267.741 825.798 268.266C827.201 268.791 828.484 269.595 829.568 270.63C830.651 271.665 831.514 272.91 832.104 274.288C832.693 275.666 832.997 277.15 832.997 278.649C832.997 280.148 832.693 281.631 832.104 283.009C831.514 284.388 830.651 285.632 829.568 286.667C828.484 287.702 827.201 288.506 825.798 289.031C824.395 289.556 822.899 289.791 821.403 289.721H780.637C778.966 289.653 777.386 288.941 776.228 287.733C775.07 286.526 774.425 284.917 774.426 283.243Z" fill="white"/>
<path opacity="0.7" d="M808.813 416.548C808.813 416.548 802.866 405.847 786.728 396.562C777.124 396.218 767.566 398.047 758.767 401.912C758.767 401.912 755.77 406.927 759.175 408.894C762.58 410.862 765.434 406.903 765.434 406.903C765.434 406.903 766.057 412.925 770.517 413.117C771.806 413.129 773.065 412.724 774.106 411.963C775.147 411.203 775.915 410.126 776.297 408.894C776.453 410.493 777.086 412.009 778.111 413.244C779.137 414.48 780.51 415.38 782.052 415.828C783.427 416.141 784.864 416.052 786.19 415.571C787.517 415.091 788.677 414.239 789.534 413.117C789.828 414.435 790.445 415.659 791.328 416.681C792.211 417.702 793.333 418.489 794.593 418.971C795.603 419.242 796.668 419.216 797.663 418.897C798.658 418.578 799.541 417.979 800.205 417.172C800.205 417.172 801.164 421.971 804.689 421.971C807.71 422.091 808.813 416.548 808.813 416.548Z" fill="white"/>
<path d="M698.505 303.301C698.505 303.301 698.961 329.238 722.198 331.445" stroke="#263238" stroke-width="0.5" stroke-linecap="round" stroke-linejoin="round"/>
<path d="M730.279 361.484C724.677 364.324 718.845 366.684 712.845 368.538L711.383 357.022L710.256 348.048C710.256 348.048 731.837 346.921 736.202 336.22C740.566 325.519 723.684 316.234 712.366 311.507C707.09 309.276 703.062 308.028 703.062 308.028V294.376C703.062 294.376 705.987 295.432 710.423 297.279C723.037 302.51 747.88 314.074 752.796 325.831C758.048 338.403 749.631 351.599 730.279 361.484Z" fill="#EBB376"/>
<path opacity="0.2" d="M712.294 311.483C707.018 309.252 702.99 308.004 702.99 308.004V294.352C702.99 294.352 705.915 295.408 710.352 297.255C711.713 301.873 712.368 306.67 712.294 311.483Z" fill="black"/>
<path opacity="0.2" d="M730.279 361.484C724.677 364.324 718.845 366.683 712.845 368.538L711.382 357.021C716.058 356.949 724.284 357.501 730.279 361.484Z" fill="black"/>
<path d="M638.867 257.259C648.606 248.521 660.605 242.701 673.494 240.464C695.796 236.193 711.742 257.259 710.184 276.094C708.625 294.928 699.153 306.925 697.954 312.851C696.755 318.777 703.205 334.996 710.184 340.874C710.184 340.874 650.234 355.63 636.061 348.072C621.889 340.515 630.882 324.703 626.469 305.341C622.057 285.979 621.793 262.73 638.867 257.259Z" fill="#263238"/>
<path d="M731.262 485.767L724.308 471.804L650.354 467.005C648.651 473.627 647.188 479.817 645.941 485.695L731.262 485.767Z" fill="#263238"/>
<path d="M650.401 472.02L647.931 482.769L725.099 479.002L723.828 466.477L650.401 472.02Z" fill="black"/>
<path d="M675.533 485.744L675.101 468.205L671.48 468.277L671.888 485.744H675.533Z" fill="#263238"/>
<path d="M706.863 468.553L690.827 469.546L691.575 481.639L707.611 480.646L706.863 468.553Z" fill="white"/>
<path d="M719.959 464.573L716.315 464.659L716.749 483.08L720.393 482.994L719.959 464.573Z" fill="#263238"/>
<path d="M724.619 471.948L649.274 472.236C650.063 464.613 649.878 456.922 648.723 449.346C646.918 438.06 644.118 426.956 640.354 416.164C630.929 387.373 620.57 363.955 642.368 356.014C662.991 348.48 710.159 348.048 710.159 348.048C710.159 348.048 718.816 370.29 721.406 385.621C727.857 423.194 724.619 471.948 724.619 471.948Z" fill="#EBB376"/>
<path d="M681.935 343.657C681.848 348.251 682.462 352.83 683.757 357.237L655.629 353.471C659.945 349.008 659.993 339.075 659.082 330.917C658.65 326.958 658.003 323.359 657.475 320.864C657.044 318.753 656.708 317.433 656.708 317.433L667.739 319.832L685.772 323.599C683.257 329.988 681.955 336.791 681.935 343.657Z" fill="#EBB376"/>
<path opacity="0.2" d="M685.772 323.503C683.245 329.922 681.944 336.759 681.935 343.657C673.035 342.28 664.925 337.751 659.082 330.893C658.651 326.934 658.003 323.335 657.476 320.84C661.097 320.384 664.502 320.024 667.739 319.736L685.772 323.503Z" fill="black"/>
<path d="M668.53 257.499C690.904 255.1 699.44 266.16 703.661 289.05C708.961 317.649 704.86 338.835 676.204 335.812C637.284 331.877 631.385 261.77 668.53 257.499Z" fill="#EBB376"/>
<path d="M689.057 289.506C691.222 292.654 693.758 295.53 696.611 298.071C696.064 299.072 695.249 299.9 694.258 300.464C693.267 301.028 692.139 301.304 690.999 301.262L689.057 289.506Z" fill="#D58745"/>
<path d="M675.173 289.218C675.413 291.065 674.621 292.673 673.398 292.841C672.175 293.009 671 291.665 670.736 289.817C670.473 287.97 671.288 286.363 672.511 286.195C673.734 286.027 674.909 287.394 675.173 289.218Z" fill="#263238"/>
<path d="M672.007 286.29L675.772 284.179C675.772 284.179 674.261 287.874 672.007 286.29Z" fill="#263238"/>
<path d="M697.906 285.739C698.145 287.562 697.354 289.194 696.131 289.362C694.908 289.529 693.733 288.186 693.469 286.338C693.206 284.491 694.021 282.883 695.244 282.715C696.467 282.548 697.642 283.891 697.906 285.739Z" fill="#263238"/>
<path d="M694.74 282.883L698.505 280.772C698.505 280.772 696.995 284.395 694.74 282.883Z" fill="#263238"/>
<path d="M673.206 273.79C673.206 273.79 666.827 273.79 663.878 278.277" stroke="#263238" stroke-width="0.72" stroke-linecap="round" stroke-linejoin="round"/>
<path d="M689.369 271.031C690.851 270.469 692.441 270.25 694.019 270.391C695.597 270.532 697.123 271.03 698.481 271.846" stroke="#263238" stroke-width="0.72" stroke-linecap="round" stroke-linejoin="round"/>
<path d="M648.315 298.071C648.315 298.071 656.708 278.517 653.519 264.481C653.519 264.481 695.82 241.376 703.062 286.075C703.062 286.075 702.918 245.599 664.358 249.029C625.798 252.46 632.273 308.748 654.023 323.264C654.023 323.36 643.136 310.283 648.315 298.071Z" fill="#263238"/>
<path d="M652.488 302.39C651.983 299.825 650.483 297.565 648.317 296.103C646.151 294.642 643.495 294.099 640.929 294.592C634.071 296.128 632.368 310.739 649.994 312.227C652.535 312.443 653.663 309.875 652.488 302.39Z" fill="#EBB376"/>
<path d="M685.46 312.683C683.306 312.374 681.264 311.529 679.521 310.225C677.778 308.922 676.39 307.201 675.484 305.221" stroke="#263238" stroke-width="0.5" stroke-linecap="round" stroke-linejoin="round"/>
<path d="M633.543 395.098C633.543 395.098 694.644 380.031 720.231 379.407C728.149 409.607 729.644 441.133 724.62 471.948L649.274 472.236C649.274 472.236 648.507 443.012 633.543 395.098Z" fill="#454545"/>
<path d="M653.519 264.481C653.519 264.481 694.285 250.493 705.651 282.02" stroke="#263238" stroke-width="0.5" stroke-linecap="round" stroke-linejoin="round"/>
<path d="M638.723 259.155C642.8 253.9 655.005 236.601 679.489 237.081C703.973 237.561 705.555 259.155 705.555 259.155" stroke="#263238" stroke-width="0.5" stroke-linecap="round" stroke-linejoin="round"/>
<path d="M627.812 294.352C627.824 304.738 626.469 315.079 623.784 325.111C619.275 342.434 624.719 349.8 632.56 351.215" stroke="#263238" stroke-width="0.5" stroke-linecap="round" stroke-linejoin="round"/>
<path d="M652.943 353.159C652.943 353.159 663.686 373.984 696.611 391.547C696.611 391.547 693.997 360.356 684.021 349.2" stroke="#263238" stroke-width="0.5" stroke-linecap="round" stroke-linejoin="round"/>
<path d="M696.611 391.235C696.611 391.235 703.949 399.297 699.345 400.329C694.741 401.36 696.611 391.235 696.611 391.235Z" fill="#263238"/>
<path opacity="0.2" d="M645.558 384.661C645.558 384.661 656.517 407.095 639.251 420.195L632.057 392.195C632.057 392.195 639.107 382.094 645.558 384.661Z" fill="black"/>
<path d="M603.616 485.768H621.002C624.839 478.57 637.98 453.209 638.723 445.412C639.587 436.27 645.725 383.246 645.725 383.246L642.464 356.014C642.464 356.014 629.947 360.477 625.678 370.817C618.484 388.068 619.515 427.969 619.515 437.998C619.515 446.587 606.95 477.634 603.616 485.768Z" fill="#EBB376"/>
<path d="M599.348 484.424C599.348 484.424 599.804 483.152 600.595 481.065" stroke="#407BFF" stroke-width="0.5" stroke-linecap="round" stroke-linejoin="round"/>
<path d="M602.273 476.386C606.902 463.694 615.343 440.253 615.271 438.861C615.151 436.966 613.16 398.673 615.271 386.989C616.744 377.08 621.088 367.821 627.764 360.357" stroke="#407BFF" stroke-width="0.5" stroke-linecap="round" stroke-linejoin="round" stroke-dasharray="3.1 2.07"/>
<path d="M629.467 358.533C630.282 357.693 631.121 356.854 632.033 356.014C630.864 355.751 629.718 355.398 628.604 354.958" stroke="#407BFF" stroke-width="0.5" stroke-linecap="round" stroke-linejoin="round"/>
<path d="M624.215 352.751C622.531 351.763 621.06 350.451 619.887 348.89C618.714 347.329 617.862 345.55 617.381 343.658C615.151 333.82 622.8 310.955 622.177 304.669C621.554 298.383 614.383 277.701 620.882 264.841C623.29 259.664 627.577 255.598 632.872 253.468" stroke="#407BFF" stroke-width="0.5" stroke-linecap="round" stroke-linejoin="round" stroke-dasharray="3.08 2.06"/>
<path d="M635.174 252.701C636.333 252.394 637.524 252.225 638.723 252.197C638.723 252.197 639.539 251.141 641.121 249.485" stroke="#407BFF" stroke-width="0.5" stroke-linecap="round" stroke-linejoin="round"/>
<path d="M644.334 246.174C652.152 238.808 667.427 227.724 685.772 231.635C710.136 236.817 717.33 267.168 712.15 287.226" stroke="#407BFF" stroke-width="0.5" stroke-linecap="round" stroke-linejoin="round" stroke-dasharray="2.91 1.94"/>
<path d="M711.598 289.482C711.215 290.657 710.807 291.881 710.351 292.865C710.351 292.865 711.622 293.224 713.78 293.944" stroke="#407BFF" stroke-width="0.5" stroke-linecap="round" stroke-linejoin="round"/>
<path d="M718.385 295.6C731.406 300.398 756.01 311.819 759.031 328.446C762.556 347.64 753.372 357.406 730.639 367.914" stroke="#407BFF" stroke-width="0.5" stroke-linecap="round" stroke-linejoin="round" stroke-dasharray="3.07 2.04"/>
<path d="M728.384 368.922L725.099 370.386C725.099 370.386 725.387 371.633 725.89 373.888" stroke="#407BFF" stroke-width="0.5" stroke-linecap="round" stroke-linejoin="round"/>
<path d="M726.826 378.495C730.351 396.298 737.305 439.701 728.696 470.196L733.492 480.345" stroke="#407BFF" stroke-width="0.5" stroke-linecap="round" stroke-linejoin="round" stroke-dasharray="2.95 1.96"/>
<path d="M734.427 482.481L735.962 485.744" stroke="#407BFF" stroke-width="0.5" stroke-linecap="round" stroke-linejoin="round"/>
<path opacity="0.3" d="M441.655 150.898H412.951V546.422H441.655V150.898Z" fill="white"/>
<path opacity="0.3" d="M1044.2 104.304H412.951V147.492H1044.2V104.304Z" fill="white"/>
<path opacity="0.3" d="M1044.2 162.895H910.249V272.255H1044.2V162.895Z" fill="white"/>
<path opacity="0.2" d="M1040.51 166.374H913.558V253.564H1040.51V166.374Z" fill="black"/>
<path d="M1016.72 168.269H922.982V251.645H1016.72V168.269Z" fill="white"/>
<path d="M997.728 230.171L994.035 247.014L993.339 246.702L997.248 230.075L997.728 230.171Z" fill="#407BFF"/>
<path opacity="0.6" d="M997.728 230.171L994.035 247.014L993.339 246.702L997.248 230.075L997.728 230.171Z" fill="white"/>
<path d="M994.395 198.476C1000.3 198.476 1005.09 193.685 1005.09 187.775C1005.09 181.866 1000.3 177.075 994.395 177.075C988.488 177.075 983.7 181.866 983.7 187.775C983.7 193.685 988.488 198.476 994.395 198.476Z" fill="#407BFF"/>
<path opacity="0.9" d="M994.395 198.476C1000.3 198.476 1005.09 193.685 1005.09 187.775C1005.09 181.866 1000.3 177.075 994.395 177.075C988.488 177.075 983.7 181.866 983.7 187.775C983.7 193.685 988.488 198.476 994.395 198.476Z" fill="white"/>
<path d="M972.093 183.961C972.093 183.5 972.274 183.058 972.597 182.731C972.92 182.403 973.359 182.215 973.82 182.209C973.986 182.182 974.156 182.182 974.323 182.209C974.311 182.033 974.311 181.857 974.323 181.681C974.32 181.197 974.413 180.717 974.595 180.269C974.778 179.821 975.048 179.413 975.389 179.07C975.73 178.727 976.136 178.454 976.582 178.268C977.029 178.082 977.508 177.986 977.992 177.986C978.223 177.963 978.456 177.963 978.687 177.986C978.969 177.512 979.37 177.119 979.849 176.846C980.328 176.572 980.87 176.428 981.421 176.427C982.272 176.427 983.088 176.761 983.693 177.358C984.299 177.956 984.646 178.767 984.658 179.618C985.447 179.618 986.203 179.931 986.761 180.489C987.319 181.047 987.632 181.804 987.632 182.593C987.632 183.382 987.319 184.139 986.761 184.697C986.203 185.255 985.447 185.568 984.658 185.568H973.676C973.263 185.535 972.876 185.354 972.586 185.059C972.295 184.764 972.12 184.374 972.093 183.961Z" fill="#407BFF"/>
<path d="M994.898 197.349C994.898 196.888 995.079 196.446 995.402 196.119C995.725 195.791 996.164 195.604 996.625 195.597C996.791 195.57 996.961 195.57 997.128 195.597C997.068 195.076 997.117 194.549 997.271 194.047C997.425 193.546 997.682 193.083 998.025 192.686C998.367 192.289 998.788 191.967 999.261 191.742C999.734 191.516 1000.25 191.391 1000.77 191.374C1001 191.35 1001.24 191.35 1001.47 191.374C1001.83 190.772 1002.38 190.304 1003.03 190.042C1003.68 189.78 1004.4 189.738 1005.07 189.923C1005.75 190.108 1006.35 190.51 1006.77 191.066C1007.2 191.623 1007.44 192.304 1007.44 193.006C1007.85 192.969 1008.27 193.018 1008.66 193.15C1009.05 193.282 1009.41 193.494 1009.71 193.773C1010.02 194.052 1010.26 194.391 1010.43 194.769C1010.59 195.147 1010.68 195.556 1010.68 195.969C1010.68 196.382 1010.59 196.791 1010.43 197.169C1010.26 197.547 1010.02 197.886 1009.71 198.165C1009.41 198.444 1009.05 198.656 1008.66 198.788C1008.27 198.92 1007.85 198.969 1007.44 198.932H996.529C996.111 198.91 995.716 198.738 995.416 198.447C995.116 198.156 994.932 197.765 994.898 197.349Z" fill="#407BFF"/>
<path d="M1004.13 233.098C1002.62 230.85 1000.58 229.011 998.183 227.748C995.612 227.647 993.052 228.14 990.702 229.187C990.702 229.187 989.886 230.531 990.702 231.059C991.517 231.586 992.38 230.507 992.38 230.507C992.38 230.507 992.548 232.138 993.747 232.186C994.094 232.192 994.433 232.085 994.714 231.882C994.995 231.678 995.202 231.39 995.306 231.059C995.344 231.486 995.511 231.892 995.785 232.222C996.059 232.552 996.427 232.791 996.841 232.906C997.21 232.993 997.597 232.972 997.954 232.844C998.311 232.716 998.624 232.488 998.855 232.186C998.931 232.538 999.094 232.864 999.329 233.137C999.563 233.409 999.862 233.618 1000.2 233.746C1000.47 233.823 1000.76 233.818 1001.03 233.733C1001.29 233.648 1001.53 233.485 1001.71 233.266C1001.71 233.266 1001.97 234.586 1002.91 234.586C1003.84 234.586 1004.13 233.098 1004.13 233.098Z" fill="#407BFF"/>
<path d="M935.02 247.902C933.592 231.593 930.817 215.431 926.723 199.58L928.138 198.524C928.138 198.524 934.205 208.41 940.32 246.678L935.02 247.902Z" fill="#407BFF"/>
<g opacity="0.5">
<path opacity="0.5" d="M935.02 247.902C933.592 231.593 930.817 215.431 926.723 199.58L928.138 198.524C928.138 198.524 934.205 208.41 940.32 246.678L935.02 247.902Z" fill="#8BC16D"/>
</g>
<path d="M942.502 244.327C941.701 223.882 945.012 203.485 952.238 184.344L950.823 183.049C950.823 183.049 937.801 205.458 936.626 244.759L942.502 244.327Z" fill="#407BFF"/>
<g opacity="0.6">
<path opacity="0.6" d="M942.502 244.327C941.701 223.882 945.012 203.485 952.238 184.344L950.823 183.049C950.823 183.049 937.801 205.458 936.626 244.759L942.502 244.327Z" fill="#8BC16D"/>
</g>
<path d="M922.982 202.747V203.443L923.126 203.155L922.982 202.747ZM940.943 203.635C940.296 197.853 937.874 195.693 934.109 195.357C933.29 195.277 932.464 195.409 931.711 195.741L932.167 195.453L931.351 193.054L932.502 195.261C932.913 195.055 933.337 194.879 933.773 194.733L932.886 191.302L934.636 194.494L935.979 194.278L935.692 193.174L936.315 194.254H937.25L936.339 192.142L937.586 194.254C938.117 194.276 938.645 194.332 939.169 194.422C936.891 189.839 931.447 188.279 929.169 191.254C928.07 193.056 927.685 195.205 928.09 197.277C928.09 197.277 928.09 197.109 928.09 197.013C927.97 194.877 927.442 188.255 925.5 187.416C924.469 187.008 923.702 187.728 923.102 188.615V191.015L923.39 189.743L923.198 191.159C923.473 191.219 923.739 191.316 923.989 191.446L924.445 189.575L924.253 191.59L924.565 191.806L925.092 190.031L924.733 191.95C925.257 192.406 925.716 192.931 926.1 193.51V190.967L926.627 194.398L926.891 194.901C926.419 194.204 925.796 193.622 925.068 193.198C924.472 192.854 923.79 192.688 923.102 192.718V202.051L923.558 202.651L924.037 201.955L923.654 200.876L924.181 201.763L924.541 201.332L924.085 199.892L924.757 201.14C925.091 200.774 925.47 200.452 925.884 200.18L925.164 198.428L926.172 199.94C924.997 201.188 924.037 203.371 926.172 206.778C926.172 206.778 926.172 205.794 926.339 204.379L925.86 203.755L926.387 204.019C926.387 203.611 926.387 203.203 926.555 202.771L926.148 202.171L926.627 202.411V201.979L926.076 200.756L926.795 201.212L926.939 200.636L927.155 201.691L927.275 201.308L927.706 199.964L928.689 201.212L928.953 199.964L929.984 200.732C929.895 199.913 929.71 199.108 929.433 198.332L930.128 198.884L930.416 198.428V199.172L930.968 199.748L931.447 198.428L931.327 200.204C931.591 200.516 931.807 200.828 932.047 201.164L932.191 199.868L932.31 201.571L932.934 202.627V200.228L933.198 203.251C933.653 204.163 933.917 204.81 933.917 204.81C934.121 202.626 933.697 200.428 932.694 198.476L933.677 198.764L934.948 199.292L935.428 197.757L935.26 199.46C935.668 199.652 936.075 199.892 936.459 200.108L936.651 198.764V200.276C937.13 200.564 937.562 200.876 937.994 201.164L937.778 198.764L938.305 201.403C938.737 201.715 939.121 202.003 939.456 202.291V200.612L940.032 202.699L940.943 203.635ZM923.558 197.373V195.765V197.301V197.373ZM925.092 197.373L925.212 194.685C925.212 194.685 925.212 196.053 925.404 197.493L925.092 197.373ZM930.68 196.173C930.69 196.069 930.69 195.965 930.68 195.861L930.488 195.309L929.888 193.606V193.39C929.888 193.39 929.888 193.246 929.888 193.198V193.03C929.881 192.934 929.881 192.838 929.888 192.742L931.447 195.957L930.68 196.173ZM931.615 197.373L931.447 197.229L931.711 196.653L931.615 197.373ZM932.67 198.38C932.526 198.188 932.358 198.021 932.191 197.829L932.814 196.917L932.67 198.38Z" fill="#407BFF"/>
<path d="M955.427 176.475C954.592 176.944 953.878 177.601 953.341 178.394L953.628 177.842L954.228 173.932V176.835C954.67 176.179 955.194 175.582 955.787 175.059L955.379 172.876L955.978 174.891L956.338 174.651L956.098 172.252L956.626 174.411C956.905 174.259 957.203 174.146 957.513 174.075L957.321 172.444L957.681 174.051H958.137L957.825 172.828L958.4 174.051H958.736C958.736 174.051 957.609 168.869 954.971 169.877C952.789 170.74 952.19 178.274 952.046 180.698C952.046 180.698 952.046 180.913 951.926 181.009C952.386 178.657 951.95 176.218 950.703 174.171C948.113 170.788 941.926 172.54 939.312 177.77C939.907 177.665 940.508 177.601 941.111 177.578L942.526 175.179L941.495 177.578C941.854 177.556 942.214 177.556 942.574 177.578L943.269 176.331L942.933 177.602C943.449 177.651 943.962 177.731 944.468 177.842L946.458 174.195L945.451 178.106C945.951 178.275 946.44 178.476 946.914 178.706L948.233 176.187L947.274 178.898L947.801 179.186C946.923 178.819 945.968 178.67 945.02 178.754C940.727 179.162 937.969 181.609 937.226 188.207L938.089 187.44L938.737 185.04V186.936C939.097 186.624 939.528 186.288 940.008 185.928L940.631 182.929L940.391 185.664L941.902 184.656V182.929L942.118 184.464C942.55 184.2 943.005 183.961 943.485 183.721L943.317 181.777L943.845 183.529C944.324 183.313 944.804 183.097 945.283 182.929L946.386 182.617C945.251 184.836 944.776 187.334 945.02 189.815C945.02 189.815 945.307 189.071 945.835 188.039L946.123 184.584L946.243 187.296C946.45 186.896 946.69 186.488 946.962 186.072L947.082 184.128L947.274 185.616C947.513 185.232 947.801 184.848 948.065 184.488L947.945 182.473L948.497 184.009C948.684 183.773 948.884 183.549 949.096 183.337V182.473L949.456 183.001L950.223 182.377H950.343C950.056 183.211 949.847 184.071 949.72 184.944L950.967 184.033L951.278 185.448L952.118 184.416L952.405 184.057L953.029 186.024L953.269 184.824C953.269 185.016 953.269 185.256 953.437 185.472L954.252 184.968L953.628 186.36C953.628 186.504 953.628 186.672 953.628 186.84L954.156 186.576L953.7 187.248C953.7 187.751 953.844 188.231 953.892 188.687L954.492 188.375L953.94 189.095C954.084 190.559 954.132 191.662 954.132 191.662C956.53 187.799 955.451 185.304 954.132 183.889L955.283 182.185L954.468 184.176C954.943 184.481 955.378 184.843 955.763 185.256L956.53 183.841L956.002 185.496C956.146 185.64 956.266 185.808 956.41 185.976L957.01 184.968L956.578 186.192L957.129 186.984L958.233 185.568L957.465 187.535C958.055 188.523 958.561 189.558 958.976 190.631L959.791 188.399L959.216 191.278C959.504 191.998 959.695 192.646 959.863 193.15L960.391 191.206L960.007 193.606L960.151 194.205C962.093 187.967 960.559 183.817 958.616 181.945L959.288 178.322L959.647 182.473C960.158 182.573 960.662 182.701 961.158 182.857L961.35 181.537L961.494 182.977C961.878 182.977 962.189 183.241 962.501 183.361V180.721C962.501 180.721 962.669 182.017 962.837 183.505C963.389 183.755 963.918 184.052 964.419 184.392C964.084 178.49 959.12 174.411 955.427 176.475ZM946.602 182.449L946.434 180.769L947.154 181.825C946.957 182.022 946.773 182.23 946.602 182.449ZM947.801 181.273V180.458L948.113 181.129L947.801 181.273ZM948.856 179.906L948.449 179.666L950.223 175.995C950.223 175.995 949.48 178.058 948.856 179.906ZM954.875 181.417C955.019 179.786 955.115 178.226 955.115 178.226L955.259 181.297L954.875 181.417ZM956.722 181.129L956.866 179.378L956.986 181.201L956.722 181.129Z" fill="#407BFF"/>
<g opacity="0.7">
<path opacity="0.7" d="M931.063 196.029L929.48 192.79C929.48 192.79 930.152 194.613 930.68 196.245L931.063 196.029Z" fill="white"/>
<path opacity="0.7" d="M925.212 194.757L925.092 197.444L925.404 197.564C925.284 196.125 925.212 194.757 925.212 194.757Z" fill="white"/>
<path opacity="0.7" d="M932.19 197.901C932.363 198.081 932.523 198.274 932.67 198.476L932.814 196.989L932.19 197.901Z" fill="white"/>
<path opacity="0.7" d="M931.615 197.517V196.797L931.351 197.397L931.615 197.517Z" fill="white"/>
<path opacity="0.7" d="M950.223 175.923L948.449 179.594L948.857 179.858C949.48 178.082 950.223 175.923 950.223 175.923Z" fill="white"/>
<path opacity="0.7" d="M923.677 195.765V197.373H923.893L923.677 195.765Z" fill="white"/>
<path opacity="0.7" d="M954.875 181.417H955.259L955.115 178.346C955.115 178.346 955.019 179.786 954.875 181.417Z" fill="white"/>
<path opacity="0.7" d="M956.722 181.129H956.986L956.866 179.282L956.722 181.129Z" fill="white"/>
<path opacity="0.7" d="M947.993 181.129L947.706 180.458V181.273L947.993 181.129Z" fill="white"/>
<path opacity="0.7" d="M946.435 180.722L946.602 182.401C946.773 182.182 946.958 181.974 947.154 181.777L946.435 180.722Z" fill="white"/>
<path opacity="0.7" d="M922.982 202.747V203.443L923.126 203.155L922.982 202.747ZM940.943 203.635C940.296 197.853 937.874 195.693 934.109 195.357C933.29 195.277 932.464 195.409 931.711 195.741L932.167 195.453L931.351 193.054L932.502 195.261C932.913 195.055 933.337 194.879 933.773 194.733L932.886 191.302L934.636 194.494L935.979 194.278L935.692 193.174L936.315 194.254H937.25L936.339 192.142L937.586 194.254C938.117 194.276 938.645 194.332 939.169 194.422C936.891 189.839 931.447 188.279 929.169 191.254C928.07 193.056 927.685 195.205 928.09 197.277C928.09 197.277 928.09 197.109 928.09 197.013C927.97 194.877 927.442 188.255 925.5 187.416C924.469 187.008 923.702 187.727 923.102 188.615V191.015L923.39 189.743L923.198 191.159C923.473 191.219 923.739 191.316 923.989 191.446L924.445 189.575L924.253 191.59L924.565 191.806L925.092 190.031L924.733 191.95C925.257 192.406 925.716 192.931 926.1 193.51V190.967L926.627 194.398L926.891 194.901C926.419 194.204 925.796 193.622 925.068 193.198C924.472 192.854 923.79 192.688 923.102 192.718V202.051L923.558 202.651L924.037 201.955L923.654 200.876L924.181 201.763L924.541 201.331L924.085 199.892L924.757 201.14C925.091 200.774 925.47 200.452 925.884 200.18L925.164 198.428L926.172 199.94C924.997 201.188 924.037 203.371 926.172 206.778C926.172 206.778 926.172 205.794 926.339 204.379L925.86 203.755L926.387 204.019C926.387 203.611 926.387 203.203 926.555 202.771L926.148 202.171L926.627 202.411V201.979L926.076 200.756L926.795 201.212L926.939 200.636L927.155 201.691L927.275 201.308L927.706 199.964L928.689 201.212L928.953 199.964L929.984 200.732C929.895 199.913 929.71 199.108 929.433 198.332L930.128 198.884L930.416 198.428V199.172L930.968 199.748L931.447 198.428L931.327 200.204C931.591 200.516 931.807 200.828 932.047 201.164L932.191 199.868L932.31 201.571L932.934 202.627V200.228L933.198 203.251C933.653 204.163 933.917 204.81 933.917 204.81C934.121 202.626 933.697 200.428 932.694 198.476L933.677 198.764L934.948 199.292L935.428 197.757L935.26 199.46C935.668 199.652 936.075 199.892 936.459 200.108L936.651 198.764V200.276C937.13 200.564 937.562 200.876 937.994 201.164L937.778 198.764L938.305 201.403C938.737 201.715 939.121 202.003 939.456 202.291V200.612L940.032 202.699L940.943 203.635ZM923.558 197.373V195.765V197.301V197.373ZM925.092 197.373L925.212 194.685C925.212 194.685 925.212 196.053 925.404 197.493L925.092 197.373ZM930.68 196.173C930.69 196.069 930.69 195.965 930.68 195.861L930.488 195.309L929.888 193.606V193.39C929.888 193.39 929.888 193.246 929.888 193.198V193.03C929.881 192.934 929.881 192.838 929.888 192.742L931.447 195.957L930.68 196.173ZM931.615 197.373L931.447 197.229L931.711 196.653L931.615 197.373ZM932.67 198.38C932.526 198.188 932.358 198.02 932.191 197.829L932.814 196.917L932.67 198.38Z" fill="#8BC16D"/>
<path opacity="0.7" d="M955.427 176.475C954.592 176.944 953.878 177.601 953.341 178.394L953.628 177.842L954.228 173.932V176.835C954.67 176.179 955.194 175.582 955.787 175.059L955.379 172.876L955.978 174.891L956.338 174.651L956.098 172.252L956.626 174.411C956.905 174.259 957.203 174.146 957.513 174.075L957.321 172.444L957.681 174.051H958.137L957.825 172.828L958.4 174.051H958.736C958.736 174.051 957.609 168.869 954.971 169.877C952.789 170.74 952.19 178.274 952.046 180.698C952.046 180.698 952.046 180.913 951.926 181.009C952.386 178.657 951.95 176.218 950.703 174.171C948.113 170.788 941.926 172.54 939.312 177.77C939.907 177.665 940.508 177.601 941.111 177.578L942.526 175.179L941.495 177.578C941.854 177.556 942.214 177.556 942.574 177.578L943.269 176.331L942.933 177.602C943.449 177.651 943.962 177.731 944.468 177.842L946.458 174.195L945.451 178.106C945.951 178.275 946.44 178.476 946.914 178.706L948.233 176.187L947.274 178.898L947.801 179.186C946.923 178.819 945.968 178.67 945.02 178.754C940.727 179.162 937.969 181.609 937.226 188.207L938.089 187.44L938.737 185.04V186.936C939.097 186.624 939.528 186.288 940.008 185.928L940.631 182.929L940.391 185.664L941.902 184.656V182.929L942.118 184.464C942.55 184.2 943.005 183.961 943.485 183.721L943.317 181.777L943.845 183.529C944.324 183.313 944.804 183.097 945.283 182.929L946.386 182.617C945.251 184.836 944.776 187.334 945.02 189.815C945.02 189.815 945.307 189.071 945.835 188.039L946.123 184.584L946.243 187.296C946.45 186.896 946.69 186.488 946.962 186.072L947.082 184.128L947.274 185.616C947.513 185.232 947.801 184.848 948.065 184.488L947.945 182.473L948.497 184.009C948.684 183.773 948.884 183.549 949.096 183.337V182.473L949.456 183.001L950.223 182.377H950.343C950.056 183.211 949.847 184.071 949.72 184.944L950.967 184.033L951.278 185.448L952.118 184.416L952.405 184.057L953.029 186.024L953.269 184.824C953.269 185.016 953.269 185.256 953.437 185.472L954.252 184.968L953.628 186.36C953.628 186.504 953.628 186.672 953.628 186.84L954.156 186.576L953.7 187.248C953.7 187.751 953.844 188.231 953.892 188.687L954.492 188.375L953.94 189.095C954.084 190.559 954.132 191.662 954.132 191.662C956.53 187.799 955.451 185.304 954.132 183.889L955.283 182.185L954.468 184.176C954.943 184.481 955.378 184.843 955.763 185.256L956.53 183.841L956.002 185.496C956.146 185.64 956.266 185.808 956.41 185.976L957.01 184.968L956.578 186.192L957.129 186.984L958.233 185.568L957.465 187.535C958.055 188.523 958.561 189.558 958.976 190.631L959.791 188.399L959.216 191.278C959.504 191.998 959.695 192.646 959.863 193.15L960.391 191.206L960.007 193.606L960.151 194.205C962.093 187.967 960.559 183.817 958.616 181.945L959.288 178.322L959.647 182.473C960.158 182.573 960.662 182.701 961.158 182.857L961.35 181.537L961.494 182.977C961.878 182.977 962.189 183.241 962.501 183.361V180.721C962.501 180.721 962.669 182.017 962.837 183.505C963.389 183.755 963.918 184.052 964.419 184.392C964.084 178.49 959.12 174.411 955.427 176.475ZM946.602 182.449L946.434 180.769L947.154 181.825C946.957 182.022 946.773 182.23 946.602 182.449ZM947.801 181.273V180.458L948.113 181.129L947.801 181.273ZM948.856 179.906L948.449 179.666L950.223 175.995C950.223 175.995 949.48 178.058 948.856 179.906ZM954.875 181.417C955.019 179.786 955.115 178.226 955.115 178.226L955.259 181.297L954.875 181.417ZM956.722 181.129L956.866 179.378L956.986 181.201L956.722 181.129Z" fill="#8BC16D"/>
</g>
<path d="M1016.7 243.103V251.573H924.973L925.692 250.301C926.826 250.231 927.935 249.934 928.953 249.427C929.97 248.92 930.876 248.213 931.615 247.35C932.215 246.678 932.79 245.958 933.438 245.31V245.19L934.109 244.831H934.421H934.661L935.188 244.639L936.531 244.039C937.612 243.527 938.594 242.829 939.433 241.975C940.104 241.28 940.608 240.488 941.303 239.816C941.303 239.816 941.447 239.816 941.519 239.816H942.022H942.862H944.037C945.238 241.902 946.696 243.828 948.377 245.55C953.083 247.098 957.891 248.316 962.765 249.197C963.652 249.005 968.376 249.389 969.575 249.365C971.813 249.081 973.981 248.399 975.978 247.35C978.768 246.282 981.628 245.408 984.539 244.735C988.28 243.535 990.774 243.079 992.956 244.927C993.15 245.076 993.369 245.189 993.603 245.262C993.829 245.336 994.062 245.384 994.299 245.406C997.008 245.574 1001.49 242.791 1003.03 242.335C1004.56 241.879 1008.49 238.592 1010.94 240.08C1012.96 241.016 1014.61 241.711 1016.7 243.103Z" fill="#407BFF"/>
<path opacity="0.7" d="M1016.7 243.103V251.573H924.973L925.692 250.301C926.826 250.231 927.935 249.934 928.953 249.427C929.97 248.92 930.876 248.213 931.615 247.35C932.215 246.678 932.79 245.958 933.438 245.31V245.19L934.109 244.831H934.421H934.661L935.188 244.639L936.531 244.039C937.612 243.527 938.594 242.829 939.433 241.975C940.104 241.28 940.608 240.488 941.303 239.816C941.303 239.816 941.447 239.816 941.519 239.816H942.022H942.862H944.037C945.238 241.902 946.696 243.828 948.377 245.55C953.083 247.098 957.891 248.316 962.765 249.197C963.652 249.005 968.376 249.389 969.575 249.365C971.813 249.081 973.981 248.399 975.978 247.35C978.768 246.282 981.628 245.408 984.539 244.735C988.28 243.535 990.774 243.079 992.956 244.927C993.15 245.076 993.369 245.189 993.603 245.262C993.829 245.336 994.062 245.384 994.299 245.406C997.008 245.574 1001.49 242.791 1003.03 242.335C1004.56 241.879 1008.49 238.592 1010.94 240.08C1012.96 241.016 1014.61 241.711 1016.7 243.103Z" fill="white"/>
<path opacity="0.8" d="M972.093 183.961C972.093 183.5 972.274 183.058 972.597 182.731C972.92 182.403 973.359 182.215 973.82 182.209C973.986 182.182 974.156 182.182 974.323 182.209C974.311 182.033 974.311 181.857 974.323 181.681C974.32 181.197 974.413 180.717 974.595 180.269C974.778 179.821 975.048 179.413 975.389 179.07C975.73 178.727 976.136 178.454 976.582 178.268C977.029 178.082 977.508 177.986 977.992 177.986C978.223 177.963 978.456 177.963 978.687 177.986C978.969 177.512 979.37 177.119 979.849 176.846C980.328 176.572 980.87 176.428 981.421 176.427C982.272 176.427 983.088 176.761 983.693 177.358C984.299 177.956 984.646 178.767 984.658 179.618C985.447 179.618 986.203 179.931 986.761 180.489C987.319 181.047 987.632 181.804 987.632 182.593C987.632 183.382 987.319 184.139 986.761 184.697C986.203 185.255 985.447 185.568 984.658 185.568H973.676C973.263 185.535 972.876 185.354 972.586 185.059C972.295 184.764 972.12 184.374 972.093 183.961Z" fill="white"/>
<path opacity="0.8" d="M994.898 197.349C994.898 196.888 995.079 196.446 995.402 196.119C995.725 195.791 996.164 195.604 996.625 195.597C996.791 195.57 996.961 195.57 997.128 195.597C997.068 195.076 997.117 194.549 997.271 194.047C997.425 193.546 997.682 193.083 998.025 192.686C998.367 192.289 998.788 191.967 999.261 191.742C999.734 191.516 1000.25 191.391 1000.77 191.374C1001 191.35 1001.24 191.35 1001.47 191.374C1001.83 190.772 1002.38 190.304 1003.03 190.042C1003.68 189.78 1004.4 189.738 1005.07 189.923C1005.75 190.108 1006.35 190.51 1006.77 191.066C1007.2 191.623 1007.44 192.304 1007.44 193.006C1007.85 192.969 1008.27 193.018 1008.66 193.15C1009.05 193.282 1009.41 193.494 1009.71 193.773C1010.02 194.052 1010.26 194.391 1010.43 194.769C1010.59 195.147 1010.68 195.556 1010.68 195.969C1010.68 196.382 1010.59 196.791 1010.43 197.169C1010.26 197.547 1010.02 197.886 1009.71 198.165C1009.41 198.444 1009.05 198.656 1008.66 198.788C1008.27 198.92 1007.85 198.969 1007.44 198.932H996.529C996.111 198.91 995.716 198.738 995.416 198.447C995.116 198.156 994.932 197.765 994.898 197.349Z" fill="white"/>
<path opacity="0.7" d="M1004.13 233.098C1002.62 230.85 1000.58 229.011 998.183 227.748C995.612 227.647 993.052 228.14 990.702 229.187C990.702 229.187 989.886 230.531 990.702 231.059C991.517 231.586 992.38 230.507 992.38 230.507C992.38 230.507 992.548 232.138 993.747 232.186C994.094 232.192 994.433 232.085 994.714 231.882C994.995 231.678 995.202 231.39 995.306 231.059C995.344 231.486 995.511 231.892 995.785 232.222C996.059 232.552 996.427 232.791 996.841 232.906C997.21 232.993 997.597 232.972 997.954 232.844C998.311 232.716 998.624 232.488 998.855 232.186C998.931 232.538 999.094 232.864 999.329 233.137C999.563 233.409 999.862 233.618 1000.2 233.746C1000.47 233.823 1000.76 233.818 1001.03 233.733C1001.29 233.648 1001.53 233.485 1001.71 233.266C1001.71 233.266 1001.97 234.586 1002.91 234.586C1003.84 234.586 1004.13 233.098 1004.13 233.098Z" fill="white"/>
<path opacity="0.2" d="M1016.72 168.269H922.982V251.645H1016.72V168.269Z" fill="#8BC16D"/>
<path d="M983.052 218.342C981.509 219.1 979.904 219.726 978.256 220.214L977.872 217.143L977.561 214.743C977.561 214.743 983.316 214.456 984.515 211.576C985.714 208.697 981.158 206.226 978.136 204.954C976.721 204.355 975.618 204.019 975.618 204.019V200.348C975.618 200.348 976.41 200.636 977.609 201.139C980.99 202.531 987.656 205.626 988.975 208.793C990.294 211.96 988.232 215.679 983.052 218.342Z" fill="#EBB376"/>
<path opacity="0.2" d="M978.256 204.931C976.841 204.331 975.738 203.995 975.738 203.995V200.324C975.738 200.324 976.529 200.612 977.728 201.116C978.091 202.354 978.269 203.64 978.256 204.931Z" fill="black"/>
<path opacity="0.2" d="M983.052 218.342C981.509 219.1 979.904 219.726 978.256 220.214L977.872 217.143C979.679 217.027 981.48 217.444 983.052 218.342Z" fill="black"/>
<path d="M958.544 190.319C961.154 187.974 964.37 186.411 967.825 185.808C973.796 184.656 978.088 190.295 977.656 195.405C977.225 200.516 974.707 203.683 974.371 205.266C974.507 208.095 975.676 210.776 977.656 212.8C977.656 212.8 961.614 216.735 957.777 214.719C953.94 212.704 956.386 208.457 955.163 203.275C953.94 198.092 953.94 191.83 958.544 190.319Z" fill="#263238"/>
<path d="M983.268 251.669L981.398 247.926L961.566 246.654C961.111 248.43 960.703 250.085 960.367 251.669H983.268Z" fill="#263238"/>
<path d="M961.638 247.974L960.967 250.853L981.661 249.845L981.325 246.486L961.638 247.974Z" fill="black"/>
<path d="M968.376 251.669L968.256 246.966L967.273 246.99L967.393 251.669H968.376Z" fill="#263238"/>
<path d="M976.77 247.034L972.462 247.301L972.664 250.558L976.972 250.291L976.77 247.034Z" fill="white"/>
<path d="M980.27 245.996L979.288 246.019L979.404 250.96L980.387 250.937L980.27 245.996Z" fill="#263238"/>
<path d="M981.517 247.902H961.326C961.53 245.856 961.482 243.793 961.182 241.76C960.7 238.733 959.954 235.755 958.952 232.858C956.434 225.109 953.652 218.846 959.504 216.735C965.355 214.624 977.681 214.576 977.681 214.576C978.955 217.849 979.965 221.218 980.702 224.653C981.732 232.357 982.005 240.144 981.517 247.902Z" fill="#EBB376"/>
<path d="M970.079 213.544C970.058 214.778 970.228 216.008 970.582 217.191L963.029 216.183C964.095 214.359 964.421 212.195 963.94 210.137C963.94 209.057 963.652 208.098 963.532 207.426C963.412 206.754 963.316 206.514 963.316 206.514L966.266 207.138L971.062 208.146C970.4 209.868 970.066 211.699 970.079 213.544Z" fill="#EBB376"/>
<path opacity="0.2" d="M971.11 208.145C970.432 209.864 970.082 211.696 970.079 213.544C967.693 213.175 965.516 211.967 963.94 210.137C963.94 209.057 963.652 208.098 963.532 207.426L966.266 207.138L971.11 208.145Z" fill="black"/>
<path d="M966.482 190.463C972.477 189.791 974.779 192.862 975.906 198.932C977.321 206.61 976.242 212.296 968.544 211.481C958.113 210.377 956.53 191.59 966.482 190.463Z" fill="#EBB376"/>
<path d="M961.062 201.332C962.29 198.493 962.769 195.387 962.453 192.31C962.453 192.31 973.82 186.12 975.762 198.14C975.762 198.14 975.762 187.272 965.355 188.207C954.947 189.143 956.77 204.211 962.597 208.122C962.597 208.122 959.671 204.715 961.062 201.332Z" fill="#263238"/>
<path d="M962.19 202.483C962.051 201.794 961.645 201.188 961.061 200.797C960.477 200.406 959.762 200.262 959.072 200.396C957.25 200.804 956.674 204.715 961.47 205.194C962.19 205.17 962.501 204.499 962.19 202.483Z" fill="#EBB376"/>
<path d="M957.105 227.34C957.105 227.34 973.484 223.309 980.342 223.141C982.475 231.244 982.875 239.706 981.517 247.974H961.326C960.776 240.948 959.358 234.017 957.105 227.34Z" fill="#454545"/>
<path d="M962.31 216.111C965.174 220.568 969.227 224.133 974.012 226.404C974.012 226.404 973.316 218.007 970.655 215.031" stroke="#263238" stroke-width="0.25" stroke-linecap="round" stroke-linejoin="round"/>
<path d="M974.012 226.308C974.012 226.308 975.978 228.467 974.755 228.707C973.532 228.947 974.012 226.308 974.012 226.308Z" fill="#263238"/>
<path opacity="0.2" d="M960.319 224.557C960.319 224.557 963.269 230.579 958.64 234.154L956.698 226.644C956.698 226.644 958.592 223.909 960.319 224.557Z" fill="black"/>
<path d="M949.073 251.669H953.725C955.697 248.24 957.304 244.613 958.521 240.848C958.736 238.449 960.391 224.173 960.391 224.173L959.528 216.975C957.585 217.688 955.978 219.099 955.02 220.934C953.101 225.564 953.365 236.265 953.365 238.952C953.341 241.16 949.96 249.485 949.073 251.669Z" fill="#EBB376"/>
<path opacity="0.2" d="M1008.59 260.714H913.558V264.025H1008.59V260.714Z" fill="black"/>
<path opacity="0.2" d="M1040.53 257.979H1012.07V267.48H1040.53V257.979Z" fill="black"/>
<path d="M969.839 260.714H957.921V264.025H969.839V260.714Z" fill="white"/>
<path opacity="0.3" d="M1044.2 287.658H910.249V397.018H1044.2V287.658Z" fill="white"/>
<path opacity="0.2" d="M1002.67 292.744H913.558V355.438H1002.67V292.744Z" fill="black"/>
<path opacity="0.5" d="M913.558 349.464C913.558 349.824 916.22 350.352 916.508 350.304C918.45 350.016 918.906 348.168 920.057 346.561C920.216 346.325 920.41 346.115 920.632 345.937C920.879 345.779 921.166 345.695 921.46 345.695C921.753 345.695 922.04 345.779 922.287 345.937C922.763 346.297 923.155 346.755 923.438 347.281C925.212 343.082 926.651 338.475 928.809 334.468C930.584 331.205 932.358 329.67 933.006 325.615C933.485 322.76 934.445 316.354 935.404 315.874C936.363 315.394 937.802 329.886 939.433 329.886C941.063 329.886 941.831 340.323 943.485 341.042C945.14 341.762 945.14 337.467 946.794 337.467C948.449 337.467 950.343 341.282 951.303 340.323C952.262 339.363 953.701 331.541 956.29 331.541C959.72 331.541 961.086 317.289 962.957 314.746C963.388 314.986 963.365 315.61 963.341 316.114C963.317 316.618 963.484 317.265 963.988 317.313C964.372 316.354 964.779 315.394 965.187 314.434C965.762 313.067 968.304 302.438 970.606 305.197C970.936 305.673 971.165 306.212 971.278 306.781L976.074 325.015C976.218 325.615 976.53 326.335 977.129 326.383L978.04 323.983C978.064 323.884 978.114 323.793 978.184 323.72C978.4 323.48 978.832 323.72 978.975 323.935C979.091 324.233 979.132 324.554 979.095 324.871C979.095 327.151 979.839 327.414 980.99 325.927C981.048 325.861 981.12 325.807 981.201 325.771C981.282 325.735 981.369 325.716 981.457 325.716C981.546 325.716 981.633 325.735 981.714 325.771C981.795 325.807 981.867 325.861 981.925 325.927C982.14 326.214 982.273 326.554 982.309 326.911C983.605 331.513 985.34 335.98 987.488 340.251C987.541 340.451 987.659 340.628 987.824 340.755C988.376 341.114 988.927 340.395 989.167 339.795C990.126 337.396 991.181 334.996 992.308 332.597C992.697 332.633 993.088 332.566 993.442 332.401C993.796 332.237 994.1 331.981 994.323 331.661C994.779 331.016 995.113 330.292 995.306 329.526C995.713 328.254 996.241 322.808 998.064 323.456C998.807 323.72 999.67 326.383 999.67 327.127H1002.67V355.342H913.558V349.464Z" fill="white"/>
<path opacity="0.2" d="M1002.64 385.093H914.805V388.404H1002.64V385.093Z" fill="black"/>
<path d="M971.062 385.093H959.144V388.404H971.062V385.093Z" fill="white"/>
<path opacity="0.2" d="M1002.64 368.298H914.805V371.609H1002.64V368.298Z" fill="black"/>
<path d="M947.082 368.298H935.164V371.609H947.082V368.298Z" fill="white"/>
<path opacity="0.2" d="M1036.26 300.014H1012.55C1011.24 300.014 1010.17 301.078 1010.17 302.39V308.076C1010.17 309.388 1011.24 310.451 1012.55 310.451H1036.26C1037.57 310.451 1038.64 309.388 1038.64 308.076V302.39C1038.64 301.078 1037.57 300.014 1036.26 300.014Z" fill="black"/>
<path opacity="0.2" d="M1036.26 317.433H1012.55C1011.24 317.433 1010.17 318.497 1010.17 319.808V325.495C1010.17 326.807 1011.24 327.87 1012.55 327.87H1036.26C1037.57 327.87 1038.64 326.807 1038.64 325.495V319.808C1038.64 318.497 1037.57 317.433 1036.26 317.433Z" fill="black"/>
<path opacity="0.2" d="M1036.26 334.828H1012.55C1011.24 334.828 1010.17 335.892 1010.17 337.203V342.89C1010.17 344.201 1011.24 345.265 1012.55 345.265H1036.26C1037.57 345.265 1038.64 344.201 1038.64 342.89V337.203C1038.64 335.892 1037.57 334.828 1036.26 334.828Z" fill="black"/>
<path opacity="0.2" d="M1047.41 552.564H410.553V569.263H1047.41V552.564Z" fill="black"/>
<path d="M1044.2 151.69H910.249V162.895H1044.2V151.69Z" fill="#454545"/>
<path d="M1043.94 276.453H909.985V287.658H1043.94V276.453Z" fill="#454545"/>
<path opacity="0.3" d="M1044.2 412.421H910.249V548.437H1044.2V412.421Z" fill="white"/>
<path opacity="0.3" d="M1039.88 417.292H913.558V444.812H1039.88V417.292Z" fill="white"/>
<path opacity="0.2" d="M943.437 420.147H917.514V441.98H943.437V420.147Z" fill="black"/>
<path opacity="0.3" d="M1040.12 447.979H913.798V475.499H1040.12V447.979Z" fill="white"/>
<path opacity="0.2" d="M943.677 450.834H917.755V472.667H943.677V450.834Z" fill="black"/>
<path opacity="0.3" d="M1040.36 478.665H914.038V506.185H1040.36V478.665Z" fill="white"/>
<path opacity="0.2" d="M943.893 481.521H917.97V503.355H943.893V481.521Z" fill="black"/>
<path opacity="0.3" d="M1040.58 509.376H914.253V536.896H1040.58V509.376Z" fill="white"/>
<path opacity="0.2" d="M944.132 512.208H918.21V534.041H944.132V512.208Z" fill="black"/>
<path d="M1043.94 401.217H909.985V412.421H1043.94V401.217Z" fill="#454545"/>
<path opacity="0.3" d="M436.452 155.961H416.428V175.995H436.452V155.961Z" fill="white"/>
<path opacity="0.3" d="M436.452 180.362H416.428V200.396H436.452V180.362Z" fill="white"/>
<path opacity="0.3" d="M436.452 204.762H416.428V224.797H436.452V204.762Z" fill="white"/>
<path opacity="0.3" d="M436.452 229.163H416.428V249.197H436.452V229.163Z" fill="white"/>
<path opacity="0.3" d="M436.452 253.564H416.428V273.598H436.452V253.564Z" fill="white"/>
<path opacity="0.3" d="M436.452 277.965H416.428V297.999H436.452V277.965Z" fill="white"/>
<path opacity="0.3" d="M436.452 302.366H416.428V322.4H436.452V302.366Z" fill="white"/>
<path opacity="0.3" d="M436.452 326.767H416.428V346.801H436.452V326.767Z" fill="white"/>
<path opacity="0.3" d="M436.452 351.167H416.428V371.201H436.452V351.167Z" fill="white"/>
<path opacity="0.3" d="M436.452 375.568H416.428V395.602H436.452V375.568Z" fill="white"/>
<path opacity="0.3" d="M436.452 399.969H416.428V420.003H436.452V399.969Z" fill="white"/>
<path d="M235.02 659.884L234.157 697.241L230.224 866.223H217.251L213.342 697.241L212.479 659.884H235.02Z" fill="#263238"/>
<path opacity="0.4" d="M235.02 659.884L234.157 697.241L230.224 866.223H217.251L213.342 697.241L212.479 659.884H235.02Z" fill="white"/>
<path opacity="0.2" d="M235.02 659.884L234.157 698.273H213.342L212.479 659.884H235.02Z" fill="black"/>
<path d="M305.473 865.623L293.483 662.523H273.892L290.654 865.623H305.473Z" fill="#263238"/>
<path opacity="0.5" d="M290.63 865.623H305.449L294.562 680.758L293.483 662.283H273.892L275.402 680.758L290.63 865.623Z" fill="white"/>
<path opacity="0.2" d="M273.892 662.283L275.402 681.478H294.562L293.483 662.283H273.892Z" fill="black"/>
<path d="M156.821 865.623L173.583 662.523H153.992L142.002 865.623H156.821Z" fill="#263238"/>
<path opacity="0.5" d="M156.845 865.623L172.073 680.758L173.583 662.283H153.992L152.913 680.758L142.026 865.623H156.845Z" fill="white"/>
<path opacity="0.2" d="M173.583 662.283L172.072 681.478H152.912L153.991 662.283H173.583Z" fill="black"/>
<path d="M155.478 641.481H291.972C295.152 641.481 298.202 642.745 300.451 644.995C302.699 647.245 303.962 650.296 303.962 653.478V669.529H143.488V653.478C143.488 650.296 144.752 647.245 147 644.995C149.249 642.745 152.298 641.481 155.478 641.481Z" fill="#3B3B3B"/>
<path d="M306.84 655.517H140.635C137.973 655.517 135.815 657.677 135.815 660.34V664.707C135.815 667.37 137.973 669.529 140.635 669.529H306.84C309.502 669.529 311.66 667.37 311.66 664.707V660.34C311.66 657.677 309.502 655.517 306.84 655.517Z" fill="#263238"/>
<path opacity="0.6" d="M306.84 655.517H140.635C137.973 655.517 135.815 657.677 135.815 660.34V664.707C135.815 667.37 137.973 669.529 140.635 669.529H306.84C309.502 669.529 311.66 667.37 311.66 664.707V660.34C311.66 657.677 309.502 655.517 306.84 655.517Z" fill="white"/>
<path d="M323.195 451.553C323.195 451.553 351.539 470.748 357.222 469.524C362.905 468.3 414.942 460.575 414.942 460.575L417.892 475.138C417.892 475.138 369.74 481.353 354.464 484.136C339.189 486.919 312.643 470.34 312.643 470.34L323.195 451.553Z" fill="#EBB376"/>
<path d="M302.236 427.057C311.708 433.223 346.287 463.046 346.287 463.046L329.717 486.535L283.22 463.046L302.236 427.057Z" fill="#83BD62"/>
<path d="M291.709 848.9L310.821 846.261L313.459 800.842L294.395 803.481L291.709 848.9Z" fill="#EBB376"/>
<path opacity="0.2" d="M294.395 803.482L313.459 800.867L311.948 826.827L292.884 828.506L294.395 803.482Z" fill="black"/>
<path d="M292.476 581.811L287.848 540.615L180.753 534.185C180.753 534.185 169.363 606.98 178.116 623.175C193.727 651.966 277.896 637.571 302.548 640.354C287.824 700.6 289.263 818.333 289.263 818.333L324.442 821.02C324.442 821.02 351.491 694.146 356.982 633.876C360.651 593.184 326.959 594.192 292.476 581.811Z" fill="#263238"/>
<path d="M285.114 819.965L327.391 822.748L331.012 804.633L284.563 802.474L285.114 819.965Z" fill="#407BFF"/>
<path d="M335.784 831.937L355.016 833.353L367.054 789.446L347.846 788.078L335.784 831.937Z" fill="#EBB376"/>
<path d="M357.678 834.216C357.678 834.216 357.678 834.216 357.678 834.36H357.846C359.367 835.204 360.975 835.88 362.642 836.376C363.845 836.844 365.18 836.844 366.383 836.376C366.779 836.154 367.105 835.825 367.321 835.425C367.538 835.026 367.636 834.574 367.606 834.12C367.631 833.832 367.583 833.542 367.466 833.278C367.348 833.013 367.165 832.783 366.934 832.609C365.219 831.917 363.313 831.866 361.563 832.465C362.926 831.524 363.912 830.13 364.345 828.53C364.378 828.148 364.28 827.765 364.066 827.447C363.852 827.128 363.536 826.892 363.17 826.778C362.871 826.631 362.543 826.554 362.21 826.554C361.878 826.554 361.549 826.631 361.251 826.778C358.853 828.05 358.014 833.449 357.942 833.737H357.606C357.561 833.813 357.544 833.902 357.557 833.989C357.57 834.077 357.613 834.157 357.678 834.216ZM359.117 833.137L358.685 833.257C359.141 831.505 360.1 828.458 361.491 827.834C361.652 827.757 361.828 827.718 362.007 827.718C362.185 827.718 362.361 827.757 362.522 827.834H362.738C363.337 828.074 363.409 828.41 363.385 828.674C363.217 829.922 361.011 832.105 359.117 833.137ZM359.117 834.12C361.659 833.353 365.184 832.657 366.311 833.473C366.418 833.563 366.502 833.678 366.556 833.807C366.61 833.936 366.633 834.077 366.623 834.216C366.632 834.503 366.569 834.788 366.439 835.044C366.309 835.3 366.116 835.519 365.879 835.68C364.8 836.28 362.33 835.728 359.189 834.12H359.117Z" fill="#407BFF"/>
<path opacity="0.2" d="M347.846 788.078L367.054 789.47L360.172 814.566L341.18 812.239L347.846 788.078Z" fill="black"/>
<path d="M373.577 811.471L339.717 801.514C339.717 801.514 359.932 687.356 380.483 647.768C378.948 647.264 376.91 646.616 374.392 645.872C369.86 644.505 363.841 642.801 356.767 640.834C307.56 627.182 207.827 601.581 207.827 601.581L253.389 561.441C253.389 561.441 434.87 586.73 438.634 634.572C440.385 657.581 373.577 811.471 373.577 811.471Z" fill="#263238"/>
<path d="M335.352 802.258L376.118 813.798L383.432 796.835L338.446 785.031L335.352 802.258Z" fill="#407BFF"/>
<path opacity="0.2" d="M374.344 645.872C369.812 644.505 363.793 642.801 356.719 640.834C358.133 629.221 358.157 615.905 352.57 609.115C341.467 595.583 312.907 587.641 296.649 584.762C283.052 582.363 237.37 577.564 237.37 577.564C237.37 577.564 296.649 571.878 357.27 589.561C387.197 598.342 381.37 627.638 374.344 645.872Z" fill="black"/>
<path opacity="0.2" d="M285.114 819.965L327.391 822.748L331.012 804.633L284.563 802.474L285.114 819.965Z" fill="white"/>
<path opacity="0.2" d="M335.352 802.258L376.118 813.798L383.432 796.835L338.446 785.031L335.352 802.258Z" fill="white"/>
<path d="M356.886 831.385L336.072 825.579C335.728 825.471 335.356 825.501 335.034 825.662C334.712 825.823 334.465 826.103 334.345 826.443L328.614 842.686C328.379 843.561 328.499 844.493 328.948 845.28C329.397 846.067 330.139 846.643 331.012 846.885C338.326 848.804 341.899 849.284 351.083 851.827C356.719 853.387 367.701 856.986 375.735 857.898C383.768 858.809 384.439 850.844 381.13 849.764C373.265 847.125 363.841 838.919 359.764 833.353C359.046 832.399 358.035 831.708 356.886 831.385Z" fill="#263238"/>
<path d="M312.715 846.333H313.123C313.123 846.333 313.554 846.453 313.602 846.501C313.598 846.549 313.598 846.597 313.602 846.645C313.629 846.657 313.657 846.664 313.686 846.664C313.715 846.664 313.744 846.657 313.77 846.645C315.405 847.171 317.095 847.509 318.806 847.652C320.076 847.876 321.383 847.619 322.475 846.933C322.8 846.635 323.037 846.254 323.159 845.831C323.282 845.407 323.286 844.959 323.17 844.533C323.129 844.246 323.017 843.973 322.846 843.739C322.675 843.505 322.448 843.316 322.187 843.19C320.352 842.883 318.468 843.231 316.864 844.173C317.997 842.982 318.669 841.425 318.758 839.783C318.682 839.395 318.481 839.042 318.187 838.778C317.893 838.514 317.521 838.353 317.128 838.319C316.752 838.251 316.367 838.26 315.996 838.347C315.625 838.433 315.275 838.596 314.969 838.823C312.979 840.551 312.571 846.021 312.571 846.333H312.715ZM314.777 845.205L314.394 845.421C314.394 843.598 314.801 840.622 316.024 839.543C316.153 839.416 316.308 839.319 316.477 839.257C316.647 839.195 316.828 839.17 317.008 839.183H317.223C317.847 839.303 317.991 839.639 318.015 839.903C317.63 842.044 316.479 843.971 314.777 845.325V845.205ZM315.065 846.165C317.463 844.893 320.677 843.478 321.899 844.054C322.03 844.109 322.143 844.198 322.228 844.312C322.312 844.426 322.364 844.56 322.379 844.701C322.451 844.98 322.449 845.273 322.373 845.55C322.298 845.828 322.151 846.081 321.947 846.285C320.988 847.101 318.47 847.053 315.065 846.165Z" fill="#407BFF"/>
<path d="M312.26 843.982L290.678 842.638C290.499 842.615 290.318 842.628 290.145 842.676C289.971 842.724 289.809 842.806 289.669 842.918C289.528 843.03 289.411 843.169 289.324 843.327C289.238 843.485 289.185 843.659 289.167 843.838L287.057 860.873C287.024 861.322 287.081 861.774 287.224 862.201C287.367 862.629 287.594 863.023 287.89 863.363C288.187 863.702 288.548 863.979 288.952 864.177C289.357 864.376 289.796 864.492 290.246 864.52C297.776 864.856 301.397 864.64 310.893 865.167C316.72 865.503 328.206 866.751 336.264 865.983C344.321 865.215 343.314 857.25 339.837 856.89C331.612 855.93 320.653 849.884 315.545 845.277C314.627 844.487 313.469 844.031 312.26 843.982Z" fill="#263238"/>
<path d="M302.236 427.057C302.236 427.057 286.697 413.165 258.185 407.454C229.673 401.744 204.374 414.388 204.374 414.388C204.374 414.388 185.406 459.975 177.18 539.152L291.014 547.669C291.014 547.669 286.241 494.117 302.236 427.057Z" fill="#407BFF"/>
<path opacity="0.8" d="M291.013 547.573C291.013 547.573 287.297 505.825 297.464 449.826C298.783 442.46 300.366 434.854 302.26 427.057C302.26 427.057 286.745 413.165 258.209 407.454C229.673 401.744 204.398 414.388 204.398 414.388C199.657 426.698 195.7 439.295 192.552 452.105C185.267 480.663 180.137 509.729 177.204 539.056L291.013 547.573Z" fill="white"/>
<path d="M192.528 452.105C199.722 467.941 217.419 468.228 223.702 453.977C228.724 443.176 235.525 433.297 243.821 424.753C243.821 424.753 264.707 441.284 273.748 439.893C276.304 439.51 278.678 438.345 280.546 436.558C282.414 434.771 283.683 432.449 284.179 429.912C296.001 440.781 297.32 449.106 297.416 449.826C298.735 442.46 300.318 434.854 302.212 427.057C302.212 427.057 286.697 413.165 258.161 407.454C229.625 401.744 204.35 414.388 204.35 414.388C199.617 426.698 195.668 439.296 192.528 452.105Z" fill="#8BC16D"/>
<path d="M226.795 446.275C239.696 481.353 237.298 481.209 306.289 460.671C308.465 458.701 310.882 457.016 313.483 455.656C316.312 454.577 340.053 461.127 341.491 463.07C342.93 465.013 336.695 475.738 334.297 476.794C331.899 477.85 309.766 476.794 308.519 476.794C307.272 476.794 305.018 476.794 305.018 476.794C305.018 476.794 260.871 497.308 243.701 497.596C226.531 497.884 207.731 453.977 207.731 453.977L226.795 446.275Z" fill="#EBB376"/>
<path d="M204.374 414.388C192.648 420.411 190.321 450.594 223.726 491.742L245.523 471.923C245.523 471.923 230.464 452.489 229.577 434.302C228.689 416.116 204.374 414.388 204.374 414.388Z" fill="#8BC16D"/>
<path d="M264.684 366.667C261.998 380.103 255.092 403.904 242.886 408.63C244.996 413.946 248.142 418.79 252.139 422.88C256.136 426.97 260.906 430.225 266.17 432.455C281.973 439.413 281.542 424.609 281.542 424.609C269.048 415.564 273.652 405.415 280.055 396.73L264.684 366.667Z" fill="#EBB376"/>
<path opacity="0.2" d="M271.062 378.927L280.151 396.73C278.619 398.723 277.271 400.851 276.122 403.088C271.134 400.137 266.266 391.307 267.993 385.525C268.586 383.15 269.628 380.91 271.062 378.927Z" fill="black"/>
<path d="M293.508 342.386C285.594 346.728 288.136 355.606 303.651 370.625C311.349 362.42 314.154 345.337 309.142 340.466C304.131 335.596 300.414 338.667 293.508 342.386Z" fill="#263238"/>
<path d="M260.199 353.135C259.24 371.393 257.801 381.926 265.834 392.363C277.992 407.935 301.301 402.2 307.703 384.589C313.411 368.778 314.058 341.594 297.152 332.357C293.435 330.307 289.256 329.24 285.012 329.258C280.767 329.276 276.597 330.377 272.897 332.457C269.197 334.538 266.088 337.529 263.866 341.147C261.644 344.766 260.382 348.892 260.199 353.135Z" fill="#EBB376"/>
<path d="M286.697 361.196C286.529 362.684 287.177 363.979 288.136 364.075C289.095 364.171 290.006 363.092 290.174 361.676C290.342 360.26 289.694 358.941 288.735 358.797C287.776 358.653 286.961 359.757 286.697 361.196Z" fill="#263238"/>
<path d="M303.435 363.068C303.267 364.555 303.915 365.851 304.898 365.947C305.881 366.043 306.768 364.963 306.936 363.548C307.104 362.132 306.456 360.788 305.497 360.668C304.538 360.548 303.603 361.676 303.435 363.068Z" fill="#263238"/>
<path d="M297.896 363.211C299.133 367.929 301.021 372.452 303.507 376.647C302.416 377.248 301.208 377.605 299.966 377.692C298.723 377.779 297.477 377.594 296.313 377.151L297.896 363.211Z" fill="#D58745"/>
<path d="M282.716 355.39C282.526 355.397 282.34 355.338 282.189 355.222C282.025 355.056 281.933 354.832 281.933 354.598C281.933 354.365 282.025 354.14 282.189 353.974C283.115 352.944 284.278 352.154 285.577 351.673C286.876 351.192 288.273 351.035 289.647 351.215C289.754 351.23 289.858 351.266 289.951 351.321C290.045 351.376 290.126 351.45 290.191 351.537C290.256 351.624 290.303 351.723 290.328 351.829C290.354 351.934 290.359 352.044 290.342 352.151C290.29 352.371 290.159 352.565 289.973 352.693C289.786 352.822 289.559 352.876 289.335 352.847C288.247 352.728 287.146 352.871 286.125 353.263C285.103 353.655 284.189 354.286 283.46 355.102C283.366 355.203 283.25 355.282 283.121 355.332C282.992 355.381 282.854 355.401 282.716 355.39Z" fill="#263238"/>
<path d="M311.828 358.269C311.663 358.252 311.505 358.19 311.374 358.088C311.242 357.986 311.142 357.849 311.085 357.693C310.748 356.65 310.171 355.701 309.4 354.922C308.63 354.143 307.687 353.555 306.648 353.207C306.538 353.179 306.434 353.129 306.343 353.061C306.252 352.992 306.175 352.907 306.117 352.809C306.059 352.71 306.021 352.602 306.005 352.489C305.989 352.376 305.996 352.261 306.025 352.151C306.082 351.932 306.22 351.742 306.412 351.622C306.604 351.502 306.834 351.459 307.056 351.503C308.376 351.924 309.577 352.652 310.561 353.628C311.545 354.604 312.283 355.8 312.715 357.117C312.793 357.331 312.784 357.566 312.69 357.773C312.596 357.979 312.424 358.14 312.212 358.221C312.092 358.277 311.958 358.294 311.828 358.269Z" fill="#263238"/>
<path d="M269.264 337.899C277.393 341.786 275.307 350.783 260.631 366.69C252.502 358.917 248.785 341.978 253.437 336.891C258.089 331.805 262.166 334.54 269.264 337.899Z" fill="#263238"/>
<path d="M249.912 366.643C250.677 371.181 253.202 375.233 256.938 377.919C261.926 381.398 266.53 377.439 266.746 371.681C267.01 366.475 264.731 358.413 258.928 357.285C253.125 356.158 249.025 361.076 249.912 366.643Z" fill="#EBB376"/>
<path d="M282.381 378.831C283.471 380.906 285.11 382.641 287.119 383.847C289.127 385.053 291.429 385.683 293.771 385.669" stroke="#263238" stroke-width="0.53" stroke-linecap="round" stroke-linejoin="round"/>
<path d="M271.542 343.153C271.542 343.153 293.124 331.397 308.231 343.153C308.231 343.153 316.672 333.196 311.66 322.232C306.648 311.267 271.638 316.497 262.213 320.432C245.427 327.39 258.281 346.057 258.281 346.057L271.542 343.153Z" fill="#263238"/>
<path d="M454.197 472.739V479.097C454.197 480.993 450.936 482.336 449.041 482.336H300.869C298.975 482.336 295.929 480.993 295.929 479.097V472.739H454.197Z" fill="#263238"/>
<path opacity="0.3" d="M454.197 472.739V479.097C454.197 480.993 450.936 482.336 449.042 482.336H351.323C349.405 482.336 346.287 480.993 346.287 479.097V472.739H454.197Z" fill="black"/>
<path d="M477.962 394.786L460.312 475.115C460 476.425 459.274 477.599 458.241 478.464C457.209 479.328 455.925 479.837 454.581 479.913H358.229C357.611 479.858 357.013 479.666 356.479 479.35C355.944 479.034 355.487 478.603 355.14 478.089C354.793 477.574 354.566 476.988 354.474 476.374C354.382 475.76 354.428 475.133 354.608 474.539L372.234 395.074C372.593 393.86 373.358 392.806 374.402 392.09C375.445 391.373 376.703 391.038 377.965 391.139H474.317C476.906 391.163 478.537 392.171 477.962 394.786Z" fill="#263238"/>
<path opacity="0.2" d="M477.962 394.786L460.312 475.115C460 476.425 459.274 477.599 458.241 478.464C457.209 479.328 455.925 479.837 454.581 479.913H361.515C360.896 479.857 360.298 479.665 359.763 479.349C359.228 479.034 358.77 478.603 358.421 478.089C358.072 477.575 357.842 476.99 357.747 476.376C357.651 475.762 357.693 475.135 357.87 474.539L375.495 395.074C375.854 393.86 376.62 392.806 377.663 392.09C378.707 391.373 379.965 391.038 381.226 391.139H474.317C476.907 391.163 478.537 392.171 477.962 394.786Z" fill="white"/>
<path opacity="0.5" d="M421.273 446.275C425.757 446.275 430.361 441.476 431.536 435.526C432.711 429.576 430.002 424.753 425.493 424.753C424.672 424.771 423.86 424.933 423.095 425.233C422.68 427.355 421.771 429.349 420.442 431.054C419.113 432.758 417.401 434.126 415.446 435.046C415.435 435.206 415.435 435.366 415.446 435.526C414.055 441.452 416.765 446.275 421.273 446.275Z" fill="white"/>
<path d="M408.372 866.223H393.696L391.298 498.532H410.77L408.372 866.223Z" fill="black"/>
<path opacity="0.6" d="M410.793 499.131L410.41 558.442L408.395 866.223H393.696L391.681 558.442L391.298 499.131H410.793Z" fill="white"/>
<path opacity="0.2" d="M410.793 499.131L410.41 559.114H391.681L391.298 499.131H410.793Z" fill="black"/>
<path d="M564.337 866.223H549.662L523.26 498.532H542.755L564.337 866.223Z" fill="black"/>
<path opacity="0.7" d="M564.361 866.223H549.662L524.555 516.79L523.26 499.131H542.755L543.811 516.79L564.361 866.223Z" fill="white"/>
<path opacity="0.2" d="M543.811 515.927H524.555L523.26 499.131H542.755L543.811 515.927Z" fill="black"/>
<path d="M252.405 866.223H237.73L259.312 498.532H278.807L252.405 866.223Z" fill="black"/>
<path opacity="0.7" d="M278.807 499.131L277.513 516.79L252.405 866.223H237.73L258.257 516.79L259.312 499.131H278.807Z" fill="white"/>
<path opacity="0.2" d="M259.312 499.131H278.807L277.513 515.927H258.257L259.312 499.131Z" fill="black"/>
<path d="M243.869 489.318H558.199V502.538C558.199 503.913 557.653 505.231 556.681 506.203C555.71 507.175 554.393 507.721 553.019 507.721H249.048C247.675 507.721 246.357 507.175 245.386 506.203C244.414 505.231 243.869 503.913 243.869 502.538V489.318Z" fill="black"/>
<path opacity="0.8" d="M243.869 489.318H558.199V502.538C558.199 503.913 557.653 505.231 556.681 506.203C555.71 507.175 554.393 507.721 553.019 507.721H249.048C247.675 507.721 246.357 507.175 245.386 506.203C244.414 505.231 243.869 503.913 243.869 502.538V489.318Z" fill="white"/>
<path opacity="0.2" d="M558.199 489.318H243.869V498.532H558.199V489.318Z" fill="black"/>
<path d="M567.311 491.742H234.756C233.38 491.735 232.063 491.184 231.092 490.208C230.122 489.233 229.577 487.912 229.577 486.535C229.577 485.161 230.122 483.843 231.094 482.871C232.065 481.899 233.383 481.353 234.756 481.353H567.311C568.685 481.353 570.002 481.899 570.974 482.871C571.945 483.843 572.491 485.161 572.491 486.535C572.491 487.912 571.946 489.233 570.975 490.208C570.004 491.184 568.687 491.735 567.311 491.742Z" fill="black"/>
<path opacity="0.8" d="M567.311 491.742H234.756C233.38 491.735 232.063 491.184 231.092 490.208C230.122 489.233 229.577 487.912 229.577 486.535C229.577 485.161 230.122 483.843 231.094 482.871C232.065 481.899 233.383 481.353 234.756 481.353H567.311C568.685 481.353 570.002 481.899 570.974 482.871C571.945 483.843 572.491 485.161 572.491 486.535C572.491 487.912 571.946 489.233 570.975 490.208C570.004 491.184 568.687 491.735 567.311 491.742Z" fill="white"/>
<path d="M1104.1 459.19C1111.85 473.807 1126.58 485.185 1142.88 487.984C1151.05 489.428 1159.44 488.972 1167.41 486.652C1175.37 484.332 1182.69 480.21 1188.8 474.606C1194.44 469.501 1194.26 459.048 1188.52 453.785C1185.75 451.063 1182.04 449.513 1178.16 449.459C1174.28 449.405 1170.53 450.851 1167.69 453.495C1167.69 453.495 1164.7 455.901 1165.8 455.145C1167.08 454.277 1163.9 456.236 1163.62 456.399C1163.33 456.562 1160.14 458.16 1161.37 457.593C1162.61 457.026 1159.26 458.297 1158.88 458.366C1157.68 458.71 1156.51 459.019 1155.24 459.207C1152.8 459.679 1158.16 459.294 1153.72 459.413C1152.47 459.447 1151.22 459.472 1149.96 459.412C1149.55 459.386 1146.51 458.938 1148.45 459.3C1147.42 459.11 1146.39 458.852 1145.38 458.577C1145.38 458.577 1141.16 457.011 1143 457.836C1140.83 456.846 1138.75 455.638 1136.82 454.233C1135.94 453.631 1135.95 453.622 1136.82 454.233L1135.63 453.175C1134.69 452.237 1133.75 451.3 1132.81 450.363C1131.88 449.426 1133.14 451.188 1131.84 449.133C1130.98 447.775 1130.19 446.416 1129.44 445.015C1125.81 438.119 1115.77 435.176 1109.28 439.206C1105.97 441.188 1103.56 444.391 1102.58 448.128C1101.59 451.865 1102.12 455.839 1104.03 459.199L1104.1 459.19Z" fill="url(#paint2_linear)"/>
</g>
<defs>
<linearGradient id="paint0_linear" x1="506.234" y1="282.479" x2="573.306" y2="282.479" gradientUnits="userSpaceOnUse">
<stop stop-color="#76B852"/>
<stop offset="1" stop-color="#8DC26F"/>
</linearGradient>
<linearGradient id="paint1_linear" x1="559.325" y1="226.746" x2="661.192" y2="226.746" gradientUnits="userSpaceOnUse">
<stop stop-color="#76B852"/>
<stop offset="1" stop-color="#8DC26F"/>
</linearGradient>
<linearGradient id="paint2_linear" x1="1117.98" y1="429.879" x2="1175.76" y2="487.664" gradientUnits="userSpaceOnUse">
<stop stop-color="#76B852"/>
<stop offset="1" stop-color="#8DC26F"/>
</linearGradient>
<clipPath id="clip0">
<rect width="1199" height="894" fill="white" transform="translate(0.0878906 0.654633)"/>
</clipPath>
</defs>
</svg>
