<svg width="39" height="39" viewBox="0 0 39 39" fill="none" xmlns="http://www.w3.org/2000/svg">
<g clip-path="url(#clip0)">
<path d="M19.6388 0.885254C9.14537 0.885254 0.638794 9.39183 0.638794 19.8852C0.638794 30.3786 9.14537 38.8852 19.6388 38.8852C30.1321 38.8852 38.6387 30.3786 38.6387 19.8852C38.6276 9.39652 30.1275 0.896466 19.6388 0.885254ZM19.6388 36.1709C10.6444 36.1709 3.35305 28.8796 3.35305 19.8852C3.35305 10.8909 10.6444 3.59951 19.6388 3.59951C28.6331 3.59951 35.9245 10.8909 35.9245 19.8852C35.9148 28.8756 28.6291 36.1612 19.6388 36.1709Z" fill="#F15045"/>
<path d="M27.6404 19.2799C27.5089 19.0161 27.2951 18.8022 27.0311 18.6706L16.174 13.2421C15.5035 12.907 14.6884 13.1789 14.3533 13.8494C14.2591 14.038 14.2101 14.2459 14.2102 14.4567V25.3139C14.2099 26.0635 14.8172 26.6713 15.5667 26.6717C15.7775 26.6718 15.9855 26.6228 16.174 26.5286L27.0311 21.1C27.702 20.7657 27.9748 19.9508 27.6404 19.2799ZM16.9245 23.118V16.6526L23.39 19.8853L16.9245 23.118Z" fill="#F15045"/>
</g>
<defs>
<clipPath id="clip0">
<rect width="38" height="38" fill="white" transform="translate(0.638794 0.885254)"/>
</clipPath>
</defs>
</svg>
