<svg width="38" height="38" viewBox="0 0 38 38" fill="none" xmlns="http://www.w3.org/2000/svg">
<g clip-path="url(#clip0)">
<path d="M36.043 26.0394C36.8012 25.0722 37.1649 24.0354 37.1185 22.9676C37.072 21.7916 36.5459 20.8708 36.1126 20.306C36.6155 19.0525 36.809 17.0795 35.13 15.5475C33.8997 14.4256 31.8106 13.9227 28.9169 14.062C26.882 14.1548 25.1797 14.5339 25.1101 14.5494H25.1024C24.7155 14.619 24.3054 14.7042 23.8876 14.797C23.8567 14.3018 23.9418 13.0716 24.8548 10.3016C25.938 7.0055 25.8761 4.48312 24.6536 2.79638C23.3692 1.02453 21.3188 0.885254 20.7153 0.885254C20.135 0.885254 19.6011 1.12511 19.222 1.56614C18.3631 2.56426 18.4637 4.40575 18.572 5.25686C17.5507 7.99588 14.6879 14.7119 12.2661 16.5766C12.2197 16.6075 12.181 16.6462 12.1423 16.6849C11.4305 17.4354 10.9508 18.2479 10.6258 18.9597C10.1693 18.7121 9.65088 18.5728 9.09379 18.5728H4.37401C2.59442 18.5728 1.15527 20.0197 1.15527 21.7916V34.3648C1.15527 36.1444 2.60216 37.5835 4.37401 37.5835H9.09379C9.78242 37.5835 10.4246 37.3669 10.9508 36.9955L12.769 37.2121C13.0476 37.2508 17.9995 37.8775 23.0829 37.7769C24.0037 37.8466 24.8702 37.8853 25.6749 37.8853C27.0599 37.8853 28.2669 37.7769 29.2728 37.5603C31.6404 37.0574 33.2575 36.0515 34.0777 34.5737C34.7044 33.444 34.7044 32.3221 34.6038 31.6103C36.1436 30.2175 36.4144 28.6778 36.3602 27.5946C36.3293 26.9679 36.19 26.434 36.043 26.0394ZM4.37401 35.4944C3.74729 35.4944 3.24436 34.9837 3.24436 34.3648V21.7838C3.24436 21.1571 3.75502 20.6542 4.37401 20.6542H9.09379C9.72052 20.6542 10.2234 21.1648 10.2234 21.7838V34.357C10.2234 34.9837 9.71278 35.4867 9.09379 35.4867H4.37401V35.4944ZM34.0622 25.1341C33.7372 25.4745 33.6753 25.993 33.9229 26.3953C33.9229 26.403 34.2402 26.9446 34.2789 27.6874C34.333 28.701 33.8456 29.5986 32.8242 30.3646C32.4606 30.6431 32.3136 31.1228 32.4683 31.5561C32.4683 31.5638 32.801 32.5852 32.2594 33.5523C31.741 34.4808 30.5881 35.1462 28.8395 35.5176C27.439 35.8194 25.5357 35.8735 23.199 35.6878C23.168 35.6878 23.1293 35.6878 23.0907 35.6878C18.1155 35.7962 13.0863 35.1462 13.0321 35.1385H13.0244L12.2429 35.0456C12.2893 34.829 12.3125 34.5969 12.3125 34.3648V21.7838C12.3125 21.4511 12.2584 21.1262 12.1655 20.8244C12.3048 20.306 12.6917 19.1531 13.6047 18.1705C17.0787 15.416 20.4754 6.12344 20.6224 5.7211C20.6843 5.55861 20.6998 5.38065 20.6689 5.20269C20.5373 4.33611 20.5838 3.27609 20.7694 2.95886C21.1795 2.9666 22.286 3.08266 22.9514 4.00341C23.7406 5.09437 23.7096 7.04418 22.8585 9.62846C21.5587 13.5668 21.4503 15.6404 22.4794 16.5534C22.9901 17.0099 23.671 17.0331 24.1661 16.8551C24.6381 16.7468 25.0869 16.654 25.5124 16.5843C25.5434 16.5766 25.5821 16.5689 25.613 16.5611C27.9884 16.0427 32.2439 15.7255 33.7218 17.0718C34.9752 18.2169 34.0854 19.7334 33.9848 19.8959C33.6986 20.3292 33.7837 20.894 34.1705 21.2422C34.1783 21.25 34.9907 22.016 35.0294 23.045C35.0603 23.7336 34.7354 24.4377 34.0622 25.1341Z" fill="#F15045"/>
</g>
<defs>
<clipPath id="clip0">
<rect width="37" height="37" fill="white" transform="translate(0.638672 0.885254)"/>
</clipPath>
</defs>
</svg>
