<svg width="37" height="37" viewBox="0 0 37 37" fill="none" xmlns="http://www.w3.org/2000/svg">
<g clip-path="url(#clip0)">
<path d="M26.5137 36.8822H4.76376C2.48822 36.8822 0.638672 35.0326 0.638672 32.7571V11.0072C0.638672 8.73163 2.48822 6.88208 4.76376 6.88208H17.5137C18.1347 6.88208 18.6387 7.38608 18.6387 8.00708C18.6387 8.62808 18.1347 9.13208 17.5137 9.13208H4.76376C3.73022 9.13208 2.88867 9.97363 2.88867 11.0072V32.7571C2.88867 33.7906 3.73022 34.6322 4.76376 34.6322H26.5137C27.5472 34.6322 28.3888 33.7906 28.3888 32.7571V20.0072C28.3888 19.3862 28.8928 18.8822 29.5138 18.8822C30.1348 18.8822 30.6388 19.3848 30.6388 20.0072V32.7571C30.6388 35.0326 28.7892 36.8822 26.5137 36.8822Z" fill="#F15045"/>
<path d="M13.7968 24.8493C13.5012 24.8493 13.2131 24.7322 13.0016 24.5194C12.7347 24.2538 12.6207 23.8712 12.6943 23.5037L13.7548 18.1998C13.7981 17.9809 13.9061 17.7812 14.0621 17.6252L29.5979 2.09135C31.2057 0.483223 33.8218 0.483223 35.4313 2.09135C36.2097 2.86973 36.6387 3.90491 36.6387 5.00739C36.6387 6.10987 36.2097 7.14478 35.4297 7.92344L19.8958 23.4589C19.7398 23.6163 19.5388 23.7229 19.3213 23.7663L14.0187 24.8267C13.9451 24.8418 13.8701 24.8493 13.7968 24.8493ZM19.1007 22.6638H19.1158H19.1007ZM15.8938 18.9754L15.2321 22.2903L18.5456 21.6272L33.8397 6.33344C34.1937 5.97776 34.3887 5.50837 34.3887 5.00739C34.3887 4.50642 34.1937 4.03675 33.8397 3.68134C33.1108 2.95075 31.9212 2.95075 31.1879 3.68134L15.8938 18.9754Z" fill="#F15045"/>
<path d="M32.5135 10.3759C32.2257 10.3759 31.9376 10.2663 31.7187 10.0458L27.4766 5.80231C27.0371 5.36285 27.0371 4.65039 27.4766 4.21094C27.916 3.77148 28.6285 3.77148 29.0682 4.21094L33.31 8.45441C33.7495 8.89386 33.7495 9.60632 33.31 10.0458C33.0895 10.265 32.8016 10.3759 32.5135 10.3759Z" fill="#F15045"/>
</g>
<defs>
<clipPath id="clip0">
<rect width="36" height="36" fill="white" transform="translate(0.638672 0.885254)"/>
</clipPath>
</defs>
</svg>
