<svg width="72" height="71" viewBox="0 0 72 71" fill="none" xmlns="http://www.w3.org/2000/svg">
<path opacity="0.3" d="M5.58862 1.36377L23.7304 11.8142H69.8272V1.36377H5.58862Z" fill="#020203"/>
<path opacity="0.3" d="M27.9295 27.0949C20.5632 30.6761 13.9425 35.5636 8.3795 41.4452V15.8415L27.9295 27.0949ZM0.0127472 70.9996C3.30082 59.5997 9.92158 49.6016 18.7535 42.1142L35.4743 70.9996H45.1473L25.5336 37.1439C32.1225 32.9892 39.5844 30.0835 47.5815 28.7644L0 1.36377V70.9996" fill="#020203"/>
<path opacity="0.3" d="M56.618 30.7461L69.8277 30.7397V41.1839H31.1227L29.3448 38.1124C37.4121 33.5435 46.7092 30.8863 56.618 30.7461Z" fill="#020203"/>
<path opacity="0.3" d="M42.3522 60.5562L48.4058 71.0003H69.8356V60.5562H42.3522Z" fill="#020203"/>
<path d="M6.95667 0L25.0984 10.4441H71.1952V0H6.95667Z" fill="#F28E11"/>
<path d="M29.2983 25.7247C21.932 29.3059 15.3112 34.1934 9.74827 40.075V14.4714L29.2983 25.7247ZM1.38152 69.6295C4.6696 58.2295 11.2904 48.2315 20.1223 40.7441L36.843 69.6295H46.5225L26.9087 35.7737C33.4976 31.619 40.9595 28.7133 48.9567 27.3943L1.36877 0V69.6295" fill="#FBBF19"/>
<path d="M57.9861 29.3824L71.1957 29.376V39.8201H32.4907L30.7129 36.7487C38.7801 32.1798 48.0772 29.5162 57.9861 29.3824Z" fill="#F28E11"/>
<path d="M43.7194 59.1851L49.773 69.6292H71.2028V59.1851H43.7194Z" fill="#F28E11"/>
</svg>
