<svg width="26" height="27" viewBox="0 0 26 27" fill="none" xmlns="http://www.w3.org/2000/svg">
<g clip-path="url(#clip0)">
<path d="M13.2284 0.698242C6.21187 0.698242 0.523682 6.38643 0.523682 13.403C0.523682 19.6961 5.104 24.9078 11.1095 25.917V16.0536H8.04479V12.5041H11.1095V9.88692C11.1095 6.85019 12.9643 5.19536 15.6736 5.19536C16.9713 5.19536 18.0864 5.29205 18.4101 5.33464V8.50882L16.531 8.50973C15.0579 8.50973 14.7739 9.20961 14.7739 10.237V12.5023H18.2889L17.8304 16.0517H14.7739V26.0018C21.0598 25.2368 25.9331 19.8923 25.9331 13.3994C25.9331 6.38643 20.2449 0.698242 13.2284 0.698242Z" fill="#263238"/>
</g>
<defs>
<clipPath id="clip0">
<rect width="25.4094" height="25.4094" fill="white" transform="translate(0.523682 0.645508)"/>
</clipPath>
</defs>
</svg>
