<svg width="25" height="26" viewBox="0 0 25 26" fill="none" xmlns="http://www.w3.org/2000/svg">
<g clip-path="url(#clip0)">
<path d="M18.306 0.941406H7.20778C3.59574 0.941406 0.657227 3.87992 0.657227 7.49195V18.5904C0.657227 22.2023 3.59574 25.1408 7.20778 25.1408H18.3062C21.9181 25.1408 24.8566 22.2023 24.8566 18.5904V7.49195C24.8566 3.87992 21.9181 0.941406 18.306 0.941406V0.941406ZM12.7569 19.6579C9.10832 19.6579 6.14008 16.6897 6.14008 13.0411C6.14008 9.3925 9.10832 6.42426 12.7569 6.42426C16.4055 6.42426 19.3737 9.3925 19.3737 13.0411C19.3737 16.6897 16.4055 19.6579 12.7569 19.6579ZM19.532 7.98472C18.4537 7.98472 17.5768 7.10775 17.5768 6.02953C17.5768 4.95131 18.4537 4.07415 19.532 4.07415C20.6102 4.07415 21.4873 4.95131 21.4873 6.02953C21.4873 7.10775 20.6102 7.98472 19.532 7.98472Z" fill="#263238"/>
<path d="M12.757 7.84277C9.89086 7.84277 7.55884 10.1746 7.55884 13.0409C7.55884 15.9071 9.89086 18.2391 12.757 18.2391C15.6233 18.2391 17.9552 15.9071 17.9552 13.0409C17.9552 10.1746 15.6233 7.84277 12.757 7.84277Z" fill="#263238"/>
<path d="M19.5319 5.49316C19.2361 5.49316 18.9954 5.73392 18.9954 6.02969C18.9954 6.32546 19.2361 6.56621 19.5319 6.56621C19.8278 6.56621 20.0686 6.32565 20.0686 6.02969C20.0686 5.73373 19.8278 5.49316 19.5319 5.49316Z" fill="#263238"/>
</g>
<defs>
<clipPath id="clip0">
<rect width="24.1994" height="24.1994" fill="white" transform="translate(0.657227 0.941406)"/>
</clipPath>
</defs>
</svg>
