<svg width="40" height="40" viewBox="0 0 40 40" fill="none" xmlns="http://www.w3.org/2000/svg">
<g clip-path="url(#clip0)">
<path d="M29.699 0.0444336H9.91016C4.46744 0.0444336 0 4.51187 0 9.98605V29.7749C0 35.2176 4.46744 39.6851 9.91016 39.6851H29.699C35.1732 39.6851 39.6406 35.2176 39.6406 29.7434V9.98605C39.6406 4.51187 35.1732 0.0444336 29.699 0.0444336ZM18.7506 8.19278C18.8136 7.2175 19.7259 7.56357 20.1978 7.50065C26.1125 7.68941 31.2091 13.0063 31.1462 18.7322C31.1462 19.2985 31.335 20.1164 30.4855 20.1164C29.6675 20.1164 29.8878 19.267 29.7934 18.7007C29.0069 12.6288 26.1754 9.76583 20.0091 8.822C19.5057 8.75908 18.7192 8.85346 18.7506 8.19278ZM27.5911 18.9838C26.6473 19.1097 26.8361 18.2917 26.7417 17.7569C26.1125 14.0445 24.7911 12.6917 20.9844 11.8737C20.4181 11.7479 19.5372 11.8422 19.6945 10.9928C19.8203 10.1748 20.6068 10.458 21.2046 10.5209C25.0113 10.9613 28.126 14.2018 28.0945 17.7569C28.0316 18.1344 28.2833 18.858 27.5911 18.9838ZM25.2316 17.0333C25.2316 17.5366 25.1687 18.0086 24.6024 18.0715C24.1934 18.1344 23.9417 17.7883 23.8788 17.3793C23.7215 15.8692 22.9035 14.9569 21.3304 14.7052C20.8585 14.6423 20.4181 14.4849 20.6383 13.8557C20.7956 13.4467 21.1731 13.3838 21.5821 13.3838C23.281 13.3524 25.2316 15.3344 25.2316 17.0333ZM31.2091 28.6423C30.5485 30.4356 28.3147 32.2603 26.3956 32.2288C26.1125 32.1659 25.5776 32.0715 25.1057 31.8828C16.6742 28.3277 10.5394 22.476 7.07868 14.1074C5.91463 11.3074 7.1416 8.91638 10.0675 7.97256C10.6023 7.78379 11.1057 7.78379 11.6405 7.97256C12.8989 8.41301 16.0765 12.7231 16.1394 13.9816C16.2023 14.9569 15.5102 15.4917 14.8495 15.9321C13.5596 16.7816 13.5596 17.8513 14.1259 19.0782C15.3529 21.7839 17.4608 23.6715 20.1978 24.867C21.1731 25.3075 22.1484 25.276 22.8091 24.2693C24.0046 22.476 25.4833 22.5704 27.0878 23.6715C27.9057 24.2378 28.7237 24.7726 29.4788 25.3704C30.517 26.2198 31.8383 26.912 31.2091 28.6423Z" fill="#EE3F48"/>
</g>
<defs>
<clipPath id="clip0">
<rect width="39.6406" height="39.6406" fill="white" transform="translate(0 0.0444336)"/>
</clipPath>
</defs>
</svg>
