<svg width="25" height="26" viewBox="0 0 25 26" fill="none" xmlns="http://www.w3.org/2000/svg">
<g clip-path="url(#clip0)">
<path d="M12.8168 0.941406H12.8108C6.13932 0.941406 0.714111 6.36812 0.714111 13.0411C0.714111 15.6879 1.56714 18.1411 3.01759 20.1331L1.50967 24.6281L6.16049 23.1413C8.07376 24.4088 10.3561 25.1408 12.8168 25.1408C19.4883 25.1408 24.9135 19.7126 24.9135 13.0411C24.9135 6.36964 19.4883 0.941406 12.8168 0.941406ZM19.8574 18.0277C19.5655 18.852 18.4069 19.5356 17.4828 19.7353C16.8506 19.8699 16.0248 19.9773 13.2449 18.8248C9.68907 17.3516 7.3992 13.7384 7.22073 13.5039C7.04982 13.2695 5.78389 11.5907 5.78389 9.85435C5.78389 8.11804 6.66565 7.27258 7.02108 6.90959C7.31299 6.61163 7.79546 6.47551 8.25828 6.47551C8.40801 6.47551 8.54262 6.48307 8.66362 6.48912C9.01905 6.50425 9.19752 6.52542 9.43195 7.08654C9.72386 7.78984 10.4347 9.52615 10.5194 9.70462C10.6056 9.88309 10.6918 10.1251 10.5708 10.3595C10.4574 10.6015 10.3576 10.7089 10.1791 10.9146C10.0006 11.1203 9.83124 11.2776 9.65277 11.4984C9.48942 11.6905 9.3049 11.8962 9.5106 12.2516C9.71629 12.5995 10.4271 13.7595 11.4738 14.6912C12.8244 15.8936 13.9194 16.2778 14.3112 16.4411C14.6031 16.5621 14.9509 16.5334 15.1642 16.3065C15.4349 16.0146 15.7692 15.5306 16.1095 15.0542C16.3515 14.7124 16.657 14.67 16.9776 14.791C17.3043 14.9045 19.0331 15.759 19.3885 15.936C19.7439 16.1144 19.9784 16.1991 20.0646 16.3489C20.1493 16.4986 20.1493 17.2019 19.8574 18.0277Z" fill="#263238"/>
</g>
<defs>
<clipPath id="clip0">
<rect width="24.1994" height="24.1994" fill="white" transform="translate(0.714111 0.941406)"/>
</clipPath>
</defs>
</svg>
