<svg width="76" height="76" viewBox="0 0 76 76" fill="none" xmlns="http://www.w3.org/2000/svg">
<g clip-path="url(#clip0)">
<path d="M20.3853 61.8622V70.7031H48.013L49.4864 66.7247L48.013 61.7886L34.4324 60.3513L20.3853 61.8622Z" fill="#FCE867"/>
<path d="M66.7998 24.2885L62.3303 56.7626L48.0129 61.7885V70.7031H75.6406V24.2885H66.7998Z" fill="#FFC24C"/>
<path d="M13.7546 53.1687V61.8622H40.2772L41.7507 57.6253L40.2772 53.1687L27.458 51.6952L13.7546 53.1687Z" fill="#FE6664"/>
<path d="M66.7997 17.6579H58.106L40.2771 53.1687V61.8622H66.7997V17.6579Z" fill="#E82E68"/>
<path d="M0.640625 4.54395V53.1687L31.5837 41.0125L33.7939 24.4359L31.5837 4.54395H0.640625Z" fill="#99CDFF"/>
<path d="M31.5837 4.54395V41.0125L58.1063 53.1687V4.54395H31.5837Z" fill="#629DF5"/>
<path d="M20.5326 29.9614L0.640625 53.1687H19.4643L27.8341 47.7249L31.5837 41.0125L20.5326 29.9614Z" fill="#52FE83"/>
<path d="M24.9531 20.0155C24.9531 23.6716 27.9275 26.6461 31.5838 26.6461L33.794 20.0155L31.5838 13.3848C27.9275 13.3848 24.9531 16.3595 24.9531 20.0155Z" fill="#FCE867"/>
<path d="M31.5837 13.3848V26.6461C35.2399 26.6461 38.2144 23.6715 38.2144 20.0155C38.2144 16.3595 35.2399 13.3848 31.5837 13.3848Z" fill="#FFC24C"/>
<path d="M19.4644 53.1686H31.5837L33.1309 47.3852L31.5837 41.0125C30.6663 41.9326 19.814 52.8178 19.4644 53.1686Z" fill="#34CE96"/>
<path d="M40.4246 32.1716L31.5837 41.0125V53.1687H58.1063L40.4246 32.1716Z" fill="#0BAA6D"/>
</g>
<defs>
<clipPath id="clip0">
<rect width="75" height="75" fill="white" transform="translate(0.640625 0.123474)"/>
</clipPath>
</defs>
</svg>
