<svg width="75" height="74" viewBox="0 0 75 74" fill="none" xmlns="http://www.w3.org/2000/svg">
<g clip-path="url(#clip0)">
<path d="M21.8963 0.370056C20.2829 0.370056 10.1726 0.370056 8.54871 0.370056C8.7784 2.18418 12.7493 33.5451 12.8985 34.723L25.2884 39.0416L37.1316 34.7475L38.5825 26.1471L37.1316 13.2524C36.5314 13.2524 21.8963 0.370056 21.8963 0.370056V0.370056Z" fill="#FFD8CC"/>
<path d="M65.7145 0.370056C64.1011 0.370056 53.9908 0.370056 52.3669 0.370056C52.3669 0.370056 37.7317 13.2524 37.1316 13.2524V34.7475L48.9746 39.0416L61.3615 34.7476L63.2662 19.7059L65.7145 0.370056Z" fill="#FFC7BA"/>
<path d="M21.8962 0.370056V17.5465C21.8962 21.098 24.8252 23.9877 28.4257 23.9877C32.0258 23.9877 34.9551 21.0983 34.9551 17.5465C34.9551 16.7956 34.9551 16.1504 34.9551 15.3995C34.9551 14.2156 35.9314 13.2524 37.1315 13.2524C37.1315 11.6938 37.1315 1.93898 37.1315 0.370056H29.5139H21.8962Z" fill="#FF7B4A"/>
<path d="M39.3081 15.3995V23.9877C39.3081 27.5392 42.2369 30.4289 45.8375 30.4289C49.4376 30.4289 52.3669 27.5395 52.3669 23.9877V12.1789V0.370056C48.2638 0.370056 39.5218 0.370056 37.1316 0.370056V13.2524C37.7317 13.2524 38.2758 13.4933 38.6699 13.8819C39.064 14.2707 39.3081 14.8075 39.3081 15.3995Z" fill="#FF435B"/>
<path d="M26.2492 34.723L24.0727 36.1544L21.8962 34.723C21.8962 33.2212 21.8962 31.9307 21.8962 30.4289H26.2492V34.723Z" fill="#FF7B4A"/>
<path d="M34.9551 34.723L32.7786 36.1544L30.6022 34.723C30.6022 33.2212 30.6022 31.9307 30.6022 30.4289H34.9551V34.723Z" fill="#FF7B4A"/>
<path d="M8.8374 34.7474V47.6298H28.429C29.4776 47.6298 30.2836 48.5194 30.1802 49.5388C30.0486 51.3495 29.2157 62.8084 29.0831 64.6326C28.625 69.3426 32.4002 73.37 37.1315 73.37L40.0335 55.4902L37.1315 34.7474C35.5613 34.7474 10.4077 34.7474 8.8374 34.7474Z" fill="#D58678"/>
<path d="M45.1802 64.6326C44.2188 51.3962 44.0816 49.5229 44.0831 49.5388C43.9801 48.5235 44.7839 47.6298 45.8343 47.6298H65.4257C65.4257 46.0712 65.4257 36.3162 65.4257 34.7474C63.8555 34.7474 38.7018 34.7474 37.1316 34.7474V73.37C41.858 73.37 45.6385 69.3474 45.1802 64.6326Z" fill="#B95D4C"/>
</g>
<defs>
<clipPath id="clip0">
<rect width="74" height="73" fill="white" transform="translate(0.131592 0.370056)"/>
</clipPath>
</defs>
</svg>
