<svg width="302" height="207" viewBox="0 0 302 207" fill="none" xmlns="http://www.w3.org/2000/svg">
<g opacity="0.4">
<path opacity="0.4" d="M184.513 119.45C196.479 88.843 220.549 62.9853 250.561 49.4127C259.181 45.5234 268.899 42.6949 278.4 44.4469C286.275 45.8981 293.786 50.4311 297.133 57.9404C303.926 73.1912 299.165 91.6451 287.046 102.653C274.927 113.661 257.444 118.263 241.388 116.374C240.332 116.252 240.332 117.909 241.388 118.031C256.5 119.814 272.667 115.862 284.845 106.621C298.246 96.4473 304.449 79.9775 300.68 63.4497C298.949 55.8929 294.816 49.7029 287.89 45.9878C280.179 41.8559 271.205 41.5287 262.807 43.4337C253.581 45.5446 244.829 49.972 236.785 54.8586C212.31 69.7913 193.4 92.3258 182.945 119.017C182.555 120.009 184.154 120.442 184.529 119.455L184.513 119.45Z" fill="#659FEB"/>
<path opacity="0.4" d="M190.309 119.719C205.716 94.2415 227.12 70.7901 255.265 61.0592C260.654 59.1964 266.349 57.8507 272.034 58.4207C277.719 58.9906 283.377 61.7399 286.402 66.5737C289.363 71.3231 289.426 77.3759 288.049 82.7849C285.61 92.3312 279.075 100.453 271.189 106.379C263.303 112.305 254.135 116.236 244.892 119.635" fill="#659FEB"/>
<path opacity="0.4" d="M191.026 120.162C203.473 99.6663 219.567 80.426 240.738 68.5473C251.295 62.6053 266.349 55.6238 278.394 60.9642C292.25 67.0961 288.825 84.0408 281.894 94.2098C273.201 106.964 258.669 113.666 244.671 118.864C243.678 119.228 244.111 120.833 245.114 120.447C258.247 115.582 271.622 109.534 280.728 98.4842C287.89 89.7876 294.119 74.8798 286.101 64.7373C277.186 53.4654 260.844 57.6449 249.68 62.3309C237.656 67.3653 226.867 74.9484 217.445 83.9036C206.503 94.3048 197.398 106.442 189.596 119.302C189.042 120.215 190.472 121.049 191.026 120.136V120.162Z" fill="#659FEB"/>
<path opacity="0.4" d="M164.634 165.181C166.682 176.068 171.496 186.348 180.1 193.593C187.247 199.619 196.152 203.092 205.283 204.754C215.592 206.601 227.685 207.313 237.318 202.612C249.247 196.807 251.918 183.503 256.563 172.316C262.216 158.706 271.221 144.221 286.185 139.899C287.209 139.603 286.776 138.004 285.747 138.316C274.23 141.64 266.264 150.622 260.49 160.727C257.534 165.948 255.023 171.408 252.984 177.049C250.746 183.166 248.682 189.646 244.539 194.786C236.526 204.712 222.897 205.129 211.195 203.936C201.947 202.992 192.678 200.379 184.903 195.155C174.42 188.121 168.54 176.954 166.244 164.759C166.044 163.704 164.45 164.152 164.661 165.197L164.634 165.181Z" fill="#659FEB"/>
<path opacity="0.4" d="M172.953 120.221C172.953 120.378 172.916 120.534 172.844 120.675C172.773 120.816 172.669 120.938 172.541 121.031C172.414 121.124 172.266 121.186 172.11 121.211C171.954 121.236 171.795 121.224 171.644 121.176C165.922 103.967 166.783 85.3918 165.917 67.2756C165.051 49.1594 161.911 30.0247 150.019 16.336C144.967 10.5312 138.058 5.78181 130.362 5.41769C122.666 5.05357 114.49 10.109 113.17 17.7027C112.674 20.6104 113.17 23.5814 113.392 26.5207C113.783 31.8533 113.227 37.2131 111.75 42.352C111.265 44.0301 110.636 45.7504 109.354 46.9325C105.928 50.0987 100.301 47.7399 95.8464 49.1119C92.8113 50.046 90.568 52.6845 89.1587 55.5289C86.4614 60.959 86.2239 67.4076 87.7176 73.2862C89.2114 79.1649 92.3257 84.5264 96.0311 89.3286C106.978 103.385 122.788 112.84 140.354 115.835" fill="#659FEB"/>
<path opacity="0.4" d="M172.156 120.004C171.982 120.115 171.813 120.231 171.628 120.347L172.431 120.954C165.352 99.2178 168.482 76.1569 165.569 53.8138C163.278 36.1936 156.384 14.4415 138.649 6.6261C131.191 3.33848 122.196 4.0245 116.29 10.0457C114.925 11.4384 113.853 13.0892 113.134 14.9013C112.415 16.7135 112.065 18.6508 112.104 20.5998C112.104 23.5708 112.632 26.5154 112.658 29.4864C112.681 32.7448 112.345 35.9958 111.655 39.1804C111.096 41.7556 110.531 45.0221 108.251 46.6475C105.97 48.2728 102.904 47.7768 100.286 47.7557C96.1421 47.7293 92.7798 48.9061 90.1722 52.257C84.1443 60.0038 85.2739 71.2229 89.1166 79.6345C98.0898 99.355 119.23 112.991 140.101 116.611C141.156 116.79 141.594 115.191 140.544 115.028C122.202 111.862 105.136 101.376 94.5955 85.9301C88.7576 77.3707 84.9308 65.8086 89.8766 55.9246C90.9798 53.7188 92.5739 51.5657 94.8172 50.4048C97.0605 49.2438 99.7367 49.4338 102.207 49.4813C105.406 49.5446 108.747 49.286 110.784 46.4944C113.318 43.0327 113.83 37.6501 114.173 33.5076C114.374 31.019 114.374 28.5184 114.173 26.0299C113.941 23.117 113.434 20.1143 114.099 17.2172C116.253 7.83455 127.522 4.60498 135.741 7.26463C144.904 10.2356 151.676 18.4045 156.02 26.6579C160.438 35.0537 162.708 44.4522 163.938 53.8138C166.888 76.3047 163.721 99.5027 170.847 121.392C170.898 121.566 171.002 121.718 171.146 121.829C171.289 121.939 171.464 122 171.644 122.004C172.837 122.004 173.402 121.556 173.756 120.421C174.078 119.403 172.478 118.965 172.172 119.983L172.156 120.004Z" fill="#659FEB"/>
<path opacity="0.4" d="M106.43 39.4496C90.0666 38.3625 78.6389 54.0829 80.0905 69.3653C81.7426 86.7269 95.6565 98.8167 111.048 104.822C112.041 105.213 112.473 103.608 111.486 103.239C97.1766 97.6558 84.0387 86.5528 81.8851 70.521C80.8664 62.9273 82.6611 55.0328 87.7917 49.2069C92.4947 43.8612 99.2511 40.6158 106.43 41.0907C107.485 41.1646 107.485 39.5076 106.43 39.439V39.4496Z" fill="#659FEB"/>
<path opacity="0.4" d="M136.891 108.184C127.031 105.645 110.605 111.107 100.423 111.429C90.2407 111.751 79.7736 115.091 72.7903 122.511C69.6655 125.83 67.2902 130.886 69.5546 134.838C70.4542 136.265 71.7117 137.431 73.202 138.221C81.0088 142.77 90.8635 140.912 99.689 142.838C103.384 143.646 107.343 145.593 108.335 149.234C109.586 153.82 105.479 158.701 106.989 163.208C107.844 165.772 110.42 167.487 113.086 167.957C115.751 168.427 118.496 167.904 121.093 167.144C127.142 165.377 132.922 162.358 137.276 157.799C141.631 153.239 144.439 147.06 144.233 140.764C144.075 135.983 160.544 110.965 158.485 106.637" fill="#659FEB"/>
<path opacity="0.4" d="M137.113 107.381C129.274 105.519 120.792 107.519 113.028 108.896C108.847 109.64 104.672 110.395 100.423 110.6C96.054 110.755 91.7226 111.464 87.5329 112.711C79.9637 115.07 70.9377 120.178 68.3618 128.221C65.4165 137.408 75.836 141.16 83.0093 142.047C90.3621 142.954 109.929 141.107 107.464 153.429C106.746 156.975 104.825 160.627 106.503 164.21C108.061 167.524 111.845 169.007 115.318 168.991C123.875 168.949 133.603 163.577 139.008 157.128C141.915 153.74 143.885 149.65 144.724 145.266C145.173 142.722 144.893 140.363 145.843 137.936C148.282 131.693 151.887 125.872 154.88 119.888C156.255 117.238 157.477 114.51 158.538 111.719C159.092 110.194 159.947 108.025 159.287 106.416C158.897 105.439 157.292 105.862 157.704 106.854C158.232 108.131 157.445 109.888 157.018 111.075C156.135 113.445 155.113 115.761 153.956 118.009C151.486 123.028 148.757 127.915 146.297 132.933C145.406 134.656 144.624 136.432 143.954 138.252C143.178 140.527 143.494 142.854 143.051 145.202C141.241 154.791 133.286 161.672 124.577 165.081C120.328 166.743 114.653 168.68 110.431 166.031C105.68 163.049 108.187 158.078 109.095 153.825C110.679 146.437 104.751 142.743 98.227 141.688C89.9452 140.31 78.4752 142.337 71.7717 136.147C67.3009 132.02 70.4837 126.01 73.9886 122.479C77.0355 119.475 80.649 117.105 84.6193 115.508C92.8694 112.083 101.758 112.495 110.42 111.017C118.865 109.577 128.182 106.928 136.712 108.959C137.767 109.207 138.19 107.608 137.15 107.376L137.113 107.381Z" fill="#659FEB"/>
<path opacity="0.4" d="M105.564 142.975C105.838 145.978 104.598 148.996 103.569 151.756C102.386 154.923 101.009 158.057 100.228 161.35C99.6997 163.514 99.4041 165.857 100.312 167.957C101.669 171.097 104.535 173.398 107.586 174.77C122.238 181.361 139.124 171.166 146.92 158.822C152.199 150.49 154.558 140.706 155.323 130.97C155.408 129.915 153.74 129.915 153.666 130.97C152.447 146.516 146.429 162.733 132.22 170.822C125.838 174.453 117.863 176.274 110.668 174.158C107.126 173.102 103.363 170.896 101.864 167.345C100.835 164.907 101.653 162.121 102.392 159.709C104.039 154.432 107.723 148.659 107.206 142.975C107.111 141.92 105.448 141.92 105.548 142.975H105.564Z" fill="#659FEB"/>
<path opacity="0.4" d="M155.529 112.447C158.422 119.714 172.864 167.572 176.828 174.311C179.372 178.633 182.175 182.891 185.906 186.242C190.024 189.936 195.091 192.374 200.158 194.538C207.368 197.598 215.904 200.142 222.739 196.321C228.635 193.028 231.359 185.73 231.105 178.981C230.852 172.231 221.71 116.827 219.055 110.616" fill="#659FEB"/>
<path opacity="0.4" d="M154.727 112.669C159.272 124.199 162.518 136.331 166.387 148.099C170.499 160.611 173.829 174.263 182.829 184.321C186.682 188.622 191.596 191.567 196.801 193.952C201.646 196.168 206.714 198.269 212.04 198.897C222.375 200.116 230.224 193.498 231.707 183.356C232.372 178.791 231.475 174.173 230.825 169.635C229.865 162.933 228.788 156.242 227.658 149.582C226.281 141.339 224.84 133.097 223.235 124.891C222.311 120.141 221.699 114.891 219.841 110.4C219.44 109.429 217.835 109.872 218.258 110.838C219.683 114.273 220.216 118.226 220.955 121.83C222.28 128.31 223.457 134.828 224.597 141.355C226.661 153.192 228.888 165.102 230.139 177.06C230.994 185.203 227.738 194.707 218.997 196.939C213.328 198.385 207.289 196.522 202.027 194.416C196.41 192.174 190.657 189.509 186.191 185.366C176.3 176.226 172.916 162.532 168.847 150.215C164.634 137.577 161.198 124.585 156.326 112.247C155.941 111.265 154.336 111.693 154.743 112.685L154.727 112.669Z" fill="#659FEB"/>
<path opacity="0.4" d="M210.752 93.9776C214.304 87.4023 217.893 80.7321 219.651 73.4708C221.409 66.2096 221.161 58.1673 217.345 51.7345C216.645 50.4068 215.61 49.2859 214.341 48.4839C213.032 47.7556 211.29 47.6606 210.118 48.5789C209.158 49.3229 208.746 50.563 208.382 51.7451L205.674 60.4628C205.541 61.0721 205.26 61.6393 204.856 62.1146C203.837 63.1278 202.053 62.6845 200.966 61.7504C199.878 60.8164 199.171 59.5024 198.078 58.5842C195.233 56.1567 190.53 57.2174 188.049 60.0354C185.569 62.8534 192.066 110.442 192.204 114.178" fill="#659FEB"/>
<path opacity="0.4" d="M211.464 94.3945C217.999 82.2994 225.31 67.8244 219.382 53.9932C218.326 51.4866 216.743 48.5103 214.046 47.4602C213.112 47.0475 212.064 46.9713 211.08 47.2446C210.096 47.5179 209.238 48.1237 208.651 48.9589C206.709 51.7926 206.191 56.0196 205.146 59.2544C205.06 59.7602 204.896 60.2497 204.661 60.7056C204.298 61.033 203.864 61.2702 203.392 61.3976C202.92 61.5251 202.426 61.5393 201.947 61.4391C201.119 61.1858 200.364 59.856 199.836 59.2175C199.048 58.199 198.017 57.3936 196.838 56.8745C193.771 55.666 188.224 56.8745 187.015 60.3362C186.286 62.4471 186.661 65.2123 186.746 67.3653C187.084 75.9617 188.076 84.5475 189.026 93.0911C189.802 100.067 191.069 107.128 191.391 114.147C191.438 115.202 193.096 115.202 193.048 114.147C192.821 109.234 191.966 104.294 191.401 99.413C190.478 91.413 189.58 83.4129 188.926 75.3865C188.656 72.0936 188.398 68.7901 188.35 65.4814C188.324 64.0355 188.012 61.8191 188.73 60.4893C190.451 57.323 195.946 57.5236 198.105 59.7347C199.688 61.3494 201.003 63.7452 203.631 63.4867C209.237 62.9273 207.052 45.6871 213.919 49.1963C217.118 50.8322 218.606 55.8613 219.292 59.112C220.071 63.083 220.071 67.1674 219.292 71.1384C217.814 79.1701 213.866 86.442 210.023 93.5555C209.496 94.4948 210.947 95.3338 211.454 94.3945H211.464Z" fill="#659FEB"/>
</g>
<path d="M62.9777 57.6555C81.8058 72.6107 114.11 49.0274 114.11 49.0274L120.739 43.3071C128.783 39.7398 131.433 36.9429 131.433 36.9429L126.208 39.344L132.436 34.4205C132.605 34.2833 131.877 34.3835 131.687 34.4838L125.88 37.5181L131.882 32.183C131.914 32.1599 131.936 32.125 131.942 32.0859C131.949 32.0468 131.939 32.0067 131.916 31.9745C131.893 31.9424 131.858 31.9207 131.819 31.9142C131.78 31.9078 131.74 31.9172 131.708 31.9402L124.519 35.8875C124.519 35.8875 130.161 30.6737 129.269 30.8109C128.377 30.9482 120.95 36.1302 120.95 36.1302C120.95 36.1302 124.017 31.1487 123.088 31.4178C122.486 31.592 120.132 34.5841 118.559 36.6949C117.541 38.0406 117.826 38.4997 116.358 39.3598L105.675 45.6923C96.7014 51.191 80.7976 55.381 68.842 45.5023C68.842 45.5023 64.2762 43.1013 60.3491 47.9298C56.422 52.7583 62.9777 57.6555 62.9777 57.6555Z" fill="#FFA47A" stroke="#FFA47A" stroke-width="1.48" stroke-linecap="round" stroke-linejoin="round"/>
<path d="M90.5628 50.7688C83.3894 51.7398 77.7046 49.5657 68.8474 45.4918C68.8474 45.4918 64.2816 43.0907 60.3545 47.9192C56.4274 52.7478 62.9937 57.6607 62.9937 57.6607C69.3278 62.6898 73.5188 65.1067 81.1619 63.7821L90.5628 50.7688Z" fill="#FF7F4D" stroke="#FF7F4D" stroke-width="0.6" stroke-miterlimit="10"/>
<path d="M90.9744 50.7319L87.1793 62.0091C85.6166 62.3619 84.0279 62.5878 82.4287 62.6845L90.9744 50.7319Z" fill="#CF5540"/>
<path d="M116.939 38.468C117.255 38.9957 117.503 39.8031 117.16 40.0141C116.817 40.2252 116.015 39.7503 115.698 39.2437" fill="#CF5540"/>
<path d="M122.159 34.8267C122.159 34.8267 121.315 37.2331 121.32 37.1645L124.677 33.1697L122.159 34.8267Z" fill="#CF5540"/>
<path d="M57.868 0.768555C63.4684 2.51527 77.4456 21.3861 77.4456 21.3861C79.8687 23.6166 81.5582 26.5293 82.2912 29.7397C82.5181 30.9324 81.7158 34.4416 80.7657 35.1751L62.1541 50.294C62.1541 50.294 47.1687 44.9852 50.7792 33.4073C54.3896 21.8294 57.4827 24.3307 55.6722 17.7133C53.8617 11.0958 57.868 0.768555 57.868 0.768555Z" fill="#00043B"/>
<path d="M81.473 28.4363C80.2273 25.1434 79.008 21.8293 77.1659 18.8109C75.3427 15.959 73.3362 13.2285 71.159 10.6367C67.8653 6.53108 63.7429 3.40177 59.6996 0.0824892C59.3671 -0.191919 58.8868 0.283018 59.2246 0.562704C62.967 3.63924 66.8888 6.54164 70.0031 10.2884C72.2151 12.8878 74.2669 15.6193 76.1471 18.4678C78.1846 21.6341 79.4989 25.1275 80.8238 28.6262C80.9769 29.0326 81.6261 28.8584 81.473 28.4468V28.4363Z" fill="#00043B"/>
<path d="M69.2274 30.5524C69.2041 30.5801 69.175 30.6024 69.1422 30.6177C69.1094 30.633 69.0736 30.6409 69.0374 30.6409C69.0012 30.6409 68.9654 30.633 68.9325 30.6177C68.8997 30.6024 68.8706 30.5801 68.8474 30.5524C68.4251 30.0616 67.3008 29.0273 65.9178 30.0985C64.5349 31.1698 66.0287 33.0854 66.4457 33.9772C67.0421 35.2806 67.5014 39.2543 66.1026 42.4997C65.105 44.848 61.0723 49.0169 61.0723 49.0169C61.0723 49.0169 66.5935 55.1963 70.6367 52.4945C70.6367 52.4945 71.0379 43.7926 72.3733 42.0722C72.3997 42.0353 75.8359 44.0986 79.7314 38.2622C83.3999 32.7635 79.7684 29.3281 78.8869 28.6209C78.1373 28.0246 74.7328 24.7951 69.2274 30.5524Z" fill="#FFA47A"/>
<path d="M70.9214 48.9694C70.7842 48.9694 65.2524 51.6871 65.2524 51.6871C65.2524 51.6871 67.8019 54.2834 70.6258 52.4945L70.9214 48.9694Z" fill="#CF5540"/>
<path d="M78.459 39.6342L75.3659 37.9033C75.3659 37.9033 75.3078 39.8242 76.2896 40.1672C77.2714 40.5102 78.459 39.6342 78.459 39.6342Z" fill="white"/>
<path d="M68.3357 31.3439C67.924 30.927 67.1375 30.7265 66.7205 31.1381C66.5332 31.3863 66.4405 31.6931 66.4588 32.0035C66.4772 32.3139 66.6055 32.6076 66.8208 32.832" fill="#CF5540"/>
<path d="M78.3218 36.9587L77.2661 38.431L78.1212 38.8057C78.1567 38.8228 78.1961 38.8301 78.2353 38.8269C78.2745 38.8237 78.3122 38.8101 78.3444 38.7876C78.3767 38.765 78.4023 38.7343 78.4188 38.6985C78.4352 38.6627 78.4418 38.6232 78.4379 38.5841L78.3218 36.9587Z" fill="#CF5540"/>
<path d="M81.3676 31.2911C81.3676 31.2911 72.3943 33.1909 68.8472 30.5524C65.3001 27.9138 74.4687 21.0114 77.8997 25.1064C81.3306 29.2014 81.3676 31.2911 81.3676 31.2911Z" fill="#00043B"/>
<path d="M72.389 42.0617C71.0434 41.3551 69.9499 40.2489 69.2589 38.8954C68.6361 37.6289 68.6361 43.7609 71.3967 45.2015C71.3967 45.2279 71.8876 43.5445 72.389 42.0617Z" fill="#CF5540"/>
<path d="M77.1346 33.5023C76.7439 33.5498 77.6624 32.8954 78.1005 32.9745C78.3013 33.0083 78.4809 33.1196 78.6004 33.2844C78.7199 33.4493 78.7697 33.6545 78.7392 33.8558C78.2618 33.5547 77.6943 33.4296 77.1346 33.5023Z" fill="#00043B"/>
<path d="M81.2358 34.7793C81.0869 34.6339 80.8871 34.5526 80.6789 34.5526C80.4708 34.5526 80.271 34.6339 80.1221 34.7793C80.4904 34.9191 80.8185 35.1474 81.0775 35.4442" fill="#00043B"/>
<path d="M77.0922 36.0036C76.9549 36.2939 76.9549 36.5788 77.0922 36.6421C77.2294 36.7055 77.4564 36.5313 77.62 36.2464C77.7837 35.9614 77.7573 35.6764 77.62 35.6078C77.4828 35.5392 77.2294 35.7292 77.0922 36.0036Z" fill="#00043B"/>
<path d="M79.0609 36.9587C78.9289 37.2331 78.9289 37.4864 79.0609 37.5709C79.1928 37.6553 79.404 37.4653 79.5359 37.1909C79.6679 36.9165 79.6679 36.6632 79.5359 36.5788C79.404 36.4943 79.1928 36.6843 79.0609 36.9587Z" fill="#00043B"/>
<path opacity="0.37" d="M71.5656 36.1672C71.4629 36.493 71.4593 36.8419 71.5551 37.1697C71.651 37.4976 71.842 37.7896 72.104 38.0089C72.3659 38.2281 72.6871 38.3647 73.0268 38.4013C73.3665 38.438 73.7093 38.373 74.0121 38.2146C74.3148 38.0563 74.5637 37.8117 74.7272 37.5118C74.8908 37.2119 74.9617 36.8703 74.9309 36.5301C74.9001 36.1899 74.769 35.8665 74.5542 35.6009C74.3395 35.3353 74.0507 35.1393 73.7244 35.0379C73.2884 34.9038 72.8169 34.9471 72.4127 35.1586C72.0084 35.3701 71.704 35.7325 71.5656 36.1672Z" fill="#E8632E" stroke="#E8632E" stroke-width="0.32" stroke-miterlimit="10"/>
<path d="M67.5118 28.6157C69.4173 30.7846 71.0536 33.2068 74.2259 33.1751C77.1149 33.1416 79.9068 32.1275 82.1435 30.2991C82.4127 30.0669 82.0221 29.6764 81.7529 29.9086C79.6104 31.6299 76.9532 32.5848 74.2048 32.621C71.2383 32.6527 69.6443 30.2358 67.8707 28.2252C67.6332 27.9613 67.2426 28.3518 67.4801 28.6157H67.5118Z" fill="#00043B"/>
<path d="M46.4561 75.7453C48.7416 76.6213 50.3885 78.5368 51.2066 82.463C52.0248 86.3891 55.9572 80.0144 55.8463 83.9617C54.3103 84.8166 45.9441 95.5713 43.0568 96.7955C30.2461 102.115 20.4917 104.4 8.02938 101.883C-4.16371 99.4235 -11.1206 85.5237 -14.6677 76.3205C-17.4705 69.075 -17.4125 63.17 -18.6846 55.7821C-18.3151 54.9219 -11.1048 54.7267 -10.7089 55.0591C-5.79473 70.2993 1.01439 78.806 10.2727 80.5421C18.9187 82.1833 25.0522 80.8376 31.3863 78.8112C31.3652 78.7954 38.4435 72.6687 46.4561 75.7453Z" fill="black" stroke="#365185" stroke-width="0.3" stroke-miterlimit="10"/>
<g style="mix-blend-mode:multiply" opacity="0.43">
<g style="mix-blend-mode:multiply" opacity="0.43">
<path d="M10.2729 80.5263C18.919 82.1675 25.0525 80.8218 31.3865 78.7954C31.3865 78.7954 38.4648 72.674 46.4774 75.7453C48.763 76.6213 50.4099 78.5368 51.228 82.463C52.0462 86.3891 55.7305 80.4313 55.6355 84.3786C54.0995 85.2282 45.9655 95.5924 43.0782 96.7955" fill="#365185"/>
</g>
</g>
<path d="M55.1022 82.4947C51.0959 78.8008 43.4897 72.901 42.8246 73.3073C35.9627 74.1358 29.238 79.5132 26.1449 85.4182C25.5537 86.5595 24.8233 87.623 23.9702 88.5845C20.08 92.917 15.7042 96.6848 8.41476 99.4869C-0.379047 102.87 -11.1153 99.8089 -23.3084 89.4605C-24.6544 90.8853 -29.3838 93.107 -29.2466 94.0304C-24.2691 99.5819 -21.1654 104.331 -15.0002 109.012C-7.14067 114.965 6.11338 123.123 17.7575 118.796C28.139 114.998 37.2064 108.291 43.875 99.4764L55.1022 82.4947Z" fill="#263238" stroke="#4465A6" stroke-width="0.3" stroke-miterlimit="10"/>
<g style="mix-blend-mode:multiply" opacity="0.5">
<path d="M42.4343 101.202C42.4343 101.202 7.33829 135.466 -28.7554 93.6293C-28.7554 93.6293 -20.3838 108.11 -3.19739 116.099C-2.34757 115.513 15.504 130.975 42.4343 101.202Z" fill="#4465A6"/>
</g>
<path d="M70.8796 49.7135C71.133 50.1937 72.8485 62.6318 70.431 66.8218C68.8105 69.6292 59.6789 77.9986 55.5934 83.128C55.5934 83.128 47.3116 77.9881 42.6719 73.5342C43.9651 68.6846 48.3303 49.8982 57.2508 44.9536C59.1298 45.3647 60.9837 45.8827 62.8037 46.505C62.8037 46.505 67.6545 54.7267 70.8796 49.7135Z" fill="#FFA47A" stroke="#FFA47A" stroke-width="1.48" stroke-linecap="round" stroke-linejoin="round"/>
<path d="M43.0515 70.7479L42.6768 72.2255L52.7585 81.0699L43.0515 70.7479Z" fill="#CF5540"/>
<path d="M70.8795 49.7135C71.1329 50.1937 72.8484 62.6318 70.4308 66.8218C68.8104 69.6292 59.6788 77.9986 55.5933 83.128C55.5933 83.128 53.0544 81.434 41.748 68.7848C43.0413 63.9405 48.3302 49.8982 57.2507 44.9536C59.1297 45.3647 60.9836 45.8827 62.8036 46.505C62.8036 46.505 67.6544 54.7267 70.8795 49.7135Z" fill="#F8F1EE" stroke="#F8F1EE" stroke-width="1.48" stroke-miterlimit="10"/>
<g style="mix-blend-mode:multiply">
<path d="M55.5933 83.128C55.5933 83.128 53.0544 81.434 41.748 68.7848C43.0413 63.9405 48.3302 49.8982 57.2507 44.9536C59.1297 45.3647 60.9836 45.8827 62.8036 46.505" fill="#F8F1EE"/>
<path d="M55.5933 83.128C55.5933 83.128 53.0544 81.434 41.748 68.7848C43.0413 63.9405 48.3302 49.8982 57.2507 44.9536C59.1297 45.3647 60.9836 45.8827 62.8036 46.505" stroke="#F8F1EE" stroke-width="1.48" stroke-linecap="round" stroke-linejoin="round"/>
</g>
<path d="M150.208 163.677L223.789 195.377C225.237 195.989 226.86 196.041 228.344 195.523C229.828 195.005 231.066 193.954 231.818 192.575L278.954 104.558C280.822 101.123 280.733 97.2072 277.038 95.9301C277.038 95.9301 261.034 81.4182 232.847 73.2387C224.681 70.8693 198.205 68.5579 198.205 68.5579L150.208 163.677Z" stroke="#F8F1EE" stroke-width="1.06" stroke-linecap="round" stroke-linejoin="round"/>
<path d="M153.502 165.018L84.0012 124.432C82.6525 123.623 81.653 122.341 81.1974 120.836C80.7417 119.331 80.8625 117.71 81.5362 116.289L123.04 27.5866C124.719 24.051 128.709 23.7608 132.383 25.1117C143.964 29.3334 154.262 27.1803 177.471 45.1646C184.196 50.3731 201.667 70.426 201.667 70.426L153.502 165.018Z" stroke="#F8F1EE" stroke-width="1.06" stroke-linecap="round" stroke-linejoin="round"/>
<path d="M274.726 97.223C274.726 97.223 259.328 83.2651 232.224 75.4076C224.702 73.2334 201.081 71.1015 199.039 70.922C196.875 68.4524 182.037 51.5921 176.051 46.9535C153.745 29.6711 143.853 31.7661 132.716 27.6816C129.184 26.3888 125.352 26.6684 123.742 30.0669L83.843 115.323C83.1944 116.689 83.0772 118.248 83.5143 119.695C83.9514 121.143 84.9115 122.376 86.2077 123.155L152.879 162.094H152.964L223.509 192.865C224.901 193.456 226.464 193.507 227.892 193.009C229.32 192.51 230.51 191.497 231.232 190.168L276.568 105.513C278.362 102.22 278.283 98.4473 274.726 97.223Z" fill="#89C06A" stroke="#2E4470" stroke-width="0.3" stroke-miterlimit="10"/>
<path d="M148.857 160.126L156.442 164.084L203.499 71.455C200.608 71.2499 197.885 70.0206 195.819 67.988L148.857 160.126Z" fill="#1D2B47" stroke="#1D2B47" stroke-width="0.3" stroke-miterlimit="10"/>
<path d="M269.606 100.5C269.606 100.5 237.846 77.5764 197.936 73.0593C170.81 43.6448 133.756 31.5075 133.756 31.5075L89.4487 117.593C98.3112 119.983 146.719 152.796 153.945 158.622L153.866 158.775L154.188 158.817C154.396 158.981 154.593 159.157 154.779 159.345L154.98 158.96C161.974 160.442 194.103 170.247 226.096 186.97L269.606 100.5Z" fill="#CFB2A3"/>
<path d="M175.761 55.6027C175.761 55.6027 180.016 43.0802 188.841 39.4179C188.957 39.3683 189.084 39.3469 189.21 39.3554C189.336 39.3639 189.459 39.4022 189.567 39.467C189.676 39.5318 189.767 39.6214 189.835 39.7284C189.902 39.8354 189.943 39.9569 189.955 40.0828L190.213 42.9007L193.549 43.3493C193.699 43.3685 193.841 43.43 193.957 43.5266C194.074 43.6232 194.16 43.7508 194.207 43.8947C194.253 44.0386 194.258 44.1927 194.22 44.339C194.182 44.4854 194.103 44.618 193.993 44.7213C190.71 47.7979 181.979 56.8006 182.227 60.141L175.761 55.6027Z" fill="#FF7F4D" stroke="#FF7F4D" stroke-width="0.6" stroke-miterlimit="10"/>
<g opacity="0.76">
<path opacity="0.76" d="M177.83 55.6395C178.399 53.8654 179.154 52.1566 180.084 50.5419C181.194 48.8859 182.429 47.3176 183.779 45.8506C184.307 45.2595 183.436 44.3994 182.918 44.9904C181.508 46.5354 180.216 48.1848 179.055 49.9245C177.967 51.6395 177.381 53.4337 176.674 55.3124C176.4 56.0512 177.577 56.3678 177.851 55.6395H177.83Z" fill="#F2FCF9"/>
<path opacity="0.76" d="M185.558 43.7187L186.977 42.5208C187.092 42.4067 187.156 42.252 187.156 42.0907C187.156 41.9294 187.092 41.7747 186.977 41.6606C186.863 41.5466 186.709 41.4825 186.547 41.4825C186.386 41.4825 186.231 41.5466 186.117 41.6606L184.692 42.8585C184.578 42.9726 184.514 43.1273 184.514 43.2886C184.514 43.4499 184.578 43.6046 184.692 43.7187C184.806 43.8328 184.961 43.8968 185.122 43.8968C185.283 43.8968 185.438 43.8328 185.552 43.7187H185.558Z" fill="#F2FCF9"/>
</g>
<path d="M135.297 34.7107C141.378 33.175 141.547 34.3782 147.617 35.9402C153.172 37.2483 158.499 39.3829 163.42 42.2727C168.408 45.1698 174.457 49.2965 178.585 53.3229C185.262 59.8349 191.253 65.8296 197.503 72.7637L153.74 156.986C153.74 156.986 112.299 107.265 93.3442 116.511L135.297 34.7107Z" fill="#F8F1EE"/>
<path d="M135.424 35.1699C137.693 34.6422 139.826 34.2358 142.127 34.8057C144.239 35.3335 146.292 36.067 148.387 36.6316C153.414 37.9557 158.25 39.919 162.776 42.4733C172.436 47.9932 180.142 55.3494 187.875 63.2439C189.666 65.0698 191.436 66.915 193.185 68.7796C194.067 69.7242 194.895 70.7638 195.824 71.6503C195.529 71.3707 197.07 72.8166 197.054 72.6002C197.054 72.9379 196.479 73.7137 196.331 73.9986L192.298 81.7612L162.079 139.936L153.328 156.77L154.072 156.675C149.05 150.72 143.726 145.028 138.121 139.619C129.295 131.012 119.446 121.962 107.944 117.112C103.289 115.149 97.889 113.888 93.1067 116.126L93.7507 116.775L107.876 89.223C115.427 74.5 122.979 59.7734 130.531 45.0433L135.709 34.9482C135.983 34.4205 135.181 33.9298 134.89 34.4733L120.766 62.0197C113.21 76.7498 105.664 91.4763 98.1265 106.199L92.9484 116.294C92.9003 116.385 92.8826 116.489 92.8979 116.591C92.9132 116.692 92.9606 116.786 93.0333 116.859C93.1059 116.931 93.1999 116.979 93.3015 116.994C93.403 117.009 93.5069 116.992 93.5976 116.944C97.984 114.891 103.02 116.094 107.29 117.851C113.012 120.205 118.221 123.814 123.083 127.593C132.235 134.717 140.533 142.97 148.324 151.545C150.05 153.45 151.771 155.366 153.418 157.35C153.469 157.4 153.532 157.438 153.6 157.461C153.669 157.484 153.741 157.491 153.813 157.482C153.884 157.472 153.953 157.447 154.013 157.408C154.074 157.369 154.124 157.317 154.162 157.255L168.989 128.727L192.488 83.4974L197.888 73.0276C197.939 72.9366 197.96 72.8314 197.947 72.7278C197.933 72.6242 197.887 72.5276 197.814 72.4524C188.487 62.1094 178.812 51.4074 166.962 43.9087C161.83 40.5634 156.248 37.9673 150.383 36.1989C147.654 35.4073 144.888 34.4733 142.127 33.8242C139.768 33.2965 137.503 33.6976 135.186 34.2569C134.579 34.3994 134.832 35.3123 135.424 35.1699Z" fill="#F8F1EE"/>
<path d="M220.058 178.896C201.466 166.944 180.298 159.582 158.3 157.419C157.693 157.361 157.699 158.305 158.3 158.363C180.113 160.53 201.099 167.846 219.53 179.709C220.058 180.042 220.522 179.224 220.01 178.896H220.058Z" fill="#F8F1EE"/>
<path d="M154.516 158.712C178.269 163.53 201.947 171.82 223.019 183.915C223.126 183.965 223.248 183.973 223.361 183.937C223.474 183.901 223.57 183.825 223.629 183.722C223.689 183.62 223.708 183.499 223.683 183.383C223.658 183.268 223.59 183.166 223.494 183.097C202.38 170.96 178.627 162.627 154.764 157.799C154.173 157.677 153.914 158.59 154.516 158.712Z" fill="#F8F1EE"/>
<path d="M95.8727 116.996C101.473 117.951 106.525 120.69 111.439 123.424C125.29 131.155 137.832 141.027 148.599 152.675C149.016 153.123 149.681 152.453 149.269 152.004C141.97 144.143 133.868 137.068 125.094 130.896C120.722 127.823 116.189 124.987 111.513 122.4C106.651 119.709 101.658 117.044 96.1208 116.099C95.5244 115.999 95.271 116.912 95.8727 117.012V116.996Z" fill="#F8F1EE"/>
<path d="M93.4497 117.466C116.02 127.408 136.875 142.194 154.785 159.055C155.228 159.477 155.898 158.807 155.455 158.39C137.508 141.471 116.564 126.622 93.9248 116.648C93.3969 116.405 92.8691 117.223 93.4497 117.466Z" fill="#F8F1EE"/>
<path d="M266.718 101.64L233.681 163.962C233.396 164.49 234.209 164.981 234.499 164.442L267.563 102.115C267.848 101.587 267.035 101.102 266.745 101.64H266.718Z" fill="#F8F1EE"/>
<path d="M265.393 100.458C263.055 94.653 261.978 95.2124 257.143 91.2229C252.809 87.5071 247.94 84.4635 242.701 82.1938C237.423 79.8719 230.524 77.4128 224.839 76.4471C215.644 74.864 207.326 73.8455 198.051 72.8903L153.829 157.529C153.829 157.529 220.865 163.577 224.56 184.337L265.393 100.458Z" fill="#F8F1EE"/>
<path d="M265.847 100.331C265.082 98.4684 264.264 96.5845 262.849 95.1227C261.266 93.5079 259.223 92.2889 257.476 90.9011C252.584 86.8932 247.15 83.5975 241.334 81.1121C227.611 75.3442 212.747 73.9563 198.052 72.4313C197.969 72.4299 197.887 72.4514 197.815 72.4932C197.744 72.5351 197.685 72.5958 197.645 72.6687L182.728 101.212L158.928 146.77C157.091 150.288 155.256 153.806 153.423 157.324C153.383 157.396 153.362 157.477 153.363 157.559C153.363 157.642 153.385 157.722 153.426 157.794C153.467 157.866 153.525 157.925 153.596 157.968C153.667 158.01 153.747 158.034 153.829 158.036C161.282 158.712 168.714 159.846 176.067 161.202C188.672 163.519 202 166.379 213.296 172.68C217.93 175.266 223.013 178.944 224.085 184.49C224.111 184.578 224.163 184.656 224.233 184.716C224.303 184.776 224.389 184.814 224.48 184.826C224.571 184.838 224.664 184.824 224.747 184.785C224.831 184.746 224.901 184.684 224.95 184.606C229.525 175.202 234.1 165.797 238.674 156.39L260.727 111.112L265.784 100.727C266.048 100.199 265.256 99.6716 264.966 100.247C260.391 109.654 255.817 119.06 251.242 128.463L229.189 173.741C227.507 177.202 225.821 180.664 224.132 184.126L224.998 184.242C222.981 173.799 208.867 168.997 200.189 166.142C187.996 162.142 175.238 159.809 162.533 158.105C159.646 157.719 156.727 157.355 153.84 157.091C153.977 157.329 154.114 157.566 154.246 157.804C161.865 143.229 169.48 128.655 177.091 114.083C182.187 104.335 187.278 94.5897 192.367 84.8482L197.059 75.835C197.371 75.244 197.719 74.0408 198.231 73.5975C198.331 73.5131 198.331 73.2545 198.442 73.1859C198.268 73.2967 200.591 73.6872 200.1 73.6028C201.746 73.8772 203.441 73.9669 205.104 74.1569C217.83 75.6239 230.255 77.3231 242.084 82.463C247.382 84.8238 252.334 87.8932 256.805 91.5871C258.352 92.8325 260.052 93.9195 261.556 95.223C263.219 96.6795 264.116 98.5898 264.945 100.606C265.161 101.165 266.08 100.896 265.847 100.331Z" fill="#F8F1EE"/>
<path opacity="0.42" d="M197.086 72.9695C197.086 72.9695 170.836 116.157 155.973 122.141C135.466 130.389 109.116 117.455 109.116 117.455C109.116 117.455 149.327 143.382 153.74 157.007L197.086 72.9695Z" fill="#E0CFC8"/>
<path opacity="0.42" d="M201.056 72.236C201.056 72.236 182.449 119.202 186.646 134.68C192.452 156.004 218.654 169.208 218.654 169.208C218.654 169.208 173.745 152.796 160.18 157.498L201.056 72.236Z" fill="#E0CFC8"/>
<g opacity="0.46">
<path opacity="0.46" d="M137.714 44.2464C138.598 44.1815 139.486 44.2401 140.353 44.4205C140.781 44.4838 141.187 44.6158 141.604 44.7108C142.021 44.8058 142.412 44.9693 142.819 45.1013C143.225 45.2332 143.605 45.4126 143.996 45.5868C144.386 45.7609 144.766 45.9403 145.136 46.1725C145.919 46.5999 146.64 47.1326 147.279 47.7556L147.237 47.8612C145.653 47.3335 144.033 46.7266 142.433 46.1672C140.834 45.6079 139.266 44.9957 137.683 44.3677L137.714 44.2464Z" fill="#659FEB"/>
<path opacity="0.46" d="M152.436 50.8586L153.74 51.3864L155.033 51.9141L157.593 53.0645L160.095 54.3415C160.918 54.7848 161.731 55.2544 162.549 55.7136C163.368 56.1727 164.133 56.674 164.951 57.1753L167.3 58.7162L169.591 60.3521L171.829 62.0566L173.998 63.8455C174.706 64.463 175.418 65.0751 176.11 65.7031L178.152 67.6345C178.817 68.2959 179.474 68.9643 180.121 69.6398C180.755 70.3311 181.399 71.0118 182.021 71.7084L183.832 73.8562L185.542 76.0778C186.102 76.8272 186.642 77.5906 187.163 78.3681L187.078 78.4367C177.499 67.0153 165.692 57.6658 152.378 50.9589L152.436 50.8586Z" fill="#659FEB"/>
<path opacity="0.46" d="M131.739 54.7267H132.885L134.025 54.7742L136.305 54.9694L138.575 55.3283C139.325 55.476 140.069 55.6555 140.818 55.819C141.568 55.9826 142.296 56.2201 143.035 56.4417L145.215 57.1805C145.928 57.4602 146.635 57.761 147.327 58.0512L149.438 59.0222L151.465 60.1199C152.125 60.5156 152.79 60.9009 153.439 61.3072L155.339 62.6106C155.951 63.0715 156.558 63.5394 157.16 64.0143C157.741 64.5157 158.327 65.0064 158.897 65.5183L160.538 67.1014L162.064 68.8112C162.555 69.397 163.019 69.9985 163.473 70.6107L163.394 70.6846C154.989 61.8931 143.798 56.284 131.724 54.8111L131.739 54.7267Z" fill="#659FEB"/>
<path opacity="0.46" d="M169.084 76.8904C170.282 77.3886 171.43 78.0018 172.51 78.7216C173.037 79.0488 173.565 79.4393 174.093 79.777C174.621 80.1147 175.101 80.5527 175.603 80.9432C176.104 81.3337 176.579 81.7612 177.049 82.1834C177.519 82.6055 177.989 83.0382 178.427 83.5079C179.349 84.4197 180.183 85.4162 180.918 86.4842L180.844 86.5739L174.901 81.8245L169.021 76.9749L169.084 76.8904Z" fill="#659FEB"/>
<path opacity="0.46" d="M123.463 77.4551C124.714 77.7928 125.975 78.0989 127.205 78.5105L129.058 79.091C129.676 79.2915 130.288 79.5131 130.9 79.7189C133.344 80.6002 135.735 81.6134 138.116 82.6636C142.85 84.8316 147.401 87.38 151.723 90.2837C156.046 93.187 160.119 96.4455 163.901 100.025C165.796 101.809 167.596 103.677 169.364 105.571C170.229 106.537 171.079 107.508 171.929 108.484C172.779 109.461 173.613 110.447 174.436 111.45L174.357 111.524C170.773 107.83 167.194 104.083 163.325 100.674C159.472 97.2444 155.387 94.083 151.101 91.2124C142.547 85.4352 133.25 80.8429 123.463 77.5606V77.4551Z" fill="#659FEB"/>
<path opacity="0.46" d="M120.016 86.8852C121.544 87.0689 123.048 87.4229 124.497 87.9406C125.226 88.1675 125.922 88.4683 126.635 88.7427C127.348 89.0171 128.023 89.376 128.709 89.7032C129.396 90.0303 130.05 90.4208 130.705 90.8113C131.359 91.2018 132.003 91.6082 132.621 92.062C133.888 92.9292 135.056 93.9325 136.105 95.0541L136.046 95.1491C130.954 91.944 125.575 89.2181 119.979 87.0066L120.016 86.8852Z" fill="#659FEB"/>
<path opacity="0.46" d="M142.993 100.838L143.805 101.297L144.592 101.788L146.175 102.764C147.231 103.445 148.234 104.131 149.232 104.843C150.229 105.556 151.222 106.289 152.214 107.012L155.128 109.265C156.078 110.041 157.038 110.812 157.978 111.598C158.917 112.384 159.857 113.181 160.76 114.015C161.662 114.848 162.581 115.672 163.473 116.521C164.365 117.371 165.241 118.247 166.07 119.16L165.996 119.25L154.426 110.136L142.929 100.922L142.993 100.838Z" fill="#659FEB"/>
<path opacity="0.46" d="M126.762 114.316C127.833 114.211 128.915 114.344 129.929 114.706C130.428 114.872 130.916 115.07 131.391 115.297C131.855 115.535 132.304 115.825 132.753 116.073C133.201 116.321 133.603 116.669 134.004 116.996C134.403 117.327 134.783 117.68 135.144 118.052C135.885 118.796 136.506 119.651 136.986 120.585L136.912 120.669C135.421 119.335 133.833 118.112 132.162 117.012C131.329 116.456 130.461 115.954 129.565 115.508C128.666 115.068 127.732 114.704 126.772 114.421L126.762 114.316Z" fill="#659FEB"/>
<path opacity="0.46" d="M140.391 124.104C141.747 124.899 143.037 125.801 144.249 126.801C144.867 127.276 145.431 127.804 146.028 128.3C146.624 128.796 147.163 129.355 147.733 129.883C148.303 130.411 148.831 130.975 149.364 131.54C149.897 132.105 150.42 132.664 150.947 133.265C151.989 134.442 152.935 135.701 153.777 137.028L153.697 137.107L146.978 130.69L140.333 124.189L140.391 124.104Z" fill="#659FEB"/>
<path opacity="0.46" d="M203.441 84.4577C204.436 84.2226 205.461 84.1372 206.482 84.2044C207.009 84.2044 207.479 84.2941 207.975 84.3416C208.471 84.3891 208.952 84.5263 209.443 84.6213C209.934 84.7163 210.403 84.8799 210.878 85.0382C211.353 85.1965 211.818 85.3654 212.272 85.5659C213.21 85.9638 214.085 86.4972 214.869 87.149L214.837 87.2546C212.969 86.6635 211.09 86.1094 209.184 85.6714C207.279 85.2334 205.357 84.8429 203.425 84.5263L203.441 84.4577Z" fill="#659FEB"/>
<path opacity="0.46" d="M221.82 89.3972C223.314 89.5502 224.781 89.8615 226.265 90.1412L228.455 90.6689C229.178 90.8695 229.896 91.0911 230.619 91.3075C231.342 91.5238 232.05 91.7771 232.762 92.0304L234.874 92.8378C235.565 93.1281 236.257 93.4341 236.948 93.7349L238.991 94.6953L240.991 95.7508C241.646 96.1254 242.306 96.4843 242.955 96.8695L244.871 98.0727C245.499 98.4843 246.117 98.917 246.734 99.3445C247.352 99.7719 247.948 100.231 248.545 100.695L250.292 102.12C251.411 103.133 252.54 104.12 253.564 105.223L253.491 105.308C244.183 97.8165 233.37 92.4171 221.789 89.4763L221.82 89.3972Z" fill="#659FEB"/>
<path opacity="0.46" d="M198.416 95.8879C200.431 95.6556 202.466 95.6769 204.476 95.9512C205.484 96.0621 206.476 96.2679 207.474 96.479C207.97 96.595 208.456 96.7323 208.946 96.8536L210.409 97.2811L211.844 97.8088C212.314 97.9988 212.789 98.1729 213.259 98.3734C214.183 98.7903 215.106 99.2072 215.988 99.7032C217.779 100.657 219.444 101.831 220.944 103.197L220.881 103.292C214.056 99.1575 206.368 96.6578 198.416 95.9882V95.8879Z" fill="#659FEB"/>
<path opacity="0.46" d="M228.909 106.252C230.921 106.744 232.889 107.396 234.795 108.205C235.755 108.579 236.679 109.028 237.619 109.455C238.558 109.883 239.461 110.379 240.374 110.854C241.287 111.329 242.169 111.862 243.055 112.389C243.942 112.917 244.808 113.476 245.647 114.067C247.368 115.219 248.994 116.508 250.509 117.92L250.45 118.015C246.991 115.823 243.455 113.763 239.841 111.835C236.227 109.907 232.567 108.08 228.862 106.352L228.909 106.252Z" fill="#659FEB"/>
<path opacity="0.46" d="M191.406 109.265C192.427 109.237 193.448 109.331 194.446 109.545C194.937 109.624 195.412 109.772 195.893 109.888C196.373 110.004 196.838 110.184 197.307 110.331C197.777 110.479 198.231 110.674 198.69 110.859C199.15 111.044 199.598 111.255 200.031 111.498C200.946 111.951 201.802 112.515 202.58 113.176L202.544 113.281C200.664 112.674 198.806 112.009 196.938 111.376C195.069 110.743 193.211 110.062 191.369 109.36L191.406 109.265Z" fill="#659FEB"/>
<path opacity="0.46" d="M206.751 115.202C207.233 115.125 207.725 115.125 208.208 115.202C208.614 115.271 209.011 115.388 209.39 115.55C209.766 115.713 210.12 115.92 210.446 116.168C210.836 116.465 211.178 116.821 211.459 117.223L211.433 117.334C210.578 117.169 209.743 116.917 208.941 116.579C208.145 116.23 207.388 115.799 206.682 115.292L206.751 115.202Z" fill="#659FEB"/>
<path opacity="0.46" d="M180.997 128.078L182.734 128.289L184.47 128.537L187.922 129.139L191.343 129.92L194.737 130.812C195.861 131.134 196.985 131.471 198.099 131.83L201.424 132.975L204.697 134.258L207.927 135.645C212.198 137.581 216.318 139.833 220.252 142.384L223.161 144.353L226.001 146.405L228.73 148.606C229.622 149.361 230.503 150.131 231.369 150.912L231.3 151.002C216.532 139.595 199.309 131.785 180.997 128.189V128.078Z" fill="#659FEB"/>
<path opacity="0.46" d="M194.921 142.511C196.038 142.081 197.259 142.002 198.421 142.284C198.993 142.398 199.554 142.559 200.099 142.764C200.627 142.97 201.155 143.223 201.683 143.471C202.211 143.719 202.67 144.036 203.14 144.347C203.61 144.659 204.064 144.991 204.486 145.361C205.369 146.075 206.165 146.892 206.856 147.793L206.798 147.888C204.945 146.696 203.103 145.466 201.16 144.458C200.2 143.93 199.197 143.483 198.162 143.123C197.133 142.75 196.042 142.58 194.948 142.622L194.921 142.511Z" fill="#659FEB"/>
<path opacity="0.46" d="M212.034 150.316C213.442 150.673 214.816 151.152 216.141 151.746C216.806 152.01 217.439 152.342 218.089 152.643C218.738 152.944 219.355 153.303 219.989 153.635C220.622 153.968 221.224 154.347 221.836 154.722C222.448 155.097 223.05 155.477 223.631 155.899C224.836 156.706 225.968 157.617 227.014 158.622L226.962 158.717L219.445 154.617L211.981 150.395L212.034 150.316Z" fill="#659FEB"/>
</g>
<path d="M53.0594 51.3493C51.3123 75.3284 89 88.7111 89 88.7111L97.4454 90.9644C104.925 95.5977 108.731 96.2098 108.731 96.2098L103.822 93.2494L111.407 95.624C111.613 95.6821 111.116 95.1386 110.932 95.0383L105.126 91.9301L112.906 93.8773C112.943 93.8906 112.984 93.8887 113.019 93.8718C113.055 93.855 113.083 93.8247 113.096 93.7876C113.109 93.7505 113.107 93.7097 113.09 93.6741C113.074 93.6384 113.043 93.6109 113.006 93.5976L105.711 89.9037C105.711 89.9037 113.201 91.624 112.573 90.9591C111.945 90.2942 104.577 87.3918 104.577 87.3918C104.577 87.3918 106.994 83.8192 106.778 83.5026C106.424 82.9749 103.843 84.5052 101.198 84.9221C99.5304 85.186 86.9942 79.8509 86.9942 79.8509C77.3981 75.5448 64.9728 64.769 66.4085 49.3229C66.4085 49.3229 65.8173 44.2042 59.6152 43.6817C53.4131 43.1593 53.0594 51.3493 53.0594 51.3493Z" fill="#FFA47A" stroke="#FFA47A" stroke-width="1.48" stroke-linecap="round" stroke-linejoin="round"/>
<path d="M74.2946 70.2465C69.4543 64.8692 68.045 58.9536 66.4245 49.3335C66.4245 49.3335 65.8333 44.2147 59.6312 43.6923C53.4291 43.1698 53.0596 51.3493 53.0596 51.3493C52.4737 59.4127 52.8379 64.236 58.2377 69.8191L74.2946 70.2465Z" fill="#FF7F4D" stroke="#FF7F4D" stroke-width="0.6" stroke-miterlimit="10"/>
<path d="M74.7854 70.5948L62.8879 73.4339C61.7761 72.4842 60.7644 71.4232 59.8687 70.2676L74.7854 70.5948Z" fill="#CF5540"/>
<path d="M139.958 150.77C135.133 164.252 125.838 172.759 112.484 171.825C101.763 171.076 91.8295 166.194 82.207 161.403C78.9133 159.762 75.5351 158.057 73.0595 155.334C69.4122 151.324 68.2456 145.714 67.2111 140.395C66.1765 135.075 65.1578 129.788 64.1338 124.484C63.3473 120.442 62.5133 116.263 60.138 112.875C57.7627 109.487 53.4186 107.17 49.4915 108.421C45.5644 109.672 43.5691 115.482 46.6623 118.199C53.1864 114.279 52.7483 104.706 50.5366 97.4288C46.8258 85.2364 40.5239 73.9894 32.0622 64.4576C26.256 57.9457 18.8082 52.009 10.1041 51.6184C-1.16524 51.0907 -10.6452 59.9298 -17.1271 69.1542C-23.8465 78.7215 -29.0404 89.7348 -29.7636 101.387C-30.1383 107.249 -28.9824 113.83 -24.2899 117.392C-19.5974 120.954 -10.9672 118.548 -10.7666 112.674" stroke="#FF7F4D" stroke-width="2.12" stroke-linecap="round" stroke-linejoin="round" stroke-dasharray="9.09 9.09"/>
<g style="mix-blend-mode:lighten">
<path d="M253.48 103.45C256.647 104.759 260.342 104.062 263.282 102.278C266.222 100.495 268.397 97.7507 270.234 94.8905C272.815 90.8536 274.852 86.0462 273.839 81.3601C273.311 78.9063 271.976 76.7004 270.519 74.6529C268.764 72.0437 266.563 69.7643 264.016 67.9194C261.434 66.1592 258.44 65.0982 255.326 64.8399C252.212 64.5817 249.084 65.135 246.248 66.446C243.412 67.757 240.964 69.7807 239.143 72.3197C237.323 74.8587 236.192 77.8263 235.861 80.9327" stroke="#F8F1EE" stroke-width="2.12" stroke-linecap="round" stroke-linejoin="round" stroke-dasharray="7.33 7.33"/>
</g>
<path d="M296.478 136.242C296.396 136.676 296.188 137.076 295.878 137.391C295.569 137.706 295.173 137.923 294.741 138.013C294.309 138.103 293.859 138.064 293.45 137.899C293.04 137.734 292.688 137.451 292.44 137.086C292.191 136.721 292.056 136.291 292.051 135.849C292.047 135.408 292.174 134.975 292.416 134.606C292.658 134.236 293.004 133.947 293.41 133.774C293.817 133.601 294.265 133.553 294.699 133.635C294.988 133.689 295.262 133.799 295.508 133.959C295.754 134.12 295.965 134.327 296.13 134.569C296.296 134.811 296.411 135.084 296.471 135.371C296.531 135.658 296.533 135.954 296.478 136.242Z" fill="#659FEB"/>
<path d="M271.2 130.659C272.844 130.659 274.177 129.326 274.177 127.682C274.177 126.039 272.844 124.706 271.2 124.706C269.555 124.706 268.223 126.039 268.223 127.682C268.223 129.326 269.555 130.659 271.2 130.659Z" stroke="#659FEB" stroke-width="1.06" stroke-miterlimit="10"/>
<path d="M171.787 32.1935C171.684 32.736 171.423 33.2359 171.037 33.6301C170.65 34.0243 170.155 34.2951 169.615 34.4081C169.074 34.5212 168.512 34.4715 168 34.2654C167.488 34.0592 167.048 33.7059 166.737 33.25C166.425 32.794 166.256 32.2561 166.251 31.7041C166.245 31.152 166.403 30.6107 166.705 30.1486C167.007 29.6865 167.44 29.3243 167.948 29.1078C168.456 28.8913 169.016 28.8302 169.559 28.9323C169.92 29.0001 170.263 29.1383 170.57 29.3389C170.877 29.5395 171.142 29.7987 171.349 30.1015C171.556 30.4044 171.701 30.745 171.776 31.104C171.851 31.4629 171.855 31.8332 171.787 32.1935Z" fill="#FF7F4D"/>
<path d="M153.745 171.783C153.636 172.361 153.357 172.894 152.945 173.314C152.533 173.735 152.005 174.023 151.429 174.144C150.853 174.264 150.254 174.211 149.708 173.991C149.162 173.772 148.693 173.395 148.361 172.909C148.029 172.423 147.849 171.849 147.843 171.261C147.837 170.672 148.006 170.095 148.328 169.602C148.65 169.11 149.11 168.724 149.652 168.493C150.193 168.262 150.791 168.197 151.37 168.305C152.145 168.454 152.83 168.903 153.275 169.554C153.72 170.206 153.889 171.007 153.745 171.783V171.783Z" stroke="#FF7F4D" stroke-width="1.06" stroke-miterlimit="10"/>
<path d="M78.4225 103.197C78.2933 103.884 77.9631 104.518 77.4736 105.018C76.9842 105.517 76.3574 105.861 75.6727 106.004C74.9879 106.148 74.2759 106.085 73.6268 105.824C72.9777 105.563 72.4207 105.116 72.0261 104.538C71.6316 103.96 71.4173 103.279 71.4103 102.579C71.4034 101.88 71.6041 101.194 71.9871 100.609C72.3701 100.023 72.9182 99.5646 73.562 99.2907C74.2057 99.0168 74.9163 98.94 75.6038 99.07C76.5246 99.2441 77.3387 99.7765 77.8672 100.55C78.3957 101.324 78.5954 102.276 78.4225 103.197Z" fill="#659FEB" stroke="#659FEB" stroke-width="1.06" stroke-linecap="round" stroke-linejoin="round" stroke-dasharray="9.09 9.09"/>
<path d="M13.2233 148.036C14.5089 148.036 15.551 146.994 15.551 145.709C15.551 144.424 14.5089 143.382 13.2233 143.382C11.9377 143.382 10.8955 144.424 10.8955 145.709C10.8955 146.994 11.9377 148.036 13.2233 148.036Z" fill="#FF7F4D"/>
</svg>
