<svg width="695" height="764" viewBox="0 0 695 764" fill="none" xmlns="http://www.w3.org/2000/svg">
<g opacity="0.4">
<path opacity="0.4" d="M462.261 254.928C486.005 194.195 533.766 142.886 593.32 115.954C610.424 108.237 629.707 102.624 648.56 106.101C664.186 108.98 679.091 117.975 685.731 132.876C699.211 163.138 689.764 199.755 665.716 221.598C641.668 243.441 606.978 252.572 575.117 248.824C573.022 248.583 573.022 251.871 575.117 252.112C605.104 255.651 637.185 247.808 661.348 229.473C687.941 209.284 700.248 176.604 692.77 143.808C689.334 128.813 681.133 116.53 667.391 109.158C652.089 100.959 634.284 100.31 617.62 104.09C599.311 108.279 581.946 117.064 565.984 126.76C517.419 156.391 479.896 201.106 459.151 254.07C458.375 256.038 461.549 256.897 462.293 254.939L462.261 254.928Z" fill="#659FEB"/>
<path opacity="0.4" d="M473.762 255.462C504.335 204.907 546.806 158.373 602.653 139.064C613.347 135.368 624.648 132.698 635.928 133.828C647.209 134.959 658.436 140.415 664.438 150.007C670.314 159.431 670.44 171.441 667.706 182.174C662.867 201.117 649.9 217.232 634.252 228.991C618.604 240.75 600.411 248.551 582.072 255.295" fill="#659FEB"/>
<path opacity="0.4" d="M475.186 256.342C499.883 215.672 531.818 177.494 573.829 153.923C594.776 142.132 624.648 128.279 648.549 138.876C676.043 151.043 669.245 184.666 655.493 204.844C638.243 230.153 609.408 243.452 581.632 253.766C579.663 254.489 580.521 257.672 582.511 256.907C608.57 247.253 635.111 235.253 653.178 213.326C667.392 196.069 679.751 166.488 663.841 146.363C646.151 123.996 613.724 132.289 591.571 141.588C567.712 151.577 546.303 166.624 527.608 184.394C505.895 205.033 487.828 229.117 472.348 254.635C471.248 256.447 474.086 258.101 475.186 256.29V256.342Z" fill="#659FEB"/>
<path opacity="0.4" d="M422.817 345.672C426.881 367.274 436.433 387.672 453.505 402.049C467.687 414.007 485.356 420.897 503.476 424.196C523.931 427.861 547.927 429.274 567.042 419.944C590.713 408.426 596.012 382.028 605.229 359.829C616.447 332.824 634.315 304.08 664.009 295.504C666.04 294.918 665.182 291.745 663.139 292.363C640.285 298.96 624.48 316.782 613.022 336.834C607.157 347.193 602.175 358.027 598.128 369.222C593.687 381.358 589.592 394.217 581.37 404.416C565.471 424.112 538.427 424.939 515.207 422.573C496.856 420.698 478.464 415.515 463.036 405.149C442.235 391.19 430.568 369.033 426.011 344.834C425.613 342.74 422.45 343.63 422.869 345.703L422.817 345.672Z" fill="#659FEB"/>
<path opacity="0.4" d="M439.324 256.457C439.324 256.771 439.25 257.08 439.108 257.359C438.966 257.638 438.76 257.88 438.507 258.065C438.254 258.25 437.96 258.372 437.651 258.422C437.341 258.472 437.025 258.448 436.726 258.352C425.372 224.206 427.08 187.347 425.362 151.399C423.644 115.452 417.412 77.4828 393.815 50.3205C383.791 38.8021 370.081 29.378 354.81 28.6555C339.539 27.9329 323.315 37.9644 320.697 53.0325C319.712 58.8021 320.697 64.6975 321.137 70.5299C321.913 81.1113 320.811 91.7466 317.879 101.944C316.916 105.273 315.669 108.687 313.124 111.033C306.327 117.315 295.162 112.635 286.322 115.357C280.299 117.211 275.848 122.446 273.051 128.09C267.699 138.865 267.228 151.661 270.192 163.326C273.156 174.991 279.336 185.63 286.688 195.159C308.411 223.051 339.782 241.812 374.637 247.756" fill="#659FEB"/>
<path opacity="0.4" d="M437.742 256.028C437.396 256.248 437.061 256.478 436.695 256.709L438.287 257.913C424.241 214.782 430.452 169.022 424.671 124.687C420.125 89.7237 406.446 46.5613 371.254 31.0534C356.455 24.5298 338.607 25.8911 326.887 37.8387C324.18 40.6024 322.051 43.8779 320.625 47.4738C319.198 51.0697 318.504 54.9137 318.581 58.7812C318.581 64.6765 319.629 70.5195 319.681 76.4148C319.727 82.8803 319.059 89.3311 317.691 95.6504C316.581 100.76 315.46 107.242 310.935 110.467C306.411 113.692 300.325 112.708 295.13 112.666C286.908 112.614 280.236 114.949 275.062 121.598C263.101 136.97 265.343 159.232 272.968 175.923C290.773 215.054 332.721 242.112 374.134 249.295C376.229 249.651 377.098 246.478 375.014 246.154C338.618 239.871 304.756 219.064 283.839 188.415C272.255 171.431 264.662 148.488 274.476 128.876C276.665 124.499 279.828 120.226 284.279 117.923C288.731 115.619 294.041 115.996 298.943 116.09C305.29 116.216 311.92 115.703 315.963 110.164C320.99 103.294 322.006 92.6138 322.687 84.3939C323.085 79.4559 323.085 74.494 322.687 69.5561C322.226 63.776 321.221 57.8179 322.54 52.0691C326.814 33.4513 349.175 27.0429 365.483 32.3204C383.666 38.2157 397.104 54.4252 405.723 70.8022C414.49 87.4619 418.994 106.111 421.434 124.687C427.289 169.316 421.005 215.347 435.145 258.782C435.245 259.126 435.452 259.43 435.736 259.648C436.021 259.866 436.368 259.988 436.726 259.996C439.093 259.996 440.214 259.106 440.916 256.855C441.555 254.834 438.381 253.965 437.773 255.986L437.742 256.028Z" fill="#659FEB"/>
<path opacity="0.4" d="M307.322 96.1844C274.853 94.0274 252.177 125.221 255.057 155.546C258.335 189.996 285.945 213.986 316.486 225.902C318.455 226.677 319.314 223.494 317.356 222.761C288.961 211.682 262.892 189.651 258.618 157.839C256.597 142.771 260.158 127.106 270.339 115.546C279.671 104.938 293.077 98.4986 307.322 99.441C309.416 99.5876 309.416 96.2996 307.322 96.1635V96.1844Z" fill="#659FEB"/>
<path opacity="0.4" d="M367.766 232.572C348.201 227.536 315.607 238.373 295.403 239.012C275.199 239.651 254.429 246.279 240.572 261.002C234.372 267.588 229.658 277.619 234.152 285.462C235.936 288.293 238.432 290.607 241.389 292.175C256.88 301.201 276.434 297.515 293.947 301.337C301.278 302.939 309.134 306.803 311.103 314.028C313.585 323.127 305.437 332.813 308.432 341.756C310.129 346.845 315.24 350.248 320.529 351.18C325.819 352.112 331.265 351.075 336.418 349.567C348.421 346.06 359.89 340.07 368.531 331.023C377.172 321.976 382.744 309.714 382.336 297.222C382.021 287.735 414.7 238.091 410.615 229.504" fill="#659FEB"/>
<path opacity="0.4" d="M368.206 230.981C352.653 227.284 335.821 231.253 320.414 233.986C312.119 235.462 303.834 236.96 295.403 237.368C286.734 237.675 278.139 239.082 269.825 241.557C254.806 246.237 236.896 256.373 231.784 272.332C225.94 290.562 246.615 298.007 260.849 299.766C275.439 301.567 314.266 297.902 309.375 322.353C307.95 329.389 304.138 336.635 307.468 343.745C310.558 350.321 318.068 353.264 324.96 353.232C341.938 353.149 361.241 342.489 371.966 329.693C377.734 322.969 381.644 314.854 383.309 306.154C384.2 301.107 383.645 296.426 385.53 291.609C390.369 279.222 397.522 267.672 403.461 255.798C406.191 250.539 408.614 245.126 410.72 239.588C411.819 236.562 413.516 232.258 412.207 229.064C411.432 227.127 408.248 227.965 409.065 229.934C410.112 232.468 408.551 235.955 407.703 238.311C405.952 243.013 403.924 247.608 401.628 252.07C396.726 262.028 391.311 271.724 386.431 281.682C384.663 285.101 383.11 288.626 381.78 292.237C380.241 296.751 380.869 301.368 379.989 306.028C376.397 325.054 360.613 338.709 343.331 345.473C334.899 348.772 323.64 352.615 315.261 347.358C305.834 341.442 310.81 331.578 312.611 323.138C315.753 308.478 303.991 301.148 291.045 299.054C274.612 296.321 251.852 300.342 238.551 288.059C229.679 279.871 235.995 267.944 242.95 260.939C248.996 254.977 256.166 250.275 264.044 247.106C280.414 240.311 298.052 241.127 315.24 238.195C331.998 235.337 350.484 230.08 367.41 234.112C369.505 234.604 370.343 231.431 368.279 230.97L368.206 230.981Z" fill="#659FEB"/>
<path opacity="0.4" d="M305.604 301.609C306.149 307.567 303.687 313.557 301.645 319.033C299.299 325.316 296.565 331.536 295.015 338.07C293.968 342.363 293.381 347.012 295.183 351.18C297.874 357.41 303.562 361.976 309.616 364.698C338.691 377.777 372.197 357.547 387.667 333.054C398.141 316.52 402.822 297.107 404.341 277.787C404.509 275.693 401.199 275.693 401.052 277.787C398.633 308.635 386.693 340.813 358.497 356.866C345.834 364.07 330.008 367.683 315.732 363.484C308.704 361.389 301.237 357.013 298.262 349.965C296.22 345.128 297.843 339.599 299.309 334.813C302.577 324.342 309.888 312.887 308.862 301.609C308.673 299.515 305.374 299.515 305.573 301.609H305.604Z" fill="#659FEB"/>
<path opacity="0.4" d="M404.749 241.033C410.489 255.452 439.145 350.416 447.011 363.787C452.06 372.363 457.621 380.814 465.026 387.463C473.196 394.793 483.251 399.63 493.306 403.924C507.613 409.997 524.549 415.044 538.113 407.463C549.812 400.929 555.216 386.447 554.714 373.054C554.211 359.662 536.07 249.724 530.802 237.4" fill="#659FEB"/>
<path opacity="0.4" d="M403.157 241.473C412.175 264.352 418.617 288.426 426.294 311.777C434.453 336.604 441.062 363.693 458.92 383.651C466.566 392.185 476.317 398.028 486.644 402.761C496.259 407.159 506.314 411.327 516.882 412.573C537.39 414.992 552.965 401.861 555.908 381.735C557.228 372.677 555.447 363.515 554.159 354.51C552.253 341.211 550.116 327.934 547.875 314.719C545.141 298.363 542.282 282.007 539.098 265.724C537.265 256.3 536.05 245.881 532.363 236.97C531.567 235.044 528.383 235.923 529.221 237.839C532.049 244.656 533.106 252.499 534.573 259.651C537.202 272.51 539.537 285.442 541.8 298.394C545.895 321.881 550.315 345.515 552.797 369.243C554.494 385.4 548.032 404.259 530.687 408.688C519.438 411.557 507.456 407.861 497.014 403.683C485.869 399.232 474.453 393.944 465.592 385.725C445.964 367.588 439.25 340.416 431.175 315.976C422.817 290.897 415.998 265.117 406.331 240.635C405.566 238.687 402.382 239.536 403.189 241.504L403.157 241.473Z" fill="#659FEB"/>
<path opacity="0.4" d="M514.327 204.384C521.376 191.336 528.498 178.101 531.986 163.692C535.473 149.284 534.981 133.326 527.409 120.561C526.021 117.927 523.966 115.703 521.449 114.111C518.851 112.666 515.395 112.478 513.07 114.3C511.164 115.776 510.347 118.237 509.624 120.582L504.251 137.881C503.987 139.09 503.429 140.215 502.627 141.158C500.606 143.169 497.066 142.289 494.908 140.436C492.751 138.582 491.347 135.975 489.179 134.153C483.534 129.336 474.201 131.441 469.279 137.033C464.356 142.624 477.249 237.054 477.522 244.468" fill="#659FEB"/>
<path opacity="0.4" d="M515.741 205.211C528.707 181.211 543.214 152.488 531.452 125.043C529.357 120.069 526.215 114.164 520.863 112.08C519.01 111.261 516.93 111.11 514.978 111.652C513.026 112.194 511.323 113.397 510.158 115.054C506.304 120.677 505.277 129.064 503.204 135.483C503.032 136.487 502.707 137.458 502.24 138.363C501.521 139.012 500.658 139.483 499.723 139.736C498.787 139.989 497.805 140.017 496.856 139.818C495.212 139.315 493.714 136.677 492.667 135.41C491.102 133.389 489.057 131.791 486.718 130.76C480.633 128.363 469.624 130.76 467.226 137.63C465.781 141.818 466.524 147.305 466.692 151.577C467.362 168.635 469.331 185.672 471.216 202.625C472.756 216.468 475.27 230.478 475.909 244.405C476.003 246.499 479.292 246.499 479.198 244.405C478.747 234.656 477.05 224.855 475.93 215.169C474.097 199.295 472.316 183.42 471.017 167.494C470.483 160.96 469.97 154.405 469.876 147.839C469.823 144.97 469.206 140.572 470.63 137.933C474.044 131.651 484.948 132.048 489.231 136.436C492.374 139.64 494.982 144.394 500.198 143.881C511.321 142.771 506.985 108.561 520.611 115.525C526.958 118.771 529.912 128.75 531.274 135.2C532.818 143.08 532.818 151.185 531.274 159.064C528.341 175.001 520.506 189.431 512.881 203.546C511.834 205.41 514.714 207.075 515.72 205.211H515.741Z" fill="#659FEB"/>
</g>
<path d="M221.101 132.31C258.461 161.986 322.561 115.19 322.561 115.19L335.716 103.839C351.678 96.7603 356.936 91.2106 356.936 91.2106L346.567 95.975L358.926 86.2053C359.261 85.9331 357.816 86.132 357.439 86.331L345.918 92.3519L357.827 81.7655C357.89 81.7197 357.934 81.6504 357.946 81.5728C357.959 81.4952 357.941 81.4158 357.895 81.3519C357.849 81.288 357.779 81.245 357.702 81.2322C357.624 81.2194 357.545 81.238 357.481 81.2838L343.216 89.1163C343.216 89.1163 354.412 78.7707 352.642 79.043C350.872 79.3153 336.135 89.598 336.135 89.598C336.135 89.598 342.221 79.7132 340.377 80.2472C339.183 80.5927 334.512 86.5299 331.391 90.7184C329.369 93.3886 329.935 94.2996 327.023 96.0064L305.824 108.572C288.018 119.483 256.461 127.797 232.737 108.195C232.737 108.195 223.678 103.431 215.885 113.012C208.093 122.593 221.101 132.31 221.101 132.31Z" fill="#FFA47A" stroke="#FFA47A" stroke-width="1.48" stroke-linecap="round" stroke-linejoin="round"/>
<path d="M275.837 118.645C261.604 120.572 250.323 116.258 232.748 108.174C232.748 108.174 223.688 103.41 215.896 112.991C208.103 122.572 221.133 132.321 221.133 132.321C233.701 142.3 242.017 147.096 257.184 144.467L275.837 118.645Z" fill="#FF7F4D" stroke="#FF7F4D" stroke-width="0.6" stroke-miterlimit="10"/>
<path d="M276.654 118.572L269.124 140.949C266.023 141.649 262.87 142.097 259.697 142.289L276.654 118.572Z" fill="#CF5540"/>
<path d="M328.175 94.2367C328.804 95.2838 329.296 96.8859 328.615 97.3048C327.934 97.7236 326.342 96.7812 325.714 95.776" fill="#CF5540"/>
<path d="M338.534 87.0115C338.534 87.0115 336.858 91.7864 336.868 91.6502L343.53 83.7235L338.534 87.0115Z" fill="#CF5540"/>
<path d="M210.963 19.4302C222.075 22.8962 249.81 60.3414 249.81 60.3414C254.618 64.7673 257.971 70.547 259.425 76.9173C259.875 79.2838 258.283 86.2472 256.398 87.7027L219.467 117.703C219.467 117.703 189.732 107.169 196.896 84.1948C204.06 61.2209 210.198 66.1843 206.605 53.0534C203.013 39.9224 210.963 19.4302 210.963 19.4302Z" fill="#00043B"/>
<path d="M257.801 74.3309C255.33 67.7969 252.91 61.2209 249.255 55.2314C245.637 49.5725 241.656 44.1544 237.336 39.0114C230.8 30.8648 222.62 24.6554 214.597 18.069C213.937 17.5245 212.984 18.4669 213.654 19.0218C221.08 25.1266 228.862 30.8858 235.042 38.3203C239.431 43.4783 243.502 48.8985 247.233 54.5508C251.276 60.8335 253.884 67.7655 256.513 74.7079C256.817 75.5142 258.105 75.1686 257.801 74.3519V74.3309Z" fill="#00043B"/>
<path d="M233.502 78.5299C233.456 78.5849 233.398 78.6292 233.333 78.6595C233.268 78.6899 233.197 78.7056 233.125 78.7056C233.053 78.7056 232.982 78.6899 232.917 78.6595C232.852 78.6292 232.794 78.5849 232.748 78.5299C231.91 77.556 229.679 75.5037 226.935 77.6293C224.191 79.755 227.155 83.5561 227.982 85.3257C229.166 87.9121 230.077 95.7969 227.302 102.237C225.322 106.896 217.32 115.169 217.32 115.169C217.32 115.169 228.276 127.431 236.299 122.069C236.299 122.069 237.095 104.802 239.745 101.389C239.797 101.315 246.615 105.41 254.345 93.8284C261.624 82.9173 254.418 76.1005 252.669 74.6974C251.182 73.5141 244.426 67.1057 233.502 78.5299Z" fill="#FFA47A"/>
<path d="M236.864 115.074C236.592 115.074 225.615 120.467 225.615 120.467C225.615 120.467 230.674 125.619 236.278 122.069L236.864 115.074Z" fill="#CF5540"/>
<path d="M251.821 96.5509L245.683 93.1163C245.683 93.1163 245.568 96.9279 247.516 97.6085C249.464 98.2891 251.821 96.5509 251.821 96.5509Z" fill="white"/>
<path d="M231.732 80.1005C230.915 79.2733 229.355 78.8754 228.527 79.6921C228.156 80.1847 227.971 80.7935 228.008 81.4094C228.044 82.0253 228.299 82.6081 228.726 83.0534" fill="#CF5540"/>
<path d="M251.549 91.2419L249.454 94.1634L251.151 94.9069C251.221 94.9407 251.299 94.9552 251.377 94.9489C251.455 94.9426 251.53 94.9156 251.594 94.8709C251.658 94.8261 251.708 94.7651 251.741 94.6941C251.774 94.6231 251.787 94.5448 251.779 94.4671L251.549 91.2419Z" fill="#CF5540"/>
<path d="M257.592 79.9959C257.592 79.9959 239.786 83.7655 232.748 78.5299C225.71 73.2943 243.903 59.5979 250.711 67.7236C257.519 75.8493 257.592 79.9959 257.592 79.9959Z" fill="#00043B"/>
<path d="M239.776 101.368C237.106 99.9655 234.936 97.7706 233.565 95.0849C232.329 92.5718 232.329 104.739 237.807 107.598C237.807 107.65 238.781 104.31 239.776 101.368Z" fill="#CF5540"/>
<path d="M249.192 84.3833C248.417 84.4776 250.239 83.1791 251.109 83.3362C251.507 83.4031 251.863 83.6239 252.101 83.9511C252.338 84.2782 252.437 84.6855 252.376 85.0849C251.429 84.4874 250.303 84.2392 249.192 84.3833Z" fill="#00043B"/>
<path d="M257.33 86.9173C257.035 86.6289 256.638 86.4674 256.225 86.4674C255.812 86.4674 255.416 86.6289 255.12 86.9173C255.851 87.1947 256.502 87.6478 257.016 88.2367" fill="#00043B"/>
<path d="M249.108 89.3467C248.836 89.9227 248.836 90.4881 249.108 90.6138C249.381 90.7394 249.831 90.3939 250.156 89.8284C250.48 89.263 250.428 88.6975 250.156 88.5614C249.883 88.4253 249.381 88.8022 249.108 89.3467Z" fill="#00043B"/>
<path d="M253.015 91.242C252.753 91.7865 252.753 92.2891 253.015 92.4566C253.277 92.6242 253.696 92.2472 253.958 91.7027C254.219 91.1582 254.219 90.6556 253.958 90.488C253.696 90.3205 253.277 90.6975 253.015 91.242Z" fill="#00043B"/>
<path opacity="0.37" d="M238.142 89.6713C237.938 90.3177 237.931 91.0101 238.121 91.6606C238.311 92.3111 238.69 92.8906 239.21 93.3257C239.73 93.7607 240.367 94.0317 241.041 94.1044C241.715 94.1771 242.396 94.0482 242.997 93.734C243.597 93.4198 244.091 92.9344 244.416 92.3394C244.74 91.7443 244.881 91.0664 244.82 90.3914C244.759 89.7164 244.498 89.0747 244.072 88.5476C243.646 88.0205 243.073 87.6317 242.426 87.4304C241.56 87.1643 240.625 87.2503 239.823 87.67C239.021 88.0896 238.417 88.8088 238.142 89.6713Z" fill="#E8632E" stroke="#E8632E" stroke-width="0.32" stroke-miterlimit="10"/>
<path d="M230.098 74.687C233.879 78.9906 237.126 83.7969 243.421 83.7341C249.153 83.6676 254.693 81.6553 259.132 78.0273C259.666 77.5665 258.891 76.7917 258.357 77.2524C254.105 80.668 248.833 82.5627 243.379 82.6346C237.493 82.6975 234.33 77.9016 230.81 73.9121C230.339 73.3885 229.564 74.1634 230.035 74.687H230.098Z" fill="#00043B"/>
<path d="M74.8967 129.085C73.6503 120.813 72.9067 100.373 72.9067 100.373L37.4841 102.289C41.9879 104.467 57.8243 114.31 57.8243 114.31L60.6209 130.017C60.6209 130.017 74.9072 128.938 74.8967 129.085Z" fill="#FFA47A"/>
<path d="M57.7301 114.289L37.0023 102.708C36.7955 102.598 36.6285 102.425 36.5248 102.215C36.421 102.005 36.3857 101.768 36.4239 101.537C36.462 101.306 36.5717 101.092 36.7375 100.927C36.9032 100.761 37.1167 100.652 37.348 100.614C45.9365 99.2838 69.1046 95.8702 75.2004 94.9906C75.3734 94.9666 75.5496 94.9838 75.7147 95.0408C75.8798 95.0977 76.0292 95.1928 76.1506 95.3183C76.2721 95.4438 76.3622 95.5961 76.4136 95.763C76.4651 95.9298 76.4765 96.1065 76.4468 96.2786C75.7974 100.404 74.9176 111.86 74.352 115.211C74.2578 115.734 67.4707 107.284 65.0932 108.656C63.0403 109.828 57.9081 114.237 57.7301 114.289Z" fill="#545D62" stroke="#659FEB" stroke-width="0.32" stroke-miterlimit="10"/>
<path d="M56.5047 113.703L59.7726 109.315C59.9569 109.067 60.0904 108.785 60.1654 108.486C60.2404 108.186 60.2555 107.875 60.2098 107.569C60.164 107.264 60.0584 106.97 59.8989 106.705C59.7394 106.441 59.5292 106.21 59.2803 106.027V106.027C59.0329 105.842 58.7515 105.708 58.4522 105.633C58.1528 105.557 57.8414 105.541 57.5359 105.585C57.2303 105.63 56.9366 105.735 56.6716 105.893C56.4066 106.052 56.1755 106.261 55.9915 106.509L52.3257 111.43" stroke="#F8F1EE" stroke-width="0.72" stroke-miterlimit="10"/>
<path d="M68.4134 119.483C68.6334 124.436 68.9581 129.378 68.9581 129.378L75.1377 129.085L74.3416 115.211C74.3416 115.211 69.2828 109.483 68.4763 109.546C68.0678 109.546 68.1935 114.53 68.4134 119.483Z" fill="#CF5540"/>
<path d="M49.4976 195.609C43.9988 190.143 38.5734 173.494 38.5734 173.494C38.5734 173.494 0.982739 184.645 1.3179 184.75L24.1299 193.274L37.8821 203.588C37.8821 203.588 48.2931 196.164 49.4976 195.609Z" fill="#FFA47A" stroke="#FFA47A" stroke-width="1.3" stroke-miterlimit="10"/>
<path d="M23.4702 193.818L1.15047 185.494C0.938148 185.413 0.7554 185.269 0.626458 185.082C0.497515 184.895 0.428467 184.674 0.428467 184.446C0.428467 184.219 0.497515 183.997 0.626458 183.81C0.7554 183.623 0.938148 183.48 1.15047 183.399C9.45623 180.865 31.9017 174.185 37.8089 172.446C38.5316 172.237 39.8304 173.399 40.0503 174.122C41.4879 178.898 43.2373 183.575 45.2873 188.122C45.5386 188.603 31.9122 185.713 29.7545 187.41C27.953 188.844 24.0987 194.174 23.4702 193.818Z" fill="#545D62" stroke="#659FEB" stroke-width="0.32" stroke-miterlimit="10"/>
<path d="M21.6688 192.823L23.9207 187.232C24.0367 186.946 24.0951 186.64 24.0926 186.331C24.0901 186.023 24.0267 185.718 23.906 185.434C23.7854 185.15 23.6098 184.892 23.3895 184.676C23.1691 184.46 22.9083 184.289 22.6219 184.174V184.174C22.0439 183.947 21.3994 183.957 20.8286 184.202C20.2579 184.447 19.807 184.907 19.574 185.483L17.2803 191.169" stroke="#F8F1EE" stroke-width="0.72" stroke-miterlimit="10"/>
<path d="M41.1082 202.122L26.7485 190.53L23.4702 193.818L38.1022 204.415L41.1082 202.122Z" fill="#CF5540"/>
<path d="M188.318 168.206C192.853 169.944 196.121 173.745 197.744 181.535C199.368 189.326 207.171 176.677 206.951 184.509C203.903 186.206 187.302 207.546 181.573 209.975C156.153 220.53 136.797 225.064 112.068 220.07C87.8738 215.19 74.0693 187.609 67.0309 169.347C61.4693 154.97 61.5845 143.253 59.0603 128.593C59.7935 126.886 74.1007 126.499 74.8863 127.158C84.6374 157.399 98.1487 174.279 116.52 177.724C133.676 180.98 145.847 178.31 158.415 174.289C158.373 174.258 172.419 162.101 188.318 168.206Z" fill="black" stroke="#365185" stroke-width="0.3" stroke-miterlimit="10"/>
<g style="mix-blend-mode:multiply" opacity="0.43">
<g style="mix-blend-mode:multiply" opacity="0.43">
<path d="M116.52 177.692C133.676 180.949 145.847 178.279 158.415 174.258C158.415 174.258 172.461 162.111 188.36 168.206C192.895 169.944 196.163 173.745 197.786 181.535C199.41 189.326 206.72 177.504 206.532 185.336C203.484 187.022 187.344 207.588 181.615 209.975" fill="#365185"/>
</g>
</g>
<path d="M205.474 181.598C197.525 174.268 182.432 162.562 181.112 163.368C167.496 165.012 154.152 175.682 148.015 187.399C146.842 189.664 145.392 191.774 143.7 193.682C135.98 202.279 127.297 209.756 112.833 215.316C95.3837 222.028 74.0799 215.954 49.8853 195.42C47.2145 198.248 37.8299 202.656 38.1022 204.488C47.9791 215.504 54.1377 224.928 66.3711 234.216C81.9667 246.028 108.267 262.216 131.372 253.63C151.972 246.094 169.964 232.785 183.196 215.295L205.474 181.598Z" fill="#263238" stroke="#4465A6" stroke-width="0.3" stroke-miterlimit="10"/>
<g style="mix-blend-mode:multiply" opacity="0.5">
<path d="M180.337 218.719C180.337 218.719 110.696 286.708 39.0763 203.693C39.0763 203.693 55.6878 232.426 89.7906 248.279C91.4769 247.117 126.899 277.797 180.337 218.719Z" fill="#4465A6"/>
</g>
<path d="M236.78 116.551C237.283 117.504 240.687 142.185 235.89 150.499C232.675 156.069 214.555 172.677 206.448 182.855C206.448 182.855 190.015 172.656 180.808 163.818C183.374 154.195 192.036 116.918 209.737 107.106C213.465 107.922 217.144 108.95 220.755 110.185C220.755 110.185 230.381 126.499 236.78 116.551Z" fill="#FFA47A" stroke="#FFA47A" stroke-width="1.48" stroke-linecap="round" stroke-linejoin="round"/>
<path d="M181.562 158.289L180.819 161.221L200.824 178.771L181.562 158.289Z" fill="#CF5540"/>
<path d="M236.781 116.551C237.283 117.504 240.687 142.185 235.89 150.499C232.675 156.069 214.555 172.677 206.448 182.855C206.448 182.855 201.41 179.494 178.975 154.394C181.541 144.781 192.036 116.918 209.737 107.106C213.465 107.922 217.144 108.95 220.755 110.185C220.755 110.185 230.381 126.499 236.781 116.551Z" fill="#F8F1EE" stroke="#F8F1EE" stroke-width="1.48" stroke-miterlimit="10"/>
<g style="mix-blend-mode:multiply">
<path d="M206.448 182.855C206.448 182.855 201.41 179.494 178.975 154.394C181.541 144.781 192.036 116.918 209.737 107.106C213.465 107.922 217.144 108.95 220.756 110.185" fill="#F8F1EE"/>
<path d="M206.448 182.855C206.448 182.855 201.41 179.494 178.975 154.394C181.541 144.781 192.036 116.918 209.737 107.106C213.465 107.922 217.144 108.95 220.756 110.185" stroke="#F8F1EE" stroke-width="1.48" stroke-linecap="round" stroke-linejoin="round"/>
</g>
<path d="M394.192 342.688L540.197 405.588C543.069 406.803 546.291 406.906 549.235 405.878C552.179 404.851 554.636 402.766 556.128 400.028L649.659 225.378C653.367 218.562 653.189 210.792 645.857 208.258C645.857 208.258 614.101 179.462 558.17 163.232C541.967 158.53 489.431 153.944 489.431 153.944L394.192 342.688Z" stroke="#F8F1EE" stroke-width="1.06" stroke-linecap="round" stroke-linejoin="round"/>
<path d="M400.727 345.347L262.818 264.813C260.142 263.208 258.159 260.665 257.255 257.678C256.351 254.692 256.59 251.476 257.927 248.656L340.283 72.6451C343.614 65.6293 351.532 65.0534 358.822 67.734C381.801 76.111 402.236 71.8388 448.289 107.525C461.633 117.86 496.301 157.651 496.301 157.651L400.727 345.347Z" stroke="#F8F1EE" stroke-width="1.06" stroke-linecap="round" stroke-linejoin="round"/>
<path d="M641.27 210.823C641.27 210.823 610.718 183.127 556.934 167.535C542.009 163.221 495.139 158.991 491.085 158.635C486.791 153.734 457.349 120.279 445.472 111.074C401.209 76.7812 381.581 80.9383 359.482 72.8335C352.475 70.2681 344.871 70.823 341.676 77.5665L262.504 246.74C261.217 249.45 260.985 252.542 261.852 255.414C262.719 258.287 264.624 260.734 267.197 262.279L399.492 339.546H399.659L539.642 400.604C542.404 401.777 545.505 401.879 548.338 400.89C551.172 399.9 553.534 397.891 554.965 395.253L644.925 227.274C648.486 220.74 648.329 213.253 641.27 210.823Z" fill="#89C06A" stroke="#2E4470" stroke-width="0.3" stroke-miterlimit="10"/>
<path d="M391.51 335.641L406.561 343.494L499.936 159.692C494.199 159.286 488.795 156.846 484.696 152.813L391.51 335.641Z" fill="#1D2B47" stroke="#1D2B47" stroke-width="0.3" stroke-miterlimit="10"/>
<path d="M631.11 217.326C631.11 217.326 568.089 171.839 488.896 162.876C435.071 104.509 361.545 80.4252 361.545 80.4252L273.627 251.242C291.213 255.986 387.269 321.096 401.607 332.656L401.45 332.96L402.089 333.044C402.501 333.369 402.892 333.719 403.262 334.091L403.66 333.327C417.538 336.269 481.292 355.725 544.774 388.908L631.11 217.326Z" fill="#CFB2A3"/>
<path d="M444.896 128.237C444.896 128.237 453.338 103.389 470.85 96.1216C471.081 96.0232 471.332 95.9807 471.582 95.9977C471.832 96.0146 472.075 96.0905 472.291 96.2191C472.506 96.3478 472.688 96.5255 472.822 96.7378C472.956 96.9502 473.037 97.1911 473.06 97.441L473.573 103.033L480.193 103.923C480.49 103.961 480.771 104.083 481.002 104.274C481.233 104.466 481.404 104.719 481.496 105.005C481.589 105.29 481.598 105.596 481.523 105.887C481.448 106.177 481.291 106.44 481.072 106.645C474.558 112.75 457.234 130.614 457.726 137.242L444.896 128.237Z" fill="#FF7F4D" stroke="#FF7F4D" stroke-width="0.6" stroke-miterlimit="10"/>
<g opacity="0.76">
<path opacity="0.76" d="M449.001 128.31C450.13 124.79 451.629 121.399 453.474 118.195C455.676 114.909 458.127 111.797 460.805 108.886C461.853 107.713 460.125 106.006 459.098 107.179C456.3 110.245 453.737 113.518 451.431 116.97C449.274 120.373 448.111 123.933 446.708 127.661C446.163 129.127 448.499 129.755 449.043 128.31H449.001Z" fill="#F2FCF9"/>
<path opacity="0.76" d="M464.335 104.656L467.153 102.279C467.379 102.052 467.506 101.745 467.506 101.425C467.506 101.105 467.379 100.798 467.153 100.572C466.926 100.346 466.619 100.218 466.299 100.218C465.979 100.218 465.672 100.346 465.445 100.572L462.618 102.949C462.391 103.175 462.264 103.482 462.264 103.802C462.264 104.122 462.391 104.429 462.618 104.656C462.844 104.882 463.151 105.009 463.471 105.009C463.791 105.009 464.098 104.882 464.325 104.656H464.335Z" fill="#F2FCF9"/>
</g>
<path d="M364.603 86.7811C376.669 83.734 377.004 86.1215 389.049 89.2209C400.072 91.8165 410.643 96.0522 420.408 101.786C430.306 107.535 442.309 115.724 450.499 123.713C463.749 136.635 475.637 148.53 488.038 162.289L401.199 329.41C401.199 329.41 318.969 230.75 281.357 249.096L364.603 86.7811Z" fill="#F8F1EE"/>
<path d="M364.855 87.6923C369.358 86.6451 373.59 85.8389 378.156 86.9698C382.346 88.0169 386.42 89.4724 390.578 90.5928C400.552 93.2202 410.148 97.1159 419.13 102.184C438.297 113.137 453.589 127.734 468.933 143.399C472.487 147.022 475.999 150.684 479.47 154.384C481.219 156.258 482.863 158.321 484.707 160.08C484.12 159.525 487.179 162.394 487.147 161.965C487.147 162.635 486.005 164.174 485.712 164.74L477.71 180.143L417.747 295.578L400.382 328.981L401.859 328.793C391.894 316.977 381.33 305.682 370.207 294.95C352.694 277.871 333.15 259.913 310.328 250.29C301.09 246.394 290.375 243.892 280.886 248.332L282.164 249.62L310.192 194.949C325.176 165.734 340.161 136.513 355.145 107.284L365.42 87.2525C365.965 86.2053 364.373 85.2315 363.797 86.3101L335.769 140.97C320.777 170.199 305.803 199.42 290.846 228.635L280.572 248.667C280.476 248.847 280.441 249.053 280.471 249.254C280.502 249.456 280.596 249.642 280.74 249.786C280.884 249.93 281.071 250.024 281.272 250.055C281.474 250.085 281.68 250.05 281.86 249.955C290.564 245.881 300.556 248.269 309.029 251.756C320.383 256.426 330.72 263.588 340.367 271.086C358.528 285.222 374.993 301.599 390.453 318.615C393.878 322.395 397.292 326.196 400.56 330.133C400.663 330.232 400.786 330.307 400.922 330.353C401.058 330.398 401.202 330.412 401.344 330.394C401.485 330.375 401.621 330.326 401.741 330.248C401.861 330.17 401.962 330.066 402.037 329.944L431.458 273.337L478.087 183.588L488.802 162.813C488.904 162.632 488.944 162.424 488.918 162.218C488.891 162.012 488.799 161.821 488.655 161.672C470.148 141.148 450.95 119.912 427.436 105.033C417.253 98.3947 406.176 93.2433 394.537 89.7342C389.122 88.1635 383.634 86.3101 378.156 85.0221C373.475 83.975 368.981 84.7708 364.383 85.8807C363.179 86.1635 363.681 87.975 364.855 87.6923Z" fill="#F8F1EE"/>
<path d="M532.792 372.887C495.901 349.169 453.898 334.561 410.248 330.269C409.044 330.154 409.054 332.028 410.248 332.143C453.531 336.442 495.173 350.96 531.745 374.499C532.792 375.159 533.714 373.536 532.698 372.887H532.792Z" fill="#F8F1EE"/>
<path d="M402.738 332.834C449.871 342.395 496.856 358.845 538.668 382.845C538.881 382.944 539.124 382.959 539.348 382.889C539.572 382.818 539.761 382.666 539.879 382.463C539.997 382.26 540.035 382.02 539.986 381.79C539.936 381.561 539.802 381.358 539.611 381.222C497.715 357.138 450.583 340.604 403.231 331.023C402.058 330.782 401.544 332.594 402.738 332.834Z" fill="#F8F1EE"/>
<path d="M286.374 250.059C297.487 251.954 307.51 257.389 317.262 262.813C344.747 278.154 369.633 297.743 390.997 320.855C391.825 321.745 393.145 320.415 392.328 319.525C377.845 303.926 361.767 289.888 344.357 277.64C335.683 271.542 326.687 265.914 317.408 260.782C307.762 255.441 297.854 250.153 286.866 248.279C285.683 248.08 285.18 249.892 286.374 250.091V250.059Z" fill="#F8F1EE"/>
<path d="M281.567 250.991C326.353 270.719 367.735 300.059 403.273 333.515C404.152 334.353 405.483 333.023 404.603 332.196C368.992 298.625 327.432 269.159 282.509 249.368C281.462 248.886 280.414 250.509 281.567 250.991Z" fill="#F8F1EE"/>
<path d="M625.381 219.588L559.825 343.253C559.26 344.3 560.873 345.274 561.449 344.206L627.057 220.53C627.622 219.483 626.009 218.52 625.433 219.588H625.381Z" fill="#F8F1EE"/>
<path d="M622.752 217.242C618.112 205.724 615.975 206.834 606.381 198.918C597.781 191.544 588.121 185.505 577.725 181.001C567.251 176.394 553.562 171.514 542.282 169.598C524.036 166.457 507.529 164.436 489.127 162.541L401.377 330.489C401.377 330.489 534.395 342.489 541.726 383.683L622.752 217.242Z" fill="#F8F1EE"/>
<path d="M623.653 216.991C622.134 213.295 620.511 209.556 617.704 206.656C614.562 203.452 610.508 201.033 607.041 198.279C597.335 190.326 586.552 183.787 575.012 178.855C547.78 167.41 518.286 164.656 489.127 161.63C488.962 161.627 488.8 161.669 488.658 161.753C488.516 161.836 488.399 161.956 488.32 162.101L458.721 218.74L411.495 309.138C407.85 316.119 404.208 323.1 400.57 330.08C400.491 330.223 400.45 330.384 400.451 330.548C400.453 330.711 400.496 330.872 400.577 331.014C400.658 331.156 400.774 331.274 400.914 331.358C401.054 331.443 401.214 331.489 401.377 331.494C416.166 332.834 430.913 335.086 445.503 337.777C470.515 342.374 496.961 348.049 519.375 360.552C528.571 365.683 538.658 372.981 540.784 383.986C540.837 384.161 540.939 384.316 541.078 384.435C541.218 384.553 541.388 384.628 541.569 384.653C541.75 384.677 541.934 384.649 542.099 384.571C542.264 384.494 542.404 384.371 542.501 384.217C551.579 365.557 560.656 346.894 569.733 328.227L613.493 238.384L623.527 217.776C624.051 216.729 622.48 215.682 621.904 216.824C612.826 235.49 603.749 254.153 594.672 272.813L550.912 362.656C547.574 369.526 544.23 376.395 540.878 383.264L542.596 383.494C538.595 362.772 510.588 353.243 493.369 347.578C469.174 339.641 443.859 335.012 418.648 331.63C412.919 330.866 407.127 330.143 401.398 329.62C401.67 330.091 401.943 330.562 402.204 331.033C417.322 302.112 432.432 273.194 447.535 244.279C457.646 224.935 467.75 205.598 477.846 186.268L487.158 168.384C487.776 167.211 488.467 164.823 489.483 163.944C489.682 163.776 489.682 163.263 489.902 163.127C489.556 163.347 494.165 164.122 493.191 163.954C496.458 164.499 499.821 164.677 503.12 165.054C528.372 167.965 553.028 171.336 576.5 181.535C587.012 186.22 596.839 192.311 605.711 199.64C608.78 202.111 612.153 204.269 615.138 206.855C618.437 209.745 620.217 213.536 621.862 217.536C622.291 218.646 624.114 218.111 623.653 216.991Z" fill="#F8F1EE"/>
<path opacity="0.42" d="M487.21 162.698C487.21 162.698 435.124 248.394 405.629 260.269C364.938 276.635 312.653 250.97 312.653 250.97C312.653 250.97 392.443 302.415 401.199 329.452L487.21 162.698Z" fill="#E0CFC8"/>
<path opacity="0.42" d="M495.086 161.242C495.086 161.242 458.166 254.436 466.493 285.148C478.014 327.463 530.006 353.662 530.006 353.662C530.006 353.662 440.895 321.096 413.977 330.426L495.086 161.242Z" fill="#E0CFC8"/>
<g opacity="0.46">
<path opacity="0.46" d="M369.4 105.703C371.153 105.574 372.916 105.69 374.637 106.048C375.486 106.174 376.292 106.436 377.119 106.624C377.947 106.813 378.722 107.137 379.528 107.399C380.335 107.661 381.089 108.017 381.864 108.362C382.639 108.708 383.393 109.064 384.126 109.525C385.681 110.373 387.112 111.43 388.379 112.666L388.295 112.875C385.153 111.828 381.937 110.624 378.764 109.514C375.59 108.404 372.48 107.19 369.337 105.944L369.4 105.703Z" fill="#659FEB"/>
<path opacity="0.46" d="M398.612 118.823L401.199 119.87L403.765 120.917L408.845 123.2L413.809 125.734C415.443 126.614 417.056 127.546 418.679 128.457C420.303 129.368 421.822 130.363 423.445 131.357L428.106 134.415L432.652 137.661L437.092 141.043L441.397 144.593C442.801 145.818 444.215 147.033 445.587 148.279L449.64 152.111C450.96 153.424 452.262 154.75 453.547 156.09C454.804 157.462 456.082 158.813 457.317 160.195L460.91 164.457L464.303 168.865C465.414 170.352 466.486 171.867 467.519 173.41L467.351 173.546C448.344 150.883 424.915 132.331 398.496 119.022L398.612 118.823Z" fill="#659FEB"/>
<path opacity="0.46" d="M357.544 126.499H359.817L362.079 126.593L366.604 126.98L371.107 127.692C372.595 127.986 374.071 128.342 375.559 128.666C377.046 128.991 378.491 129.462 379.958 129.902L384.283 131.368C385.697 131.923 387.101 132.52 388.473 133.096L392.663 135.022L396.685 137.2C397.994 137.986 399.313 138.75 400.602 139.556L404.372 142.143C405.587 143.057 406.792 143.986 407.986 144.928C409.138 145.923 410.301 146.897 411.432 147.912L414.689 151.054L417.716 154.446C418.69 155.609 419.612 156.802 420.513 158.017L420.355 158.164C403.678 140.719 381.472 129.589 357.512 126.666L357.544 126.499Z" fill="#659FEB"/>
<path opacity="0.46" d="M431.646 170.478C434.024 171.466 436.301 172.683 438.444 174.111C439.491 174.761 440.539 175.535 441.586 176.206C442.633 176.876 443.586 177.745 444.581 178.52C445.576 179.295 446.519 180.143 447.451 180.98C448.383 181.818 449.316 182.677 450.185 183.609C452.014 185.418 453.67 187.395 455.129 189.515L454.982 189.693L443.188 180.268L431.521 170.645L431.646 170.478Z" fill="#659FEB"/>
<path opacity="0.46" d="M341.121 171.598C343.603 172.268 346.106 172.876 348.547 173.693L352.223 174.844C353.449 175.242 354.664 175.682 355.878 176.09C360.728 177.839 365.473 179.85 370.196 181.933C379.591 186.235 388.621 191.292 397.198 197.054C405.775 202.815 413.858 209.281 421.361 216.384C425.121 219.923 428.693 223.63 432.201 227.389C433.919 229.305 435.605 231.232 437.292 233.169C438.978 235.106 440.633 237.064 442.267 239.054L442.11 239.201C434.998 231.871 427.897 224.436 420.219 217.672C412.573 210.866 404.468 204.593 395.962 198.897C378.989 187.433 360.541 178.321 341.121 171.808V171.598Z" fill="#659FEB"/>
<path opacity="0.46" d="M334.281 190.31C337.314 190.675 340.297 191.377 343.174 192.405C344.619 192.855 346.002 193.452 347.416 193.996C348.83 194.541 350.17 195.253 351.532 195.902C352.893 196.551 354.192 197.326 355.491 198.101C356.79 198.876 358.067 199.682 359.293 200.583C361.807 202.303 364.125 204.294 366.206 206.52L366.09 206.708C355.986 200.348 345.312 194.939 334.208 190.551L334.281 190.31Z" fill="#659FEB"/>
<path opacity="0.46" d="M379.874 217.996L381.487 218.907L383.048 219.881L386.19 221.818C388.284 223.169 390.275 224.53 392.254 225.944C394.234 227.358 396.203 228.813 398.172 230.248L403.953 234.719C405.839 236.258 407.745 237.787 409.609 239.347C411.474 240.907 413.338 242.489 415.129 244.143C416.92 245.797 418.742 247.431 420.512 249.117C422.283 250.803 424.021 252.541 425.666 254.352L425.519 254.53L402.56 236.447L379.748 218.164L379.874 217.996Z" fill="#659FEB"/>
<path opacity="0.46" d="M347.667 244.74C349.793 244.532 351.939 244.796 353.951 245.515C354.942 245.845 355.911 246.237 356.853 246.687C357.774 247.159 358.665 247.735 359.555 248.227C360.445 248.719 361.241 249.41 362.037 250.059C362.828 250.716 363.584 251.415 364.299 252.153C365.769 253.631 367.002 255.326 367.955 257.18L367.808 257.347C364.85 254.699 361.699 252.274 358.382 250.091C356.729 248.987 355.008 247.991 353.229 247.106C351.446 246.233 349.592 245.511 347.688 244.949L347.667 244.74Z" fill="#659FEB"/>
<path opacity="0.46" d="M374.71 264.164C377.401 265.74 379.962 267.53 382.367 269.515C383.592 270.457 384.713 271.504 385.896 272.489C387.08 273.473 388.148 274.583 389.28 275.63C390.411 276.677 391.458 277.797 392.516 278.918C393.574 280.038 394.611 281.148 395.658 282.342C397.725 284.677 399.602 287.174 401.272 289.808L401.115 289.965L387.782 277.232L374.595 264.331L374.71 264.164Z" fill="#659FEB"/>
<path opacity="0.46" d="M499.821 185.493C501.795 185.027 503.829 184.858 505.853 184.991C506.901 184.991 507.833 185.169 508.818 185.263C509.802 185.357 510.755 185.63 511.729 185.818C512.703 186.007 513.635 186.331 514.578 186.645C515.521 186.959 516.442 187.295 517.343 187.692C519.205 188.482 520.942 189.54 522.496 190.834L522.433 191.043C518.726 189.87 514.997 188.771 511.216 187.902C507.435 187.033 503.622 186.258 499.789 185.63L499.821 185.493Z" fill="#659FEB"/>
<path opacity="0.46" d="M536.29 195.295C539.254 195.598 542.166 196.216 545.109 196.771L549.456 197.818C550.891 198.216 552.315 198.656 553.75 199.085C555.185 199.515 556.589 200.017 558.003 200.52L562.192 202.122C563.564 202.698 564.936 203.305 566.308 203.902L570.362 205.808L574.331 207.902C575.63 208.646 576.939 209.358 578.228 210.122L582.03 212.509C583.276 213.326 584.501 214.185 585.727 215.033C586.952 215.881 588.136 216.792 589.319 217.714L592.786 220.541C595.007 222.551 597.248 224.509 599.28 226.698L599.133 226.865C580.664 212.001 559.209 201.287 536.228 195.452L536.29 195.295Z" fill="#659FEB"/>
<path opacity="0.46" d="M489.849 208.174C493.847 207.713 497.886 207.755 501.873 208.3C503.874 208.52 505.843 208.928 507.822 209.347C508.807 209.577 509.771 209.85 510.745 210.09L513.646 210.939L516.495 211.986C517.427 212.363 518.37 212.708 519.302 213.106C521.135 213.933 522.968 214.761 524.717 215.745C528.27 217.638 531.574 219.967 534.552 222.677L534.426 222.865C520.884 214.662 505.627 209.702 489.849 208.373V208.174Z" fill="#659FEB"/>
<path opacity="0.46" d="M550.357 228.74C554.347 229.715 558.253 231.011 562.035 232.614C563.941 233.358 565.774 234.248 567.639 235.096C569.503 235.944 571.294 236.928 573.106 237.871C574.918 238.813 576.667 239.871 578.427 240.918C580.186 241.965 581.904 243.075 583.569 244.248C586.984 246.533 590.21 249.09 593.216 251.892L593.101 252.08C586.237 247.731 579.219 243.644 572.048 239.818C564.877 235.993 557.615 232.366 550.262 228.939L550.357 228.74Z" fill="#659FEB"/>
<path opacity="0.46" d="M475.94 234.719C477.966 234.662 479.991 234.849 481.973 235.274C482.947 235.431 483.89 235.724 484.843 235.954C485.796 236.185 486.718 236.541 487.65 236.834C488.582 237.127 489.483 237.515 490.394 237.881C491.305 238.248 492.195 238.666 493.054 239.148C494.87 240.049 496.568 241.167 498.113 242.478L498.04 242.687C494.311 241.483 490.624 240.164 486.917 238.907C483.209 237.651 479.522 236.3 475.867 234.907L475.94 234.719Z" fill="#659FEB"/>
<path opacity="0.46" d="M506.388 246.499C507.345 246.346 508.321 246.346 509.278 246.499C510.085 246.636 510.873 246.868 511.625 247.19C512.37 247.512 513.073 247.923 513.719 248.415C514.494 249.005 515.172 249.712 515.73 250.51L515.678 250.729C513.983 250.403 512.326 249.901 510.734 249.232C509.155 248.54 507.652 247.683 506.251 246.677L506.388 246.499Z" fill="#659FEB"/>
<path opacity="0.46" d="M455.286 272.049L458.732 272.468L462.177 272.96L469.027 274.154L475.814 275.703L482.549 277.473C484.78 278.112 487.011 278.782 489.221 279.494L495.819 281.766L502.313 284.311L508.723 287.065C517.198 290.905 525.373 295.375 533.18 300.436L538.951 304.342L544.586 308.415L550.001 312.782C551.771 314.279 553.52 315.808 555.237 317.358L555.101 317.536C525.797 294.902 491.622 279.404 455.286 272.269V272.049Z" fill="#659FEB"/>
<path opacity="0.46" d="M482.916 300.688C485.131 299.834 487.553 299.677 489.86 300.237C490.994 300.464 492.108 300.783 493.19 301.19C494.238 301.599 495.285 302.101 496.333 302.593C497.38 303.086 498.291 303.714 499.223 304.332C500.156 304.949 501.056 305.609 501.894 306.342C503.647 307.76 505.226 309.38 506.597 311.169L506.482 311.358C502.805 308.991 499.15 306.552 495.296 304.552C493.391 303.503 491.4 302.617 489.347 301.902C487.305 301.162 485.138 300.824 482.968 300.908L482.916 300.688Z" fill="#659FEB"/>
<path opacity="0.46" d="M516.872 316.175C519.665 316.884 522.391 317.833 525.02 319.012C526.34 319.536 527.597 320.196 528.885 320.792C530.174 321.389 531.399 322.101 532.656 322.761C533.913 323.421 535.107 324.175 536.322 324.918C537.537 325.662 538.731 326.416 539.883 327.253C542.274 328.855 544.52 330.663 546.597 332.656L546.492 332.845L531.577 324.709L516.767 316.332L516.872 316.175Z" fill="#659FEB"/>
</g>
<path d="M201.421 119.797C197.954 167.378 272.737 193.933 272.737 193.933L289.495 198.405C304.337 207.598 311.889 208.813 311.889 208.813L302.148 202.939L317.199 207.651C317.607 207.766 316.623 206.687 316.256 206.488L304.735 200.321L320.173 204.185C320.247 204.211 320.328 204.207 320.399 204.174C320.469 204.14 320.524 204.08 320.55 204.007C320.577 203.933 320.573 203.852 320.539 203.781C320.506 203.711 320.446 203.656 320.372 203.63L305.897 196.3C305.897 196.3 320.76 199.714 319.513 198.394C318.267 197.075 303.646 191.316 303.646 191.316C303.646 191.316 308.443 184.227 308.013 183.598C307.311 182.551 302.19 185.588 296.942 186.415C293.633 186.939 268.757 176.352 268.757 176.352C249.716 167.808 225.06 146.425 227.909 115.776C227.909 115.776 226.736 105.619 214.429 104.582C202.123 103.546 201.421 119.797 201.421 119.797Z" fill="#FFA47A" stroke="#FFA47A" stroke-width="1.48" stroke-linecap="round" stroke-linejoin="round"/>
<path d="M243.557 157.294C233.952 146.624 231.156 134.886 227.94 115.797C227.94 115.797 226.767 105.64 214.461 104.603C202.154 103.567 201.421 119.797 201.421 119.797C200.258 135.797 200.981 145.368 211.695 156.446L243.557 157.294Z" fill="#FF7F4D" stroke="#FF7F4D" stroke-width="0.6" stroke-miterlimit="10"/>
<path d="M244.531 157.986L220.923 163.619C218.717 161.735 216.709 159.629 214.932 157.336L244.531 157.986Z" fill="#CF5540"/>
<path d="M373.852 317.075C364.279 343.829 345.834 360.709 319.335 358.855C298.063 357.368 278.351 347.682 259.257 338.175C252.722 334.918 246.018 331.536 241.106 326.133C233.869 318.175 231.554 307.044 229.501 296.489C227.448 285.934 225.427 275.441 223.395 264.918C221.834 256.897 220.18 248.604 215.466 241.881C210.753 235.159 202.133 230.562 194.341 233.043C186.548 235.525 182.589 247.054 188.727 252.447C201.672 244.666 200.803 225.672 196.414 211.232C189.051 187.039 176.546 164.721 159.756 145.808C148.235 132.886 133.456 121.106 116.185 120.331C93.8231 119.284 75.0121 136.823 62.1502 155.127C48.817 174.111 38.5107 195.965 37.0758 219.085C36.3322 230.719 38.6259 243.776 47.9372 250.845C57.2484 257.913 74.3732 253.138 74.7712 241.483" stroke="#FF7F4D" stroke-width="2.12" stroke-linecap="round" stroke-linejoin="round" stroke-dasharray="9.09 9.09"/>
<path d="M540.752 619.333C539.837 647.734 527.452 669.453 501.66 675.809C480.955 680.912 459.224 677.732 438.135 674.532C430.916 673.435 423.499 672.269 417.167 668.631C407.839 663.274 402.225 653.387 397.037 643.969C391.848 634.551 386.709 625.183 381.55 615.788C377.607 608.631 373.491 601.244 366.944 596.289C360.398 591.334 350.784 589.6 344.127 594.35C337.469 599.1 337.233 611.287 344.728 614.54C354.667 603.167 348.019 585.353 339.417 572.952C324.995 552.179 306.253 534.767 284.475 521.908C269.548 513.138 251.871 506.453 235.193 511.008C213.586 516.863 201.054 539.323 194.42 560.687C187.545 582.844 184.431 606.804 190.15 629.252C193.007 640.554 199.191 652.281 210.22 656.156C221.25 660.031 236.087 650.238 232.895 639.022" stroke="#FF7F4D" stroke-width="2.12" stroke-linecap="round" stroke-linejoin="round" stroke-dasharray="9.09 9.09"/>
<g style="mix-blend-mode:lighten">
<path d="M599.113 223.18C605.397 225.776 612.729 224.394 618.563 220.855C624.396 217.316 628.712 211.871 632.357 206.195C637.478 198.185 641.521 188.645 639.51 179.347C638.463 174.478 635.813 170.101 632.922 166.038C629.44 160.861 625.072 156.338 620.018 152.677C614.896 149.184 608.955 147.079 602.776 146.566C596.597 146.054 590.39 147.152 584.762 149.753C579.134 152.354 574.277 156.37 570.664 161.408C567.052 166.446 564.808 172.335 564.151 178.499" stroke="#F8F1EE" stroke-width="2.12" stroke-linecap="round" stroke-linejoin="round" stroke-dasharray="7.33 7.33"/>
</g>
<path d="M684.433 288.248C684.27 289.109 683.856 289.902 683.242 290.528C682.629 291.154 681.844 291.583 680.986 291.763C680.128 291.942 679.236 291.863 678.423 291.535C677.61 291.208 676.913 290.647 676.419 289.923C675.925 289.199 675.657 288.345 675.649 287.469C675.64 286.593 675.892 285.734 676.372 285.001C676.852 284.268 677.539 283.694 678.345 283.351C679.152 283.008 680.042 282.912 680.903 283.075C681.475 283.182 682.02 283.401 682.508 283.719C682.995 284.037 683.414 284.448 683.742 284.928C684.07 285.409 684.3 285.95 684.419 286.519C684.537 287.089 684.542 287.676 684.433 288.248Z" fill="#659FEB"/>
<path d="M634.273 277.169C637.536 277.169 640.18 274.525 640.18 271.264C640.18 268.002 637.536 265.358 634.273 265.358C631.011 265.358 628.366 268.002 628.366 271.264C628.366 274.525 631.011 277.169 634.273 277.169Z" stroke="#659FEB" stroke-width="1.06" stroke-miterlimit="10"/>
<path d="M437.009 81.7864C436.806 82.8628 436.288 83.8548 435.521 84.637C434.754 85.4192 433.772 85.9564 432.699 86.1808C431.627 86.4052 430.512 86.3066 429.495 85.8975C428.479 85.4885 427.607 84.7873 426.989 83.8827C426.371 82.978 426.035 81.9105 426.024 80.8152C426.013 79.7198 426.327 78.6457 426.926 77.7287C427.526 76.8117 428.384 76.093 429.391 75.6634C430.399 75.2338 431.512 75.1126 432.589 75.3152C433.304 75.4498 433.986 75.7239 434.595 76.122C435.205 76.5201 435.73 77.0343 436.14 77.6353C436.551 78.2362 436.839 78.9121 436.988 79.6244C437.137 80.3367 437.144 81.0714 437.009 81.7864Z" fill="#FF7F4D"/>
<path d="M401.209 358.772C400.992 359.919 400.44 360.977 399.622 361.81C398.804 362.644 397.758 363.217 396.614 363.456C395.471 363.695 394.282 363.59 393.199 363.154C392.115 362.718 391.185 361.97 390.526 361.006C389.868 360.041 389.51 358.903 389.498 357.735C389.486 356.568 389.821 355.423 390.46 354.445C391.098 353.467 392.013 352.701 393.087 352.243C394.162 351.785 395.348 351.655 396.496 351.871C398.034 352.166 399.393 353.057 400.276 354.35C401.159 355.643 401.495 357.232 401.209 358.772V358.772Z" stroke="#FF7F4D" stroke-width="1.06" stroke-miterlimit="10"/>
<path d="M251.748 222.677C251.491 224.041 250.836 225.298 249.865 226.29C248.894 227.282 247.65 227.963 246.291 228.248C244.933 228.533 243.52 228.409 242.232 227.891C240.944 227.373 239.838 226.485 239.056 225.338C238.273 224.192 237.847 222.839 237.834 221.452C237.82 220.064 238.218 218.703 238.978 217.541C239.738 216.38 240.826 215.47 242.103 214.926C243.381 214.383 244.79 214.23 246.155 214.488C247.982 214.834 249.597 215.89 250.646 217.426C251.695 218.961 252.091 220.85 251.748 222.677Z" fill="#659FEB" stroke="#659FEB" stroke-width="1.06" stroke-linecap="round" stroke-linejoin="round" stroke-dasharray="9.09 9.09"/>
<path d="M122.375 311.651C124.926 311.651 126.994 309.584 126.994 307.033C126.994 304.483 124.926 302.415 122.375 302.415C119.824 302.415 117.756 304.483 117.756 307.033C117.756 309.584 119.824 311.651 122.375 311.651Z" fill="#FF7F4D"/>
<path d="M18.7046 270.876C21.7068 270.876 24.1405 268.443 24.1405 265.441C24.1405 262.44 21.7068 260.007 18.7046 260.007C15.7024 260.007 13.2687 262.44 13.2687 265.441C13.2687 268.443 15.7024 270.876 18.7046 270.876Z" stroke="#659FEB" stroke-width="0.95" stroke-miterlimit="10"/>
<path d="M607.541 4.40483C607.797 5.32553 607.774 6.30136 607.474 7.20878C607.175 8.1162 606.613 8.91442 605.859 9.50238C605.106 10.0903 604.195 10.4416 603.242 10.5117C602.288 10.5818 601.336 10.3676 600.504 9.89614C599.673 9.42472 599 8.7173 598.571 7.86344C598.142 7.00958 597.976 6.04768 598.094 5.09949C598.213 4.1513 598.609 3.25947 599.235 2.53689C599.86 1.81432 600.686 1.29349 601.608 1.04034C602.841 0.701657 604.158 0.865651 605.27 1.49636C606.383 2.12707 607.199 3.17301 607.541 4.40483Z" fill="#3E3E3E"/>
</svg>
